<svg width="967" height="454" viewBox="0 0 967 454" fill="none" xmlns="http://www.w3.org/2000/svg">
<path d="M180.477 314.072C180.069 314.443 180.038 315.076 180.41 315.484L186.463 322.145C186.834 322.553 187.467 322.584 187.876 322.212C188.284 321.841 188.314 321.208 187.943 320.8L182.562 314.879L188.483 309.499C188.891 309.127 188.922 308.495 188.55 308.086C188.179 307.677 187.546 307.647 187.138 308.019L180.477 314.072ZM231.692 362.914L232.614 362.528L231.692 362.914ZM181.15 314.812C181.102 315.811 181.102 315.811 181.101 315.811C181.101 315.811 181.101 315.811 181.101 315.811C181.101 315.811 181.101 315.811 181.102 315.811C181.104 315.811 181.108 315.811 181.113 315.811C181.124 315.812 181.143 315.813 181.168 315.815C181.22 315.819 181.3 315.825 181.408 315.835C181.623 315.856 181.949 315.893 182.374 315.956C183.225 316.082 184.475 316.314 186.042 316.737C189.175 317.583 193.575 319.19 198.583 322.235C208.588 328.317 221.088 340.173 230.769 363.301L232.614 362.528C222.78 339.035 210.01 326.84 199.622 320.526C194.435 317.373 189.858 315.696 186.563 314.806C184.916 314.362 183.59 314.114 182.668 313.977C182.207 313.909 181.847 313.868 181.598 313.844C181.474 313.833 181.378 313.825 181.311 313.82C181.277 313.818 181.251 313.816 181.232 313.815C181.222 313.814 181.215 313.814 181.209 313.814C181.206 313.813 181.204 313.813 181.202 313.813C181.201 313.813 181.2 313.813 181.199 313.813C181.198 313.813 181.198 313.813 181.15 314.812ZM230.769 363.301C240.459 386.449 240.421 402.71 238.035 413.123C236.841 418.335 235.054 422.103 233.579 424.556C232.841 425.783 232.181 426.681 231.712 427.267C231.477 427.56 231.29 427.774 231.165 427.913C231.102 427.982 231.055 428.032 231.025 428.063C231.01 428.079 231 428.09 230.993 428.096C230.99 428.099 230.988 428.101 230.988 428.102C230.987 428.102 230.987 428.102 230.987 428.102C230.987 428.102 230.988 428.101 230.988 428.101C230.988 428.101 230.989 428.1 231.692 428.812C232.394 429.523 232.395 429.523 232.396 429.522C232.396 429.522 232.397 429.521 232.398 429.52C232.399 429.519 232.401 429.517 232.403 429.515C232.407 429.511 232.412 429.506 232.418 429.5C232.43 429.487 232.448 429.469 232.469 429.447C232.512 429.403 232.572 429.339 232.647 429.255C232.798 429.088 233.012 428.843 233.272 428.518C233.794 427.867 234.506 426.896 235.293 425.587C236.867 422.968 238.739 419.004 239.984 413.569C242.477 402.688 242.439 386 232.614 362.528L230.769 363.301Z" fill="#FF0000"/>
<path d="M869.787 306.818H872.415L878.594 321.911H878.807L884.986 306.818H887.614V325H885.554V311.186H885.377L879.695 325H877.706L872.024 311.186H871.847V325H869.787V306.818ZM895.757 325.32C894.893 325.32 894.109 325.157 893.404 324.831C892.7 324.5 892.141 324.023 891.727 323.402C891.312 322.775 891.105 322.017 891.105 321.129C891.105 320.348 891.259 319.715 891.567 319.229C891.874 318.738 892.286 318.353 892.801 318.075C893.316 317.797 893.884 317.59 894.505 317.454C895.133 317.312 895.763 317.199 896.396 317.116C897.225 317.01 897.897 316.93 898.412 316.877C898.932 316.818 899.311 316.72 899.548 316.584C899.791 316.448 899.912 316.211 899.912 315.874V315.803C899.912 314.927 899.672 314.246 899.193 313.761C898.719 313.275 898 313.033 897.035 313.033C896.035 313.033 895.251 313.252 894.683 313.69C894.115 314.128 893.715 314.595 893.484 315.092L891.496 314.382C891.851 313.554 892.324 312.908 892.916 312.447C893.514 311.979 894.165 311.654 894.869 311.47C895.58 311.281 896.278 311.186 896.964 311.186C897.402 311.186 897.905 311.239 898.474 311.346C899.048 311.446 899.601 311.657 900.134 311.976C900.672 312.296 901.119 312.778 901.474 313.423C901.83 314.068 902.007 314.933 902.007 316.016V325H899.912V323.153H899.805C899.663 323.449 899.427 323.766 899.095 324.103C898.764 324.441 898.323 324.728 897.772 324.964C897.222 325.201 896.55 325.32 895.757 325.32ZM896.077 323.438C896.905 323.438 897.604 323.275 898.172 322.949C898.746 322.624 899.178 322.203 899.468 321.689C899.764 321.174 899.912 320.632 899.912 320.064V318.146C899.823 318.253 899.628 318.35 899.326 318.439C899.03 318.522 898.687 318.596 898.296 318.661C897.911 318.72 897.536 318.774 897.169 318.821C896.808 318.862 896.515 318.898 896.29 318.928C895.745 318.999 895.236 319.114 894.763 319.274C894.295 319.428 893.916 319.661 893.626 319.975C893.342 320.283 893.2 320.703 893.2 321.236C893.2 321.964 893.47 322.514 894.008 322.887C894.553 323.254 895.242 323.438 896.077 323.438ZM907.394 311.364L910.661 316.939L913.928 311.364H916.343L911.939 318.182L916.343 325H913.928L910.661 319.709L907.394 325H904.979L909.311 318.182L904.979 311.364H907.394Z" fill="black"/>
<path d="M869.787 15.8182H872.415L878.594 30.9105H878.807L884.986 15.8182H887.614V34H885.554V20.1861H885.377L879.695 34H877.706L872.024 20.1861H871.847V34H869.787V15.8182ZM895.757 34.3196C894.893 34.3196 894.109 34.1568 893.404 33.8313C892.7 33.4999 892.141 33.0234 891.727 32.402C891.312 31.7746 891.105 31.017 891.105 30.1293C891.105 29.348 891.259 28.7147 891.567 28.2294C891.874 27.7382 892.286 27.3535 892.801 27.0753C893.316 26.7971 893.884 26.59 894.505 26.4538C895.133 26.3118 895.763 26.1993 896.396 26.1165C897.225 26.0099 897.897 25.93 898.412 25.8768C898.932 25.8176 899.311 25.7199 899.548 25.5838C899.791 25.4477 899.912 25.2109 899.912 24.8736V24.8026C899.912 23.9266 899.672 23.246 899.193 22.7607C898.719 22.2753 898 22.0327 897.035 22.0327C896.035 22.0327 895.251 22.2517 894.683 22.6896C894.115 23.1276 893.715 23.5952 893.484 24.0923L891.496 23.3821C891.851 22.5535 892.324 21.9084 892.916 21.4467C893.514 20.9792 894.165 20.6536 894.869 20.4702C895.58 20.2808 896.278 20.1861 896.964 20.1861C897.402 20.1861 897.905 20.2393 898.474 20.3459C899.048 20.4465 899.601 20.6566 900.134 20.9762C900.672 21.2958 901.119 21.7782 901.474 22.4233C901.83 23.0684 902.007 23.9325 902.007 25.0156V34H899.912V32.1534H899.805C899.663 32.4493 899.427 32.766 899.095 33.1033C898.764 33.4407 898.323 33.7277 897.772 33.9645C897.222 34.2012 896.55 34.3196 895.757 34.3196ZM896.077 32.4375C896.905 32.4375 897.604 32.2747 898.172 31.9492C898.746 31.6237 899.178 31.2035 899.468 30.6886C899.764 30.1737 899.912 29.6321 899.912 29.0639V27.1463C899.823 27.2528 899.628 27.3505 899.326 27.4393C899.03 27.5221 898.687 27.5961 898.296 27.6612C897.911 27.7204 897.536 27.7737 897.169 27.821C896.808 27.8625 896.515 27.898 896.29 27.9276C895.745 27.9986 895.236 28.114 894.763 28.2738C894.295 28.4277 893.916 28.6615 893.626 28.9751C893.342 29.2829 893.2 29.7031 893.2 30.2358C893.2 30.9638 893.47 31.5142 894.008 31.8871C894.553 32.254 895.242 32.4375 896.077 32.4375ZM907.394 20.3636L910.661 25.9389L913.928 20.3636H916.343L911.939 27.1818L916.343 34H913.928L910.661 28.7088L907.394 34H904.979L909.311 27.1818L904.979 20.3636H907.394Z" fill="black"/>
<path d="M873.303 178.818H875.931L882.11 193.911H882.323L888.502 178.818H891.129V197H889.07V183.186H888.892L883.21 197H881.222L875.54 183.186H875.362V197H873.303V178.818ZM895.26 197V183.364H897.355V197H895.26ZM896.325 181.091C895.917 181.091 895.565 180.952 895.269 180.674C894.979 180.395 894.834 180.061 894.834 179.67C894.834 179.28 894.979 178.945 895.269 178.667C895.565 178.389 895.917 178.25 896.325 178.25C896.734 178.25 897.083 178.389 897.373 178.667C897.669 178.945 897.817 179.28 897.817 179.67C897.817 180.061 897.669 180.395 897.373 180.674C897.083 180.952 896.734 181.091 896.325 181.091ZM903.288 188.797V197H901.193V183.364H903.217V185.494H903.394C903.714 184.802 904.199 184.246 904.85 183.825C905.501 183.399 906.342 183.186 907.371 183.186C908.295 183.186 909.103 183.375 909.795 183.754C910.488 184.127 911.026 184.695 911.411 185.459C911.796 186.216 911.988 187.175 911.988 188.335V197H909.893V188.477C909.893 187.406 909.615 186.571 909.058 185.974C908.502 185.37 907.738 185.068 906.768 185.068C906.099 185.068 905.501 185.213 904.974 185.503C904.454 185.793 904.042 186.216 903.74 186.773C903.439 187.329 903.288 188.004 903.288 188.797Z" fill="black"/>
<path d="M873.303 419.818H875.931L882.11 434.911H882.323L888.502 419.818H891.129V438H889.07V424.186H888.892L883.21 438H881.222L875.54 424.186H875.362V438H873.303V419.818ZM895.26 438V424.364H897.355V438H895.26ZM896.325 422.091C895.917 422.091 895.565 421.952 895.269 421.674C894.979 421.395 894.834 421.061 894.834 420.67C894.834 420.28 894.979 419.945 895.269 419.667C895.565 419.389 895.917 419.25 896.325 419.25C896.734 419.25 897.083 419.389 897.373 419.667C897.669 419.945 897.817 420.28 897.817 420.67C897.817 421.061 897.669 421.395 897.373 421.674C897.083 421.952 896.734 422.091 896.325 422.091ZM903.288 429.797V438H901.193V424.364H903.217V426.494H903.394C903.714 425.802 904.199 425.246 904.85 424.825C905.501 424.399 906.342 424.186 907.371 424.186C908.295 424.186 909.103 424.375 909.795 424.754C910.488 425.127 911.026 425.695 911.411 426.459C911.796 427.216 911.988 428.175 911.988 429.335V438H909.893V429.477C909.893 428.406 909.615 427.571 909.058 426.974C908.502 426.37 907.738 426.068 906.768 426.068C906.099 426.068 905.501 426.213 904.974 426.503C904.454 426.793 904.042 427.216 903.74 427.773C903.439 428.329 903.288 429.004 903.288 429.797Z" fill="black"/>
<line x1="13" y1="105.5" x2="967" y2="105.5" stroke="black" stroke-opacity="0.2" stroke-width="3"/>
<line x1="13" y1="250.5" x2="967" y2="250.5" stroke="black" stroke-opacity="0.19" stroke-width="3"/>
<line x1="13" y1="371.5" x2="967" y2="371.5" stroke="black" stroke-opacity="0.19" stroke-width="3"/>
<path d="M281 188C281 201.255 270.255 212 257 212C243.745 212 233 201.255 233 188C233 174.745 243.745 164 257 164C270.255 164 281 174.745 281 188Z" fill="#D9D9D9" stroke="black" stroke-width="2"/>
<path d="M681 188C681 201.255 670.255 212 657 212C643.745 212 633 201.255 633 188C633 174.745 643.745 164 657 164C670.255 164 681 174.745 681 188Z" fill="#D9D9D9" stroke="black" stroke-width="2"/>
<path d="M481 25C481 38.2548 470.255 49 457 49C443.745 49 433 38.2548 433 25C433 11.7452 443.745 1 457 1C470.255 1 481 11.7452 481 25Z" fill="#D9D9D9" stroke="black" stroke-width="2"/>
<path d="M581 316C581 329.255 570.255 340 557 340C543.745 340 533 329.255 533 316C533 302.745 543.745 292 557 292C570.255 292 581 302.745 581 316Z" fill="#D9D9D9" stroke="black" stroke-width="2"/>
<path d="M381 316C381 329.255 370.255 340 357 340C343.745 340 333 329.255 333 316C333 302.745 343.745 292 357 292C370.255 292 381 302.745 381 316Z" fill="#D9D9D9" stroke="black" stroke-width="2"/>
<path d="M631 429C631 442.255 620.255 453 607 453C593.745 453 583 442.255 583 429C583 415.745 593.745 405 607 405C620.255 405 631 415.745 631 429Z" fill="#D9D9D9" stroke="black" stroke-width="2"/>
<path d="M607.011 436.699C606.178 436.699 605.428 436.533 604.76 436.202C604.092 435.87 603.557 435.416 603.155 434.838C602.752 434.26 602.532 433.602 602.494 432.864H604.199C604.265 433.522 604.564 434.066 605.094 434.497C605.629 434.923 606.268 435.136 607.011 435.136C607.608 435.136 608.138 434.997 608.602 434.717C609.071 434.438 609.438 434.054 609.703 433.567C609.973 433.074 610.108 432.518 610.108 431.898C610.108 431.263 609.968 430.697 609.689 430.2C609.414 429.698 609.036 429.303 608.553 429.014C608.07 428.725 607.518 428.579 606.898 428.574C606.453 428.569 605.996 428.638 605.527 428.78C605.058 428.917 604.672 429.095 604.369 429.312L602.722 429.114L603.602 421.955H611.159V423.517H605.08L604.568 427.807H604.654C604.952 427.57 605.326 427.374 605.776 427.217C606.225 427.061 606.694 426.983 607.182 426.983C608.072 426.983 608.865 427.196 609.561 427.622C610.262 428.044 610.811 428.621 611.209 429.355C611.611 430.089 611.813 430.927 611.813 431.869C611.813 432.797 611.604 433.626 611.188 434.355C610.776 435.08 610.207 435.652 609.483 436.074C608.759 436.491 607.935 436.699 607.011 436.699Z" fill="black"/>
<path d="M531 429C531 442.255 520.255 453 507 453C493.745 453 483 442.255 483 429C483 415.745 493.745 405 507 405C520.255 405 531 415.745 531 429Z" fill="#D9D9D9" stroke="black" stroke-width="2"/>
<path d="M506.94 421.756C507.537 421.76 508.134 421.874 508.73 422.097C509.327 422.319 509.871 422.688 510.364 423.205C510.856 423.716 511.252 424.414 511.55 425.3C511.848 426.185 511.997 427.295 511.997 428.631C511.997 429.923 511.874 431.071 511.628 432.075C511.386 433.074 511.036 433.917 510.577 434.604C510.122 435.29 509.568 435.811 508.915 436.166C508.266 436.521 507.532 436.699 506.713 436.699C505.899 436.699 505.172 436.538 504.533 436.216C503.898 435.889 503.377 435.437 502.97 434.859C502.568 434.277 502.31 433.602 502.196 432.835H503.929C504.085 433.503 504.395 434.054 504.859 434.49C505.328 434.921 505.946 435.136 506.713 435.136C507.835 435.136 508.721 434.646 509.369 433.666C510.023 432.686 510.35 431.301 510.35 429.511H510.236C509.971 429.909 509.656 430.252 509.291 430.541C508.927 430.83 508.522 431.053 508.077 431.209C507.632 431.365 507.158 431.443 506.656 431.443C505.823 431.443 505.058 431.237 504.362 430.825C503.671 430.409 503.117 429.838 502.7 429.114C502.288 428.384 502.082 427.551 502.082 426.614C502.082 425.723 502.281 424.909 502.679 424.17C503.082 423.427 503.645 422.835 504.369 422.395C505.099 421.955 505.956 421.741 506.94 421.756ZM506.94 423.318C506.344 423.318 505.806 423.467 505.328 423.766C504.855 424.059 504.478 424.457 504.199 424.959C503.924 425.456 503.787 426.008 503.787 426.614C503.787 427.22 503.92 427.771 504.185 428.268C504.455 428.761 504.822 429.154 505.286 429.447C505.754 429.736 506.287 429.881 506.884 429.881C507.333 429.881 507.752 429.793 508.141 429.618C508.529 429.438 508.868 429.194 509.156 428.886C509.45 428.574 509.68 428.221 509.845 427.828C510.011 427.43 510.094 427.016 510.094 426.585C510.094 426.017 509.957 425.484 509.682 424.987C509.412 424.49 509.038 424.088 508.56 423.78C508.086 423.472 507.547 423.318 506.94 423.318Z" fill="black"/>
<path d="M331 429C331 442.255 320.255 453 307 453C293.745 453 283 442.255 283 429C283 415.745 293.745 405 307 405C320.255 405 331 415.745 331 429Z" fill="#D9D9D9" stroke="black" stroke-width="2"/>
<path d="M302.96 421.955V436.5H301.199V423.801H301.114L297.563 426.159V424.369L301.199 421.955H302.96ZM307.144 436.5V435.222L311.945 429.966C312.508 429.35 312.972 428.815 313.337 428.361C313.701 427.902 313.971 427.471 314.147 427.068C314.326 426.661 314.416 426.235 314.416 425.79C314.416 425.278 314.293 424.836 314.047 424.462C313.806 424.088 313.474 423.799 313.053 423.595C312.631 423.392 312.158 423.29 311.632 423.29C311.074 423.29 310.586 423.406 310.169 423.638C309.757 423.865 309.438 424.185 309.21 424.597C308.988 425.009 308.877 425.491 308.877 426.045H307.201C307.201 425.193 307.397 424.445 307.79 423.801C308.183 423.157 308.718 422.655 309.395 422.295C310.077 421.936 310.842 421.756 311.689 421.756C312.541 421.756 313.297 421.936 313.955 422.295C314.613 422.655 315.129 423.141 315.503 423.751C315.877 424.362 316.064 425.042 316.064 425.79C316.064 426.325 315.967 426.848 315.773 427.359C315.584 427.866 315.252 428.432 314.779 429.057C314.31 429.677 313.659 430.435 312.826 431.33L309.558 434.824V434.938H316.32V436.5H307.144Z" fill="black"/>
<path d="M231 429C231 442.255 220.255 453 207 453C193.745 453 183 442.255 183 429C183 415.745 193.745 405 207 405C220.255 405 231 415.745 231 429Z" fill="#D9D9D9" stroke="black" stroke-width="2"/>
<path d="M202.765 421.955V436.5H201.004V423.801H200.919L197.367 426.159V424.369L201.004 421.955H202.765ZM211.693 436.699C210.623 436.699 209.711 436.408 208.958 435.825C208.205 435.238 207.63 434.388 207.232 433.276C206.835 432.158 206.636 430.809 206.636 429.227C206.636 427.655 206.835 426.313 207.232 425.2C207.635 424.083 208.213 423.231 208.965 422.643C209.723 422.052 210.632 421.756 211.693 421.756C212.753 421.756 213.66 422.052 214.413 422.643C215.17 423.231 215.748 424.083 216.146 425.2C216.548 426.313 216.75 427.655 216.75 429.227C216.75 430.809 216.551 432.158 216.153 433.276C215.755 434.388 215.18 435.238 214.427 435.825C213.674 436.408 212.763 436.699 211.693 436.699ZM211.693 435.136C212.753 435.136 213.577 434.625 214.164 433.602C214.751 432.58 215.045 431.121 215.045 429.227C215.045 427.968 214.91 426.895 214.64 426.01C214.375 425.125 213.991 424.45 213.49 423.986C212.992 423.522 212.393 423.29 211.693 423.29C210.642 423.29 209.82 423.808 209.228 424.845C208.636 425.877 208.34 427.338 208.34 429.227C208.34 430.487 208.473 431.557 208.738 432.438C209.003 433.318 209.384 433.988 209.882 434.447C210.384 434.907 210.987 435.136 211.693 435.136Z" fill="black"/>
<path d="M131 429C131 442.255 120.255 453 107 453C93.7452 453 83 442.255 83 429C83 415.745 93.7452 405 107 405C120.255 405 131 415.745 131 429Z" fill="#D9D9D9" stroke="black" stroke-width="2"/>
<path d="M103.292 436.5L109.797 423.631V423.517H102.297V421.955H111.615V423.602L105.138 436.5H103.292Z" fill="black"/>
<path d="M180 316C180 329.255 169.255 340 156 340C142.745 340 132 329.255 132 316C132 302.745 142.745 292 156 292C169.255 292 180 302.745 180 316Z" fill="#D9D9D9" stroke="black" stroke-width="2"/>
<path d="M151.765 308.955V323.5H150.004V310.801H149.919L146.367 313.159V311.369L150.004 308.955H151.765ZM160.693 323.699C159.623 323.699 158.711 323.408 157.958 322.825C157.205 322.238 156.63 321.388 156.232 320.276C155.835 319.158 155.636 317.809 155.636 316.227C155.636 314.655 155.835 313.313 156.232 312.2C156.635 311.083 157.213 310.231 157.965 309.643C158.723 309.052 159.632 308.756 160.693 308.756C161.753 308.756 162.66 309.052 163.413 309.643C164.17 310.231 164.748 311.083 165.146 312.2C165.548 313.313 165.75 314.655 165.75 316.227C165.75 317.809 165.551 319.158 165.153 320.276C164.755 321.388 164.18 322.238 163.427 322.825C162.674 323.408 161.763 323.699 160.693 323.699ZM160.693 322.136C161.753 322.136 162.577 321.625 163.164 320.602C163.751 319.58 164.045 318.121 164.045 316.227C164.045 314.968 163.91 313.895 163.64 313.01C163.375 312.125 162.991 311.45 162.49 310.986C161.992 310.522 161.393 310.29 160.693 310.29C159.642 310.29 158.82 310.808 158.228 311.845C157.636 312.877 157.34 314.338 157.34 316.227C157.34 317.487 157.473 318.557 157.738 319.438C158.003 320.318 158.384 320.988 158.882 321.447C159.384 321.907 159.987 322.136 160.693 322.136Z" fill="black"/>
<path d="M106.008 404.124C106.076 404.672 106.576 405.061 107.124 404.992L116.055 403.876C116.603 403.807 116.991 403.308 116.923 402.76C116.854 402.212 116.354 401.823 115.806 401.891L107.868 402.884L106.876 394.945C106.807 394.397 106.308 394.009 105.76 394.077C105.212 394.146 104.823 394.646 104.891 395.194L106.008 404.124ZM155.211 340.386L106.211 403.386L107.789 404.614L156.789 341.614L155.211 340.386Z" fill="black"/>
<path d="M206.886 404.993C207.434 405.057 207.93 404.663 207.993 404.114L209.022 395.173C209.085 394.625 208.692 394.129 208.143 394.066C207.594 394.002 207.098 394.396 207.035 394.945L206.121 402.892L198.173 401.978C197.625 401.915 197.129 402.308 197.066 402.857C197.002 403.406 197.396 403.902 197.945 403.965L206.886 404.993ZM156.217 341.622L206.217 404.622L207.783 403.378L157.783 340.378L156.217 341.622Z" fill="black"/>
<path d="M431 429C431 442.255 420.255 453 407 453C393.745 453 383 442.255 383 429C383 415.745 393.745 405 407 405C420.255 405 431 415.745 431 429Z" fill="#D9D9D9" stroke="black" stroke-width="2"/>
<path d="M403.292 436.5L409.797 423.631V423.517H402.297V421.955H411.616V423.602L405.138 436.5H403.292Z" fill="black"/>
<path d="M406.886 404.993C407.434 405.057 407.93 404.663 407.993 404.114L409.022 395.173C409.085 394.625 408.692 394.129 408.143 394.066C407.594 394.002 407.098 394.396 407.035 394.945L406.121 402.892L398.173 401.978C397.625 401.915 397.129 402.308 397.066 402.857C397.002 403.406 397.396 403.902 397.945 403.965L406.886 404.993ZM356.217 341.622L406.217 404.622L407.783 403.378L357.783 340.378L356.217 341.622Z" fill="black"/>
<path d="M607.886 404.993C608.434 405.057 608.93 404.663 608.993 404.114L610.022 395.173C610.085 394.625 609.692 394.129 609.143 394.066C608.594 394.002 608.098 394.396 608.035 394.945L607.121 402.892L599.173 401.978C598.625 401.915 598.129 402.308 598.066 402.857C598.002 403.406 598.396 403.902 598.945 403.965L607.886 404.993ZM557.217 341.622L607.217 404.622L608.783 403.378L558.783 340.378L557.217 341.622Z" fill="black"/>
<path d="M106.008 404.124C106.076 404.672 106.576 405.061 107.124 404.992L116.055 403.876C116.603 403.807 116.991 403.308 116.923 402.76C116.854 402.212 116.354 401.823 115.806 401.891L107.868 402.884L106.876 394.945C106.807 394.397 106.308 394.009 105.76 394.077C105.212 394.146 104.823 394.646 104.891 395.194L106.008 404.124ZM155.211 340.386L106.211 403.386L107.789 404.614L156.789 341.614L155.211 340.386Z" fill="black"/>
<path d="M155.008 290.873C154.938 291.42 155.325 291.921 155.873 291.992L164.799 293.139C165.347 293.209 165.848 292.822 165.918 292.274C165.989 291.727 165.602 291.226 165.054 291.155L157.119 290.136L158.139 282.201C158.209 281.653 157.822 281.152 157.274 281.082C156.727 281.011 156.226 281.398 156.155 281.946L155.008 290.873ZM256.389 212.209L155.389 290.209L156.611 291.791L257.611 213.791L256.389 212.209Z" fill="black"/>
<path d="M357.123 291.992C357.671 291.925 358.06 291.425 357.992 290.877L356.888 281.945C356.821 281.397 356.321 281.008 355.773 281.076C355.225 281.143 354.836 281.643 354.904 282.191L355.885 290.13L347.945 291.112C347.397 291.179 347.008 291.679 347.076 292.227C347.143 292.775 347.643 293.164 348.191 293.096L357.123 291.992ZM256.385 213.789L356.385 291.788L357.615 290.211L257.615 212.211L256.385 213.789Z" fill="black"/>
<path d="M256.037 162.732C255.889 163.264 256.2 163.816 256.732 163.963L265.403 166.374C265.936 166.522 266.487 166.21 266.635 165.678C266.783 165.146 266.471 164.595 265.939 164.447L258.231 162.304L260.374 154.597C260.522 154.064 260.21 153.513 259.678 153.365C259.146 153.217 258.595 153.529 258.447 154.061L256.037 162.732ZM456.508 49.1294L256.508 162.129L257.492 163.871L457.492 50.8706L456.508 49.1294Z" fill="black"/>
<path d="M657.268 163.963C657.8 163.816 658.111 163.264 657.963 162.732L655.553 154.061C655.405 153.529 654.854 153.217 654.322 153.365C653.79 153.513 653.478 154.064 653.626 154.597L655.769 162.304L648.061 164.447C647.529 164.595 647.217 165.146 647.365 165.678C647.513 166.21 648.064 166.522 648.597 166.374L657.268 163.963ZM456.508 50.8706L656.508 163.871L657.492 162.129L457.492 49.1294L456.508 50.8706Z" fill="black"/>
<path d="M556.008 290.873C555.938 291.42 556.325 291.921 556.873 291.992L565.799 293.139C566.347 293.209 566.848 292.822 566.918 292.274C566.989 291.727 566.602 291.226 566.054 291.155L558.119 290.136L559.139 282.201C559.209 281.653 558.822 281.152 558.274 281.082C557.727 281.011 557.226 281.398 557.155 281.946L556.008 290.873ZM657.389 212.209L556.389 290.209L557.611 291.791L658.611 213.791L657.389 212.209Z" fill="black"/>
<path d="M306.008 404.124C306.076 404.672 306.576 405.061 307.124 404.992L316.055 403.876C316.603 403.807 316.991 403.308 316.923 402.76C316.854 402.212 316.354 401.823 315.806 401.891L307.868 402.884L306.876 394.945C306.807 394.397 306.308 394.009 305.76 394.077C305.212 394.146 304.823 394.646 304.891 395.194L306.008 404.124ZM355.211 340.386L306.211 403.386L307.789 404.614L356.789 341.614L355.211 340.386Z" fill="black"/>
<path d="M781 316C781 329.255 770.255 340 757 340C743.745 340 733 329.255 733 316C733 302.745 743.745 292 757 292C770.255 292 781 302.745 781 316Z" fill="#D9D9D9" stroke="black" stroke-width="2"/>
<path d="M831 429C831 442.255 820.255 453 807 453C793.745 453 783 442.255 783 429C783 415.745 793.745 405 807 405C820.255 405 831 415.745 831 429Z" fill="#D9D9D9" stroke="black" stroke-width="2"/>
<path d="M802.775 421.955V436.5H801.014V423.801H800.928L797.377 426.159V424.369L801.014 421.955H802.775ZM811.589 421.756C812.185 421.76 812.782 421.874 813.379 422.097C813.975 422.319 814.52 422.688 815.012 423.205C815.505 423.716 815.9 424.414 816.198 425.3C816.497 426.185 816.646 427.295 816.646 428.631C816.646 429.923 816.523 431.071 816.276 432.075C816.035 433.074 815.685 433.917 815.225 434.604C814.771 435.29 814.217 435.811 813.563 436.166C812.915 436.521 812.181 436.699 811.362 436.699C810.547 436.699 809.82 436.538 809.181 436.216C808.547 435.889 808.026 435.437 807.619 434.859C807.216 434.277 806.958 433.602 806.845 432.835H808.578C808.734 433.503 809.044 434.054 809.508 434.49C809.977 434.921 810.595 435.136 811.362 435.136C812.484 435.136 813.369 434.646 814.018 433.666C814.671 432.686 814.998 431.301 814.998 429.511H814.884C814.619 429.909 814.304 430.252 813.94 430.541C813.575 430.83 813.17 431.053 812.725 431.209C812.28 431.365 811.807 431.443 811.305 431.443C810.471 431.443 809.707 431.237 809.011 430.825C808.319 430.409 807.765 429.838 807.349 429.114C806.937 428.384 806.731 427.551 806.731 426.614C806.731 425.723 806.93 424.909 807.328 424.17C807.73 423.427 808.293 422.835 809.018 422.395C809.747 421.955 810.604 421.741 811.589 421.756ZM811.589 423.318C810.992 423.318 810.455 423.467 809.977 423.766C809.503 424.059 809.127 424.457 808.847 424.959C808.573 425.456 808.435 426.008 808.435 426.614C808.435 427.22 808.568 427.771 808.833 428.268C809.103 428.761 809.47 429.154 809.934 429.447C810.403 429.736 810.935 429.881 811.532 429.881C811.982 429.881 812.401 429.793 812.789 429.618C813.177 429.438 813.516 429.194 813.805 428.886C814.098 428.574 814.328 428.221 814.494 427.828C814.659 427.43 814.742 427.016 814.742 426.585C814.742 426.017 814.605 425.484 814.33 424.987C814.06 424.49 813.686 424.088 813.208 423.78C812.735 423.472 812.195 423.318 811.589 423.318Z" fill="black"/>
<path d="M731 429C731 442.255 720.255 453 707 453C693.745 453 683 442.255 683 429C683 415.745 693.745 405 707 405C720.255 405 731 415.745 731 429Z" fill="#D9D9D9" stroke="black" stroke-width="2"/>
<path d="M707.098 436.699C706.16 436.699 705.324 436.538 704.59 436.216C703.861 435.894 703.281 435.446 702.85 434.874C702.424 434.296 702.192 433.626 702.154 432.864H703.944C703.982 433.332 704.143 433.737 704.427 434.078C704.711 434.414 705.083 434.675 705.542 434.859C706.001 435.044 706.51 435.136 707.069 435.136C707.694 435.136 708.248 435.027 708.731 434.81C709.214 434.592 709.593 434.289 709.867 433.901C710.142 433.512 710.279 433.062 710.279 432.551C710.279 432.016 710.147 431.545 709.882 431.138C709.617 430.726 709.228 430.404 708.717 430.172C708.206 429.94 707.581 429.824 706.842 429.824H705.677V428.261H706.842C707.42 428.261 707.926 428.157 708.362 427.949C708.802 427.741 709.145 427.447 709.392 427.068C709.643 426.689 709.768 426.244 709.768 425.733C709.768 425.241 709.659 424.812 709.441 424.447C709.224 424.083 708.916 423.799 708.518 423.595C708.125 423.392 707.661 423.29 707.126 423.29C706.624 423.29 706.151 423.382 705.706 423.567C705.265 423.747 704.905 424.009 704.626 424.355C704.347 424.696 704.195 425.108 704.171 425.591H702.467C702.495 424.829 702.725 424.161 703.156 423.588C703.587 423.01 704.15 422.561 704.846 422.239C705.547 421.917 706.316 421.756 707.154 421.756C708.054 421.756 708.826 421.938 709.47 422.303C710.114 422.662 710.608 423.138 710.954 423.73C711.3 424.322 711.473 424.961 711.473 425.648C711.473 426.467 711.257 427.165 710.826 427.743C710.4 428.321 709.82 428.721 709.086 428.943V429.057C710.005 429.208 710.722 429.599 711.238 430.229C711.754 430.854 712.012 431.628 712.012 432.551C712.012 433.342 711.797 434.052 711.366 434.682C710.94 435.307 710.358 435.799 709.619 436.159C708.88 436.519 708.04 436.699 707.098 436.699Z" fill="black"/>
<path d="M806.886 404.993C807.434 405.057 807.93 404.663 807.993 404.114L809.022 395.173C809.085 394.625 808.692 394.129 808.143 394.066C807.594 394.002 807.098 394.396 807.035 394.945L806.121 402.892L798.173 401.978C797.625 401.915 797.129 402.308 797.066 402.857C797.002 403.406 797.396 403.902 797.945 403.965L806.886 404.993ZM756.217 341.622L806.217 404.622L807.783 403.378L757.783 340.378L756.217 341.622Z" fill="black"/>
<path d="M757.123 291.992C757.671 291.925 758.06 291.425 757.992 290.877L756.888 281.945C756.821 281.397 756.321 281.008 755.773 281.076C755.225 281.143 754.836 281.643 754.904 282.191L755.885 290.13L747.945 291.112C747.397 291.179 747.008 291.679 747.076 292.227C747.143 292.775 747.643 293.164 748.191 293.096L757.123 291.992ZM656.385 213.789L756.385 291.788L757.615 290.211L657.615 212.211L656.385 213.789Z" fill="black"/>
<path d="M707.008 404.124C707.076 404.672 707.576 405.061 708.124 404.992L717.055 403.876C717.603 403.807 717.991 403.308 717.923 402.76C717.854 402.212 717.354 401.823 716.806 401.891L708.868 402.884L707.876 394.945C707.807 394.397 707.308 394.009 706.76 394.077C706.212 394.146 705.823 394.646 705.891 395.194L707.008 404.124ZM756.211 340.386L707.211 403.386L708.789 404.614L757.789 341.614L756.211 340.386Z" fill="black"/>
<path d="M506.008 404.124C506.076 404.672 506.576 405.061 507.124 404.992L516.055 403.876C516.603 403.807 516.991 403.308 516.923 402.76C516.854 402.212 516.354 401.823 515.806 401.891L507.868 402.884L506.876 394.945C506.807 394.397 506.308 394.009 505.76 394.077C505.212 394.146 504.823 394.646 504.891 395.194L506.008 404.124ZM555.211 340.386L506.211 403.386L507.789 404.614L556.789 341.614L555.211 340.386Z" fill="black"/>
<path d="M22.3224 312.256C21.6312 312.256 21.0038 312.125 20.4403 311.865C19.8769 311.6 19.4295 311.219 19.098 310.722C18.7666 310.22 18.6009 309.614 18.6009 308.903C18.6009 308.278 18.724 307.772 18.9702 307.384C19.2164 306.991 19.5455 306.683 19.9574 306.46C20.3693 306.238 20.8239 306.072 21.321 305.963C21.8229 305.849 22.3272 305.759 22.8338 305.693C23.4967 305.608 24.0341 305.544 24.446 305.501C24.8627 305.454 25.1657 305.376 25.3551 305.267C25.5492 305.158 25.6463 304.969 25.6463 304.699V304.642C25.6463 303.941 25.4545 303.397 25.071 303.009C24.6922 302.62 24.117 302.426 23.3452 302.426C22.545 302.426 21.9176 302.601 21.4631 302.952C21.0085 303.302 20.6889 303.676 20.5043 304.074L18.9134 303.506C19.1974 302.843 19.5762 302.327 20.0497 301.957C20.5279 301.583 21.0488 301.323 21.6122 301.176C22.1804 301.025 22.7391 300.949 23.2884 300.949C23.6387 300.949 24.0412 300.991 24.4957 301.077C24.955 301.157 25.3977 301.325 25.8239 301.581C26.2547 301.837 26.6122 302.223 26.8963 302.739C27.1804 303.255 27.3224 303.946 27.3224 304.812V312H25.6463V310.523H25.5611C25.4474 310.759 25.258 311.013 24.9929 311.283C24.7277 311.553 24.375 311.782 23.9347 311.972C23.4943 312.161 22.9569 312.256 22.3224 312.256ZM22.5781 310.75C23.241 310.75 23.7997 310.62 24.2543 310.359C24.7135 310.099 25.0592 309.763 25.2912 309.351C25.5279 308.939 25.6463 308.506 25.6463 308.051V306.517C25.5753 306.602 25.419 306.68 25.1776 306.751C24.9408 306.818 24.6662 306.877 24.3537 306.929C24.0459 306.976 23.7453 307.019 23.4517 307.057C23.1629 307.09 22.9285 307.118 22.7486 307.142C22.313 307.199 21.9058 307.291 21.527 307.419C21.1529 307.542 20.8499 307.729 20.6179 307.98C20.3906 308.226 20.277 308.562 20.277 308.989C20.277 309.571 20.4924 310.011 20.9233 310.31C21.3589 310.603 21.9105 310.75 22.5781 310.75ZM32.0579 297.455V312H30.3817V297.455H32.0579ZM35.1278 316.091V301.091H36.7472V302.824H36.946C37.0691 302.634 37.2396 302.393 37.4574 302.099C37.6799 301.801 37.9972 301.536 38.4091 301.304C38.8258 301.067 39.3892 300.949 40.0994 300.949C41.018 300.949 41.8277 301.179 42.5284 301.638C43.2292 302.097 43.776 302.748 44.169 303.591C44.562 304.434 44.7585 305.428 44.7585 306.574C44.7585 307.729 44.562 308.731 44.169 309.578C43.776 310.421 43.2315 311.074 42.5355 311.538C41.8395 311.998 41.0369 312.227 40.1278 312.227C39.4271 312.227 38.866 312.111 38.4446 311.879C38.0232 311.643 37.6989 311.375 37.4716 311.077C37.2443 310.774 37.0691 310.523 36.946 310.324H36.804V316.091H35.1278ZM36.7756 306.545C36.7756 307.369 36.8963 308.096 37.1378 308.726C37.3793 309.351 37.732 309.841 38.196 310.196C38.66 310.546 39.2282 310.722 39.9006 310.722C40.6013 310.722 41.1861 310.537 41.6548 310.168C42.1283 309.794 42.4834 309.292 42.7202 308.662C42.9616 308.027 43.0824 307.322 43.0824 306.545C43.0824 305.778 42.964 305.087 42.7273 304.472C42.4953 303.851 42.1425 303.361 41.669 303.001C41.2003 302.637 40.6108 302.455 39.9006 302.455C39.2188 302.455 38.6458 302.627 38.1818 302.973C37.7178 303.314 37.3674 303.792 37.1307 304.408C36.8939 305.018 36.7756 305.731 36.7756 306.545ZM48.9915 305.438V312H47.3153V297.455H48.9915V302.795H49.1335C49.3892 302.232 49.7727 301.785 50.2841 301.453C50.8002 301.117 51.4867 300.949 52.3438 300.949C53.0871 300.949 53.7382 301.098 54.2969 301.396C54.8556 301.69 55.2888 302.142 55.5966 302.753C55.9091 303.359 56.0653 304.131 56.0653 305.068V312H54.3892V305.182C54.3892 304.315 54.1643 303.645 53.7145 303.172C53.2694 302.694 52.6515 302.455 51.8608 302.455C51.3116 302.455 50.8191 302.571 50.3835 302.803C49.9527 303.035 49.6117 303.373 49.3608 303.818C49.1146 304.263 48.9915 304.803 48.9915 305.438ZM62.342 312.256C61.6507 312.256 61.0233 312.125 60.4599 311.865C59.8964 311.6 59.449 311.219 59.1175 310.722C58.7861 310.22 58.6204 309.614 58.6204 308.903C58.6204 308.278 58.7435 307.772 58.9897 307.384C59.2359 306.991 59.565 306.683 59.9769 306.46C60.3888 306.238 60.8434 306.072 61.3406 305.963C61.8424 305.849 62.3467 305.759 62.8533 305.693C63.5162 305.608 64.0536 305.544 64.4656 305.501C64.8822 305.454 65.1853 305.376 65.3746 305.267C65.5688 305.158 65.6658 304.969 65.6658 304.699V304.642C65.6658 303.941 65.4741 303.397 65.0906 303.009C64.7118 302.62 64.1365 302.426 63.3647 302.426C62.5645 302.426 61.9371 302.601 61.4826 302.952C61.0281 303.302 60.7085 303.676 60.5238 304.074L58.9329 303.506C59.217 302.843 59.5958 302.327 60.0692 301.957C60.5475 301.583 61.0683 301.323 61.6317 301.176C62.1999 301.025 62.7586 300.949 63.3079 300.949C63.6583 300.949 64.0607 300.991 64.5153 301.077C64.9746 301.157 65.4173 301.325 65.8434 301.581C66.2743 301.837 66.6317 302.223 66.9158 302.739C67.1999 303.255 67.342 303.946 67.342 304.812V312H65.6658V310.523H65.5806C65.467 310.759 65.2776 311.013 65.0124 311.283C64.7473 311.553 64.3945 311.782 63.9542 311.972C63.5138 312.161 62.9764 312.256 62.342 312.256ZM62.5977 310.75C63.2605 310.75 63.8192 310.62 64.2738 310.359C64.7331 310.099 65.0787 309.763 65.3107 309.351C65.5475 308.939 65.6658 308.506 65.6658 308.051V306.517C65.5948 306.602 65.4386 306.68 65.1971 306.751C64.9603 306.818 64.6857 306.877 64.3732 306.929C64.0655 306.976 63.7648 307.019 63.4712 307.057C63.1824 307.09 62.948 307.118 62.7681 307.142C62.3325 307.199 61.9253 307.291 61.5465 307.419C61.1725 307.542 60.8694 307.729 60.6374 307.98C60.4102 308.226 60.2965 308.562 60.2965 308.989C60.2965 309.571 60.512 310.011 60.9428 310.31C61.3784 310.603 61.93 310.75 62.5977 310.75ZM77.2479 310.139C76.8975 310.139 76.5968 310.014 76.3459 309.763C76.0949 309.512 75.9695 309.211 75.9695 308.861C75.9695 308.51 76.0949 308.21 76.3459 307.959C76.5968 307.708 76.8975 307.582 77.2479 307.582C77.5982 307.582 77.8989 307.708 78.1499 307.959C78.4008 308.21 78.5263 308.51 78.5263 308.861C78.5263 309.093 78.4671 309.306 78.3487 309.5C78.2351 309.694 78.0812 309.85 77.8871 309.969C77.6977 310.082 77.4846 310.139 77.2479 310.139ZM77.2479 302.781C76.8975 302.781 76.5968 302.656 76.3459 302.405C76.0949 302.154 75.9695 301.853 75.9695 301.503C75.9695 301.152 76.0949 300.852 76.3459 300.601C76.5968 300.35 76.8975 300.224 77.2479 300.224C77.5982 300.224 77.8989 300.35 78.1499 300.601C78.4008 300.852 78.5263 301.152 78.5263 301.503C78.5263 301.735 78.4671 301.948 78.3487 302.142C78.2351 302.336 78.0812 302.492 77.8871 302.611C77.6977 302.724 77.4846 302.781 77.2479 302.781ZM92.2443 297.455V312H90.483V299.301H90.3977L86.8466 301.659V299.869L90.483 297.455H92.2443ZM101.172 312.199C100.102 312.199 99.1903 311.908 98.4375 311.325C97.6847 310.738 97.1094 309.888 96.7116 308.776C96.3139 307.658 96.1151 306.309 96.1151 304.727C96.1151 303.155 96.3139 301.813 96.7116 300.7C97.1141 299.583 97.6918 298.731 98.4446 298.143C99.2022 297.552 100.111 297.256 101.172 297.256C102.232 297.256 103.139 297.552 103.892 298.143C104.65 298.731 105.227 299.583 105.625 300.7C106.027 301.813 106.229 303.155 106.229 304.727C106.229 306.309 106.03 307.658 105.632 308.776C105.234 309.888 104.659 310.738 103.906 311.325C103.153 311.908 102.242 312.199 101.172 312.199ZM101.172 310.636C102.232 310.636 103.056 310.125 103.643 309.102C104.231 308.08 104.524 306.621 104.524 304.727C104.524 303.468 104.389 302.395 104.119 301.51C103.854 300.625 103.471 299.95 102.969 299.486C102.472 299.022 101.873 298.79 101.172 298.79C100.121 298.79 99.2992 299.308 98.7074 300.345C98.1155 301.377 97.8196 302.838 97.8196 304.727C97.8196 305.987 97.9522 307.057 98.2173 307.938C98.4825 308.818 98.8636 309.488 99.3608 309.947C99.8627 310.407 100.466 310.636 101.172 310.636ZM18.6852 336V321.455H20.3613V326.824H20.5034C20.6265 326.634 20.7969 326.393 21.0147 326.099C21.2373 325.801 21.5545 325.536 21.9664 325.304C22.3831 325.067 22.9466 324.949 23.6568 324.949C24.5753 324.949 25.385 325.179 26.0858 325.638C26.7865 326.097 27.3334 326.748 27.7264 327.591C28.1194 328.434 28.3159 329.428 28.3159 330.574C28.3159 331.729 28.1194 332.731 27.7264 333.578C27.3334 334.421 26.7889 335.074 26.0929 335.538C25.3968 335.998 24.5943 336.227 23.6852 336.227C22.9844 336.227 22.4234 336.111 22.002 335.879C21.5806 335.643 21.2562 335.375 21.0289 335.077C20.8017 334.774 20.6265 334.523 20.5034 334.324H20.3045V336H18.6852ZM20.3329 330.545C20.3329 331.369 20.4537 332.096 20.6951 332.726C20.9366 333.351 21.2894 333.841 21.7534 334.196C22.2174 334.546 22.7856 334.722 23.4579 334.722C24.1587 334.722 24.7434 334.537 25.2122 334.168C25.6857 333.794 26.0408 333.292 26.2775 332.662C26.519 332.027 26.6397 331.322 26.6397 330.545C26.6397 329.778 26.5214 329.087 26.2846 328.472C26.0526 327.851 25.6999 327.361 25.2264 327.001C24.7576 326.637 24.1681 326.455 23.4579 326.455C22.7761 326.455 22.2032 326.627 21.7392 326.973C21.2752 327.314 20.9248 327.792 20.688 328.408C20.4513 329.018 20.3329 329.731 20.3329 330.545ZM35.4537 336.227C34.4025 336.227 33.4958 335.995 32.7335 335.531C31.9759 335.062 31.3912 334.409 30.9792 333.571C30.572 332.728 30.3684 331.748 30.3684 330.631C30.3684 329.513 30.572 328.528 30.9792 327.676C31.3912 326.819 31.9641 326.152 32.698 325.673C33.4366 325.19 34.2984 324.949 35.2832 324.949C35.8514 324.949 36.4125 325.044 36.9664 325.233C37.5204 325.422 38.0247 325.73 38.4792 326.156C38.9338 326.578 39.296 327.136 39.5659 327.832C39.8358 328.528 39.9707 329.385 39.9707 330.403V331.114H31.5616V329.665H38.2662C38.2662 329.049 38.1431 328.5 37.8968 328.017C37.6554 327.534 37.3097 327.153 36.8599 326.874C36.4148 326.594 35.8893 326.455 35.2832 326.455C34.6156 326.455 34.0379 326.62 33.5502 326.952C33.0673 327.278 32.6956 327.705 32.4352 328.23C32.1748 328.756 32.0446 329.319 32.0446 329.92V330.886C32.0446 331.71 32.1866 332.409 32.4707 332.982C32.7595 333.55 33.1596 333.983 33.671 334.281C34.1824 334.575 34.7766 334.722 35.4537 334.722C35.894 334.722 36.2917 334.66 36.6468 334.537C37.0067 334.409 37.3168 334.22 37.5772 333.969C37.8377 333.713 38.0389 333.396 38.1809 333.017L39.8002 333.472C39.6298 334.021 39.3433 334.504 38.9409 334.92C38.5384 335.332 38.0413 335.654 37.4494 335.886C36.8575 336.114 36.1923 336.227 35.4537 336.227ZM36.6752 323.784L35.198 321.795L33.7207 323.784H32.1298V323.67L34.4309 320.716H35.965L38.2662 323.67V323.784H36.6752ZM47.2647 325.091V326.511H41.6113V325.091H47.2647ZM43.2591 322.477H44.9352V332.875C44.9352 333.348 45.0038 333.704 45.1412 333.94C45.2832 334.172 45.4631 334.329 45.6809 334.409C45.9035 334.485 46.1378 334.523 46.3841 334.523C46.5687 334.523 46.7202 334.513 46.8386 334.494C46.957 334.471 47.0517 334.452 47.1227 334.438L47.4636 335.943C47.35 335.986 47.1913 336.028 46.9877 336.071C46.7842 336.118 46.5261 336.142 46.2136 336.142C45.7401 336.142 45.2761 336.04 44.8216 335.837C44.3717 335.633 43.9977 335.323 43.6994 334.906C43.4058 334.49 43.2591 333.964 43.2591 333.33V322.477ZM52.9963 336.256C52.305 336.256 51.6776 336.125 51.1142 335.865C50.5507 335.6 50.1033 335.219 49.7718 334.722C49.4404 334.22 49.2747 333.614 49.2747 332.903C49.2747 332.278 49.3978 331.772 49.644 331.384C49.8902 330.991 50.2193 330.683 50.6312 330.46C51.0431 330.238 51.4977 330.072 51.9949 329.963C52.4967 329.849 53.001 329.759 53.5076 329.693C54.1705 329.608 54.7079 329.544 55.1199 329.501C55.5365 329.454 55.8395 329.376 56.0289 329.267C56.2231 329.158 56.3201 328.969 56.3201 328.699V328.642C56.3201 327.941 56.1284 327.397 55.7449 327.009C55.3661 326.62 54.7908 326.426 54.019 326.426C53.2188 326.426 52.5914 326.601 52.1369 326.952C51.6824 327.302 51.3627 327.676 51.1781 328.074L49.5872 327.506C49.8713 326.843 50.2501 326.327 50.7235 325.957C51.2018 325.583 51.7226 325.323 52.286 325.176C52.8542 325.025 53.4129 324.949 53.9622 324.949C54.3126 324.949 54.715 324.991 55.1696 325.077C55.6288 325.157 56.0716 325.325 56.4977 325.581C56.9286 325.837 57.286 326.223 57.5701 326.739C57.8542 327.255 57.9963 327.946 57.9963 328.812V336H56.3201V334.523H56.2349C56.1213 334.759 55.9319 335.013 55.6667 335.283C55.4016 335.553 55.0488 335.782 54.6085 335.972C54.1681 336.161 53.6307 336.256 52.9963 336.256ZM53.252 334.75C53.9148 334.75 54.4735 334.62 54.9281 334.359C55.3874 334.099 55.733 333.763 55.965 333.351C56.2018 332.939 56.3201 332.506 56.3201 332.051V330.517C56.2491 330.602 56.0929 330.68 55.8514 330.751C55.6146 330.818 55.34 330.877 55.0275 330.929C54.7198 330.976 54.4191 331.019 54.1255 331.057C53.8367 331.09 53.6023 331.118 53.4224 331.142C52.9868 331.199 52.5796 331.291 52.2008 331.419C51.8268 331.542 51.5237 331.729 51.2917 331.98C51.0645 332.226 50.9508 332.562 50.9508 332.989C50.9508 333.571 51.1663 334.011 51.5971 334.31C52.0327 334.603 52.5843 334.75 53.252 334.75ZM67.9022 336.114C67.5518 336.114 67.2511 335.988 67.0002 335.737C66.7492 335.486 66.6238 335.186 66.6238 334.835C66.6238 334.485 66.7492 334.184 67.0002 333.933C67.2511 333.682 67.5518 333.557 67.9022 333.557C68.2525 333.557 68.5532 333.682 68.8042 333.933C69.0551 334.184 69.1806 334.485 69.1806 334.835C69.1806 335.067 69.1214 335.28 69.003 335.474C68.8894 335.669 68.7355 335.825 68.5414 335.943C68.352 336.057 68.1389 336.114 67.9022 336.114ZM67.9022 328.017C67.5518 328.017 67.2511 327.892 67.0002 327.641C66.7492 327.39 66.6238 327.089 66.6238 326.739C66.6238 326.388 66.7492 326.088 67.0002 325.837C67.2511 325.586 67.5518 325.46 67.9022 325.46C68.2525 325.46 68.5532 325.586 68.8042 325.837C69.0551 326.088 69.1806 326.388 69.1806 326.739C69.1806 326.971 69.1214 327.184 69.003 327.378C68.8894 327.572 68.7355 327.728 68.5414 327.847C68.352 327.96 68.1389 328.017 67.9022 328.017ZM82.0748 335.006V325.631H83.6657V335.006H82.0748ZM78.1827 331.114V329.523H87.5577V331.114H78.1827ZM94.4061 325.915C94.9174 325.915 95.3862 325.991 95.8123 326.142C96.2432 326.289 96.6315 326.483 96.9771 326.724C97.3275 326.961 97.6352 327.212 97.9004 327.477C98.0708 327.634 98.2271 327.795 98.3691 327.96C98.5159 328.126 98.6532 328.287 98.7811 328.443C98.8947 328.287 99.0154 328.133 99.1433 327.982C99.2711 327.83 99.4345 327.662 99.6333 327.477C100.031 327.08 100.521 326.72 101.104 326.398C101.691 326.076 102.375 325.915 103.156 325.915C103.876 325.915 104.529 326.09 105.116 326.44C105.708 326.786 106.177 327.255 106.523 327.847C106.873 328.434 107.048 329.087 107.048 329.807C107.048 330.351 106.946 330.863 106.743 331.341C106.544 331.814 106.267 332.231 105.912 332.591C105.557 332.946 105.142 333.225 104.669 333.429C104.2 333.628 103.696 333.727 103.156 333.727C102.635 333.727 102.157 333.654 101.721 333.507C101.291 333.356 100.9 333.164 100.55 332.932C100.204 332.695 99.8985 332.449 99.6333 332.193C99.4629 332.023 99.3066 331.855 99.1646 331.689C99.0226 331.518 98.8947 331.355 98.7811 331.199C98.6532 331.355 98.5159 331.518 98.3691 331.689C98.2271 331.855 98.0708 332.023 97.9004 332.193C97.6352 332.449 97.3275 332.695 96.9771 332.932C96.6315 333.164 96.2432 333.356 95.8123 333.507C95.3862 333.654 94.9174 333.727 94.4061 333.727C93.6769 333.727 93.0164 333.552 92.4245 333.202C91.8327 332.851 91.3616 332.38 91.0112 331.788C90.6608 331.196 90.4856 330.536 90.4856 329.807C90.4856 329.267 90.585 328.763 90.7839 328.294C90.9875 327.821 91.2669 327.406 91.622 327.051C91.9818 326.696 92.3985 326.419 92.872 326.22C93.3502 326.017 93.8616 325.915 94.4061 325.915ZM92.1049 329.807C92.1049 330.233 92.2067 330.621 92.4103 330.972C92.6187 331.317 92.8957 331.594 93.2413 331.803C93.5917 332.006 93.9799 332.108 94.4061 332.108C94.8748 332.108 95.3033 332.001 95.6916 331.788C96.0798 331.575 96.4373 331.312 96.764 331C96.9771 330.787 97.1641 330.581 97.3251 330.382C97.4861 330.183 97.6305 329.991 97.7583 329.807C97.6305 329.636 97.4885 329.454 97.3322 329.26C97.1807 329.061 96.9913 328.855 96.764 328.642C96.4515 328.33 96.0964 328.067 95.6987 327.854C95.3057 327.641 94.8748 327.534 94.4061 327.534C93.9799 327.534 93.5917 327.638 93.2413 327.847C92.8957 328.05 92.6187 328.325 92.4103 328.67C92.2067 329.011 92.1049 329.39 92.1049 329.807ZM105.429 329.807C105.429 329.39 105.325 329.011 105.116 328.67C104.913 328.325 104.638 328.05 104.292 327.847C103.952 327.638 103.573 327.534 103.156 327.534C102.834 327.534 102.531 327.584 102.247 327.683C101.963 327.778 101.698 327.911 101.452 328.081C101.205 328.247 100.978 328.434 100.77 328.642C100.514 328.884 100.301 329.118 100.131 329.345C99.9648 329.568 99.8464 329.722 99.7754 329.807C99.9032 329.991 100.048 330.183 100.209 330.382C100.37 330.581 100.557 330.787 100.77 331C101.096 331.312 101.454 331.575 101.842 331.788C102.235 332.001 102.673 332.108 103.156 332.108C103.573 332.108 103.952 332.006 104.292 331.803C104.638 331.594 104.913 331.317 105.116 330.972C105.325 330.621 105.429 330.233 105.429 329.807Z" fill="black"/>
</svg>
