<svg width="960" height="454" viewBox="0 0 960 454" fill="none" xmlns="http://www.w3.org/2000/svg">
<path d="M862.787 306.818H865.415L871.594 321.911H871.807L877.986 306.818H880.614V325H878.554V311.186H878.377L872.695 325H870.706L865.024 311.186H864.847V325H862.787V306.818ZM888.757 325.32C887.893 325.32 887.109 325.157 886.404 324.831C885.7 324.5 885.141 324.023 884.727 323.402C884.312 322.775 884.105 322.017 884.105 321.129C884.105 320.348 884.259 319.715 884.567 319.229C884.874 318.738 885.286 318.353 885.801 318.075C886.316 317.797 886.884 317.59 887.505 317.454C888.133 317.312 888.763 317.199 889.396 317.116C890.225 317.01 890.897 316.93 891.412 316.877C891.932 316.818 892.311 316.72 892.548 316.584C892.791 316.448 892.912 316.211 892.912 315.874V315.803C892.912 314.927 892.672 314.246 892.193 313.761C891.719 313.275 891 313.033 890.035 313.033C889.035 313.033 888.251 313.252 887.683 313.69C887.115 314.128 886.715 314.595 886.484 315.092L884.496 314.382C884.851 313.554 885.324 312.908 885.916 312.447C886.514 311.979 887.165 311.654 887.869 311.47C888.58 311.281 889.278 311.186 889.964 311.186C890.402 311.186 890.905 311.239 891.474 311.346C892.048 311.446 892.601 311.657 893.134 311.976C893.672 312.296 894.119 312.778 894.474 313.423C894.83 314.068 895.007 314.933 895.007 316.016V325H892.912V323.153H892.805C892.663 323.449 892.427 323.766 892.095 324.103C891.764 324.441 891.323 324.728 890.772 324.964C890.222 325.201 889.55 325.32 888.757 325.32ZM889.077 323.438C889.905 323.438 890.604 323.275 891.172 322.949C891.746 322.624 892.178 322.203 892.468 321.689C892.764 321.174 892.912 320.632 892.912 320.064V318.146C892.823 318.253 892.628 318.35 892.326 318.439C892.03 318.522 891.687 318.596 891.296 318.661C890.911 318.72 890.536 318.774 890.169 318.821C889.808 318.862 889.515 318.898 889.29 318.928C888.745 318.999 888.236 319.114 887.763 319.274C887.295 319.428 886.916 319.661 886.626 319.975C886.342 320.283 886.2 320.703 886.2 321.236C886.2 321.964 886.47 322.514 887.008 322.887C887.553 323.254 888.242 323.438 889.077 323.438ZM900.394 311.364L903.661 316.939L906.928 311.364H909.343L904.939 318.182L909.343 325H906.928L903.661 319.709L900.394 325H897.979L902.311 318.182L897.979 311.364H900.394Z" fill="black"/>
<path d="M862.787 15.8182H865.415L871.594 30.9105H871.807L877.986 15.8182H880.614V34H878.554V20.1861H878.377L872.695 34H870.706L865.024 20.1861H864.847V34H862.787V15.8182ZM888.757 34.3196C887.893 34.3196 887.109 34.1568 886.404 33.8313C885.7 33.4999 885.141 33.0234 884.727 32.402C884.312 31.7746 884.105 31.017 884.105 30.1293C884.105 29.348 884.259 28.7147 884.567 28.2294C884.874 27.7382 885.286 27.3535 885.801 27.0753C886.316 26.7971 886.884 26.59 887.505 26.4538C888.133 26.3118 888.763 26.1993 889.396 26.1165C890.225 26.0099 890.897 25.93 891.412 25.8768C891.932 25.8176 892.311 25.7199 892.548 25.5838C892.791 25.4477 892.912 25.2109 892.912 24.8736V24.8026C892.912 23.9266 892.672 23.246 892.193 22.7607C891.719 22.2753 891 22.0327 890.035 22.0327C889.035 22.0327 888.251 22.2517 887.683 22.6896C887.115 23.1276 886.715 23.5952 886.484 24.0923L884.496 23.3821C884.851 22.5535 885.324 21.9084 885.916 21.4467C886.514 20.9792 887.165 20.6536 887.869 20.4702C888.58 20.2808 889.278 20.1861 889.964 20.1861C890.402 20.1861 890.905 20.2393 891.474 20.3459C892.048 20.4465 892.601 20.6566 893.134 20.9762C893.672 21.2958 894.119 21.7782 894.474 22.4233C894.83 23.0684 895.007 23.9325 895.007 25.0156V34H892.912V32.1534H892.805C892.663 32.4493 892.427 32.766 892.095 33.1033C891.764 33.4407 891.323 33.7277 890.772 33.9645C890.222 34.2012 889.55 34.3196 888.757 34.3196ZM889.077 32.4375C889.905 32.4375 890.604 32.2747 891.172 31.9492C891.746 31.6237 892.178 31.2035 892.468 30.6886C892.764 30.1737 892.912 29.6321 892.912 29.0639V27.1463C892.823 27.2528 892.628 27.3505 892.326 27.4393C892.03 27.5221 891.687 27.5961 891.296 27.6612C890.911 27.7204 890.536 27.7737 890.169 27.821C889.808 27.8625 889.515 27.898 889.29 27.9276C888.745 27.9986 888.236 28.114 887.763 28.2738C887.295 28.4277 886.916 28.6615 886.626 28.9751C886.342 29.2829 886.2 29.7031 886.2 30.2358C886.2 30.9638 886.47 31.5142 887.008 31.8871C887.553 32.254 888.242 32.4375 889.077 32.4375ZM900.394 20.3636L903.661 25.9389L906.928 20.3636H909.343L904.939 27.1818L909.343 34H906.928L903.661 28.7088L900.394 34H897.979L902.311 27.1818L897.979 20.3636H900.394Z" fill="black"/>
<path d="M866.303 178.818H868.931L875.11 193.911H875.323L881.502 178.818H884.129V197H882.07V183.186H881.892L876.21 197H874.222L868.54 183.186H868.362V197H866.303V178.818ZM888.26 197V183.364H890.355V197H888.26ZM889.325 181.091C888.917 181.091 888.565 180.952 888.269 180.674C887.979 180.395 887.834 180.061 887.834 179.67C887.834 179.28 887.979 178.945 888.269 178.667C888.565 178.389 888.917 178.25 889.325 178.25C889.734 178.25 890.083 178.389 890.373 178.667C890.669 178.945 890.817 179.28 890.817 179.67C890.817 180.061 890.669 180.395 890.373 180.674C890.083 180.952 889.734 181.091 889.325 181.091ZM896.288 188.797V197H894.193V183.364H896.217V185.494H896.394C896.714 184.802 897.199 184.246 897.85 183.825C898.501 183.399 899.342 183.186 900.371 183.186C901.295 183.186 902.103 183.375 902.795 183.754C903.488 184.127 904.026 184.695 904.411 185.459C904.796 186.216 904.988 187.175 904.988 188.335V197H902.893V188.477C902.893 187.406 902.615 186.571 902.058 185.974C901.502 185.37 900.738 185.068 899.768 185.068C899.099 185.068 898.501 185.213 897.974 185.503C897.454 185.793 897.042 186.216 896.74 186.773C896.439 187.329 896.288 188.004 896.288 188.797Z" fill="black"/>
<path d="M866.303 419.818H868.931L875.11 434.911H875.323L881.502 419.818H884.129V438H882.07V424.186H881.892L876.21 438H874.222L868.54 424.186H868.362V438H866.303V419.818ZM888.26 438V424.364H890.355V438H888.26ZM889.325 422.091C888.917 422.091 888.565 421.952 888.269 421.674C887.979 421.395 887.834 421.061 887.834 420.67C887.834 420.28 887.979 419.945 888.269 419.667C888.565 419.389 888.917 419.25 889.325 419.25C889.734 419.25 890.083 419.389 890.373 419.667C890.669 419.945 890.817 420.28 890.817 420.67C890.817 421.061 890.669 421.395 890.373 421.674C890.083 421.952 889.734 422.091 889.325 422.091ZM896.288 429.797V438H894.193V424.364H896.217V426.494H896.394C896.714 425.802 897.199 425.246 897.85 424.825C898.501 424.399 899.342 424.186 900.371 424.186C901.295 424.186 902.103 424.375 902.795 424.754C903.488 425.127 904.026 425.695 904.411 426.459C904.796 427.216 904.988 428.175 904.988 429.335V438H902.893V429.477C902.893 428.406 902.615 427.571 902.058 426.974C901.502 426.37 900.738 426.068 899.768 426.068C899.099 426.068 898.501 426.213 897.974 426.503C897.454 426.793 897.042 427.216 896.74 427.773C896.439 428.329 896.288 429.004 896.288 429.797Z" fill="black"/>
<line x1="6" y1="105.5" x2="960" y2="105.5" stroke="black" stroke-opacity="0.2" stroke-width="3"/>
<line x1="6" y1="250.5" x2="960" y2="250.5" stroke="black" stroke-opacity="0.19" stroke-width="3"/>
<line x1="6" y1="371.5" x2="960" y2="371.5" stroke="black" stroke-opacity="0.19" stroke-width="3"/>
<path d="M274 188C274 201.255 263.255 212 250 212C236.745 212 226 201.255 226 188C226 174.745 236.745 164 250 164C263.255 164 274 174.745 274 188Z" fill="#D9D9D9" stroke="black" stroke-width="2"/>
<path d="M245.765 180.955V195.5H244.004V182.801H243.918L240.367 185.159V183.369L244.004 180.955H245.765ZM254.693 195.699C253.623 195.699 252.711 195.408 251.958 194.825C251.205 194.238 250.63 193.388 250.232 192.276C249.835 191.158 249.636 189.809 249.636 188.227C249.636 186.655 249.835 185.313 250.232 184.2C250.635 183.083 251.213 182.231 251.965 181.643C252.723 181.052 253.632 180.756 254.693 180.756C255.753 180.756 256.66 181.052 257.413 181.643C258.17 182.231 258.748 183.083 259.146 184.2C259.548 185.313 259.749 186.655 259.749 188.227C259.749 189.809 259.551 191.158 259.153 192.276C258.755 193.388 258.18 194.238 257.427 194.825C256.674 195.408 255.763 195.699 254.693 195.699ZM254.693 194.136C255.753 194.136 256.577 193.625 257.164 192.602C257.751 191.58 258.045 190.121 258.045 188.227C258.045 186.968 257.91 185.895 257.64 185.01C257.375 184.125 256.991 183.45 256.49 182.986C255.992 182.522 255.393 182.29 254.693 182.29C253.641 182.29 252.82 182.808 252.228 183.845C251.636 184.877 251.34 186.338 251.34 188.227C251.34 189.487 251.473 190.557 251.738 191.438C252.003 192.318 252.384 192.988 252.882 193.447C253.383 193.907 253.987 194.136 254.693 194.136Z" fill="black"/>
<path d="M674 188C674 201.255 663.255 212 650 212C636.745 212 626 201.255 626 188C626 174.745 636.745 164 650 164C663.255 164 674 174.745 674 188Z" fill="#D9D9D9" stroke="black" stroke-width="2"/>
<path d="M648.377 193.455H639.229V191.864H648.377V193.455ZM639.229 187.432V186.295L648.377 183V184.733L641.985 186.835L642.042 186.722V187.006L641.985 186.892L648.377 188.994V190.727L639.229 187.432ZM656.532 180.756C657.129 180.76 657.725 180.874 658.322 181.097C658.918 181.319 659.463 181.688 659.955 182.205C660.448 182.716 660.843 183.414 661.141 184.3C661.44 185.185 661.589 186.295 661.589 187.631C661.589 188.923 661.466 190.071 661.22 191.075C660.978 192.074 660.628 192.917 660.168 193.604C659.714 194.29 659.16 194.811 658.507 195.166C657.858 195.521 657.124 195.699 656.305 195.699C655.49 195.699 654.764 195.538 654.124 195.216C653.49 194.889 652.969 194.437 652.562 193.859C652.159 193.277 651.901 192.602 651.788 191.835H653.521C653.677 192.503 653.987 193.054 654.451 193.49C654.92 193.921 655.538 194.136 656.305 194.136C657.427 194.136 658.312 193.646 658.961 192.666C659.615 191.686 659.941 190.301 659.941 188.511H659.828C659.562 188.909 659.248 189.252 658.883 189.541C658.518 189.83 658.114 190.053 657.668 190.209C657.223 190.365 656.75 190.443 656.248 190.443C655.415 190.443 654.65 190.237 653.954 189.825C653.263 189.409 652.709 188.838 652.292 188.114C651.88 187.384 651.674 186.551 651.674 185.614C651.674 184.723 651.873 183.909 652.271 183.17C652.673 182.427 653.237 181.835 653.961 181.395C654.69 180.955 655.547 180.741 656.532 180.756ZM656.532 182.318C655.936 182.318 655.398 182.467 654.92 182.766C654.446 183.059 654.07 183.457 653.791 183.959C653.516 184.456 653.379 185.008 653.379 185.614C653.379 186.22 653.511 186.771 653.776 187.268C654.046 187.761 654.413 188.154 654.877 188.447C655.346 188.736 655.879 188.881 656.475 188.881C656.925 188.881 657.344 188.793 657.732 188.618C658.121 188.438 658.459 188.194 658.748 187.886C659.042 187.574 659.271 187.221 659.437 186.828C659.603 186.43 659.686 186.016 659.686 185.585C659.686 185.017 659.548 184.484 659.274 183.987C659.004 183.49 658.63 183.088 658.151 182.78C657.678 182.472 657.138 182.318 656.532 182.318Z" fill="black"/>
<path d="M474 25C474 38.2548 463.255 49 450 49C436.745 49 426 38.2548 426 25C426 11.7452 436.745 1 450 1C463.255 1 474 11.7452 474 25Z" fill="#D9D9D9" stroke="black" stroke-width="2"/>
<path d="M445.765 17.9545V32.5H444.004V19.8011H443.918L440.367 22.1591V20.3693L444.004 17.9545H445.765ZM454.693 32.6989C453.623 32.6989 452.711 32.4077 451.958 31.8253C451.205 31.2382 450.63 30.3883 450.232 29.2756C449.835 28.1581 449.636 26.8087 449.636 25.2273C449.636 23.6553 449.835 22.313 450.232 21.2003C450.635 20.0829 451.213 19.2306 451.965 18.6435C452.723 18.0516 453.632 17.7557 454.693 17.7557C455.753 17.7557 456.66 18.0516 457.413 18.6435C458.17 19.2306 458.748 20.0829 459.146 21.2003C459.548 22.313 459.749 23.6553 459.749 25.2273C459.749 26.8087 459.551 28.1581 459.153 29.2756C458.755 30.3883 458.18 31.2382 457.427 31.8253C456.674 32.4077 455.763 32.6989 454.693 32.6989ZM454.693 31.1364C455.753 31.1364 456.577 30.625 457.164 29.6023C457.751 28.5795 458.045 27.1212 458.045 25.2273C458.045 23.9678 457.91 22.8954 457.64 22.0099C457.375 21.1245 456.991 20.4498 456.49 19.9858C455.992 19.5218 455.393 19.2898 454.693 19.2898C453.641 19.2898 452.82 19.8082 452.228 20.8452C451.636 21.8774 451.34 23.3381 451.34 25.2273C451.34 26.4867 451.473 27.5568 451.738 28.4375C452.003 29.3182 452.384 29.9882 452.882 30.4474C453.383 30.9067 453.987 31.1364 454.693 31.1364Z" fill="black"/>
<path d="M574 316C574 329.255 563.255 340 550 340C536.745 340 526 329.255 526 316C526 302.745 536.745 292 550 292C563.255 292 574 302.745 574 316Z" fill="#D9D9D9" stroke="black" stroke-width="2"/>
<path d="M549.94 308.756C550.537 308.76 551.134 308.874 551.73 309.097C552.327 309.319 552.871 309.688 553.364 310.205C553.856 310.716 554.251 311.414 554.55 312.3C554.848 313.185 554.997 314.295 554.997 315.631C554.997 316.923 554.874 318.071 554.628 319.075C554.386 320.074 554.036 320.917 553.577 321.604C553.122 322.29 552.568 322.811 551.915 323.166C551.266 323.521 550.532 323.699 549.713 323.699C548.899 323.699 548.172 323.538 547.533 323.216C546.898 322.889 546.377 322.437 545.97 321.859C545.568 321.277 545.31 320.602 545.196 319.835H546.929C547.085 320.503 547.395 321.054 547.859 321.49C548.328 321.921 548.946 322.136 549.713 322.136C550.835 322.136 551.721 321.646 552.369 320.666C553.023 319.686 553.349 318.301 553.349 316.511H553.236C552.971 316.909 552.656 317.252 552.291 317.541C551.927 317.83 551.522 318.053 551.077 318.209C550.632 318.365 550.158 318.443 549.656 318.443C548.823 318.443 548.058 318.237 547.362 317.825C546.671 317.409 546.117 316.838 545.7 316.114C545.288 315.384 545.082 314.551 545.082 313.614C545.082 312.723 545.281 311.909 545.679 311.17C546.081 310.427 546.645 309.835 547.369 309.395C548.098 308.955 548.955 308.741 549.94 308.756ZM549.94 310.318C549.344 310.318 548.806 310.467 548.328 310.766C547.855 311.059 547.478 311.457 547.199 311.959C546.924 312.456 546.787 313.008 546.787 313.614C546.787 314.22 546.919 314.771 547.185 315.268C547.455 315.761 547.821 316.154 548.285 316.447C548.754 316.736 549.287 316.881 549.884 316.881C550.333 316.881 550.752 316.793 551.141 316.618C551.529 316.438 551.867 316.194 552.156 315.886C552.45 315.574 552.679 315.221 552.845 314.828C553.011 314.43 553.094 314.016 553.094 313.585C553.094 313.017 552.956 312.484 552.682 311.987C552.412 311.49 552.038 311.088 551.56 310.78C551.086 310.472 550.546 310.318 549.94 310.318Z" fill="black"/>
<path d="M374 316C374 329.255 363.255 340 350 340C336.745 340 326 329.255 326 316C326 302.745 336.745 292 350 292C363.255 292 374 302.745 374 316Z" fill="#D9D9D9" stroke="black" stroke-width="2"/>
<path d="M334.766 321.455V319.864H343.914V321.455H334.766ZM343.914 315.432L334.766 318.727V316.994L341.158 314.892L341.102 315.006V314.722L341.158 314.835L334.766 312.733V311L343.914 314.295V315.432ZM352.552 308.955V323.5H350.791V310.801H350.706L347.154 313.159V311.369L350.791 308.955H352.552ZM356.735 323.5V322.222L361.537 316.966C362.1 316.35 362.564 315.815 362.929 315.361C363.293 314.902 363.563 314.471 363.738 314.068C363.918 313.661 364.008 313.235 364.008 312.79C364.008 312.278 363.885 311.836 363.639 311.462C363.397 311.088 363.066 310.799 362.645 310.595C362.223 310.392 361.75 310.29 361.224 310.29C360.665 310.29 360.178 310.406 359.761 310.638C359.349 310.865 359.029 311.185 358.802 311.597C358.58 312.009 358.468 312.491 358.468 313.045H356.792C356.792 312.193 356.989 311.445 357.382 310.801C357.775 310.157 358.31 309.655 358.987 309.295C359.669 308.936 360.433 308.756 361.281 308.756C362.133 308.756 362.888 308.936 363.546 309.295C364.205 309.655 364.721 310.141 365.095 310.751C365.469 311.362 365.656 312.042 365.656 312.79C365.656 313.325 365.559 313.848 365.365 314.359C365.175 314.866 364.844 315.432 364.37 316.057C363.902 316.677 363.251 317.435 362.417 318.33L359.15 321.824V321.938H365.912V323.5H356.735Z" fill="black"/>
<path d="M174 316C174 329.255 163.255 340 150 340C136.745 340 126 329.255 126 316C126 302.745 136.745 292 150 292C163.255 292 174 302.745 174 316Z" fill="#D9D9D9" stroke="black" stroke-width="2"/>
<path d="M145.765 308.955V323.5H144.004V310.801H143.918L140.367 313.159V311.369L144.004 308.955H145.765ZM154.693 323.699C153.623 323.699 152.711 323.408 151.958 322.825C151.205 322.238 150.63 321.388 150.232 320.276C149.835 319.158 149.636 317.809 149.636 316.227C149.636 314.655 149.835 313.313 150.232 312.2C150.635 311.083 151.213 310.231 151.965 309.643C152.723 309.052 153.632 308.756 154.693 308.756C155.753 308.756 156.66 309.052 157.413 309.643C158.17 310.231 158.748 311.083 159.146 312.2C159.548 313.313 159.749 314.655 159.749 316.227C159.749 317.809 159.551 319.158 159.153 320.276C158.755 321.388 158.18 322.238 157.427 322.825C156.674 323.408 155.763 323.699 154.693 323.699ZM154.693 322.136C155.753 322.136 156.577 321.625 157.164 320.602C157.751 319.58 158.045 318.121 158.045 316.227C158.045 314.968 157.91 313.895 157.64 313.01C157.375 312.125 156.991 311.45 156.49 310.986C155.992 310.522 155.393 310.29 154.693 310.29C153.641 310.29 152.82 310.808 152.228 311.845C151.636 312.877 151.34 314.338 151.34 316.227C151.34 317.487 151.473 318.557 151.738 319.438C152.003 320.318 152.384 320.988 152.882 321.447C153.383 321.907 153.987 322.136 154.693 322.136Z" fill="black"/>
<path d="M624 429C624 442.255 613.255 453 600 453C586.745 453 576 442.255 576 429C576 415.745 586.745 405 600 405C613.255 405 624 415.745 624 429Z" fill="#D9D9D9" stroke="black" stroke-width="2"/>
<path d="M600.011 436.699C599.178 436.699 598.428 436.533 597.76 436.202C597.092 435.87 596.557 435.416 596.155 434.838C595.752 434.26 595.532 433.602 595.494 432.864H597.199C597.265 433.522 597.563 434.066 598.094 434.497C598.629 434.923 599.268 435.136 600.011 435.136C600.608 435.136 601.138 434.997 601.602 434.717C602.071 434.438 602.438 434.054 602.703 433.567C602.973 433.074 603.108 432.518 603.108 431.898C603.108 431.263 602.968 430.697 602.689 430.2C602.414 429.698 602.035 429.303 601.553 429.014C601.07 428.725 600.518 428.579 599.898 428.574C599.453 428.569 598.996 428.638 598.527 428.78C598.058 428.917 597.672 429.095 597.369 429.312L595.722 429.114L596.602 421.955H604.159V423.517H598.08L597.568 427.807H597.653C597.952 427.57 598.326 427.374 598.776 427.217C599.225 427.061 599.694 426.983 600.182 426.983C601.072 426.983 601.865 427.196 602.561 427.622C603.262 428.044 603.811 428.621 604.209 429.355C604.611 430.089 604.812 430.927 604.812 431.869C604.812 432.797 604.604 433.626 604.187 434.355C603.776 435.08 603.207 435.652 602.483 436.074C601.759 436.491 600.935 436.699 600.011 436.699Z" fill="black"/>
<path d="M524 429C524 442.255 513.255 453 500 453C486.745 453 476 442.255 476 429C476 415.745 486.745 405 500 405C513.255 405 524 415.745 524 429Z" fill="#D9D9D9" stroke="black" stroke-width="2"/>
<path d="M499.94 421.756C500.537 421.76 501.134 421.874 501.73 422.097C502.327 422.319 502.871 422.688 503.364 423.205C503.856 423.716 504.251 424.414 504.55 425.3C504.848 426.185 504.997 427.295 504.997 428.631C504.997 429.923 504.874 431.071 504.628 432.075C504.386 433.074 504.036 433.917 503.577 434.604C503.122 435.29 502.568 435.811 501.915 436.166C501.266 436.521 500.532 436.699 499.713 436.699C498.899 436.699 498.172 436.538 497.533 436.216C496.898 435.889 496.377 435.437 495.97 434.859C495.568 434.277 495.31 433.602 495.196 432.835H496.929C497.085 433.503 497.395 434.054 497.859 434.49C498.328 434.921 498.946 435.136 499.713 435.136C500.835 435.136 501.721 434.646 502.369 433.666C503.023 432.686 503.349 431.301 503.349 429.511H503.236C502.971 429.909 502.656 430.252 502.291 430.541C501.927 430.83 501.522 431.053 501.077 431.209C500.632 431.365 500.158 431.443 499.656 431.443C498.823 431.443 498.058 431.237 497.362 430.825C496.671 430.409 496.117 429.838 495.7 429.114C495.288 428.384 495.082 427.551 495.082 426.614C495.082 425.723 495.281 424.909 495.679 424.17C496.081 423.427 496.645 422.835 497.369 422.395C498.098 421.955 498.955 421.741 499.94 421.756ZM499.94 423.318C499.344 423.318 498.806 423.467 498.328 423.766C497.855 424.059 497.478 424.457 497.199 424.959C496.924 425.456 496.787 426.008 496.787 426.614C496.787 427.22 496.919 427.771 497.185 428.268C497.455 428.761 497.821 429.154 498.285 429.447C498.754 429.736 499.287 429.881 499.884 429.881C500.333 429.881 500.752 429.793 501.141 429.618C501.529 429.438 501.867 429.194 502.156 428.886C502.45 428.574 502.679 428.221 502.845 427.828C503.011 427.43 503.094 427.016 503.094 426.585C503.094 426.017 502.956 425.484 502.682 424.987C502.412 424.49 502.038 424.088 501.56 423.78C501.086 423.472 500.546 423.318 499.94 423.318Z" fill="black"/>
<path d="M324 429C324 442.255 313.255 453 300 453C286.745 453 276 442.255 276 429C276 415.745 286.745 405 300 405C313.255 405 324 415.745 324 429Z" fill="#D9D9D9" stroke="black" stroke-width="2"/>
<path d="M295.96 421.955V436.5H294.199V423.801H294.114L290.563 426.159V424.369L294.199 421.955H295.96ZM300.144 436.5V435.222L304.945 429.966C305.508 429.35 305.972 428.815 306.337 428.361C306.701 427.902 306.971 427.471 307.146 427.068C307.326 426.661 307.416 426.235 307.416 425.79C307.416 425.278 307.293 424.836 307.047 424.462C306.806 424.088 306.474 423.799 306.053 423.595C305.631 423.392 305.158 423.29 304.632 423.29C304.074 423.29 303.586 423.406 303.169 423.638C302.757 423.865 302.438 424.185 302.21 424.597C301.988 425.009 301.877 425.491 301.877 426.045H300.2C300.2 425.193 300.397 424.445 300.79 423.801C301.183 423.157 301.718 422.655 302.395 422.295C303.077 421.936 303.842 421.756 304.689 421.756C305.541 421.756 306.297 421.936 306.955 422.295C307.613 422.655 308.129 423.141 308.503 423.751C308.877 424.362 309.064 425.042 309.064 425.79C309.064 426.325 308.967 426.848 308.773 427.359C308.583 427.866 308.252 428.432 307.779 429.057C307.31 429.677 306.659 430.435 305.825 431.33L302.558 434.824V434.938H309.32V436.5H300.144Z" fill="black"/>
<path d="M224 429C224 442.255 213.255 453 200 453C186.745 453 176 442.255 176 429C176 415.745 186.745 405 200 405C213.255 405 224 415.745 224 429Z" fill="#D9D9D9" stroke="black" stroke-width="2"/>
<path d="M195.765 421.955V436.5H194.004V423.801H193.918L190.367 426.159V424.369L194.004 421.955H195.765ZM204.693 436.699C203.623 436.699 202.711 436.408 201.958 435.825C201.205 435.238 200.63 434.388 200.232 433.276C199.835 432.158 199.636 430.809 199.636 429.227C199.636 427.655 199.835 426.313 200.232 425.2C200.635 424.083 201.213 423.231 201.965 422.643C202.723 422.052 203.632 421.756 204.693 421.756C205.753 421.756 206.66 422.052 207.413 422.643C208.17 423.231 208.748 424.083 209.146 425.2C209.548 426.313 209.749 427.655 209.749 429.227C209.749 430.809 209.551 432.158 209.153 433.276C208.755 434.388 208.18 435.238 207.427 435.825C206.674 436.408 205.763 436.699 204.693 436.699ZM204.693 435.136C205.753 435.136 206.577 434.625 207.164 433.602C207.751 432.58 208.045 431.121 208.045 429.227C208.045 427.968 207.91 426.895 207.64 426.01C207.375 425.125 206.991 424.45 206.49 423.986C205.992 423.522 205.393 423.29 204.693 423.29C203.641 423.29 202.82 423.808 202.228 424.845C201.636 425.877 201.34 427.338 201.34 429.227C201.34 430.487 201.473 431.557 201.738 432.438C202.003 433.318 202.384 433.988 202.882 434.447C203.383 434.907 203.987 435.136 204.693 435.136Z" fill="black"/>
<path d="M124 429C124 442.255 113.255 453 100 453C86.7452 453 76 442.255 76 429C76 415.745 86.7452 405 100 405C113.255 405 124 415.745 124 429Z" fill="#D9D9D9" stroke="black" stroke-width="2"/>
<path d="M96.2915 436.5L102.797 423.631V423.517H95.2972V421.955H104.615V423.602L98.1381 436.5H96.2915Z" fill="black"/>
<path d="M99.0077 404.124C99.0762 404.672 99.576 405.061 100.124 404.992L109.055 403.876C109.603 403.807 109.991 403.308 109.923 402.76C109.854 402.212 109.354 401.823 108.806 401.891L100.868 402.884L99.876 394.945C99.8075 394.397 99.3077 394.009 98.7597 394.077C98.2116 394.146 97.8229 394.646 97.8914 395.194L99.0077 404.124ZM148.211 340.386L99.2106 403.386L100.789 404.614L149.789 341.614L148.211 340.386Z" fill="black"/>
<path d="M199.886 404.993C200.434 405.057 200.93 404.663 200.993 404.114L202.022 395.173C202.085 394.625 201.692 394.129 201.143 394.066C200.594 394.002 200.098 394.396 200.035 394.945L199.121 402.892L191.173 401.978C190.625 401.915 190.129 402.308 190.066 402.857C190.002 403.406 190.396 403.902 190.945 403.965L199.886 404.993ZM149.217 341.622L199.217 404.622L200.783 403.378L150.783 340.378L149.217 341.622Z" fill="black"/>
<g opacity="0.5">
<path d="M424 429C424 442.255 413.255 453 400 453C386.745 453 376 442.255 376 429C376 415.745 386.745 405 400 405C413.255 405 424 415.745 424 429Z" fill="#D9D9D9" stroke="black" stroke-width="2"/>
<path d="M396.292 436.5L402.797 423.631V423.517H395.297V421.955H404.615V423.602L398.138 436.5H396.292Z" fill="black"/>
<path d="M399.886 404.993C400.434 405.057 400.93 404.663 400.993 404.114L402.022 395.173C402.085 394.625 401.692 394.129 401.143 394.066C400.594 394.002 400.098 394.396 400.035 394.945L399.121 402.892L391.173 401.978C390.625 401.915 390.129 402.308 390.066 402.857C390.002 403.406 390.396 403.902 390.945 403.965L399.886 404.993ZM349.217 341.622L399.217 404.622L400.783 403.378L350.783 340.378L349.217 341.622Z" fill="black"/>
</g>
<path d="M600.886 404.993C601.434 405.057 601.93 404.663 601.993 404.114L603.022 395.173C603.085 394.625 602.692 394.129 602.143 394.066C601.594 394.002 601.098 394.396 601.035 394.945L600.121 402.892L592.173 401.978C591.625 401.915 591.129 402.308 591.066 402.857C591.002 403.406 591.396 403.902 591.945 403.965L600.886 404.993ZM550.217 341.622L600.217 404.622L601.783 403.378L551.783 340.378L550.217 341.622Z" fill="black"/>
<path d="M99.0077 404.124C99.0762 404.672 99.576 405.061 100.124 404.992L109.055 403.876C109.603 403.807 109.991 403.308 109.923 402.76C109.854 402.212 109.354 401.823 108.806 401.891L100.868 402.884L99.876 394.945C99.8075 394.397 99.3077 394.009 98.7597 394.077C98.2116 394.146 97.8229 394.646 97.8914 395.194L99.0077 404.124ZM148.211 340.386L99.2106 403.386L100.789 404.614L149.789 341.614L148.211 340.386Z" fill="black"/>
<path d="M148.008 290.873C147.938 291.42 148.325 291.921 148.873 291.992L157.799 293.139C158.347 293.209 158.848 292.822 158.918 292.274C158.989 291.727 158.602 291.226 158.054 291.155L150.119 290.136L151.139 282.201C151.209 281.653 150.822 281.152 150.274 281.082C149.727 281.011 149.226 281.398 149.155 281.946L148.008 290.873ZM249.389 212.209L148.389 290.209L149.611 291.791L250.611 213.791L249.389 212.209Z" fill="black"/>
<path d="M350.123 291.992C350.671 291.925 351.06 291.425 350.992 290.877L349.888 281.945C349.821 281.397 349.321 281.008 348.773 281.076C348.225 281.143 347.836 281.643 347.904 282.191L348.885 290.13L340.945 291.112C340.397 291.179 340.008 291.679 340.076 292.227C340.143 292.775 340.643 293.164 341.191 293.096L350.123 291.992ZM249.385 213.789L349.385 291.788L350.615 290.211L250.615 212.211L249.385 213.789Z" fill="black"/>
<path d="M249.037 162.732C248.889 163.264 249.2 163.816 249.732 163.963L258.403 166.374C258.936 166.522 259.487 166.21 259.635 165.678C259.783 165.146 259.471 164.595 258.939 164.447L251.231 162.304L253.374 154.597C253.522 154.064 253.21 153.513 252.678 153.365C252.146 153.217 251.595 153.529 251.447 154.061L249.037 162.732ZM449.508 49.1294L249.508 162.129L250.492 163.871L450.492 50.8706L449.508 49.1294Z" fill="black"/>
<path d="M650.268 163.963C650.8 163.816 651.111 163.264 650.963 162.732L648.553 154.061C648.405 153.529 647.854 153.217 647.322 153.365C646.79 153.513 646.478 154.064 646.626 154.597L648.769 162.304L641.061 164.447C640.529 164.595 640.217 165.146 640.365 165.678C640.513 166.21 641.064 166.522 641.597 166.374L650.268 163.963ZM449.508 50.8706L649.508 163.871L650.492 162.129L450.492 49.1294L449.508 50.8706Z" fill="black"/>
<path d="M549.008 290.873C548.938 291.42 549.325 291.921 549.873 291.992L558.799 293.139C559.347 293.209 559.848 292.822 559.918 292.274C559.989 291.727 559.602 291.226 559.054 291.155L551.119 290.136L552.139 282.201C552.209 281.653 551.822 281.152 551.274 281.082C550.727 281.011 550.226 281.398 550.155 281.946L549.008 290.873ZM650.389 212.209L549.389 290.209L550.611 291.791L651.611 213.791L650.389 212.209Z" fill="black"/>
<path d="M299.008 404.124C299.076 404.672 299.576 405.061 300.124 404.992L309.055 403.876C309.603 403.807 309.991 403.308 309.923 402.76C309.854 402.212 309.354 401.823 308.806 401.891L300.868 402.884L299.876 394.945C299.807 394.397 299.308 394.009 298.76 394.077C298.212 394.146 297.823 394.646 297.891 395.194L299.008 404.124ZM348.211 340.386L299.211 403.386L300.789 404.614L349.789 341.614L348.211 340.386Z" fill="black"/>
<g opacity="0.5">
<path d="M774 316C774 329.255 763.255 340 750 340C736.745 340 726 329.255 726 316C726 302.745 736.745 292 750 292C763.255 292 774 302.745 774 316Z" fill="#D9D9D9" stroke="black" stroke-width="2"/>
<path d="M745.775 308.955V323.5H744.013V310.801H743.928L740.377 313.159V311.369L744.013 308.955H745.775ZM754.589 308.756C755.185 308.76 755.782 308.874 756.379 309.097C756.975 309.319 757.52 309.688 758.012 310.205C758.504 310.716 758.9 311.414 759.198 312.3C759.496 313.185 759.646 314.295 759.646 315.631C759.646 316.923 759.522 318.071 759.276 319.075C759.035 320.074 758.684 320.917 758.225 321.604C757.771 322.29 757.217 322.811 756.563 323.166C755.915 323.521 755.181 323.699 754.361 323.699C753.547 323.699 752.82 323.538 752.181 323.216C751.547 322.889 751.026 322.437 750.619 321.859C750.216 321.277 749.958 320.602 749.844 319.835H751.577C751.734 320.503 752.044 321.054 752.508 321.49C752.977 321.921 753.594 322.136 754.361 322.136C755.484 322.136 756.369 321.646 757.018 320.666C757.671 319.686 757.998 318.301 757.998 316.511H757.884C757.619 316.909 757.304 317.252 756.94 317.541C756.575 317.83 756.17 318.053 755.725 318.209C755.28 318.365 754.807 318.443 754.305 318.443C753.471 318.443 752.707 318.237 752.011 317.825C751.319 317.409 750.765 316.838 750.349 316.114C749.937 315.384 749.731 314.551 749.731 313.614C749.731 312.723 749.93 311.909 750.327 311.17C750.73 310.427 751.293 309.835 752.018 309.395C752.747 308.955 753.604 308.741 754.589 308.756ZM754.589 310.318C753.992 310.318 753.455 310.467 752.977 310.766C752.503 311.059 752.127 311.457 751.847 311.959C751.573 312.456 751.435 313.008 751.435 313.614C751.435 314.22 751.568 314.771 751.833 315.268C752.103 315.761 752.47 316.154 752.934 316.447C753.403 316.736 753.935 316.881 754.532 316.881C754.982 316.881 755.401 316.793 755.789 316.618C756.177 316.438 756.516 316.194 756.805 315.886C757.098 315.574 757.328 315.221 757.494 314.828C757.659 314.43 757.742 314.016 757.742 313.585C757.742 313.017 757.605 312.484 757.33 311.987C757.06 311.49 756.686 311.088 756.208 310.78C755.735 310.472 755.195 310.318 754.589 310.318Z" fill="black"/>
<path d="M824 429C824 442.255 813.255 453 800 453C786.745 453 776 442.255 776 429C776 415.745 786.745 405 800 405C813.255 405 824 415.745 824 429Z" fill="#D9D9D9" stroke="black" stroke-width="2"/>
<path d="M795.775 421.955V436.5H794.013V423.801H793.928L790.377 426.159V424.369L794.013 421.955H795.775ZM804.589 421.756C805.185 421.76 805.782 421.874 806.379 422.097C806.975 422.319 807.52 422.688 808.012 423.205C808.504 423.716 808.9 424.414 809.198 425.3C809.496 426.185 809.646 427.295 809.646 428.631C809.646 429.923 809.522 431.071 809.276 432.075C809.035 433.074 808.684 433.917 808.225 434.604C807.771 435.29 807.217 435.811 806.563 436.166C805.915 436.521 805.181 436.699 804.361 436.699C803.547 436.699 802.82 436.538 802.181 436.216C801.547 435.889 801.026 435.437 800.619 434.859C800.216 434.277 799.958 433.602 799.844 432.835H801.577C801.734 433.503 802.044 434.054 802.508 434.49C802.977 434.921 803.594 435.136 804.361 435.136C805.484 435.136 806.369 434.646 807.018 433.666C807.671 432.686 807.998 431.301 807.998 429.511H807.884C807.619 429.909 807.304 430.252 806.94 430.541C806.575 430.83 806.17 431.053 805.725 431.209C805.28 431.365 804.807 431.443 804.305 431.443C803.471 431.443 802.707 431.237 802.011 430.825C801.319 430.409 800.765 429.838 800.349 429.114C799.937 428.384 799.731 427.551 799.731 426.614C799.731 425.723 799.93 424.909 800.327 424.17C800.73 423.427 801.293 422.835 802.018 422.395C802.747 421.955 803.604 421.741 804.589 421.756ZM804.589 423.318C803.992 423.318 803.455 423.467 802.977 423.766C802.503 424.059 802.127 424.457 801.847 424.959C801.573 425.456 801.435 426.008 801.435 426.614C801.435 427.22 801.568 427.771 801.833 428.268C802.103 428.761 802.47 429.154 802.934 429.447C803.403 429.736 803.935 429.881 804.532 429.881C804.982 429.881 805.401 429.793 805.789 429.618C806.177 429.438 806.516 429.194 806.805 428.886C807.098 428.574 807.328 428.221 807.494 427.828C807.659 427.43 807.742 427.016 807.742 426.585C807.742 426.017 807.605 425.484 807.33 424.987C807.06 424.49 806.686 424.088 806.208 423.78C805.735 423.472 805.195 423.318 804.589 423.318Z" fill="black"/>
<path d="M724 429C724 442.255 713.255 453 700 453C686.745 453 676 442.255 676 429C676 415.745 686.745 405 700 405C713.255 405 724 415.745 724 429Z" fill="#D9D9D9" stroke="black" stroke-width="2"/>
<path d="M700.097 436.699C699.16 436.699 698.324 436.538 697.59 436.216C696.861 435.894 696.281 435.446 695.85 434.874C695.424 434.296 695.192 433.626 695.154 432.864H696.944C696.982 433.332 697.143 433.737 697.427 434.078C697.711 434.414 698.083 434.675 698.542 434.859C699.001 435.044 699.51 435.136 700.069 435.136C700.694 435.136 701.248 435.027 701.731 434.81C702.214 434.592 702.593 434.289 702.867 433.901C703.142 433.512 703.279 433.062 703.279 432.551C703.279 432.016 703.147 431.545 702.882 431.138C702.616 430.726 702.228 430.404 701.717 430.172C701.205 429.94 700.58 429.824 699.842 429.824H698.677V428.261H699.842C700.419 428.261 700.926 428.157 701.362 427.949C701.802 427.741 702.145 427.447 702.391 427.068C702.642 426.689 702.768 426.244 702.768 425.733C702.768 425.241 702.659 424.812 702.441 424.447C702.223 424.083 701.916 423.799 701.518 423.595C701.125 423.392 700.661 423.29 700.126 423.29C699.624 423.29 699.15 423.382 698.705 423.567C698.265 423.747 697.905 424.009 697.626 424.355C697.347 424.696 697.195 425.108 697.171 425.591H695.467C695.495 424.829 695.725 424.161 696.156 423.588C696.587 423.01 697.15 422.561 697.846 422.239C698.547 421.917 699.316 421.756 700.154 421.756C701.054 421.756 701.826 421.938 702.47 422.303C703.114 422.662 703.608 423.138 703.954 423.73C704.3 424.322 704.472 424.961 704.472 425.648C704.472 426.467 704.257 427.165 703.826 427.743C703.4 428.321 702.82 428.721 702.086 428.943V429.057C703.005 429.208 703.722 429.599 704.238 430.229C704.754 430.854 705.012 431.628 705.012 432.551C705.012 433.342 704.797 434.052 704.366 434.682C703.94 435.307 703.357 435.799 702.619 436.159C701.88 436.519 701.04 436.699 700.097 436.699Z" fill="black"/>
<path d="M799.886 404.993C800.434 405.057 800.93 404.663 800.993 404.114L802.022 395.173C802.085 394.625 801.692 394.129 801.143 394.066C800.594 394.002 800.098 394.396 800.035 394.945L799.121 402.892L791.173 401.978C790.625 401.915 790.129 402.308 790.066 402.857C790.002 403.406 790.396 403.902 790.945 403.965L799.886 404.993ZM749.217 341.622L799.217 404.622L800.783 403.378L750.783 340.378L749.217 341.622Z" fill="black"/>
<path d="M750.123 291.992C750.671 291.925 751.06 291.425 750.992 290.877L749.888 281.945C749.821 281.397 749.321 281.008 748.773 281.076C748.225 281.143 747.836 281.643 747.904 282.191L748.885 290.13L740.945 291.112C740.397 291.179 740.008 291.679 740.076 292.227C740.143 292.775 740.643 293.164 741.191 293.096L750.123 291.992ZM649.385 213.789L749.385 291.788L750.615 290.211L650.615 212.211L649.385 213.789Z" fill="black"/>
<path d="M700.008 404.124C700.076 404.672 700.576 405.061 701.124 404.992L710.055 403.876C710.603 403.807 710.991 403.308 710.923 402.76C710.854 402.212 710.354 401.823 709.806 401.891L701.868 402.884L700.876 394.945C700.807 394.397 700.308 394.009 699.76 394.077C699.212 394.146 698.823 394.646 698.891 395.194L700.008 404.124ZM749.211 340.386L700.211 403.386L701.789 404.614L750.789 341.614L749.211 340.386Z" fill="black"/>
</g>
<path d="M499.008 404.124C499.076 404.672 499.576 405.061 500.124 404.992L509.055 403.876C509.603 403.807 509.991 403.308 509.923 402.76C509.854 402.212 509.354 401.823 508.806 401.891L500.868 402.884L499.876 394.945C499.807 394.397 499.308 394.009 498.76 394.077C498.212 394.146 497.823 394.646 497.891 395.194L499.008 404.124ZM548.211 340.386L499.211 403.386L500.789 404.614L549.789 341.614L548.211 340.386Z" fill="black"/>
<path d="M22.3224 311.256C21.6312 311.256 21.0038 311.125 20.4403 310.865C19.8769 310.6 19.4295 310.219 19.098 309.722C18.7666 309.22 18.6009 308.614 18.6009 307.903C18.6009 307.278 18.724 306.772 18.9702 306.384C19.2164 305.991 19.5455 305.683 19.9574 305.46C20.3693 305.238 20.8239 305.072 21.321 304.963C21.8229 304.849 22.3272 304.759 22.8338 304.693C23.4967 304.608 24.0341 304.544 24.446 304.501C24.8627 304.454 25.1657 304.376 25.3551 304.267C25.5492 304.158 25.6463 303.969 25.6463 303.699V303.642C25.6463 302.941 25.4545 302.397 25.071 302.009C24.6922 301.62 24.117 301.426 23.3452 301.426C22.545 301.426 21.9176 301.601 21.4631 301.952C21.0085 302.302 20.6889 302.676 20.5043 303.074L18.9134 302.506C19.1974 301.843 19.5762 301.327 20.0497 300.957C20.5279 300.583 21.0488 300.323 21.6122 300.176C22.1804 300.025 22.7391 299.949 23.2884 299.949C23.6387 299.949 24.0412 299.991 24.4957 300.077C24.955 300.157 25.3977 300.325 25.8239 300.581C26.2547 300.837 26.6122 301.223 26.8963 301.739C27.1804 302.255 27.3224 302.946 27.3224 303.812V311H25.6463V309.523H25.5611C25.4474 309.759 25.258 310.013 24.9929 310.283C24.7277 310.553 24.375 310.782 23.9347 310.972C23.4943 311.161 22.9569 311.256 22.3224 311.256ZM22.5781 309.75C23.241 309.75 23.7997 309.62 24.2543 309.359C24.7135 309.099 25.0592 308.763 25.2912 308.351C25.5279 307.939 25.6463 307.506 25.6463 307.051V305.517C25.5753 305.602 25.419 305.68 25.1776 305.751C24.9408 305.818 24.6662 305.877 24.3537 305.929C24.0459 305.976 23.7453 306.019 23.4517 306.057C23.1629 306.09 22.9285 306.118 22.7486 306.142C22.313 306.199 21.9058 306.291 21.527 306.419C21.1529 306.542 20.8499 306.729 20.6179 306.98C20.3906 307.226 20.277 307.562 20.277 307.989C20.277 308.571 20.4924 309.011 20.9233 309.31C21.3589 309.603 21.9105 309.75 22.5781 309.75ZM32.0579 296.455V311H30.3817V296.455H32.0579ZM35.1278 315.091V300.091H36.7472V301.824H36.946C37.0691 301.634 37.2396 301.393 37.4574 301.099C37.6799 300.801 37.9972 300.536 38.4091 300.304C38.8258 300.067 39.3892 299.949 40.0994 299.949C41.018 299.949 41.8277 300.179 42.5284 300.638C43.2292 301.097 43.776 301.748 44.169 302.591C44.562 303.434 44.7585 304.428 44.7585 305.574C44.7585 306.729 44.562 307.731 44.169 308.578C43.776 309.421 43.2315 310.074 42.5355 310.538C41.8395 310.998 41.0369 311.227 40.1278 311.227C39.4271 311.227 38.866 311.111 38.4446 310.879C38.0232 310.643 37.6989 310.375 37.4716 310.077C37.2443 309.774 37.0691 309.523 36.946 309.324H36.804V315.091H35.1278ZM36.7756 305.545C36.7756 306.369 36.8963 307.096 37.1378 307.726C37.3793 308.351 37.732 308.841 38.196 309.196C38.66 309.546 39.2282 309.722 39.9006 309.722C40.6013 309.722 41.1861 309.537 41.6548 309.168C42.1283 308.794 42.4834 308.292 42.7202 307.662C42.9616 307.027 43.0824 306.322 43.0824 305.545C43.0824 304.778 42.964 304.087 42.7273 303.472C42.4953 302.851 42.1425 302.361 41.669 302.001C41.2003 301.637 40.6108 301.455 39.9006 301.455C39.2188 301.455 38.6458 301.627 38.1818 301.973C37.7178 302.314 37.3674 302.792 37.1307 303.408C36.8939 304.018 36.7756 304.731 36.7756 305.545ZM48.9915 304.438V311H47.3153V296.455H48.9915V301.795H49.1335C49.3892 301.232 49.7727 300.785 50.2841 300.453C50.8002 300.117 51.4867 299.949 52.3438 299.949C53.0871 299.949 53.7382 300.098 54.2969 300.396C54.8556 300.69 55.2888 301.142 55.5966 301.753C55.9091 302.359 56.0653 303.131 56.0653 304.068V311H54.3892V304.182C54.3892 303.315 54.1643 302.645 53.7145 302.172C53.2694 301.694 52.6515 301.455 51.8608 301.455C51.3116 301.455 50.8191 301.571 50.3835 301.803C49.9527 302.035 49.6117 302.373 49.3608 302.818C49.1146 303.263 48.9915 303.803 48.9915 304.438ZM62.342 311.256C61.6507 311.256 61.0233 311.125 60.4599 310.865C59.8964 310.6 59.449 310.219 59.1175 309.722C58.7861 309.22 58.6204 308.614 58.6204 307.903C58.6204 307.278 58.7435 306.772 58.9897 306.384C59.2359 305.991 59.565 305.683 59.9769 305.46C60.3888 305.238 60.8434 305.072 61.3406 304.963C61.8424 304.849 62.3467 304.759 62.8533 304.693C63.5162 304.608 64.0536 304.544 64.4656 304.501C64.8822 304.454 65.1853 304.376 65.3746 304.267C65.5688 304.158 65.6658 303.969 65.6658 303.699V303.642C65.6658 302.941 65.4741 302.397 65.0906 302.009C64.7118 301.62 64.1365 301.426 63.3647 301.426C62.5645 301.426 61.9371 301.601 61.4826 301.952C61.0281 302.302 60.7085 302.676 60.5238 303.074L58.9329 302.506C59.217 301.843 59.5958 301.327 60.0692 300.957C60.5475 300.583 61.0683 300.323 61.6317 300.176C62.1999 300.025 62.7586 299.949 63.3079 299.949C63.6583 299.949 64.0607 299.991 64.5153 300.077C64.9746 300.157 65.4173 300.325 65.8434 300.581C66.2743 300.837 66.6317 301.223 66.9158 301.739C67.1999 302.255 67.342 302.946 67.342 303.812V311H65.6658V309.523H65.5806C65.467 309.759 65.2776 310.013 65.0124 310.283C64.7473 310.553 64.3945 310.782 63.9542 310.972C63.5138 311.161 62.9764 311.256 62.342 311.256ZM62.5977 309.75C63.2605 309.75 63.8192 309.62 64.2738 309.359C64.7331 309.099 65.0787 308.763 65.3107 308.351C65.5475 307.939 65.6658 307.506 65.6658 307.051V305.517C65.5948 305.602 65.4386 305.68 65.1971 305.751C64.9603 305.818 64.6857 305.877 64.3732 305.929C64.0655 305.976 63.7648 306.019 63.4712 306.057C63.1824 306.09 62.948 306.118 62.7681 306.142C62.3325 306.199 61.9253 306.291 61.5465 306.419C61.1725 306.542 60.8694 306.729 60.6374 306.98C60.4102 307.226 60.2965 307.562 60.2965 307.989C60.2965 308.571 60.512 309.011 60.9428 309.31C61.3784 309.603 61.93 309.75 62.5977 309.75ZM77.2479 309.139C76.8975 309.139 76.5968 309.014 76.3459 308.763C76.0949 308.512 75.9695 308.211 75.9695 307.861C75.9695 307.51 76.0949 307.21 76.3459 306.959C76.5968 306.708 76.8975 306.582 77.2479 306.582C77.5982 306.582 77.8989 306.708 78.1499 306.959C78.4008 307.21 78.5263 307.51 78.5263 307.861C78.5263 308.093 78.4671 308.306 78.3487 308.5C78.2351 308.694 78.0812 308.85 77.8871 308.969C77.6977 309.082 77.4846 309.139 77.2479 309.139ZM77.2479 301.781C76.8975 301.781 76.5968 301.656 76.3459 301.405C76.0949 301.154 75.9695 300.853 75.9695 300.503C75.9695 300.152 76.0949 299.852 76.3459 299.601C76.5968 299.35 76.8975 299.224 77.2479 299.224C77.5982 299.224 77.8989 299.35 78.1499 299.601C78.4008 299.852 78.5263 300.152 78.5263 300.503C78.5263 300.735 78.4671 300.948 78.3487 301.142C78.2351 301.336 78.0812 301.492 77.8871 301.611C77.6977 301.724 77.4846 301.781 77.2479 301.781ZM92.2443 296.455V311H90.483V298.301H90.3977L86.8466 300.659V298.869L90.483 296.455H92.2443ZM101.172 311.199C100.102 311.199 99.1903 310.908 98.4375 310.325C97.6847 309.738 97.1094 308.888 96.7116 307.776C96.3139 306.658 96.1151 305.309 96.1151 303.727C96.1151 302.155 96.3139 300.813 96.7116 299.7C97.1141 298.583 97.6918 297.731 98.4446 297.143C99.2022 296.552 100.111 296.256 101.172 296.256C102.232 296.256 103.139 296.552 103.892 297.143C104.65 297.731 105.227 298.583 105.625 299.7C106.027 300.813 106.229 302.155 106.229 303.727C106.229 305.309 106.03 306.658 105.632 307.776C105.234 308.888 104.659 309.738 103.906 310.325C103.153 310.908 102.242 311.199 101.172 311.199ZM101.172 309.636C102.232 309.636 103.056 309.125 103.643 308.102C104.231 307.08 104.524 305.621 104.524 303.727C104.524 302.468 104.389 301.395 104.119 300.51C103.854 299.625 103.471 298.95 102.969 298.486C102.472 298.022 101.873 297.79 101.172 297.79C100.121 297.79 99.2992 298.308 98.7074 299.345C98.1155 300.377 97.8196 301.838 97.8196 303.727C97.8196 304.987 97.9522 306.057 98.2173 306.938C98.4825 307.818 98.8636 308.488 99.3608 308.947C99.8627 309.407 100.466 309.636 101.172 309.636ZM18.6852 335V320.455H20.3613V325.824H20.5034C20.6265 325.634 20.7969 325.393 21.0147 325.099C21.2373 324.801 21.5545 324.536 21.9664 324.304C22.3831 324.067 22.9466 323.949 23.6568 323.949C24.5753 323.949 25.385 324.179 26.0858 324.638C26.7865 325.097 27.3334 325.748 27.7264 326.591C28.1194 327.434 28.3159 328.428 28.3159 329.574C28.3159 330.729 28.1194 331.731 27.7264 332.578C27.3334 333.421 26.7889 334.074 26.0929 334.538C25.3968 334.998 24.5943 335.227 23.6852 335.227C22.9844 335.227 22.4234 335.111 22.002 334.879C21.5806 334.643 21.2562 334.375 21.0289 334.077C20.8017 333.774 20.6265 333.523 20.5034 333.324H20.3045V335H18.6852ZM20.3329 329.545C20.3329 330.369 20.4537 331.096 20.6951 331.726C20.9366 332.351 21.2894 332.841 21.7534 333.196C22.2174 333.546 22.7856 333.722 23.4579 333.722C24.1587 333.722 24.7434 333.537 25.2122 333.168C25.6857 332.794 26.0408 332.292 26.2775 331.662C26.519 331.027 26.6397 330.322 26.6397 329.545C26.6397 328.778 26.5214 328.087 26.2846 327.472C26.0526 326.851 25.6999 326.361 25.2264 326.001C24.7576 325.637 24.1681 325.455 23.4579 325.455C22.7761 325.455 22.2032 325.627 21.7392 325.973C21.2752 326.314 20.9248 326.792 20.688 327.408C20.4513 328.018 20.3329 328.731 20.3329 329.545ZM35.4537 335.227C34.4025 335.227 33.4958 334.995 32.7335 334.531C31.9759 334.062 31.3912 333.409 30.9792 332.571C30.572 331.728 30.3684 330.748 30.3684 329.631C30.3684 328.513 30.572 327.528 30.9792 326.676C31.3912 325.819 31.9641 325.152 32.698 324.673C33.4366 324.19 34.2984 323.949 35.2832 323.949C35.8514 323.949 36.4125 324.044 36.9664 324.233C37.5204 324.422 38.0247 324.73 38.4792 325.156C38.9338 325.578 39.296 326.136 39.5659 326.832C39.8358 327.528 39.9707 328.385 39.9707 329.403V330.114H31.5616V328.665H38.2662C38.2662 328.049 38.1431 327.5 37.8968 327.017C37.6554 326.534 37.3097 326.153 36.8599 325.874C36.4148 325.594 35.8893 325.455 35.2832 325.455C34.6156 325.455 34.0379 325.62 33.5502 325.952C33.0673 326.278 32.6956 326.705 32.4352 327.23C32.1748 327.756 32.0446 328.319 32.0446 328.92V329.886C32.0446 330.71 32.1866 331.409 32.4707 331.982C32.7595 332.55 33.1596 332.983 33.671 333.281C34.1824 333.575 34.7766 333.722 35.4537 333.722C35.894 333.722 36.2917 333.66 36.6468 333.537C37.0067 333.409 37.3168 333.22 37.5772 332.969C37.8377 332.713 38.0389 332.396 38.1809 332.017L39.8002 332.472C39.6298 333.021 39.3433 333.504 38.9409 333.92C38.5384 334.332 38.0413 334.654 37.4494 334.886C36.8575 335.114 36.1923 335.227 35.4537 335.227ZM36.6752 322.784L35.198 320.795L33.7207 322.784H32.1298V322.67L34.4309 319.716H35.965L38.2662 322.67V322.784H36.6752ZM47.2647 324.091V325.511H41.6113V324.091H47.2647ZM43.2591 321.477H44.9352V331.875C44.9352 332.348 45.0038 332.704 45.1412 332.94C45.2832 333.172 45.4631 333.329 45.6809 333.409C45.9035 333.485 46.1378 333.523 46.3841 333.523C46.5687 333.523 46.7202 333.513 46.8386 333.494C46.957 333.471 47.0517 333.452 47.1227 333.438L47.4636 334.943C47.35 334.986 47.1913 335.028 46.9877 335.071C46.7842 335.118 46.5261 335.142 46.2136 335.142C45.7401 335.142 45.2761 335.04 44.8216 334.837C44.3717 334.633 43.9977 334.323 43.6994 333.906C43.4058 333.49 43.2591 332.964 43.2591 332.33V321.477ZM52.9963 335.256C52.305 335.256 51.6776 335.125 51.1142 334.865C50.5507 334.6 50.1033 334.219 49.7718 333.722C49.4404 333.22 49.2747 332.614 49.2747 331.903C49.2747 331.278 49.3978 330.772 49.644 330.384C49.8902 329.991 50.2193 329.683 50.6312 329.46C51.0431 329.238 51.4977 329.072 51.9949 328.963C52.4967 328.849 53.001 328.759 53.5076 328.693C54.1705 328.608 54.7079 328.544 55.1199 328.501C55.5365 328.454 55.8395 328.376 56.0289 328.267C56.2231 328.158 56.3201 327.969 56.3201 327.699V327.642C56.3201 326.941 56.1284 326.397 55.7449 326.009C55.3661 325.62 54.7908 325.426 54.019 325.426C53.2188 325.426 52.5914 325.601 52.1369 325.952C51.6824 326.302 51.3627 326.676 51.1781 327.074L49.5872 326.506C49.8713 325.843 50.2501 325.327 50.7235 324.957C51.2018 324.583 51.7226 324.323 52.286 324.176C52.8542 324.025 53.4129 323.949 53.9622 323.949C54.3126 323.949 54.715 323.991 55.1696 324.077C55.6288 324.157 56.0716 324.325 56.4977 324.581C56.9286 324.837 57.286 325.223 57.5701 325.739C57.8542 326.255 57.9963 326.946 57.9963 327.812V335H56.3201V333.523H56.2349C56.1213 333.759 55.9319 334.013 55.6667 334.283C55.4016 334.553 55.0488 334.782 54.6085 334.972C54.1681 335.161 53.6307 335.256 52.9963 335.256ZM53.252 333.75C53.9148 333.75 54.4735 333.62 54.9281 333.359C55.3874 333.099 55.733 332.763 55.965 332.351C56.2018 331.939 56.3201 331.506 56.3201 331.051V329.517C56.2491 329.602 56.0929 329.68 55.8514 329.751C55.6146 329.818 55.34 329.877 55.0275 329.929C54.7198 329.976 54.4191 330.019 54.1255 330.057C53.8367 330.09 53.6023 330.118 53.4224 330.142C52.9868 330.199 52.5796 330.291 52.2008 330.419C51.8268 330.542 51.5237 330.729 51.2917 330.98C51.0645 331.226 50.9508 331.562 50.9508 331.989C50.9508 332.571 51.1663 333.011 51.5971 333.31C52.0327 333.603 52.5843 333.75 53.252 333.75ZM67.9022 335.114C67.5518 335.114 67.2511 334.988 67.0002 334.737C66.7492 334.486 66.6238 334.186 66.6238 333.835C66.6238 333.485 66.7492 333.184 67.0002 332.933C67.2511 332.682 67.5518 332.557 67.9022 332.557C68.2525 332.557 68.5532 332.682 68.8042 332.933C69.0551 333.184 69.1806 333.485 69.1806 333.835C69.1806 334.067 69.1214 334.28 69.003 334.474C68.8894 334.669 68.7355 334.825 68.5414 334.943C68.352 335.057 68.1389 335.114 67.9022 335.114ZM67.9022 327.017C67.5518 327.017 67.2511 326.892 67.0002 326.641C66.7492 326.39 66.6238 326.089 66.6238 325.739C66.6238 325.388 66.7492 325.088 67.0002 324.837C67.2511 324.586 67.5518 324.46 67.9022 324.46C68.2525 324.46 68.5532 324.586 68.8042 324.837C69.0551 325.088 69.1806 325.388 69.1806 325.739C69.1806 325.971 69.1214 326.184 69.003 326.378C68.8894 326.572 68.7355 326.728 68.5414 326.847C68.352 326.96 68.1389 327.017 67.9022 327.017ZM82.0748 334.006V324.631H83.6657V334.006H82.0748ZM78.1827 330.114V328.523H87.5577V330.114H78.1827ZM94.4061 324.915C94.9174 324.915 95.3862 324.991 95.8123 325.142C96.2432 325.289 96.6315 325.483 96.9771 325.724C97.3275 325.961 97.6352 326.212 97.9004 326.477C98.0708 326.634 98.2271 326.795 98.3691 326.96C98.5159 327.126 98.6532 327.287 98.7811 327.443C98.8947 327.287 99.0154 327.133 99.1433 326.982C99.2711 326.83 99.4345 326.662 99.6333 326.477C100.031 326.08 100.521 325.72 101.104 325.398C101.691 325.076 102.375 324.915 103.156 324.915C103.876 324.915 104.529 325.09 105.116 325.44C105.708 325.786 106.177 326.255 106.523 326.847C106.873 327.434 107.048 328.087 107.048 328.807C107.048 329.351 106.946 329.863 106.743 330.341C106.544 330.814 106.267 331.231 105.912 331.591C105.557 331.946 105.142 332.225 104.669 332.429C104.2 332.628 103.696 332.727 103.156 332.727C102.635 332.727 102.157 332.654 101.721 332.507C101.291 332.356 100.9 332.164 100.55 331.932C100.204 331.695 99.8985 331.449 99.6333 331.193C99.4629 331.023 99.3066 330.855 99.1646 330.689C99.0226 330.518 98.8947 330.355 98.7811 330.199C98.6532 330.355 98.5159 330.518 98.3691 330.689C98.2271 330.855 98.0708 331.023 97.9004 331.193C97.6352 331.449 97.3275 331.695 96.9771 331.932C96.6315 332.164 96.2432 332.356 95.8123 332.507C95.3862 332.654 94.9174 332.727 94.4061 332.727C93.6769 332.727 93.0164 332.552 92.4245 332.202C91.8327 331.851 91.3616 331.38 91.0112 330.788C90.6608 330.196 90.4856 329.536 90.4856 328.807C90.4856 328.267 90.585 327.763 90.7839 327.294C90.9875 326.821 91.2669 326.406 91.622 326.051C91.9818 325.696 92.3985 325.419 92.872 325.22C93.3502 325.017 93.8616 324.915 94.4061 324.915ZM92.1049 328.807C92.1049 329.233 92.2067 329.621 92.4103 329.972C92.6187 330.317 92.8957 330.594 93.2413 330.803C93.5917 331.006 93.9799 331.108 94.4061 331.108C94.8748 331.108 95.3033 331.001 95.6916 330.788C96.0798 330.575 96.4373 330.312 96.764 330C96.9771 329.787 97.1641 329.581 97.3251 329.382C97.4861 329.183 97.6305 328.991 97.7583 328.807C97.6305 328.636 97.4885 328.454 97.3322 328.26C97.1807 328.061 96.9913 327.855 96.764 327.642C96.4515 327.33 96.0964 327.067 95.6987 326.854C95.3057 326.641 94.8748 326.534 94.4061 326.534C93.9799 326.534 93.5917 326.638 93.2413 326.847C92.8957 327.05 92.6187 327.325 92.4103 327.67C92.2067 328.011 92.1049 328.39 92.1049 328.807ZM105.429 328.807C105.429 328.39 105.325 328.011 105.116 327.67C104.913 327.325 104.638 327.05 104.292 326.847C103.952 326.638 103.573 326.534 103.156 326.534C102.834 326.534 102.531 326.584 102.247 326.683C101.963 326.778 101.698 326.911 101.452 327.081C101.205 327.247 100.978 327.434 100.77 327.642C100.514 327.884 100.301 328.118 100.131 328.345C99.9648 328.568 99.8464 328.722 99.7754 328.807C99.9032 328.991 100.048 329.183 100.209 329.382C100.37 329.581 100.557 329.787 100.77 330C101.096 330.312 101.454 330.575 101.842 330.788C102.235 331.001 102.673 331.108 103.156 331.108C103.573 331.108 103.952 331.006 104.292 330.803C104.638 330.594 104.913 330.317 105.116 329.972C105.325 329.621 105.429 329.233 105.429 328.807Z" fill="black"/>
<path d="M116.315 183.256C115.623 183.256 114.996 183.125 114.433 182.865C113.869 182.6 113.422 182.219 113.09 181.722C112.759 181.22 112.593 180.614 112.593 179.903C112.593 179.278 112.716 178.772 112.962 178.384C113.209 177.991 113.538 177.683 113.95 177.46C114.362 177.238 114.816 177.072 115.313 176.963C115.815 176.849 116.319 176.759 116.826 176.693C117.489 176.608 118.026 176.544 118.438 176.501C118.855 176.454 119.158 176.376 119.347 176.267C119.541 176.158 119.638 175.969 119.638 175.699V175.642C119.638 174.941 119.447 174.397 119.063 174.009C118.684 173.62 118.109 173.426 117.337 173.426C116.537 173.426 115.91 173.601 115.455 173.952C115.001 174.302 114.681 174.676 114.496 175.074L112.906 174.506C113.19 173.843 113.568 173.327 114.042 172.957C114.52 172.583 115.041 172.323 115.604 172.176C116.173 172.025 116.731 171.949 117.281 171.949C117.631 171.949 118.033 171.991 118.488 172.077C118.947 172.157 119.39 172.325 119.816 172.581C120.247 172.837 120.604 173.223 120.888 173.739C121.173 174.255 121.315 174.946 121.315 175.812V183H119.638V181.523H119.553C119.44 181.759 119.25 182.013 118.985 182.283C118.72 182.553 118.367 182.782 117.927 182.972C117.487 183.161 116.949 183.256 116.315 183.256ZM116.57 181.75C117.233 181.75 117.792 181.62 118.246 181.359C118.706 181.099 119.051 180.763 119.283 180.351C119.52 179.939 119.638 179.506 119.638 179.051V177.517C119.567 177.602 119.411 177.68 119.17 177.751C118.933 177.818 118.658 177.877 118.346 177.929C118.038 177.976 117.737 178.019 117.444 178.057C117.155 178.09 116.921 178.118 116.741 178.142C116.305 178.199 115.898 178.291 115.519 178.419C115.145 178.542 114.842 178.729 114.61 178.98C114.383 179.226 114.269 179.562 114.269 179.989C114.269 180.571 114.485 181.011 114.915 181.31C115.351 181.603 115.903 181.75 116.57 181.75ZM126.05 168.455V183H124.374V168.455H126.05ZM129.12 187.091V172.091H130.739V173.824H130.938C131.061 173.634 131.232 173.393 131.45 173.099C131.672 172.801 131.989 172.536 132.401 172.304C132.818 172.067 133.381 171.949 134.092 171.949C135.01 171.949 135.82 172.179 136.521 172.638C137.221 173.097 137.768 173.748 138.161 174.591C138.554 175.434 138.751 176.428 138.751 177.574C138.751 178.729 138.554 179.731 138.161 180.578C137.768 181.421 137.224 182.074 136.528 182.538C135.832 182.998 135.029 183.227 134.12 183.227C133.419 183.227 132.858 183.111 132.437 182.879C132.015 182.643 131.691 182.375 131.464 182.077C131.237 181.774 131.061 181.523 130.938 181.324H130.796V187.091H129.12ZM130.768 177.545C130.768 178.369 130.888 179.096 131.13 179.726C131.371 180.351 131.724 180.841 132.188 181.196C132.652 181.546 133.22 181.722 133.893 181.722C134.594 181.722 135.178 181.537 135.647 181.168C136.121 180.794 136.476 180.292 136.712 179.662C136.954 179.027 137.075 178.322 137.075 177.545C137.075 176.778 136.956 176.087 136.719 175.472C136.487 174.851 136.135 174.361 135.661 174.001C135.192 173.637 134.603 173.455 133.893 173.455C133.211 173.455 132.638 173.627 132.174 173.973C131.71 174.314 131.36 174.792 131.123 175.408C130.886 176.018 130.768 176.731 130.768 177.545ZM142.984 176.438V183H141.308V168.455H142.984V173.795H143.126C143.381 173.232 143.765 172.785 144.276 172.453C144.792 172.117 145.479 171.949 146.336 171.949C147.079 171.949 147.73 172.098 148.289 172.396C148.848 172.69 149.281 173.142 149.589 173.753C149.901 174.359 150.058 175.131 150.058 176.068V183H148.381V176.182C148.381 175.315 148.156 174.645 147.707 174.172C147.262 173.694 146.644 173.455 145.853 173.455C145.304 173.455 144.811 173.571 144.376 173.803C143.945 174.035 143.604 174.373 143.353 174.818C143.107 175.263 142.984 175.803 142.984 176.438ZM156.334 183.256C155.643 183.256 155.016 183.125 154.452 182.865C153.889 182.6 153.441 182.219 153.11 181.722C152.778 181.22 152.613 180.614 152.613 179.903C152.613 179.278 152.736 178.772 152.982 178.384C153.228 177.991 153.557 177.683 153.969 177.46C154.381 177.238 154.836 177.072 155.333 176.963C155.835 176.849 156.339 176.759 156.846 176.693C157.508 176.608 158.046 176.544 158.458 176.501C158.874 176.454 159.177 176.376 159.367 176.267C159.561 176.158 159.658 175.969 159.658 175.699V175.642C159.658 174.941 159.466 174.397 159.083 174.009C158.704 173.62 158.129 173.426 157.357 173.426C156.557 173.426 155.929 173.601 155.475 173.952C155.02 174.302 154.701 174.676 154.516 175.074L152.925 174.506C153.209 173.843 153.588 173.327 154.061 172.957C154.54 172.583 155.06 172.323 155.624 172.176C156.192 172.025 156.751 171.949 157.3 171.949C157.65 171.949 158.053 171.991 158.507 172.077C158.967 172.157 159.409 172.325 159.836 172.581C160.266 172.837 160.624 173.223 160.908 173.739C161.192 174.255 161.334 174.946 161.334 175.812V183H159.658V181.523H159.573C159.459 181.759 159.27 182.013 159.005 182.283C158.739 182.553 158.387 182.782 157.946 182.972C157.506 183.161 156.969 183.256 156.334 183.256ZM156.59 181.75C157.253 181.75 157.811 181.62 158.266 181.359C158.725 181.099 159.071 180.763 159.303 180.351C159.54 179.939 159.658 179.506 159.658 179.051V177.517C159.587 177.602 159.431 177.68 159.189 177.751C158.953 177.818 158.678 177.877 158.365 177.929C158.058 177.976 157.757 178.019 157.463 178.057C157.175 178.09 156.94 178.118 156.76 178.142C156.325 178.199 155.917 178.291 155.539 178.419C155.165 178.542 154.862 178.729 154.63 178.98C154.402 179.226 154.289 179.562 154.289 179.989C154.289 180.571 154.504 181.011 154.935 181.31C155.371 181.603 155.922 181.75 156.59 181.75ZM171.24 183.114C170.89 183.114 170.589 182.988 170.338 182.737C170.087 182.486 169.962 182.186 169.962 181.835C169.962 181.485 170.087 181.184 170.338 180.933C170.589 180.682 170.89 180.557 171.24 180.557C171.59 180.557 171.891 180.682 172.142 180.933C172.393 181.184 172.518 181.485 172.518 181.835C172.518 182.067 172.459 182.28 172.341 182.474C172.227 182.669 172.073 182.825 171.879 182.943C171.69 183.057 171.477 183.114 171.24 183.114ZM171.24 175.017C170.89 175.017 170.589 174.892 170.338 174.641C170.087 174.39 169.962 174.089 169.962 173.739C169.962 173.388 170.087 173.088 170.338 172.837C170.589 172.586 170.89 172.46 171.24 172.46C171.59 172.46 171.891 172.586 172.142 172.837C172.393 173.088 172.518 173.388 172.518 173.739C172.518 173.971 172.459 174.184 172.341 174.378C172.227 174.572 172.073 174.728 171.879 174.847C171.69 174.96 171.477 175.017 171.24 175.017ZM187.401 175.983V177.545H181.038V175.983H187.401ZM193.76 172.915C194.271 172.915 194.74 172.991 195.166 173.142C195.597 173.289 195.985 173.483 196.331 173.724C196.681 173.961 196.989 174.212 197.254 174.477C197.424 174.634 197.581 174.795 197.723 174.96C197.869 175.126 198.007 175.287 198.135 175.443C198.248 175.287 198.369 175.133 198.497 174.982C198.625 174.83 198.788 174.662 198.987 174.477C199.385 174.08 199.875 173.72 200.457 173.398C201.044 173.076 201.728 172.915 202.51 172.915C203.229 172.915 203.883 173.09 204.47 173.44C205.062 173.786 205.53 174.255 205.876 174.847C206.226 175.434 206.402 176.087 206.402 176.807C206.402 177.351 206.3 177.863 206.096 178.341C205.897 178.814 205.62 179.231 205.265 179.591C204.91 179.946 204.496 180.225 204.022 180.429C203.554 180.628 203.049 180.727 202.51 180.727C201.989 180.727 201.511 180.654 201.075 180.507C200.644 180.356 200.253 180.164 199.903 179.932C199.557 179.695 199.252 179.449 198.987 179.193C198.816 179.023 198.66 178.855 198.518 178.689C198.376 178.518 198.248 178.355 198.135 178.199C198.007 178.355 197.869 178.518 197.723 178.689C197.581 178.855 197.424 179.023 197.254 179.193C196.989 179.449 196.681 179.695 196.331 179.932C195.985 180.164 195.597 180.356 195.166 180.507C194.74 180.654 194.271 180.727 193.76 180.727C193.03 180.727 192.37 180.552 191.778 180.202C191.186 179.851 190.715 179.38 190.365 178.788C190.014 178.196 189.839 177.536 189.839 176.807C189.839 176.267 189.939 175.763 190.137 175.294C190.341 174.821 190.62 174.406 190.975 174.051C191.335 173.696 191.752 173.419 192.225 173.22C192.704 173.017 193.215 172.915 193.76 172.915ZM191.458 176.807C191.458 177.233 191.56 177.621 191.764 177.972C191.972 178.317 192.249 178.594 192.595 178.803C192.945 179.006 193.333 179.108 193.76 179.108C194.228 179.108 194.657 179.001 195.045 178.788C195.433 178.575 195.791 178.312 196.118 178C196.331 177.787 196.518 177.581 196.679 177.382C196.84 177.183 196.984 176.991 197.112 176.807C196.984 176.636 196.842 176.454 196.686 176.26C196.534 176.061 196.345 175.855 196.118 175.642C195.805 175.33 195.45 175.067 195.052 174.854C194.659 174.641 194.228 174.534 193.76 174.534C193.333 174.534 192.945 174.638 192.595 174.847C192.249 175.05 191.972 175.325 191.764 175.67C191.56 176.011 191.458 176.39 191.458 176.807ZM204.782 176.807C204.782 176.39 204.678 176.011 204.47 175.67C204.266 175.325 203.992 175.05 203.646 174.847C203.305 174.638 202.926 174.534 202.51 174.534C202.188 174.534 201.885 174.584 201.6 174.683C201.316 174.778 201.051 174.911 200.805 175.081C200.559 175.247 200.332 175.434 200.123 175.642C199.868 175.884 199.654 176.118 199.484 176.345C199.318 176.568 199.2 176.722 199.129 176.807C199.257 176.991 199.401 177.183 199.562 177.382C199.723 177.581 199.91 177.787 200.123 178C200.45 178.312 200.807 178.575 201.196 178.788C201.589 179.001 202.027 179.108 202.51 179.108C202.926 179.108 203.305 179.006 203.646 178.803C203.992 178.594 204.266 178.317 204.47 177.972C204.678 177.621 204.782 177.233 204.782 176.807ZM120.685 207V192.455H122.361V197.824H122.503C122.626 197.634 122.797 197.393 123.015 197.099C123.237 196.801 123.555 196.536 123.966 196.304C124.383 196.067 124.947 195.949 125.657 195.949C126.575 195.949 127.385 196.179 128.086 196.638C128.787 197.097 129.333 197.748 129.726 198.591C130.119 199.434 130.316 200.428 130.316 201.574C130.316 202.729 130.119 203.731 129.726 204.578C129.333 205.421 128.789 206.074 128.093 206.538C127.397 206.998 126.594 207.227 125.685 207.227C124.984 207.227 124.423 207.111 124.002 206.879C123.581 206.643 123.256 206.375 123.029 206.077C122.802 205.774 122.626 205.523 122.503 205.324H122.305V207H120.685ZM122.333 201.545C122.333 202.369 122.454 203.096 122.695 203.726C122.937 204.351 123.289 204.841 123.753 205.196C124.217 205.546 124.786 205.722 125.458 205.722C126.159 205.722 126.743 205.537 127.212 205.168C127.686 204.794 128.041 204.292 128.278 203.662C128.519 203.027 128.64 202.322 128.64 201.545C128.64 200.778 128.521 200.087 128.285 199.472C128.053 198.851 127.7 198.361 127.226 198.001C126.758 197.637 126.168 197.455 125.458 197.455C124.776 197.455 124.203 197.627 123.739 197.973C123.275 198.314 122.925 198.792 122.688 199.408C122.451 200.018 122.333 200.731 122.333 201.545ZM137.454 207.227C136.403 207.227 135.496 206.995 134.733 206.531C133.976 206.062 133.391 205.409 132.979 204.571C132.572 203.728 132.368 202.748 132.368 201.631C132.368 200.513 132.572 199.528 132.979 198.676C133.391 197.819 133.964 197.152 134.698 196.673C135.437 196.19 136.298 195.949 137.283 195.949C137.851 195.949 138.412 196.044 138.966 196.233C139.52 196.422 140.025 196.73 140.479 197.156C140.934 197.578 141.296 198.136 141.566 198.832C141.836 199.528 141.971 200.385 141.971 201.403V202.114H133.562V200.665H140.266C140.266 200.049 140.143 199.5 139.897 199.017C139.655 198.534 139.31 198.153 138.86 197.874C138.415 197.594 137.889 197.455 137.283 197.455C136.616 197.455 136.038 197.62 135.55 197.952C135.067 198.278 134.696 198.705 134.435 199.23C134.175 199.756 134.045 200.319 134.045 200.92V201.886C134.045 202.71 134.187 203.409 134.471 203.982C134.76 204.55 135.16 204.983 135.671 205.281C136.182 205.575 136.777 205.722 137.454 205.722C137.894 205.722 138.292 205.66 138.647 205.537C139.007 205.409 139.317 205.22 139.577 204.969C139.838 204.713 140.039 204.396 140.181 204.017L141.8 204.472C141.63 205.021 141.343 205.504 140.941 205.92C140.538 206.332 140.041 206.654 139.449 206.886C138.858 207.114 138.192 207.227 137.454 207.227ZM138.675 194.784L137.198 192.795L135.721 194.784H134.13V194.67L136.431 191.716H137.965L140.266 194.67V194.784H138.675ZM149.265 196.091V197.511H143.611V196.091H149.265ZM145.259 193.477H146.935V203.875C146.935 204.348 147.004 204.704 147.141 204.94C147.283 205.172 147.463 205.329 147.681 205.409C147.903 205.485 148.138 205.523 148.384 205.523C148.569 205.523 148.72 205.513 148.839 205.494C148.957 205.471 149.052 205.452 149.123 205.438L149.464 206.943C149.35 206.986 149.191 207.028 148.988 207.071C148.784 207.118 148.526 207.142 148.214 207.142C147.74 207.142 147.276 207.04 146.822 206.837C146.372 206.633 145.998 206.323 145.699 205.906C145.406 205.49 145.259 204.964 145.259 204.33V193.477ZM154.996 207.256C154.305 207.256 153.678 207.125 153.114 206.865C152.551 206.6 152.103 206.219 151.772 205.722C151.44 205.22 151.275 204.614 151.275 203.903C151.275 203.278 151.398 202.772 151.644 202.384C151.89 201.991 152.219 201.683 152.631 201.46C153.043 201.238 153.498 201.072 153.995 200.963C154.497 200.849 155.001 200.759 155.508 200.693C156.171 200.608 156.708 200.544 157.12 200.501C157.537 200.454 157.84 200.376 158.029 200.267C158.223 200.158 158.32 199.969 158.32 199.699V199.642C158.32 198.941 158.128 198.397 157.745 198.009C157.366 197.62 156.791 197.426 156.019 197.426C155.219 197.426 154.591 197.601 154.137 197.952C153.682 198.302 153.363 198.676 153.178 199.074L151.587 198.506C151.871 197.843 152.25 197.327 152.724 196.957C153.202 196.583 153.723 196.323 154.286 196.176C154.854 196.025 155.413 195.949 155.962 195.949C156.313 195.949 156.715 195.991 157.17 196.077C157.629 196.157 158.072 196.325 158.498 196.581C158.929 196.837 159.286 197.223 159.57 197.739C159.854 198.255 159.996 198.946 159.996 199.812V207H158.32V205.523H158.235C158.121 205.759 157.932 206.013 157.667 206.283C157.402 206.553 157.049 206.782 156.608 206.972C156.168 207.161 155.631 207.256 154.996 207.256ZM155.252 205.75C155.915 205.75 156.474 205.62 156.928 205.359C157.387 205.099 157.733 204.763 157.965 204.351C158.202 203.939 158.32 203.506 158.32 203.051V201.517C158.249 201.602 158.093 201.68 157.851 201.751C157.615 201.818 157.34 201.877 157.028 201.929C156.72 201.976 156.419 202.019 156.126 202.057C155.837 202.09 155.602 202.118 155.422 202.142C154.987 202.199 154.58 202.291 154.201 202.419C153.827 202.542 153.524 202.729 153.292 202.98C153.064 203.226 152.951 203.562 152.951 203.989C152.951 204.571 153.166 205.011 153.597 205.31C154.033 205.603 154.584 205.75 155.252 205.75ZM169.902 205.139C169.552 205.139 169.251 205.014 169 204.763C168.749 204.512 168.624 204.211 168.624 203.861C168.624 203.51 168.749 203.21 169 202.959C169.251 202.708 169.552 202.582 169.902 202.582C170.253 202.582 170.553 202.708 170.804 202.959C171.055 203.21 171.181 203.51 171.181 203.861C171.181 204.093 171.121 204.306 171.003 204.5C170.889 204.694 170.735 204.85 170.541 204.969C170.352 205.082 170.139 205.139 169.902 205.139ZM169.902 197.781C169.552 197.781 169.251 197.656 169 197.405C168.749 197.154 168.624 196.853 168.624 196.503C168.624 196.152 168.749 195.852 169 195.601C169.251 195.35 169.552 195.224 169.902 195.224C170.253 195.224 170.553 195.35 170.804 195.601C171.055 195.852 171.181 196.152 171.181 196.503C171.181 196.735 171.121 196.948 171.003 197.142C170.889 197.336 170.735 197.492 170.541 197.611C170.352 197.724 170.139 197.781 169.902 197.781ZM184.899 192.455V207H183.137V194.301H183.052L179.501 196.659V194.869L183.137 192.455H184.899ZM193.826 207.199C192.756 207.199 191.845 206.908 191.092 206.325C190.339 205.738 189.764 204.888 189.366 203.776C188.968 202.658 188.769 201.309 188.769 199.727C188.769 198.155 188.968 196.813 189.366 195.7C189.768 194.583 190.346 193.731 191.099 193.143C191.856 192.552 192.766 192.256 193.826 192.256C194.887 192.256 195.794 192.552 196.546 193.143C197.304 193.731 197.882 194.583 198.279 195.7C198.682 196.813 198.883 198.155 198.883 199.727C198.883 201.309 198.684 202.658 198.286 203.776C197.889 204.888 197.313 205.738 196.561 206.325C195.808 206.908 194.896 207.199 193.826 207.199ZM193.826 205.636C194.887 205.636 195.711 205.125 196.298 204.102C196.885 203.08 197.178 201.621 197.178 199.727C197.178 198.468 197.044 197.395 196.774 196.51C196.508 195.625 196.125 194.95 195.623 194.486C195.126 194.022 194.527 193.79 193.826 193.79C192.775 193.79 191.954 194.308 191.362 195.345C190.77 196.377 190.474 197.838 190.474 199.727C190.474 200.987 190.606 202.057 190.872 202.938C191.137 203.818 191.518 204.488 192.015 204.947C192.517 205.407 193.121 205.636 193.826 205.636Z" fill="black"/>
</svg>
