<svg width="961" height="454" viewBox="0 0 961 454" fill="none" xmlns="http://www.w3.org/2000/svg">
<path d="M174.827 316.26C174.419 316.631 174.389 317.264 174.76 317.673L180.813 324.333C181.185 324.742 181.817 324.772 182.226 324.4C182.634 324.029 182.665 323.396 182.293 322.988L176.913 317.067L182.833 311.687C183.242 311.315 183.272 310.683 182.9 310.274C182.529 309.866 181.896 309.835 181.488 310.207L174.827 316.26ZM226.042 365.103L226.964 364.716L226.042 365.103ZM175.5 317C175.452 317.999 175.452 317.999 175.451 317.999C175.451 317.999 175.451 317.999 175.451 317.999C175.451 317.999 175.451 317.999 175.452 317.999C175.454 317.999 175.458 317.999 175.463 317.999C175.474 318 175.493 318.001 175.519 318.003C175.57 318.007 175.65 318.013 175.758 318.023C175.973 318.044 176.299 318.081 176.724 318.144C177.576 318.27 178.826 318.503 180.392 318.925C183.525 319.771 187.925 321.378 192.933 324.423C202.938 330.505 215.438 342.361 225.119 365.489L226.964 364.716C217.13 341.224 204.36 329.028 193.972 322.714C188.785 319.561 184.208 317.884 180.913 316.995C179.266 316.55 177.94 316.302 177.018 316.166C176.557 316.097 176.197 316.056 175.949 316.033C175.824 316.021 175.728 316.013 175.661 316.008C175.627 316.006 175.601 316.004 175.582 316.003C175.572 316.002 175.565 316.002 175.559 316.002C175.556 316.002 175.554 316.001 175.552 316.001C175.551 316.001 175.55 316.001 175.55 316.001C175.549 316.001 175.548 316.001 175.5 317ZM225.119 365.489C234.809 388.638 234.771 404.898 232.385 415.311C231.191 420.523 229.404 424.292 227.929 426.744C227.191 427.971 226.531 428.87 226.062 429.455C225.827 429.748 225.64 429.963 225.515 430.101C225.452 430.17 225.405 430.22 225.375 430.251C225.36 430.267 225.35 430.278 225.344 430.284C225.34 430.287 225.339 430.289 225.338 430.29C225.337 430.29 225.337 430.29 225.338 430.29C225.338 430.29 225.338 430.29 225.338 430.29C225.338 430.289 225.339 430.289 226.042 431C226.745 431.711 226.745 431.711 226.746 431.71C226.746 431.71 226.747 431.709 226.748 431.708C226.749 431.707 226.751 431.705 226.753 431.703C226.757 431.699 226.762 431.694 226.768 431.688C226.781 431.675 226.798 431.658 226.819 431.635C226.862 431.591 226.922 431.527 226.997 431.443C227.149 431.277 227.362 431.031 227.622 430.706C228.144 430.055 228.856 429.084 229.643 427.775C231.218 425.156 233.089 421.192 234.335 415.757C236.828 404.876 236.789 388.188 226.964 364.716L225.119 365.489Z" fill="#FF0000"/>
<path d="M272.151 356.654L273.04 357.113L272.151 356.654ZM325.626 315.78C326.056 315.435 326.126 314.805 325.78 314.374L320.15 307.353C319.804 306.922 319.175 306.853 318.744 307.199C318.313 307.544 318.244 308.174 318.589 308.604L323.594 314.845L317.353 319.85C316.922 320.196 316.853 320.825 317.199 321.256C317.544 321.687 318.174 321.756 318.604 321.411L325.626 315.78ZM276.038 429.161C276.752 428.461 276.752 428.461 276.752 428.462C276.752 428.462 276.752 428.462 276.752 428.462C276.752 428.461 276.751 428.461 276.75 428.46C276.748 428.457 276.744 428.453 276.739 428.448C276.728 428.437 276.711 428.419 276.689 428.395C276.643 428.346 276.573 428.271 276.481 428.17C276.299 427.968 276.029 427.661 275.692 427.252C275.017 426.434 274.072 425.209 273.006 423.597C270.874 420.372 268.262 415.605 266.361 409.456C262.568 397.184 261.58 379.329 273.04 357.113L271.263 356.196C259.553 378.896 260.508 397.294 264.451 410.047C266.417 416.41 269.122 421.348 271.338 424.7C272.447 426.376 273.434 427.658 274.149 428.524C274.506 428.958 274.795 429.287 274.998 429.511C275.099 429.623 275.178 429.708 275.233 429.767C275.261 429.796 275.282 429.818 275.297 429.834C275.305 429.842 275.311 429.848 275.315 429.853C275.318 429.855 275.319 429.857 275.321 429.858C275.321 429.859 275.322 429.86 275.323 429.86C275.323 429.861 275.324 429.861 276.038 429.161ZM273.04 357.113C284.535 334.828 297.593 324.585 307.686 319.89C312.74 317.539 317.072 316.569 320.126 316.184C321.653 315.992 322.86 315.946 323.678 315.948C324.087 315.948 324.398 315.961 324.603 315.973C324.706 315.979 324.782 315.984 324.83 315.988C324.854 315.991 324.871 315.992 324.882 315.993C324.887 315.994 324.89 315.994 324.891 315.994C324.892 315.994 324.893 315.994 324.892 315.994C324.892 315.994 324.892 315.994 324.892 315.994C324.891 315.994 324.891 315.994 325 315C325.109 314.006 325.108 314.006 325.107 314.006C325.107 314.006 325.106 314.006 325.105 314.006C325.103 314.005 325.101 314.005 325.098 314.005C325.092 314.004 325.085 314.003 325.075 314.003C325.057 314.001 325.031 313.998 324.998 313.996C324.933 313.99 324.839 313.983 324.719 313.976C324.478 313.962 324.129 313.948 323.681 313.948C322.785 313.946 321.493 313.996 319.876 314.2C316.64 314.607 312.104 315.629 306.842 318.077C296.303 322.98 282.937 333.563 271.263 356.196L273.04 357.113Z" fill="#FF0000"/>
<path d="M863.787 306.818H866.415L872.594 321.911H872.807L878.986 306.818H881.614V325H879.554V311.186H879.377L873.695 325H871.706L866.024 311.186H865.847V325H863.787V306.818ZM889.757 325.32C888.893 325.32 888.109 325.157 887.404 324.831C886.7 324.5 886.141 324.023 885.727 323.402C885.312 322.775 885.105 322.017 885.105 321.129C885.105 320.348 885.259 319.715 885.567 319.229C885.874 318.738 886.286 318.353 886.801 318.075C887.316 317.797 887.884 317.59 888.505 317.454C889.133 317.312 889.763 317.199 890.396 317.116C891.225 317.01 891.897 316.93 892.412 316.877C892.932 316.818 893.311 316.72 893.548 316.584C893.791 316.448 893.912 316.211 893.912 315.874V315.803C893.912 314.927 893.672 314.246 893.193 313.761C892.719 313.275 892 313.033 891.035 313.033C890.035 313.033 889.251 313.252 888.683 313.69C888.115 314.128 887.715 314.595 887.484 315.092L885.496 314.382C885.851 313.554 886.324 312.908 886.916 312.447C887.514 311.979 888.165 311.654 888.869 311.47C889.58 311.281 890.278 311.186 890.964 311.186C891.402 311.186 891.905 311.239 892.474 311.346C893.048 311.446 893.601 311.657 894.134 311.976C894.672 312.296 895.119 312.778 895.474 313.423C895.83 314.068 896.007 314.933 896.007 316.016V325H893.912V323.153H893.805C893.663 323.449 893.427 323.766 893.095 324.103C892.764 324.441 892.323 324.728 891.772 324.964C891.222 325.201 890.55 325.32 889.757 325.32ZM890.077 323.438C890.905 323.438 891.604 323.275 892.172 322.949C892.746 322.624 893.178 322.203 893.468 321.689C893.764 321.174 893.912 320.632 893.912 320.064V318.146C893.823 318.253 893.628 318.35 893.326 318.439C893.03 318.522 892.687 318.596 892.296 318.661C891.911 318.72 891.536 318.774 891.169 318.821C890.808 318.862 890.515 318.898 890.29 318.928C889.745 318.999 889.236 319.114 888.763 319.274C888.295 319.428 887.916 319.661 887.626 319.975C887.342 320.283 887.2 320.703 887.2 321.236C887.2 321.964 887.47 322.514 888.008 322.887C888.553 323.254 889.242 323.438 890.077 323.438ZM901.394 311.364L904.661 316.939L907.928 311.364H910.343L905.939 318.182L910.343 325H907.928L904.661 319.709L901.394 325H898.979L903.311 318.182L898.979 311.364H901.394Z" fill="black"/>
<path d="M863.787 15.8182H866.415L872.594 30.9105H872.807L878.986 15.8182H881.614V34H879.554V20.1861H879.377L873.695 34H871.706L866.024 20.1861H865.847V34H863.787V15.8182ZM889.757 34.3196C888.893 34.3196 888.109 34.1568 887.404 33.8313C886.7 33.4999 886.141 33.0234 885.727 32.402C885.312 31.7746 885.105 31.017 885.105 30.1293C885.105 29.348 885.259 28.7147 885.567 28.2294C885.874 27.7382 886.286 27.3535 886.801 27.0753C887.316 26.7971 887.884 26.59 888.505 26.4538C889.133 26.3118 889.763 26.1993 890.396 26.1165C891.225 26.0099 891.897 25.93 892.412 25.8768C892.932 25.8176 893.311 25.7199 893.548 25.5838C893.791 25.4477 893.912 25.2109 893.912 24.8736V24.8026C893.912 23.9266 893.672 23.246 893.193 22.7607C892.719 22.2753 892 22.0327 891.035 22.0327C890.035 22.0327 889.251 22.2517 888.683 22.6896C888.115 23.1276 887.715 23.5952 887.484 24.0923L885.496 23.3821C885.851 22.5535 886.324 21.9084 886.916 21.4467C887.514 20.9792 888.165 20.6536 888.869 20.4702C889.58 20.2808 890.278 20.1861 890.964 20.1861C891.402 20.1861 891.905 20.2393 892.474 20.3459C893.048 20.4465 893.601 20.6566 894.134 20.9762C894.672 21.2958 895.119 21.7782 895.474 22.4233C895.83 23.0684 896.007 23.9325 896.007 25.0156V34H893.912V32.1534H893.805C893.663 32.4493 893.427 32.766 893.095 33.1033C892.764 33.4407 892.323 33.7277 891.772 33.9645C891.222 34.2012 890.55 34.3196 889.757 34.3196ZM890.077 32.4375C890.905 32.4375 891.604 32.2747 892.172 31.9492C892.746 31.6237 893.178 31.2035 893.468 30.6886C893.764 30.1737 893.912 29.6321 893.912 29.0639V27.1463C893.823 27.2528 893.628 27.3505 893.326 27.4393C893.03 27.5221 892.687 27.5961 892.296 27.6612C891.911 27.7204 891.536 27.7737 891.169 27.821C890.808 27.8625 890.515 27.898 890.29 27.9276C889.745 27.9986 889.236 28.114 888.763 28.2738C888.295 28.4277 887.916 28.6615 887.626 28.9751C887.342 29.2829 887.2 29.7031 887.2 30.2358C887.2 30.9638 887.47 31.5142 888.008 31.8871C888.553 32.254 889.242 32.4375 890.077 32.4375ZM901.394 20.3636L904.661 25.9389L907.928 20.3636H910.343L905.939 27.1818L910.343 34H907.928L904.661 28.7088L901.394 34H898.979L903.311 27.1818L898.979 20.3636H901.394Z" fill="black"/>
<path d="M867.303 178.818H869.931L876.11 193.911H876.323L882.502 178.818H885.129V197H883.07V183.186H882.892L877.21 197H875.222L869.54 183.186H869.362V197H867.303V178.818ZM889.26 197V183.364H891.355V197H889.26ZM890.325 181.091C889.917 181.091 889.565 180.952 889.269 180.674C888.979 180.395 888.834 180.061 888.834 179.67C888.834 179.28 888.979 178.945 889.269 178.667C889.565 178.389 889.917 178.25 890.325 178.25C890.734 178.25 891.083 178.389 891.373 178.667C891.669 178.945 891.817 179.28 891.817 179.67C891.817 180.061 891.669 180.395 891.373 180.674C891.083 180.952 890.734 181.091 890.325 181.091ZM897.288 188.797V197H895.193V183.364H897.217V185.494H897.394C897.714 184.802 898.199 184.246 898.85 183.825C899.501 183.399 900.342 183.186 901.371 183.186C902.295 183.186 903.103 183.375 903.795 183.754C904.488 184.127 905.026 184.695 905.411 185.459C905.796 186.216 905.988 187.175 905.988 188.335V197H903.893V188.477C903.893 187.406 903.615 186.571 903.058 185.974C902.502 185.37 901.738 185.068 900.768 185.068C900.099 185.068 899.501 185.213 898.974 185.503C898.454 185.793 898.042 186.216 897.74 186.773C897.439 187.329 897.288 188.004 897.288 188.797Z" fill="black"/>
<path d="M867.303 419.818H869.931L876.11 434.911H876.323L882.502 419.818H885.129V438H883.07V424.186H882.892L877.21 438H875.222L869.54 424.186H869.362V438H867.303V419.818ZM889.26 438V424.364H891.355V438H889.26ZM890.325 422.091C889.917 422.091 889.565 421.952 889.269 421.674C888.979 421.395 888.834 421.061 888.834 420.67C888.834 420.28 888.979 419.945 889.269 419.667C889.565 419.389 889.917 419.25 890.325 419.25C890.734 419.25 891.083 419.389 891.373 419.667C891.669 419.945 891.817 420.28 891.817 420.67C891.817 421.061 891.669 421.395 891.373 421.674C891.083 421.952 890.734 422.091 890.325 422.091ZM897.288 429.797V438H895.193V424.364H897.217V426.494H897.394C897.714 425.802 898.199 425.246 898.85 424.825C899.501 424.399 900.342 424.186 901.371 424.186C902.295 424.186 903.103 424.375 903.795 424.754C904.488 425.127 905.026 425.695 905.411 426.459C905.796 427.216 905.988 428.175 905.988 429.335V438H903.893V429.477C903.893 428.406 903.615 427.571 903.058 426.974C902.502 426.37 901.738 426.068 900.768 426.068C900.099 426.068 899.501 426.213 898.974 426.503C898.454 426.793 898.042 427.216 897.74 427.773C897.439 428.329 897.288 429.004 897.288 429.797Z" fill="black"/>
<line x1="7" y1="105.5" x2="961" y2="105.5" stroke="black" stroke-opacity="0.2" stroke-width="3"/>
<line x1="7" y1="250.5" x2="961" y2="250.5" stroke="black" stroke-opacity="0.19" stroke-width="3"/>
<line x1="7" y1="371.5" x2="961" y2="371.5" stroke="black" stroke-opacity="0.19" stroke-width="3"/>
<path d="M675 188C675 201.255 664.255 212 651 212C637.745 212 627 201.255 627 188C627 174.745 637.745 164 651 164C664.255 164 675 174.745 675 188Z" fill="#D9D9D9" stroke="black" stroke-width="2"/>
<path d="M475 25C475 38.2548 464.255 49 451 49C437.745 49 427 38.2548 427 25C427 11.7452 437.745 1 451 1C464.255 1 475 11.7452 475 25Z" fill="#D9D9D9" stroke="black" stroke-width="2"/>
<path d="M575 316C575 329.255 564.255 340 551 340C537.745 340 527 329.255 527 316C527 302.745 537.745 292 551 292C564.255 292 575 302.745 575 316Z" fill="#D9D9D9" stroke="black" stroke-width="2"/>
<path d="M625 429C625 442.255 614.255 453 601 453C587.745 453 577 442.255 577 429C577 415.745 587.745 405 601 405C614.255 405 625 415.745 625 429Z" fill="#D9D9D9" stroke="black" stroke-width="2"/>
<path d="M601.011 436.699C600.178 436.699 599.428 436.533 598.76 436.202C598.092 435.87 597.557 435.416 597.155 434.838C596.752 434.26 596.532 433.602 596.494 432.864H598.199C598.265 433.522 598.563 434.066 599.094 434.497C599.629 434.923 600.268 435.136 601.011 435.136C601.608 435.136 602.138 434.997 602.602 434.717C603.071 434.438 603.438 434.054 603.703 433.567C603.973 433.074 604.108 432.518 604.108 431.898C604.108 431.263 603.968 430.697 603.689 430.2C603.414 429.698 603.035 429.303 602.553 429.014C602.07 428.725 601.518 428.579 600.898 428.574C600.453 428.569 599.996 428.638 599.527 428.78C599.058 428.917 598.672 429.095 598.369 429.312L596.722 429.114L597.602 421.955H605.159V423.517H599.08L598.568 427.807H598.653C598.952 427.57 599.326 427.374 599.776 427.217C600.225 427.061 600.694 426.983 601.182 426.983C602.072 426.983 602.865 427.196 603.561 427.622C604.262 428.044 604.811 428.621 605.209 429.355C605.611 430.089 605.812 430.927 605.812 431.869C605.812 432.797 605.604 433.626 605.187 434.355C604.776 435.08 604.207 435.652 603.483 436.074C602.759 436.491 601.935 436.699 601.011 436.699Z" fill="black"/>
<path d="M525 429C525 442.255 514.255 453 501 453C487.745 453 477 442.255 477 429C477 415.745 487.745 405 501 405C514.255 405 525 415.745 525 429Z" fill="#D9D9D9" stroke="black" stroke-width="2"/>
<path d="M500.94 421.756C501.537 421.76 502.134 421.874 502.73 422.097C503.327 422.319 503.871 422.688 504.364 423.205C504.856 423.716 505.251 424.414 505.55 425.3C505.848 426.185 505.997 427.295 505.997 428.631C505.997 429.923 505.874 431.071 505.628 432.075C505.386 433.074 505.036 433.917 504.577 434.604C504.122 435.29 503.568 435.811 502.915 436.166C502.266 436.521 501.532 436.699 500.713 436.699C499.899 436.699 499.172 436.538 498.533 436.216C497.898 435.889 497.377 435.437 496.97 434.859C496.568 434.277 496.31 433.602 496.196 432.835H497.929C498.085 433.503 498.395 434.054 498.859 434.49C499.328 434.921 499.946 435.136 500.713 435.136C501.835 435.136 502.721 434.646 503.369 433.666C504.023 432.686 504.349 431.301 504.349 429.511H504.236C503.971 429.909 503.656 430.252 503.291 430.541C502.927 430.83 502.522 431.053 502.077 431.209C501.632 431.365 501.158 431.443 500.656 431.443C499.823 431.443 499.058 431.237 498.362 430.825C497.671 430.409 497.117 429.838 496.7 429.114C496.288 428.384 496.082 427.551 496.082 426.614C496.082 425.723 496.281 424.909 496.679 424.17C497.081 423.427 497.645 422.835 498.369 422.395C499.098 421.955 499.955 421.741 500.94 421.756ZM500.94 423.318C500.344 423.318 499.806 423.467 499.328 423.766C498.855 424.059 498.478 424.457 498.199 424.959C497.924 425.456 497.787 426.008 497.787 426.614C497.787 427.22 497.919 427.771 498.185 428.268C498.455 428.761 498.821 429.154 499.285 429.447C499.754 429.736 500.287 429.881 500.884 429.881C501.333 429.881 501.752 429.793 502.141 429.618C502.529 429.438 502.867 429.194 503.156 428.886C503.45 428.574 503.679 428.221 503.845 427.828C504.011 427.43 504.094 427.016 504.094 426.585C504.094 426.017 503.956 425.484 503.682 424.987C503.412 424.49 503.038 424.088 502.56 423.78C502.086 423.472 501.546 423.318 500.94 423.318Z" fill="black"/>
<path d="M325 429C325 442.255 314.255 453 301 453C287.745 453 277 442.255 277 429C277 415.745 287.745 405 301 405C314.255 405 325 415.745 325 429Z" fill="#D9D9D9" stroke="black" stroke-width="2"/>
<path d="M296.961 421.955V436.5H295.199V423.801H295.114L291.563 426.159V424.369L295.199 421.955H296.961ZM301.144 436.5V435.222L305.945 429.966C306.508 429.35 306.972 428.815 307.337 428.361C307.702 427.902 307.971 427.471 308.147 427.068C308.327 426.661 308.416 426.235 308.416 425.79C308.416 425.278 308.293 424.836 308.047 424.462C307.806 424.088 307.474 423.799 307.053 423.595C306.631 423.392 306.158 423.29 305.632 423.29C305.074 423.29 304.586 423.406 304.169 423.638C303.757 423.865 303.438 424.185 303.211 424.597C302.988 425.009 302.877 425.491 302.877 426.045H301.201C301.201 425.193 301.397 424.445 301.79 423.801C302.183 423.157 302.718 422.655 303.395 422.295C304.077 421.936 304.842 421.756 305.689 421.756C306.541 421.756 307.297 421.936 307.955 422.295C308.613 422.655 309.129 423.141 309.503 423.751C309.877 424.362 310.064 425.042 310.064 425.79C310.064 426.325 309.967 426.848 309.773 427.359C309.584 427.866 309.252 428.432 308.779 429.057C308.31 429.677 307.659 430.435 306.826 431.33L303.559 434.824V434.938H310.32V436.5H301.144Z" fill="black"/>
<path d="M375 317C375 330.255 364.255 341 351 341C337.745 341 327 330.255 327 317C327 303.745 337.745 293 351 293C364.255 293 375 303.745 375 317Z" fill="#D9D9D9" stroke="black" stroke-width="2"/>
<path d="M335.766 322.455V320.864H344.914V322.455H335.766ZM344.914 316.432L335.766 319.727V317.994L342.158 315.892L342.102 316.006V315.722L342.158 315.835L335.766 313.733V312L344.914 315.295V316.432ZM353.552 309.955V324.5H351.791V311.801H351.706L348.154 314.159V312.369L351.791 309.955H353.552ZM357.735 324.5V323.222L362.537 317.966C363.1 317.35 363.564 316.815 363.929 316.361C364.293 315.902 364.563 315.471 364.738 315.068C364.918 314.661 365.008 314.235 365.008 313.79C365.008 313.278 364.885 312.836 364.639 312.462C364.397 312.088 364.066 311.799 363.645 311.595C363.223 311.392 362.75 311.29 362.224 311.29C361.665 311.29 361.178 311.406 360.761 311.638C360.349 311.865 360.029 312.185 359.802 312.597C359.58 313.009 359.468 313.491 359.468 314.045H357.792C357.792 313.193 357.989 312.445 358.382 311.801C358.775 311.157 359.31 310.655 359.987 310.295C360.669 309.936 361.433 309.756 362.281 309.756C363.133 309.756 363.888 309.936 364.546 310.295C365.205 310.655 365.721 311.141 366.095 311.751C366.469 312.362 366.656 313.042 366.656 313.79C366.656 314.325 366.559 314.848 366.365 315.359C366.175 315.866 365.844 316.432 365.37 317.057C364.902 317.677 364.251 318.435 363.417 319.33L360.15 322.824V322.938H366.912V324.5H357.735Z" fill="black"/>
<path d="M225 429C225 442.255 214.255 453 201 453C187.745 453 177 442.255 177 429C177 415.745 187.745 405 201 405C214.255 405 225 415.745 225 429Z" fill="#D9D9D9" stroke="black" stroke-width="2"/>
<path d="M196.765 421.955V436.5H195.004V423.801H194.919L191.367 426.159V424.369L195.004 421.955H196.765ZM205.693 436.699C204.623 436.699 203.711 436.408 202.958 435.825C202.206 435.238 201.63 434.388 201.233 433.276C200.835 432.158 200.636 430.809 200.636 429.227C200.636 427.655 200.835 426.313 201.233 425.2C201.635 424.083 202.213 423.231 202.965 422.643C203.723 422.052 204.632 421.756 205.693 421.756C206.753 421.756 207.66 422.052 208.413 422.643C209.17 423.231 209.748 424.083 210.146 425.2C210.548 426.313 210.75 427.655 210.75 429.227C210.75 430.809 210.551 432.158 210.153 433.276C209.755 434.388 209.18 435.238 208.427 435.825C207.674 436.408 206.763 436.699 205.693 436.699ZM205.693 435.136C206.753 435.136 207.577 434.625 208.164 433.602C208.751 432.58 209.045 431.121 209.045 429.227C209.045 427.968 208.91 426.895 208.64 426.01C208.375 425.125 207.992 424.45 207.49 423.986C206.992 423.522 206.394 423.29 205.693 423.29C204.642 423.29 203.82 423.808 203.228 424.845C202.636 425.877 202.34 427.338 202.34 429.227C202.34 430.487 202.473 431.557 202.738 432.438C203.003 433.318 203.385 433.988 203.882 434.447C204.384 434.907 204.987 435.136 205.693 435.136Z" fill="black"/>
<path d="M125 429C125 442.255 114.255 453 101 453C87.7452 453 77 442.255 77 429C77 415.745 87.7452 405 101 405C114.255 405 125 415.745 125 429Z" fill="#D9D9D9" stroke="black" stroke-width="2"/>
<path d="M97.2916 436.5L103.797 423.631V423.517H96.2973V421.955H105.616V423.602L99.1382 436.5H97.2916Z" fill="black"/>
<path d="M174 316C174 329.255 163.255 340 150 340C136.745 340 126 329.255 126 316C126 302.745 136.745 292 150 292C163.255 292 174 302.745 174 316Z" fill="#D9D9D9" stroke="black" stroke-width="2"/>
<path d="M145.765 308.955V323.5H144.004V310.801H143.919L140.367 313.159V311.369L144.004 308.955H145.765ZM154.693 323.699C153.623 323.699 152.711 323.408 151.958 322.825C151.206 322.238 150.63 321.388 150.233 320.276C149.835 319.158 149.636 317.809 149.636 316.227C149.636 314.655 149.835 313.313 150.233 312.2C150.635 311.083 151.213 310.231 151.965 309.643C152.723 309.052 153.632 308.756 154.693 308.756C155.753 308.756 156.66 309.052 157.413 309.643C158.17 310.231 158.748 311.083 159.146 312.2C159.548 313.313 159.75 314.655 159.75 316.227C159.75 317.809 159.551 319.158 159.153 320.276C158.755 321.388 158.18 322.238 157.427 322.825C156.674 323.408 155.763 323.699 154.693 323.699ZM154.693 322.136C155.753 322.136 156.577 321.625 157.164 320.602C157.751 319.58 158.045 318.121 158.045 316.227C158.045 314.968 157.91 313.895 157.64 313.01C157.375 312.125 156.992 311.45 156.49 310.986C155.992 310.522 155.394 310.29 154.693 310.29C153.642 310.29 152.82 310.808 152.228 311.845C151.636 312.877 151.34 314.338 151.34 316.227C151.34 317.487 151.473 318.557 151.738 319.438C152.003 320.318 152.385 320.988 152.882 321.447C153.384 321.907 153.987 322.136 154.693 322.136Z" fill="black"/>
<path d="M275 188C275 201.255 264.255 212 251 212C237.745 212 227 201.255 227 188C227 174.745 237.745 164 251 164C264.255 164 275 174.745 275 188Z" fill="#D9D9D9" stroke="black" stroke-width="2"/>
<path d="M246.765 180.955V195.5H245.004V182.801H244.919L241.367 185.159V183.369L245.004 180.955H246.765ZM255.693 195.699C254.623 195.699 253.711 195.408 252.958 194.825C252.206 194.238 251.63 193.388 251.233 192.276C250.835 191.158 250.636 189.809 250.636 188.227C250.636 186.655 250.835 185.313 251.233 184.2C251.635 183.083 252.213 182.231 252.965 181.643C253.723 181.052 254.632 180.756 255.693 180.756C256.753 180.756 257.66 181.052 258.413 181.643C259.17 182.231 259.748 183.083 260.146 184.2C260.548 185.313 260.75 186.655 260.75 188.227C260.75 189.809 260.551 191.158 260.153 192.276C259.755 193.388 259.18 194.238 258.427 194.825C257.674 195.408 256.763 195.699 255.693 195.699ZM255.693 194.136C256.753 194.136 257.577 193.625 258.164 192.602C258.751 191.58 259.045 190.121 259.045 188.227C259.045 186.968 258.91 185.895 258.64 185.01C258.375 184.125 257.992 183.45 257.49 182.986C256.992 182.522 256.394 182.29 255.693 182.29C254.642 182.29 253.82 182.808 253.228 183.845C252.636 184.877 252.34 186.338 252.34 188.227C252.34 189.487 252.473 190.557 252.738 191.438C253.003 192.318 253.385 192.988 253.882 193.447C254.384 193.907 254.987 194.136 255.693 194.136Z" fill="black"/>
<path d="M100.008 404.124C100.076 404.672 100.576 405.061 101.124 404.992L110.055 403.876C110.603 403.807 110.991 403.308 110.923 402.76C110.854 402.212 110.354 401.823 109.806 401.891L101.868 402.884L100.876 394.945C100.807 394.397 100.308 394.009 99.7597 394.077C99.2116 394.146 98.8229 394.646 98.8914 395.194L100.008 404.124ZM149.211 340.386L100.211 403.386L101.789 404.614L150.789 341.614L149.211 340.386Z" fill="black"/>
<path d="M200.886 404.993C201.434 405.057 201.93 404.663 201.993 404.114L203.022 395.173C203.085 394.625 202.692 394.129 202.143 394.066C201.594 394.002 201.098 394.396 201.035 394.945L200.121 402.892L192.173 401.978C191.625 401.915 191.129 402.308 191.066 402.857C191.002 403.406 191.396 403.902 191.945 403.965L200.886 404.993ZM150.217 341.622L200.217 404.622L201.783 403.378L151.783 340.378L150.217 341.622Z" fill="black"/>
<g opacity="0.5">
<path d="M425 429C425 442.255 414.255 453 401 453C387.745 453 377 442.255 377 429C377 415.745 387.745 405 401 405C414.255 405 425 415.745 425 429Z" fill="#D9D9D9" stroke="black" stroke-width="2"/>
<path d="M397.292 436.5L403.797 423.631V423.517H396.297V421.955H405.615V423.602L399.138 436.5H397.292Z" fill="black"/>
<path d="M400.886 404.993C401.434 405.057 401.93 404.663 401.993 404.114L403.022 395.173C403.085 394.625 402.692 394.129 402.143 394.066C401.594 394.002 401.098 394.396 401.035 394.945L400.121 402.892L392.173 401.978C391.625 401.915 391.129 402.308 391.066 402.857C391.002 403.406 391.396 403.902 391.945 403.965L400.886 404.993ZM350.217 341.622L400.217 404.622L401.783 403.378L351.783 340.378L350.217 341.622Z" fill="black"/>
</g>
<path d="M601.886 404.993C602.434 405.057 602.93 404.663 602.993 404.114L604.022 395.173C604.085 394.625 603.692 394.129 603.143 394.066C602.594 394.002 602.098 394.396 602.035 394.945L601.121 402.892L593.173 401.978C592.625 401.915 592.129 402.308 592.066 402.857C592.002 403.406 592.396 403.902 592.945 403.965L601.886 404.993ZM551.217 341.622L601.217 404.622L602.783 403.378L552.783 340.378L551.217 341.622Z" fill="black"/>
<path d="M100.008 404.124C100.076 404.672 100.576 405.061 101.124 404.992L110.055 403.876C110.603 403.807 110.991 403.308 110.923 402.76C110.854 402.212 110.354 401.823 109.806 401.891L101.868 402.884L100.876 394.945C100.807 394.397 100.308 394.009 99.7597 394.077C99.2116 394.146 98.8229 394.646 98.8914 395.194L100.008 404.124ZM149.211 340.386L100.211 403.386L101.789 404.614L150.789 341.614L149.211 340.386Z" fill="black"/>
<path d="M149.008 290.873C148.938 291.42 149.325 291.921 149.873 291.992L158.799 293.139C159.347 293.209 159.848 292.822 159.918 292.274C159.989 291.727 159.602 291.226 159.054 291.155L151.119 290.136L152.139 282.201C152.209 281.653 151.822 281.152 151.274 281.082C150.727 281.011 150.226 281.398 150.155 281.946L149.008 290.873ZM250.389 212.209L149.389 290.209L150.611 291.791L251.611 213.791L250.389 212.209Z" fill="black"/>
<path d="M351.123 291.992C351.671 291.925 352.06 291.425 351.992 290.877L350.888 281.945C350.821 281.397 350.321 281.008 349.773 281.076C349.225 281.143 348.836 281.643 348.904 282.191L349.885 290.13L341.945 291.112C341.397 291.179 341.008 291.679 341.076 292.227C341.143 292.775 341.643 293.164 342.191 293.096L351.123 291.992ZM250.385 213.789L350.385 291.788L351.615 290.211L251.615 212.211L250.385 213.789Z" fill="black"/>
<path d="M250.037 162.732C249.889 163.264 250.2 163.816 250.732 163.963L259.403 166.374C259.936 166.522 260.487 166.21 260.635 165.678C260.783 165.146 260.471 164.595 259.939 164.447L252.231 162.304L254.374 154.597C254.522 154.064 254.21 153.513 253.678 153.365C253.146 153.217 252.595 153.529 252.447 154.061L250.037 162.732ZM450.508 49.1294L250.508 162.129L251.492 163.871L451.492 50.8706L450.508 49.1294Z" fill="black"/>
<path d="M651.268 163.963C651.8 163.816 652.111 163.264 651.963 162.732L649.553 154.061C649.405 153.529 648.854 153.217 648.322 153.365C647.79 153.513 647.478 154.064 647.626 154.597L649.769 162.304L642.061 164.447C641.529 164.595 641.217 165.146 641.365 165.678C641.513 166.21 642.064 166.522 642.597 166.374L651.268 163.963ZM450.508 50.8706L650.508 163.871L651.492 162.129L451.492 49.1294L450.508 50.8706Z" fill="black"/>
<path d="M550.008 290.873C549.938 291.42 550.325 291.921 550.873 291.992L559.799 293.139C560.347 293.209 560.848 292.822 560.918 292.274C560.989 291.727 560.602 291.226 560.054 291.155L552.119 290.136L553.139 282.201C553.209 281.653 552.822 281.152 552.274 281.082C551.727 281.011 551.226 281.398 551.155 281.946L550.008 290.873ZM651.389 212.209L550.389 290.209L551.611 291.791L652.611 213.791L651.389 212.209Z" fill="black"/>
<path d="M300.008 404.124C300.076 404.672 300.576 405.061 301.124 404.992L310.055 403.876C310.603 403.807 310.991 403.308 310.923 402.76C310.854 402.212 310.354 401.823 309.806 401.891L301.868 402.884L300.876 394.945C300.807 394.397 300.308 394.009 299.76 394.077C299.212 394.146 298.823 394.646 298.891 395.194L300.008 404.124ZM349.211 340.386L300.211 403.386L301.789 404.614L350.789 341.614L349.211 340.386Z" fill="black"/>
<path d="M775 316C775 329.255 764.255 340 751 340C737.745 340 727 329.255 727 316C727 302.745 737.745 292 751 292C764.255 292 775 302.745 775 316Z" fill="#D9D9D9" stroke="black" stroke-width="2"/>
<path d="M825 429C825 442.255 814.255 453 801 453C787.745 453 777 442.255 777 429C777 415.745 787.745 405 801 405C814.255 405 825 415.745 825 429Z" fill="#D9D9D9" stroke="black" stroke-width="2"/>
<path d="M796.775 421.955V436.5H795.013V423.801H794.928L791.377 426.159V424.369L795.013 421.955H796.775ZM805.589 421.756C806.185 421.76 806.782 421.874 807.379 422.097C807.975 422.319 808.52 422.688 809.012 423.205C809.504 423.716 809.9 424.414 810.198 425.3C810.496 426.185 810.646 427.295 810.646 428.631C810.646 429.923 810.522 431.071 810.276 432.075C810.035 433.074 809.684 433.917 809.225 434.604C808.771 435.29 808.217 435.811 807.563 436.166C806.915 436.521 806.181 436.699 805.361 436.699C804.547 436.699 803.82 436.538 803.181 436.216C802.547 435.889 802.026 435.437 801.619 434.859C801.216 434.277 800.958 433.602 800.844 432.835H802.577C802.734 433.503 803.044 434.054 803.508 434.49C803.977 434.921 804.594 435.136 805.361 435.136C806.484 435.136 807.369 434.646 808.018 433.666C808.671 432.686 808.998 431.301 808.998 429.511H808.884C808.619 429.909 808.304 430.252 807.94 430.541C807.575 430.83 807.17 431.053 806.725 431.209C806.28 431.365 805.807 431.443 805.305 431.443C804.471 431.443 803.707 431.237 803.011 430.825C802.319 430.409 801.765 429.838 801.349 429.114C800.937 428.384 800.731 427.551 800.731 426.614C800.731 425.723 800.93 424.909 801.327 424.17C801.73 423.427 802.293 422.835 803.018 422.395C803.747 421.955 804.604 421.741 805.589 421.756ZM805.589 423.318C804.992 423.318 804.455 423.467 803.977 423.766C803.503 424.059 803.127 424.457 802.847 424.959C802.573 425.456 802.435 426.008 802.435 426.614C802.435 427.22 802.568 427.771 802.833 428.268C803.103 428.761 803.47 429.154 803.934 429.447C804.403 429.736 804.935 429.881 805.532 429.881C805.982 429.881 806.401 429.793 806.789 429.618C807.177 429.438 807.516 429.194 807.805 428.886C808.098 428.574 808.328 428.221 808.494 427.828C808.659 427.43 808.742 427.016 808.742 426.585C808.742 426.017 808.605 425.484 808.33 424.987C808.06 424.49 807.686 424.088 807.208 423.78C806.735 423.472 806.195 423.318 805.589 423.318Z" fill="black"/>
<path d="M725 429C725 442.255 714.255 453 701 453C687.745 453 677 442.255 677 429C677 415.745 687.745 405 701 405C714.255 405 725 415.745 725 429Z" fill="#D9D9D9" stroke="black" stroke-width="2"/>
<path d="M701.097 436.699C700.16 436.699 699.324 436.538 698.59 436.216C697.861 435.894 697.281 435.446 696.85 434.874C696.424 434.296 696.192 433.626 696.154 432.864H697.944C697.982 433.332 698.143 433.737 698.427 434.078C698.711 434.414 699.083 434.675 699.542 434.859C700.001 435.044 700.51 435.136 701.069 435.136C701.694 435.136 702.248 435.027 702.731 434.81C703.214 434.592 703.593 434.289 703.867 433.901C704.142 433.512 704.279 433.062 704.279 432.551C704.279 432.016 704.147 431.545 703.882 431.138C703.616 430.726 703.228 430.404 702.717 430.172C702.205 429.94 701.58 429.824 700.842 429.824H699.677V428.261H700.842C701.419 428.261 701.926 428.157 702.362 427.949C702.802 427.741 703.145 427.447 703.391 427.068C703.642 426.689 703.768 426.244 703.768 425.733C703.768 425.241 703.659 424.812 703.441 424.447C703.223 424.083 702.916 423.799 702.518 423.595C702.125 423.392 701.661 423.29 701.126 423.29C700.624 423.29 700.15 423.382 699.705 423.567C699.265 423.747 698.905 424.009 698.626 424.355C698.347 424.696 698.195 425.108 698.171 425.591H696.467C696.495 424.829 696.725 424.161 697.156 423.588C697.587 423.01 698.15 422.561 698.846 422.239C699.547 421.917 700.316 421.756 701.154 421.756C702.054 421.756 702.826 421.938 703.47 422.303C704.114 422.662 704.608 423.138 704.954 423.73C705.3 424.322 705.472 424.961 705.472 425.648C705.472 426.467 705.257 427.165 704.826 427.743C704.4 428.321 703.82 428.721 703.086 428.943V429.057C704.005 429.208 704.722 429.599 705.238 430.229C705.754 430.854 706.012 431.628 706.012 432.551C706.012 433.342 705.797 434.052 705.366 434.682C704.94 435.307 704.357 435.799 703.619 436.159C702.88 436.519 702.04 436.699 701.097 436.699Z" fill="black"/>
<path d="M800.886 404.993C801.434 405.057 801.93 404.663 801.993 404.114L803.022 395.173C803.085 394.625 802.692 394.129 802.143 394.066C801.594 394.002 801.098 394.396 801.035 394.945L800.121 402.892L792.173 401.978C791.625 401.915 791.129 402.308 791.066 402.857C791.002 403.406 791.396 403.902 791.945 403.965L800.886 404.993ZM750.217 341.622L800.217 404.622L801.783 403.378L751.783 340.378L750.217 341.622Z" fill="black"/>
<path d="M751.123 291.992C751.671 291.925 752.06 291.425 751.992 290.877L750.888 281.945C750.821 281.397 750.321 281.008 749.773 281.076C749.225 281.143 748.836 281.643 748.904 282.191L749.885 290.13L741.945 291.112C741.397 291.179 741.008 291.679 741.076 292.227C741.143 292.775 741.643 293.164 742.191 293.096L751.123 291.992ZM650.385 213.789L750.385 291.788L751.615 290.211L651.615 212.211L650.385 213.789Z" fill="black"/>
<path d="M701.008 404.124C701.076 404.672 701.576 405.061 702.124 404.992L711.055 403.876C711.603 403.807 711.991 403.308 711.923 402.76C711.854 402.212 711.354 401.823 710.806 401.891L702.868 402.884L701.876 394.945C701.807 394.397 701.308 394.009 700.76 394.077C700.212 394.146 699.823 394.646 699.891 395.194L701.008 404.124ZM750.211 340.386L701.211 403.386L702.789 404.614L751.789 341.614L750.211 340.386Z" fill="black"/>
<path d="M500.008 404.124C500.076 404.672 500.576 405.061 501.124 404.992L510.055 403.876C510.603 403.807 510.991 403.308 510.923 402.76C510.854 402.212 510.354 401.823 509.806 401.891L501.868 402.884L500.876 394.945C500.807 394.397 500.308 394.009 499.76 394.077C499.212 394.146 498.823 394.646 498.891 395.194L500.008 404.124ZM549.211 340.386L500.211 403.386L501.789 404.614L550.789 341.614L549.211 340.386Z" fill="black"/>
<path d="M22.3224 311.256C21.6312 311.256 21.0038 311.125 20.4403 310.865C19.8769 310.6 19.4295 310.219 19.098 309.722C18.7666 309.22 18.6009 308.614 18.6009 307.903C18.6009 307.278 18.724 306.772 18.9702 306.384C19.2164 305.991 19.5455 305.683 19.9574 305.46C20.3693 305.238 20.8239 305.072 21.321 304.963C21.8229 304.849 22.3272 304.759 22.8338 304.693C23.4967 304.608 24.0341 304.544 24.446 304.501C24.8627 304.454 25.1657 304.376 25.3551 304.267C25.5492 304.158 25.6463 303.969 25.6463 303.699V303.642C25.6463 302.941 25.4545 302.397 25.071 302.009C24.6922 301.62 24.117 301.426 23.3452 301.426C22.545 301.426 21.9176 301.601 21.4631 301.952C21.0085 302.302 20.6889 302.676 20.5043 303.074L18.9134 302.506C19.1974 301.843 19.5762 301.327 20.0497 300.957C20.5279 300.583 21.0488 300.323 21.6122 300.176C22.1804 300.025 22.7391 299.949 23.2884 299.949C23.6387 299.949 24.0412 299.991 24.4957 300.077C24.955 300.157 25.3977 300.325 25.8239 300.581C26.2547 300.837 26.6122 301.223 26.8963 301.739C27.1804 302.255 27.3224 302.946 27.3224 303.812V311H25.6463V309.523H25.5611C25.4474 309.759 25.258 310.013 24.9929 310.283C24.7277 310.553 24.375 310.782 23.9347 310.972C23.4943 311.161 22.9569 311.256 22.3224 311.256ZM22.5781 309.75C23.241 309.75 23.7997 309.62 24.2543 309.359C24.7135 309.099 25.0592 308.763 25.2912 308.351C25.5279 307.939 25.6463 307.506 25.6463 307.051V305.517C25.5753 305.602 25.419 305.68 25.1776 305.751C24.9408 305.818 24.6662 305.877 24.3537 305.929C24.0459 305.976 23.7453 306.019 23.4517 306.057C23.1629 306.09 22.9285 306.118 22.7486 306.142C22.313 306.199 21.9058 306.291 21.527 306.419C21.1529 306.542 20.8499 306.729 20.6179 306.98C20.3906 307.226 20.277 307.562 20.277 307.989C20.277 308.571 20.4924 309.011 20.9233 309.31C21.3589 309.603 21.9105 309.75 22.5781 309.75ZM32.0579 296.455V311H30.3817V296.455H32.0579ZM35.1278 315.091V300.091H36.7472V301.824H36.946C37.0691 301.634 37.2396 301.393 37.4574 301.099C37.6799 300.801 37.9972 300.536 38.4091 300.304C38.8258 300.067 39.3892 299.949 40.0994 299.949C41.018 299.949 41.8277 300.179 42.5284 300.638C43.2292 301.097 43.776 301.748 44.169 302.591C44.562 303.434 44.7585 304.428 44.7585 305.574C44.7585 306.729 44.562 307.731 44.169 308.578C43.776 309.421 43.2315 310.074 42.5355 310.538C41.8395 310.998 41.0369 311.227 40.1278 311.227C39.4271 311.227 38.866 311.111 38.4446 310.879C38.0232 310.643 37.6989 310.375 37.4716 310.077C37.2443 309.774 37.0691 309.523 36.946 309.324H36.804V315.091H35.1278ZM36.7756 305.545C36.7756 306.369 36.8963 307.096 37.1378 307.726C37.3793 308.351 37.732 308.841 38.196 309.196C38.66 309.546 39.2282 309.722 39.9006 309.722C40.6013 309.722 41.1861 309.537 41.6548 309.168C42.1283 308.794 42.4834 308.292 42.7202 307.662C42.9616 307.027 43.0824 306.322 43.0824 305.545C43.0824 304.778 42.964 304.087 42.7273 303.472C42.4953 302.851 42.1425 302.361 41.669 302.001C41.2003 301.637 40.6108 301.455 39.9006 301.455C39.2188 301.455 38.6458 301.627 38.1818 301.973C37.7178 302.314 37.3674 302.792 37.1307 303.408C36.8939 304.018 36.7756 304.731 36.7756 305.545ZM48.9915 304.438V311H47.3153V296.455H48.9915V301.795H49.1335C49.3892 301.232 49.7727 300.785 50.2841 300.453C50.8002 300.117 51.4867 299.949 52.3438 299.949C53.0871 299.949 53.7382 300.098 54.2969 300.396C54.8556 300.69 55.2888 301.142 55.5966 301.753C55.9091 302.359 56.0653 303.131 56.0653 304.068V311H54.3892V304.182C54.3892 303.315 54.1643 302.645 53.7145 302.172C53.2694 301.694 52.6515 301.455 51.8608 301.455C51.3116 301.455 50.8191 301.571 50.3835 301.803C49.9527 302.035 49.6117 302.373 49.3608 302.818C49.1146 303.263 48.9915 303.803 48.9915 304.438ZM62.342 311.256C61.6507 311.256 61.0233 311.125 60.4599 310.865C59.8964 310.6 59.449 310.219 59.1175 309.722C58.7861 309.22 58.6204 308.614 58.6204 307.903C58.6204 307.278 58.7435 306.772 58.9897 306.384C59.2359 305.991 59.565 305.683 59.9769 305.46C60.3888 305.238 60.8434 305.072 61.3406 304.963C61.8424 304.849 62.3467 304.759 62.8533 304.693C63.5162 304.608 64.0536 304.544 64.4656 304.501C64.8822 304.454 65.1853 304.376 65.3746 304.267C65.5688 304.158 65.6658 303.969 65.6658 303.699V303.642C65.6658 302.941 65.4741 302.397 65.0906 302.009C64.7118 301.62 64.1365 301.426 63.3647 301.426C62.5645 301.426 61.9371 301.601 61.4826 301.952C61.0281 302.302 60.7085 302.676 60.5238 303.074L58.9329 302.506C59.217 301.843 59.5958 301.327 60.0692 300.957C60.5475 300.583 61.0683 300.323 61.6317 300.176C62.1999 300.025 62.7586 299.949 63.3079 299.949C63.6583 299.949 64.0607 299.991 64.5153 300.077C64.9746 300.157 65.4173 300.325 65.8434 300.581C66.2743 300.837 66.6317 301.223 66.9158 301.739C67.1999 302.255 67.342 302.946 67.342 303.812V311H65.6658V309.523H65.5806C65.467 309.759 65.2776 310.013 65.0124 310.283C64.7473 310.553 64.3945 310.782 63.9542 310.972C63.5138 311.161 62.9764 311.256 62.342 311.256ZM62.5977 309.75C63.2605 309.75 63.8192 309.62 64.2738 309.359C64.7331 309.099 65.0787 308.763 65.3107 308.351C65.5475 307.939 65.6658 307.506 65.6658 307.051V305.517C65.5948 305.602 65.4386 305.68 65.1971 305.751C64.9603 305.818 64.6857 305.877 64.3732 305.929C64.0655 305.976 63.7648 306.019 63.4712 306.057C63.1824 306.09 62.948 306.118 62.7681 306.142C62.3325 306.199 61.9253 306.291 61.5465 306.419C61.1725 306.542 60.8694 306.729 60.6374 306.98C60.4102 307.226 60.2965 307.562 60.2965 307.989C60.2965 308.571 60.512 309.011 60.9428 309.31C61.3784 309.603 61.93 309.75 62.5977 309.75ZM77.2479 309.139C76.8975 309.139 76.5968 309.014 76.3459 308.763C76.0949 308.512 75.9695 308.211 75.9695 307.861C75.9695 307.51 76.0949 307.21 76.3459 306.959C76.5968 306.708 76.8975 306.582 77.2479 306.582C77.5982 306.582 77.8989 306.708 78.1499 306.959C78.4008 307.21 78.5263 307.51 78.5263 307.861C78.5263 308.093 78.4671 308.306 78.3487 308.5C78.2351 308.694 78.0812 308.85 77.8871 308.969C77.6977 309.082 77.4846 309.139 77.2479 309.139ZM77.2479 301.781C76.8975 301.781 76.5968 301.656 76.3459 301.405C76.0949 301.154 75.9695 300.853 75.9695 300.503C75.9695 300.152 76.0949 299.852 76.3459 299.601C76.5968 299.35 76.8975 299.224 77.2479 299.224C77.5982 299.224 77.8989 299.35 78.1499 299.601C78.4008 299.852 78.5263 300.152 78.5263 300.503C78.5263 300.735 78.4671 300.948 78.3487 301.142C78.2351 301.336 78.0812 301.492 77.8871 301.611C77.6977 301.724 77.4846 301.781 77.2479 301.781ZM92.2443 296.455V311H90.483V298.301H90.3977L86.8466 300.659V298.869L90.483 296.455H92.2443ZM101.172 311.199C100.102 311.199 99.1903 310.908 98.4375 310.325C97.6847 309.738 97.1094 308.888 96.7116 307.776C96.3139 306.658 96.1151 305.309 96.1151 303.727C96.1151 302.155 96.3139 300.813 96.7116 299.7C97.1141 298.583 97.6918 297.731 98.4446 297.143C99.2022 296.552 100.111 296.256 101.172 296.256C102.232 296.256 103.139 296.552 103.892 297.143C104.65 297.731 105.227 298.583 105.625 299.7C106.027 300.813 106.229 302.155 106.229 303.727C106.229 305.309 106.03 306.658 105.632 307.776C105.234 308.888 104.659 309.738 103.906 310.325C103.153 310.908 102.242 311.199 101.172 311.199ZM101.172 309.636C102.232 309.636 103.056 309.125 103.643 308.102C104.231 307.08 104.524 305.621 104.524 303.727C104.524 302.468 104.389 301.395 104.119 300.51C103.854 299.625 103.471 298.95 102.969 298.486C102.472 298.022 101.873 297.79 101.172 297.79C100.121 297.79 99.2992 298.308 98.7074 299.345C98.1155 300.377 97.8196 301.838 97.8196 303.727C97.8196 304.987 97.9522 306.057 98.2173 306.938C98.4825 307.818 98.8636 308.488 99.3608 308.947C99.8627 309.407 100.466 309.636 101.172 309.636ZM18.6852 335V320.455H20.3613V325.824H20.5034C20.6265 325.634 20.7969 325.393 21.0147 325.099C21.2373 324.801 21.5545 324.536 21.9664 324.304C22.3831 324.067 22.9466 323.949 23.6568 323.949C24.5753 323.949 25.385 324.179 26.0858 324.638C26.7865 325.097 27.3334 325.748 27.7264 326.591C28.1194 327.434 28.3159 328.428 28.3159 329.574C28.3159 330.729 28.1194 331.731 27.7264 332.578C27.3334 333.421 26.7889 334.074 26.0929 334.538C25.3968 334.998 24.5943 335.227 23.6852 335.227C22.9844 335.227 22.4234 335.111 22.002 334.879C21.5806 334.643 21.2562 334.375 21.0289 334.077C20.8017 333.774 20.6265 333.523 20.5034 333.324H20.3045V335H18.6852ZM20.3329 329.545C20.3329 330.369 20.4537 331.096 20.6951 331.726C20.9366 332.351 21.2894 332.841 21.7534 333.196C22.2174 333.546 22.7856 333.722 23.4579 333.722C24.1587 333.722 24.7434 333.537 25.2122 333.168C25.6857 332.794 26.0408 332.292 26.2775 331.662C26.519 331.027 26.6397 330.322 26.6397 329.545C26.6397 328.778 26.5214 328.087 26.2846 327.472C26.0526 326.851 25.6999 326.361 25.2264 326.001C24.7576 325.637 24.1681 325.455 23.4579 325.455C22.7761 325.455 22.2032 325.627 21.7392 325.973C21.2752 326.314 20.9248 326.792 20.688 327.408C20.4513 328.018 20.3329 328.731 20.3329 329.545ZM35.4537 335.227C34.4025 335.227 33.4958 334.995 32.7335 334.531C31.9759 334.062 31.3912 333.409 30.9792 332.571C30.572 331.728 30.3684 330.748 30.3684 329.631C30.3684 328.513 30.572 327.528 30.9792 326.676C31.3912 325.819 31.9641 325.152 32.698 324.673C33.4366 324.19 34.2984 323.949 35.2832 323.949C35.8514 323.949 36.4125 324.044 36.9664 324.233C37.5204 324.422 38.0247 324.73 38.4792 325.156C38.9338 325.578 39.296 326.136 39.5659 326.832C39.8358 327.528 39.9707 328.385 39.9707 329.403V330.114H31.5616V328.665H38.2662C38.2662 328.049 38.1431 327.5 37.8968 327.017C37.6554 326.534 37.3097 326.153 36.8599 325.874C36.4148 325.594 35.8893 325.455 35.2832 325.455C34.6156 325.455 34.0379 325.62 33.5502 325.952C33.0673 326.278 32.6956 326.705 32.4352 327.23C32.1748 327.756 32.0446 328.319 32.0446 328.92V329.886C32.0446 330.71 32.1866 331.409 32.4707 331.982C32.7595 332.55 33.1596 332.983 33.671 333.281C34.1824 333.575 34.7766 333.722 35.4537 333.722C35.894 333.722 36.2917 333.66 36.6468 333.537C37.0067 333.409 37.3168 333.22 37.5772 332.969C37.8377 332.713 38.0389 332.396 38.1809 332.017L39.8002 332.472C39.6298 333.021 39.3433 333.504 38.9409 333.92C38.5384 334.332 38.0413 334.654 37.4494 334.886C36.8575 335.114 36.1923 335.227 35.4537 335.227ZM36.6752 322.784L35.198 320.795L33.7207 322.784H32.1298V322.67L34.4309 319.716H35.965L38.2662 322.67V322.784H36.6752ZM47.2647 324.091V325.511H41.6113V324.091H47.2647ZM43.2591 321.477H44.9352V331.875C44.9352 332.348 45.0038 332.704 45.1412 332.94C45.2832 333.172 45.4631 333.329 45.6809 333.409C45.9035 333.485 46.1378 333.523 46.3841 333.523C46.5687 333.523 46.7202 333.513 46.8386 333.494C46.957 333.471 47.0517 333.452 47.1227 333.438L47.4636 334.943C47.35 334.986 47.1913 335.028 46.9877 335.071C46.7842 335.118 46.5261 335.142 46.2136 335.142C45.7401 335.142 45.2761 335.04 44.8216 334.837C44.3717 334.633 43.9977 334.323 43.6994 333.906C43.4058 333.49 43.2591 332.964 43.2591 332.33V321.477ZM52.9963 335.256C52.305 335.256 51.6776 335.125 51.1142 334.865C50.5507 334.6 50.1033 334.219 49.7718 333.722C49.4404 333.22 49.2747 332.614 49.2747 331.903C49.2747 331.278 49.3978 330.772 49.644 330.384C49.8902 329.991 50.2193 329.683 50.6312 329.46C51.0431 329.238 51.4977 329.072 51.9949 328.963C52.4967 328.849 53.001 328.759 53.5076 328.693C54.1705 328.608 54.7079 328.544 55.1199 328.501C55.5365 328.454 55.8395 328.376 56.0289 328.267C56.2231 328.158 56.3201 327.969 56.3201 327.699V327.642C56.3201 326.941 56.1284 326.397 55.7449 326.009C55.3661 325.62 54.7908 325.426 54.019 325.426C53.2188 325.426 52.5914 325.601 52.1369 325.952C51.6824 326.302 51.3627 326.676 51.1781 327.074L49.5872 326.506C49.8713 325.843 50.2501 325.327 50.7235 324.957C51.2018 324.583 51.7226 324.323 52.286 324.176C52.8542 324.025 53.4129 323.949 53.9622 323.949C54.3126 323.949 54.715 323.991 55.1696 324.077C55.6288 324.157 56.0716 324.325 56.4977 324.581C56.9286 324.837 57.286 325.223 57.5701 325.739C57.8542 326.255 57.9963 326.946 57.9963 327.812V335H56.3201V333.523H56.2349C56.1213 333.759 55.9319 334.013 55.6667 334.283C55.4016 334.553 55.0488 334.782 54.6085 334.972C54.1681 335.161 53.6307 335.256 52.9963 335.256ZM53.252 333.75C53.9148 333.75 54.4735 333.62 54.9281 333.359C55.3874 333.099 55.733 332.763 55.965 332.351C56.2018 331.939 56.3201 331.506 56.3201 331.051V329.517C56.2491 329.602 56.0929 329.68 55.8514 329.751C55.6146 329.818 55.34 329.877 55.0275 329.929C54.7198 329.976 54.4191 330.019 54.1255 330.057C53.8367 330.09 53.6023 330.118 53.4224 330.142C52.9868 330.199 52.5796 330.291 52.2008 330.419C51.8268 330.542 51.5237 330.729 51.2917 330.98C51.0645 331.226 50.9508 331.562 50.9508 331.989C50.9508 332.571 51.1663 333.011 51.5971 333.31C52.0327 333.603 52.5843 333.75 53.252 333.75ZM67.9022 335.114C67.5518 335.114 67.2511 334.988 67.0002 334.737C66.7492 334.486 66.6238 334.186 66.6238 333.835C66.6238 333.485 66.7492 333.184 67.0002 332.933C67.2511 332.682 67.5518 332.557 67.9022 332.557C68.2525 332.557 68.5532 332.682 68.8042 332.933C69.0551 333.184 69.1806 333.485 69.1806 333.835C69.1806 334.067 69.1214 334.28 69.003 334.474C68.8894 334.669 68.7355 334.825 68.5414 334.943C68.352 335.057 68.1389 335.114 67.9022 335.114ZM67.9022 327.017C67.5518 327.017 67.2511 326.892 67.0002 326.641C66.7492 326.39 66.6238 326.089 66.6238 325.739C66.6238 325.388 66.7492 325.088 67.0002 324.837C67.2511 324.586 67.5518 324.46 67.9022 324.46C68.2525 324.46 68.5532 324.586 68.8042 324.837C69.0551 325.088 69.1806 325.388 69.1806 325.739C69.1806 325.971 69.1214 326.184 69.003 326.378C68.8894 326.572 68.7355 326.728 68.5414 326.847C68.352 326.96 68.1389 327.017 67.9022 327.017ZM82.0748 334.006V324.631H83.6657V334.006H82.0748ZM78.1827 330.114V328.523H87.5577V330.114H78.1827ZM94.4061 324.915C94.9174 324.915 95.3862 324.991 95.8123 325.142C96.2432 325.289 96.6315 325.483 96.9771 325.724C97.3275 325.961 97.6352 326.212 97.9004 326.477C98.0708 326.634 98.2271 326.795 98.3691 326.96C98.5159 327.126 98.6532 327.287 98.7811 327.443C98.8947 327.287 99.0154 327.133 99.1433 326.982C99.2711 326.83 99.4345 326.662 99.6333 326.477C100.031 326.08 100.521 325.72 101.104 325.398C101.691 325.076 102.375 324.915 103.156 324.915C103.876 324.915 104.529 325.09 105.116 325.44C105.708 325.786 106.177 326.255 106.523 326.847C106.873 327.434 107.048 328.087 107.048 328.807C107.048 329.351 106.946 329.863 106.743 330.341C106.544 330.814 106.267 331.231 105.912 331.591C105.557 331.946 105.142 332.225 104.669 332.429C104.2 332.628 103.696 332.727 103.156 332.727C102.635 332.727 102.157 332.654 101.721 332.507C101.291 332.356 100.9 332.164 100.55 331.932C100.204 331.695 99.8985 331.449 99.6333 331.193C99.4629 331.023 99.3066 330.855 99.1646 330.689C99.0226 330.518 98.8947 330.355 98.7811 330.199C98.6532 330.355 98.5159 330.518 98.3691 330.689C98.2271 330.855 98.0708 331.023 97.9004 331.193C97.6352 331.449 97.3275 331.695 96.9771 331.932C96.6315 332.164 96.2432 332.356 95.8123 332.507C95.3862 332.654 94.9174 332.727 94.4061 332.727C93.6769 332.727 93.0164 332.552 92.4245 332.202C91.8327 331.851 91.3616 331.38 91.0112 330.788C90.6608 330.196 90.4856 329.536 90.4856 328.807C90.4856 328.267 90.585 327.763 90.7839 327.294C90.9875 326.821 91.2669 326.406 91.622 326.051C91.9818 325.696 92.3985 325.419 92.872 325.22C93.3502 325.017 93.8616 324.915 94.4061 324.915ZM92.1049 328.807C92.1049 329.233 92.2067 329.621 92.4103 329.972C92.6187 330.317 92.8957 330.594 93.2413 330.803C93.5917 331.006 93.9799 331.108 94.4061 331.108C94.8748 331.108 95.3033 331.001 95.6916 330.788C96.0798 330.575 96.4373 330.312 96.764 330C96.9771 329.787 97.1641 329.581 97.3251 329.382C97.4861 329.183 97.6305 328.991 97.7583 328.807C97.6305 328.636 97.4885 328.454 97.3322 328.26C97.1807 328.061 96.9913 327.855 96.764 327.642C96.4515 327.33 96.0964 327.067 95.6987 326.854C95.3057 326.641 94.8748 326.534 94.4061 326.534C93.9799 326.534 93.5917 326.638 93.2413 326.847C92.8957 327.05 92.6187 327.325 92.4103 327.67C92.2067 328.011 92.1049 328.39 92.1049 328.807ZM105.429 328.807C105.429 328.39 105.325 328.011 105.116 327.67C104.913 327.325 104.638 327.05 104.292 326.847C103.952 326.638 103.573 326.534 103.156 326.534C102.834 326.534 102.531 326.584 102.247 326.683C101.963 326.778 101.698 326.911 101.452 327.081C101.205 327.247 100.978 327.434 100.77 327.642C100.514 327.884 100.301 328.118 100.131 328.345C99.9648 328.568 99.8464 328.722 99.7754 328.807C99.9032 328.991 100.048 329.183 100.209 329.382C100.37 329.581 100.557 329.787 100.77 330C101.096 330.312 101.454 330.575 101.842 330.788C102.235 331.001 102.673 331.108 103.156 331.108C103.573 331.108 103.952 331.006 104.292 330.803C104.638 330.594 104.913 330.317 105.116 329.972C105.325 329.621 105.429 329.233 105.429 328.807Z" fill="black"/>
<path d="M121.315 183.256C120.623 183.256 119.996 183.125 119.433 182.865C118.869 182.6 118.422 182.219 118.09 181.722C117.759 181.22 117.593 180.614 117.593 179.903C117.593 179.278 117.716 178.772 117.962 178.384C118.209 177.991 118.538 177.683 118.95 177.46C119.362 177.238 119.816 177.072 120.313 176.963C120.815 176.849 121.319 176.759 121.826 176.693C122.489 176.608 123.026 176.544 123.438 176.501C123.855 176.454 124.158 176.376 124.347 176.267C124.541 176.158 124.638 175.969 124.638 175.699V175.642C124.638 174.941 124.447 174.397 124.063 174.009C123.684 173.62 123.109 173.426 122.337 173.426C121.537 173.426 120.91 173.601 120.455 173.952C120.001 174.302 119.681 174.676 119.496 175.074L117.906 174.506C118.19 173.843 118.568 173.327 119.042 172.957C119.52 172.583 120.041 172.323 120.604 172.176C121.173 172.025 121.731 171.949 122.281 171.949C122.631 171.949 123.033 171.991 123.488 172.077C123.947 172.157 124.39 172.325 124.816 172.581C125.247 172.837 125.604 173.223 125.888 173.739C126.173 174.255 126.315 174.946 126.315 175.812V183H124.638V181.523H124.553C124.44 181.759 124.25 182.013 123.985 182.283C123.72 182.553 123.367 182.782 122.927 182.972C122.487 183.161 121.949 183.256 121.315 183.256ZM121.57 181.75C122.233 181.75 122.792 181.62 123.246 181.359C123.706 181.099 124.051 180.763 124.283 180.351C124.52 179.939 124.638 179.506 124.638 179.051V177.517C124.567 177.602 124.411 177.68 124.17 177.751C123.933 177.818 123.658 177.877 123.346 177.929C123.038 177.976 122.737 178.019 122.444 178.057C122.155 178.09 121.921 178.118 121.741 178.142C121.305 178.199 120.898 178.291 120.519 178.419C120.145 178.542 119.842 178.729 119.61 178.98C119.383 179.226 119.269 179.562 119.269 179.989C119.269 180.571 119.485 181.011 119.915 181.31C120.351 181.603 120.903 181.75 121.57 181.75ZM131.05 168.455V183H129.374V168.455H131.05ZM134.12 187.091V172.091H135.739V173.824H135.938C136.061 173.634 136.232 173.393 136.45 173.099C136.672 172.801 136.989 172.536 137.401 172.304C137.818 172.067 138.381 171.949 139.092 171.949C140.01 171.949 140.82 172.179 141.521 172.638C142.221 173.097 142.768 173.748 143.161 174.591C143.554 175.434 143.751 176.428 143.751 177.574C143.751 178.729 143.554 179.731 143.161 180.578C142.768 181.421 142.224 182.074 141.528 182.538C140.832 182.998 140.029 183.227 139.12 183.227C138.419 183.227 137.858 183.111 137.437 182.879C137.015 182.643 136.691 182.375 136.464 182.077C136.237 181.774 136.061 181.523 135.938 181.324H135.796V187.091H134.12ZM135.768 177.545C135.768 178.369 135.888 179.096 136.13 179.726C136.371 180.351 136.724 180.841 137.188 181.196C137.652 181.546 138.22 181.722 138.893 181.722C139.594 181.722 140.178 181.537 140.647 181.168C141.121 180.794 141.476 180.292 141.712 179.662C141.954 179.027 142.075 178.322 142.075 177.545C142.075 176.778 141.956 176.087 141.719 175.472C141.487 174.851 141.135 174.361 140.661 174.001C140.192 173.637 139.603 173.455 138.893 173.455C138.211 173.455 137.638 173.627 137.174 173.973C136.71 174.314 136.36 174.792 136.123 175.408C135.886 176.018 135.768 176.731 135.768 177.545ZM147.984 176.438V183H146.308V168.455H147.984V173.795H148.126C148.381 173.232 148.765 172.785 149.276 172.453C149.792 172.117 150.479 171.949 151.336 171.949C152.079 171.949 152.73 172.098 153.289 172.396C153.848 172.69 154.281 173.142 154.589 173.753C154.901 174.359 155.058 175.131 155.058 176.068V183H153.381V176.182C153.381 175.315 153.156 174.645 152.707 174.172C152.262 173.694 151.644 173.455 150.853 173.455C150.304 173.455 149.811 173.571 149.376 173.803C148.945 174.035 148.604 174.373 148.353 174.818C148.107 175.263 147.984 175.803 147.984 176.438ZM161.334 183.256C160.643 183.256 160.016 183.125 159.452 182.865C158.889 182.6 158.441 182.219 158.11 181.722C157.778 181.22 157.613 180.614 157.613 179.903C157.613 179.278 157.736 178.772 157.982 178.384C158.228 177.991 158.557 177.683 158.969 177.46C159.381 177.238 159.836 177.072 160.333 176.963C160.835 176.849 161.339 176.759 161.846 176.693C162.508 176.608 163.046 176.544 163.458 176.501C163.874 176.454 164.177 176.376 164.367 176.267C164.561 176.158 164.658 175.969 164.658 175.699V175.642C164.658 174.941 164.466 174.397 164.083 174.009C163.704 173.62 163.129 173.426 162.357 173.426C161.557 173.426 160.929 173.601 160.475 173.952C160.02 174.302 159.701 174.676 159.516 175.074L157.925 174.506C158.209 173.843 158.588 173.327 159.061 172.957C159.54 172.583 160.06 172.323 160.624 172.176C161.192 172.025 161.751 171.949 162.3 171.949C162.65 171.949 163.053 171.991 163.507 172.077C163.967 172.157 164.409 172.325 164.836 172.581C165.266 172.837 165.624 173.223 165.908 173.739C166.192 174.255 166.334 174.946 166.334 175.812V183H164.658V181.523H164.573C164.459 181.759 164.27 182.013 164.005 182.283C163.739 182.553 163.387 182.782 162.946 182.972C162.506 183.161 161.969 183.256 161.334 183.256ZM161.59 181.75C162.253 181.75 162.811 181.62 163.266 181.359C163.725 181.099 164.071 180.763 164.303 180.351C164.54 179.939 164.658 179.506 164.658 179.051V177.517C164.587 177.602 164.431 177.68 164.189 177.751C163.953 177.818 163.678 177.877 163.365 177.929C163.058 177.976 162.757 178.019 162.463 178.057C162.175 178.09 161.94 178.118 161.76 178.142C161.325 178.199 160.917 178.291 160.539 178.419C160.165 178.542 159.862 178.729 159.63 178.98C159.402 179.226 159.289 179.562 159.289 179.989C159.289 180.571 159.504 181.011 159.935 181.31C160.371 181.603 160.922 181.75 161.59 181.75ZM176.24 183.114C175.89 183.114 175.589 182.988 175.338 182.737C175.087 182.486 174.962 182.186 174.962 181.835C174.962 181.485 175.087 181.184 175.338 180.933C175.589 180.682 175.89 180.557 176.24 180.557C176.59 180.557 176.891 180.682 177.142 180.933C177.393 181.184 177.518 181.485 177.518 181.835C177.518 182.067 177.459 182.28 177.341 182.474C177.227 182.669 177.073 182.825 176.879 182.943C176.69 183.057 176.477 183.114 176.24 183.114ZM176.24 175.017C175.89 175.017 175.589 174.892 175.338 174.641C175.087 174.39 174.962 174.089 174.962 173.739C174.962 173.388 175.087 173.088 175.338 172.837C175.589 172.586 175.89 172.46 176.24 172.46C176.59 172.46 176.891 172.586 177.142 172.837C177.393 173.088 177.518 173.388 177.518 173.739C177.518 173.971 177.459 174.184 177.341 174.378C177.227 174.572 177.073 174.728 176.879 174.847C176.69 174.96 176.477 175.017 176.24 175.017ZM192.401 175.983V177.545H186.038V175.983H192.401ZM198.76 172.915C199.271 172.915 199.74 172.991 200.166 173.142C200.597 173.289 200.985 173.483 201.331 173.724C201.681 173.961 201.989 174.212 202.254 174.477C202.424 174.634 202.581 174.795 202.723 174.96C202.869 175.126 203.007 175.287 203.135 175.443C203.248 175.287 203.369 175.133 203.497 174.982C203.625 174.83 203.788 174.662 203.987 174.477C204.385 174.08 204.875 173.72 205.457 173.398C206.044 173.076 206.728 172.915 207.51 172.915C208.229 172.915 208.883 173.09 209.47 173.44C210.062 173.786 210.53 174.255 210.876 174.847C211.226 175.434 211.402 176.087 211.402 176.807C211.402 177.351 211.3 177.863 211.096 178.341C210.897 178.814 210.62 179.231 210.265 179.591C209.91 179.946 209.496 180.225 209.022 180.429C208.554 180.628 208.049 180.727 207.51 180.727C206.989 180.727 206.511 180.654 206.075 180.507C205.644 180.356 205.253 180.164 204.903 179.932C204.557 179.695 204.252 179.449 203.987 179.193C203.816 179.023 203.66 178.855 203.518 178.689C203.376 178.518 203.248 178.355 203.135 178.199C203.007 178.355 202.869 178.518 202.723 178.689C202.581 178.855 202.424 179.023 202.254 179.193C201.989 179.449 201.681 179.695 201.331 179.932C200.985 180.164 200.597 180.356 200.166 180.507C199.74 180.654 199.271 180.727 198.76 180.727C198.03 180.727 197.37 180.552 196.778 180.202C196.186 179.851 195.715 179.38 195.365 178.788C195.014 178.196 194.839 177.536 194.839 176.807C194.839 176.267 194.939 175.763 195.137 175.294C195.341 174.821 195.62 174.406 195.975 174.051C196.335 173.696 196.752 173.419 197.225 173.22C197.704 173.017 198.215 172.915 198.76 172.915ZM196.458 176.807C196.458 177.233 196.56 177.621 196.764 177.972C196.972 178.317 197.249 178.594 197.595 178.803C197.945 179.006 198.333 179.108 198.76 179.108C199.228 179.108 199.657 179.001 200.045 178.788C200.433 178.575 200.791 178.312 201.118 178C201.331 177.787 201.518 177.581 201.679 177.382C201.84 177.183 201.984 176.991 202.112 176.807C201.984 176.636 201.842 176.454 201.686 176.26C201.534 176.061 201.345 175.855 201.118 175.642C200.805 175.33 200.45 175.067 200.052 174.854C199.659 174.641 199.228 174.534 198.76 174.534C198.333 174.534 197.945 174.638 197.595 174.847C197.249 175.05 196.972 175.325 196.764 175.67C196.56 176.011 196.458 176.39 196.458 176.807ZM209.782 176.807C209.782 176.39 209.678 176.011 209.47 175.67C209.266 175.325 208.992 175.05 208.646 174.847C208.305 174.638 207.926 174.534 207.51 174.534C207.188 174.534 206.885 174.584 206.6 174.683C206.316 174.778 206.051 174.911 205.805 175.081C205.559 175.247 205.332 175.434 205.123 175.642C204.868 175.884 204.654 176.118 204.484 176.345C204.318 176.568 204.2 176.722 204.129 176.807C204.257 176.991 204.401 177.183 204.562 177.382C204.723 177.581 204.91 177.787 205.123 178C205.45 178.312 205.807 178.575 206.196 178.788C206.589 179.001 207.027 179.108 207.51 179.108C207.926 179.108 208.305 179.006 208.646 178.803C208.992 178.594 209.266 178.317 209.47 177.972C209.678 177.621 209.782 177.233 209.782 176.807ZM125.685 207V192.455H127.361V197.824H127.503C127.626 197.634 127.797 197.393 128.015 197.099C128.237 196.801 128.555 196.536 128.966 196.304C129.383 196.067 129.947 195.949 130.657 195.949C131.575 195.949 132.385 196.179 133.086 196.638C133.787 197.097 134.333 197.748 134.726 198.591C135.119 199.434 135.316 200.428 135.316 201.574C135.316 202.729 135.119 203.731 134.726 204.578C134.333 205.421 133.789 206.074 133.093 206.538C132.397 206.998 131.594 207.227 130.685 207.227C129.984 207.227 129.423 207.111 129.002 206.879C128.581 206.643 128.256 206.375 128.029 206.077C127.802 205.774 127.626 205.523 127.503 205.324H127.305V207H125.685ZM127.333 201.545C127.333 202.369 127.454 203.096 127.695 203.726C127.937 204.351 128.289 204.841 128.753 205.196C129.217 205.546 129.786 205.722 130.458 205.722C131.159 205.722 131.743 205.537 132.212 205.168C132.686 204.794 133.041 204.292 133.278 203.662C133.519 203.027 133.64 202.322 133.64 201.545C133.64 200.778 133.521 200.087 133.285 199.472C133.053 198.851 132.7 198.361 132.226 198.001C131.758 197.637 131.168 197.455 130.458 197.455C129.776 197.455 129.203 197.627 128.739 197.973C128.275 198.314 127.925 198.792 127.688 199.408C127.451 200.018 127.333 200.731 127.333 201.545ZM142.454 207.227C141.403 207.227 140.496 206.995 139.733 206.531C138.976 206.062 138.391 205.409 137.979 204.571C137.572 203.728 137.368 202.748 137.368 201.631C137.368 200.513 137.572 199.528 137.979 198.676C138.391 197.819 138.964 197.152 139.698 196.673C140.437 196.19 141.298 195.949 142.283 195.949C142.851 195.949 143.412 196.044 143.966 196.233C144.52 196.422 145.025 196.73 145.479 197.156C145.934 197.578 146.296 198.136 146.566 198.832C146.836 199.528 146.971 200.385 146.971 201.403V202.114H138.562V200.665H145.266C145.266 200.049 145.143 199.5 144.897 199.017C144.655 198.534 144.31 198.153 143.86 197.874C143.415 197.594 142.889 197.455 142.283 197.455C141.616 197.455 141.038 197.62 140.55 197.952C140.067 198.278 139.696 198.705 139.435 199.23C139.175 199.756 139.045 200.319 139.045 200.92V201.886C139.045 202.71 139.187 203.409 139.471 203.982C139.76 204.55 140.16 204.983 140.671 205.281C141.182 205.575 141.777 205.722 142.454 205.722C142.894 205.722 143.292 205.66 143.647 205.537C144.007 205.409 144.317 205.22 144.577 204.969C144.838 204.713 145.039 204.396 145.181 204.017L146.8 204.472C146.63 205.021 146.343 205.504 145.941 205.92C145.538 206.332 145.041 206.654 144.449 206.886C143.858 207.114 143.192 207.227 142.454 207.227ZM143.675 194.784L142.198 192.795L140.721 194.784H139.13V194.67L141.431 191.716H142.965L145.266 194.67V194.784H143.675ZM154.265 196.091V197.511H148.611V196.091H154.265ZM150.259 193.477H151.935V203.875C151.935 204.348 152.004 204.704 152.141 204.94C152.283 205.172 152.463 205.329 152.681 205.409C152.903 205.485 153.138 205.523 153.384 205.523C153.569 205.523 153.72 205.513 153.839 205.494C153.957 205.471 154.052 205.452 154.123 205.438L154.464 206.943C154.35 206.986 154.191 207.028 153.988 207.071C153.784 207.118 153.526 207.142 153.214 207.142C152.74 207.142 152.276 207.04 151.822 206.837C151.372 206.633 150.998 206.323 150.699 205.906C150.406 205.49 150.259 204.964 150.259 204.33V193.477ZM159.996 207.256C159.305 207.256 158.678 207.125 158.114 206.865C157.551 206.6 157.103 206.219 156.772 205.722C156.44 205.22 156.275 204.614 156.275 203.903C156.275 203.278 156.398 202.772 156.644 202.384C156.89 201.991 157.219 201.683 157.631 201.46C158.043 201.238 158.498 201.072 158.995 200.963C159.497 200.849 160.001 200.759 160.508 200.693C161.171 200.608 161.708 200.544 162.12 200.501C162.537 200.454 162.84 200.376 163.029 200.267C163.223 200.158 163.32 199.969 163.32 199.699V199.642C163.32 198.941 163.128 198.397 162.745 198.009C162.366 197.62 161.791 197.426 161.019 197.426C160.219 197.426 159.591 197.601 159.137 197.952C158.682 198.302 158.363 198.676 158.178 199.074L156.587 198.506C156.871 197.843 157.25 197.327 157.724 196.957C158.202 196.583 158.723 196.323 159.286 196.176C159.854 196.025 160.413 195.949 160.962 195.949C161.313 195.949 161.715 195.991 162.17 196.077C162.629 196.157 163.072 196.325 163.498 196.581C163.929 196.837 164.286 197.223 164.57 197.739C164.854 198.255 164.996 198.946 164.996 199.812V207H163.32V205.523H163.235C163.121 205.759 162.932 206.013 162.667 206.283C162.402 206.553 162.049 206.782 161.608 206.972C161.168 207.161 160.631 207.256 159.996 207.256ZM160.252 205.75C160.915 205.75 161.474 205.62 161.928 205.359C162.387 205.099 162.733 204.763 162.965 204.351C163.202 203.939 163.32 203.506 163.32 203.051V201.517C163.249 201.602 163.093 201.68 162.851 201.751C162.615 201.818 162.34 201.877 162.028 201.929C161.72 201.976 161.419 202.019 161.126 202.057C160.837 202.09 160.602 202.118 160.422 202.142C159.987 202.199 159.58 202.291 159.201 202.419C158.827 202.542 158.524 202.729 158.292 202.98C158.064 203.226 157.951 203.562 157.951 203.989C157.951 204.571 158.166 205.011 158.597 205.31C159.033 205.603 159.584 205.75 160.252 205.75ZM174.902 205.139C174.552 205.139 174.251 205.014 174 204.763C173.749 204.512 173.624 204.211 173.624 203.861C173.624 203.51 173.749 203.21 174 202.959C174.251 202.708 174.552 202.582 174.902 202.582C175.253 202.582 175.553 202.708 175.804 202.959C176.055 203.21 176.181 203.51 176.181 203.861C176.181 204.093 176.121 204.306 176.003 204.5C175.889 204.694 175.735 204.85 175.541 204.969C175.352 205.082 175.139 205.139 174.902 205.139ZM174.902 197.781C174.552 197.781 174.251 197.656 174 197.405C173.749 197.154 173.624 196.853 173.624 196.503C173.624 196.152 173.749 195.852 174 195.601C174.251 195.35 174.552 195.224 174.902 195.224C175.253 195.224 175.553 195.35 175.804 195.601C176.055 195.852 176.181 196.152 176.181 196.503C176.181 196.735 176.121 196.948 176.003 197.142C175.889 197.336 175.735 197.492 175.541 197.611C175.352 197.724 175.139 197.781 174.902 197.781ZM189.899 192.455V207H188.137V194.301H188.052L184.501 196.659V194.869L188.137 192.455H189.899ZM198.826 207.199C197.756 207.199 196.845 206.908 196.092 206.325C195.339 205.738 194.764 204.888 194.366 203.776C193.968 202.658 193.769 201.309 193.769 199.727C193.769 198.155 193.968 196.813 194.366 195.7C194.768 194.583 195.346 193.731 196.099 193.143C196.856 192.552 197.766 192.256 198.826 192.256C199.887 192.256 200.794 192.552 201.546 193.143C202.304 193.731 202.882 194.583 203.279 195.7C203.682 196.813 203.883 198.155 203.883 199.727C203.883 201.309 203.684 202.658 203.286 203.776C202.889 204.888 202.313 205.738 201.561 206.325C200.808 206.908 199.896 207.199 198.826 207.199ZM198.826 205.636C199.887 205.636 200.711 205.125 201.298 204.102C201.885 203.08 202.178 201.621 202.178 199.727C202.178 198.468 202.044 197.395 201.774 196.51C201.508 195.625 201.125 194.95 200.623 194.486C200.126 194.022 199.527 193.79 198.826 193.79C197.775 193.79 196.954 194.308 196.362 195.345C195.77 196.377 195.474 197.838 195.474 199.727C195.474 200.987 195.606 202.057 195.872 202.938C196.137 203.818 196.518 204.488 197.015 204.947C197.517 205.407 198.121 205.636 198.826 205.636Z" fill="black"/>
<path d="M388.518 316.256C387.826 316.256 387.199 316.125 386.636 315.865C386.072 315.6 385.625 315.219 385.293 314.722C384.962 314.22 384.796 313.614 384.796 312.903C384.796 312.278 384.919 311.772 385.165 311.384C385.412 310.991 385.741 310.683 386.153 310.46C386.565 310.238 387.019 310.072 387.516 309.963C388.018 309.849 388.522 309.759 389.029 309.693C389.692 309.608 390.229 309.544 390.641 309.501C391.058 309.454 391.361 309.376 391.55 309.267C391.745 309.158 391.842 308.969 391.842 308.699V308.642C391.842 307.941 391.65 307.397 391.266 307.009C390.888 306.62 390.312 306.426 389.54 306.426C388.74 306.426 388.113 306.601 387.658 306.952C387.204 307.302 386.884 307.676 386.7 308.074L385.109 307.506C385.393 306.843 385.772 306.327 386.245 305.957C386.723 305.583 387.244 305.323 387.808 305.176C388.376 305.025 388.934 304.949 389.484 304.949C389.834 304.949 390.237 304.991 390.691 305.077C391.15 305.157 391.593 305.325 392.019 305.581C392.45 305.837 392.808 306.223 393.092 306.739C393.376 307.255 393.518 307.946 393.518 308.812V316H391.842V314.523H391.756C391.643 314.759 391.453 315.013 391.188 315.283C390.923 315.553 390.57 315.782 390.13 315.972C389.69 316.161 389.152 316.256 388.518 316.256ZM388.773 314.75C389.436 314.75 389.995 314.62 390.45 314.359C390.909 314.099 391.254 313.763 391.487 313.351C391.723 312.939 391.842 312.506 391.842 312.051V310.517C391.771 310.602 391.614 310.68 391.373 310.751C391.136 310.818 390.862 310.877 390.549 310.929C390.241 310.976 389.941 311.019 389.647 311.057C389.358 311.09 389.124 311.118 388.944 311.142C388.508 311.199 388.101 311.291 387.722 311.419C387.348 311.542 387.045 311.729 386.813 311.98C386.586 312.226 386.472 312.562 386.472 312.989C386.472 313.571 386.688 314.011 387.119 314.31C387.554 314.603 388.106 314.75 388.773 314.75ZM398.253 301.455V316H396.577V301.455H398.253ZM401.323 320.091V305.091H402.942V306.824H403.141C403.264 306.634 403.435 306.393 403.653 306.099C403.875 305.801 404.192 305.536 404.604 305.304C405.021 305.067 405.585 304.949 406.295 304.949C407.213 304.949 408.023 305.179 408.724 305.638C409.424 306.097 409.971 306.748 410.364 307.591C410.757 308.434 410.954 309.428 410.954 310.574C410.954 311.729 410.757 312.731 410.364 313.578C409.971 314.421 409.427 315.074 408.731 315.538C408.035 315.998 407.232 316.227 406.323 316.227C405.622 316.227 405.061 316.111 404.64 315.879C404.219 315.643 403.894 315.375 403.667 315.077C403.44 314.774 403.264 314.523 403.141 314.324H402.999V320.091H401.323ZM402.971 310.545C402.971 311.369 403.092 312.096 403.333 312.726C403.575 313.351 403.927 313.841 404.391 314.196C404.855 314.546 405.424 314.722 406.096 314.722C406.797 314.722 407.381 314.537 407.85 314.168C408.324 313.794 408.679 313.292 408.915 312.662C409.157 312.027 409.278 311.322 409.278 310.545C409.278 309.778 409.159 309.087 408.923 308.472C408.691 307.851 408.338 307.361 407.864 307.001C407.396 306.637 406.806 306.455 406.096 306.455C405.414 306.455 404.841 306.627 404.377 306.973C403.913 307.314 403.563 307.792 403.326 308.408C403.089 309.018 402.971 309.731 402.971 310.545ZM415.187 309.438V316H413.511V301.455H415.187V306.795H415.329C415.585 306.232 415.968 305.785 416.479 305.453C416.996 305.117 417.682 304.949 418.539 304.949C419.282 304.949 419.933 305.098 420.492 305.396C421.051 305.69 421.484 306.142 421.792 306.753C422.104 307.359 422.261 308.131 422.261 309.068V316H420.585V309.182C420.585 308.315 420.36 307.645 419.91 307.172C419.465 306.694 418.847 306.455 418.056 306.455C417.507 306.455 417.014 306.571 416.579 306.803C416.148 307.035 415.807 307.373 415.556 307.818C415.31 308.263 415.187 308.803 415.187 309.438ZM428.537 316.256C427.846 316.256 427.219 316.125 426.655 315.865C426.092 315.6 425.644 315.219 425.313 314.722C424.981 314.22 424.816 313.614 424.816 312.903C424.816 312.278 424.939 311.772 425.185 311.384C425.431 310.991 425.76 310.683 426.172 310.46C426.584 310.238 427.039 310.072 427.536 309.963C428.038 309.849 428.542 309.759 429.049 309.693C429.712 309.608 430.249 309.544 430.661 309.501C431.078 309.454 431.381 309.376 431.57 309.267C431.764 309.158 431.861 308.969 431.861 308.699V308.642C431.861 307.941 431.669 307.397 431.286 307.009C430.907 306.62 430.332 306.426 429.56 306.426C428.76 306.426 428.132 306.601 427.678 306.952C427.223 307.302 426.904 307.676 426.719 308.074L425.128 307.506C425.412 306.843 425.791 306.327 426.265 305.957C426.743 305.583 427.264 305.323 427.827 305.176C428.395 305.025 428.954 304.949 429.503 304.949C429.854 304.949 430.256 304.991 430.711 305.077C431.17 305.157 431.613 305.325 432.039 305.581C432.47 305.837 432.827 306.223 433.111 306.739C433.395 307.255 433.537 307.946 433.537 308.812V316H431.861V314.523H431.776C431.662 314.759 431.473 315.013 431.208 315.283C430.943 315.553 430.59 315.782 430.15 315.972C429.709 316.161 429.172 316.256 428.537 316.256ZM428.793 314.75C429.456 314.75 430.015 314.62 430.469 314.359C430.928 314.099 431.274 313.763 431.506 313.351C431.743 312.939 431.861 312.506 431.861 312.051V310.517C431.79 310.602 431.634 310.68 431.392 310.751C431.156 310.818 430.881 310.877 430.569 310.929C430.261 310.976 429.96 311.019 429.667 311.057C429.378 311.09 429.143 311.118 428.963 311.142C428.528 311.199 428.121 311.291 427.742 311.419C427.368 311.542 427.065 311.729 426.833 311.98C426.605 312.226 426.492 312.562 426.492 312.989C426.492 313.571 426.707 314.011 427.138 314.31C427.574 314.603 428.125 314.75 428.793 314.75ZM443.443 314.139C443.093 314.139 442.792 314.014 442.541 313.763C442.29 313.512 442.165 313.211 442.165 312.861C442.165 312.51 442.29 312.21 442.541 311.959C442.792 311.708 443.093 311.582 443.443 311.582C443.794 311.582 444.094 311.708 444.345 311.959C444.596 312.21 444.722 312.51 444.722 312.861C444.722 313.093 444.662 313.306 444.544 313.5C444.43 313.694 444.277 313.85 444.082 313.969C443.893 314.082 443.68 314.139 443.443 314.139ZM443.443 306.781C443.093 306.781 442.792 306.656 442.541 306.405C442.29 306.154 442.165 305.853 442.165 305.503C442.165 305.152 442.29 304.852 442.541 304.601C442.792 304.35 443.093 304.224 443.443 304.224C443.794 304.224 444.094 304.35 444.345 304.601C444.596 304.852 444.722 305.152 444.722 305.503C444.722 305.735 444.662 305.948 444.544 306.142C444.43 306.336 444.277 306.492 444.082 306.611C443.893 306.724 443.68 306.781 443.443 306.781ZM458.44 301.455V316H456.678V303.301H456.593L453.042 305.659V303.869L456.678 301.455H458.44ZM462.623 316V314.722L467.424 309.466C467.987 308.85 468.451 308.315 468.816 307.861C469.181 307.402 469.451 306.971 469.626 306.568C469.806 306.161 469.896 305.735 469.896 305.29C469.896 304.778 469.772 304.336 469.526 303.962C469.285 303.588 468.953 303.299 468.532 303.095C468.111 302.892 467.637 302.79 467.112 302.79C466.553 302.79 466.065 302.906 465.648 303.138C465.237 303.365 464.917 303.685 464.69 304.097C464.467 304.509 464.356 304.991 464.356 305.545H462.68C462.68 304.693 462.876 303.945 463.269 303.301C463.662 302.657 464.197 302.155 464.874 301.795C465.556 301.436 466.321 301.256 467.168 301.256C468.021 301.256 468.776 301.436 469.434 301.795C470.092 302.155 470.608 302.641 470.982 303.251C471.356 303.862 471.543 304.542 471.543 305.29C471.543 305.825 471.446 306.348 471.252 306.859C471.063 307.366 470.731 307.932 470.258 308.557C469.789 309.177 469.138 309.935 468.305 310.83L465.038 314.324V314.438H471.799V316H462.623ZM389.685 340V325.455H391.361V330.824H391.503C391.626 330.634 391.797 330.393 392.015 330.099C392.237 329.801 392.555 329.536 392.966 329.304C393.383 329.067 393.947 328.949 394.657 328.949C395.575 328.949 396.385 329.179 397.086 329.638C397.787 330.097 398.333 330.748 398.726 331.591C399.119 332.434 399.316 333.428 399.316 334.574C399.316 335.729 399.119 336.731 398.726 337.578C398.333 338.421 397.789 339.074 397.093 339.538C396.397 339.998 395.594 340.227 394.685 340.227C393.984 340.227 393.423 340.111 393.002 339.879C392.581 339.643 392.256 339.375 392.029 339.077C391.802 338.774 391.626 338.523 391.503 338.324H391.305V340H389.685ZM391.333 334.545C391.333 335.369 391.454 336.096 391.695 336.726C391.937 337.351 392.289 337.841 392.753 338.196C393.217 338.546 393.786 338.722 394.458 338.722C395.159 338.722 395.743 338.537 396.212 338.168C396.686 337.794 397.041 337.292 397.278 336.662C397.519 336.027 397.64 335.322 397.64 334.545C397.64 333.778 397.521 333.087 397.285 332.472C397.053 331.851 396.7 331.361 396.226 331.001C395.758 330.637 395.168 330.455 394.458 330.455C393.776 330.455 393.203 330.627 392.739 330.973C392.275 331.314 391.925 331.792 391.688 332.408C391.451 333.018 391.333 333.731 391.333 334.545ZM406.454 340.227C405.403 340.227 404.496 339.995 403.733 339.531C402.976 339.062 402.391 338.409 401.979 337.571C401.572 336.728 401.368 335.748 401.368 334.631C401.368 333.513 401.572 332.528 401.979 331.676C402.391 330.819 402.964 330.152 403.698 329.673C404.437 329.19 405.298 328.949 406.283 328.949C406.851 328.949 407.412 329.044 407.966 329.233C408.52 329.422 409.025 329.73 409.479 330.156C409.934 330.578 410.296 331.136 410.566 331.832C410.836 332.528 410.971 333.385 410.971 334.403V335.114H402.562V333.665H409.266C409.266 333.049 409.143 332.5 408.897 332.017C408.655 331.534 408.31 331.153 407.86 330.874C407.415 330.594 406.889 330.455 406.283 330.455C405.616 330.455 405.038 330.62 404.55 330.952C404.067 331.278 403.696 331.705 403.435 332.23C403.175 332.756 403.045 333.319 403.045 333.92V334.886C403.045 335.71 403.187 336.409 403.471 336.982C403.76 337.55 404.16 337.983 404.671 338.281C405.182 338.575 405.777 338.722 406.454 338.722C406.894 338.722 407.292 338.66 407.647 338.537C408.007 338.409 408.317 338.22 408.577 337.969C408.838 337.713 409.039 337.396 409.181 337.017L410.8 337.472C410.63 338.021 410.343 338.504 409.941 338.92C409.538 339.332 409.041 339.654 408.449 339.886C407.858 340.114 407.192 340.227 406.454 340.227ZM407.675 327.784L406.198 325.795L404.721 327.784H403.13V327.67L405.431 324.716H406.965L409.266 327.67V327.784H407.675ZM418.265 329.091V330.511H412.611V329.091H418.265ZM414.259 326.477H415.935V336.875C415.935 337.348 416.004 337.704 416.141 337.94C416.283 338.172 416.463 338.329 416.681 338.409C416.903 338.485 417.138 338.523 417.384 338.523C417.569 338.523 417.72 338.513 417.839 338.494C417.957 338.471 418.052 338.452 418.123 338.438L418.464 339.943C418.35 339.986 418.191 340.028 417.988 340.071C417.784 340.118 417.526 340.142 417.214 340.142C416.74 340.142 416.276 340.04 415.822 339.837C415.372 339.633 414.998 339.323 414.699 338.906C414.406 338.49 414.259 337.964 414.259 337.33V326.477ZM423.996 340.256C423.305 340.256 422.678 340.125 422.114 339.865C421.551 339.6 421.103 339.219 420.772 338.722C420.44 338.22 420.275 337.614 420.275 336.903C420.275 336.278 420.398 335.772 420.644 335.384C420.89 334.991 421.219 334.683 421.631 334.46C422.043 334.238 422.498 334.072 422.995 333.963C423.497 333.849 424.001 333.759 424.508 333.693C425.171 333.608 425.708 333.544 426.12 333.501C426.537 333.454 426.84 333.376 427.029 333.267C427.223 333.158 427.32 332.969 427.32 332.699V332.642C427.32 331.941 427.128 331.397 426.745 331.009C426.366 330.62 425.791 330.426 425.019 330.426C424.219 330.426 423.591 330.601 423.137 330.952C422.682 331.302 422.363 331.676 422.178 332.074L420.587 331.506C420.871 330.843 421.25 330.327 421.724 329.957C422.202 329.583 422.723 329.323 423.286 329.176C423.854 329.025 424.413 328.949 424.962 328.949C425.313 328.949 425.715 328.991 426.17 329.077C426.629 329.157 427.072 329.325 427.498 329.581C427.929 329.837 428.286 330.223 428.57 330.739C428.854 331.255 428.996 331.946 428.996 332.812V340H427.32V338.523H427.235C427.121 338.759 426.932 339.013 426.667 339.283C426.402 339.553 426.049 339.782 425.608 339.972C425.168 340.161 424.631 340.256 423.996 340.256ZM424.252 338.75C424.915 338.75 425.474 338.62 425.928 338.359C426.387 338.099 426.733 337.763 426.965 337.351C427.202 336.939 427.32 336.506 427.32 336.051V334.517C427.249 334.602 427.093 334.68 426.851 334.751C426.615 334.818 426.34 334.877 426.028 334.929C425.72 334.976 425.419 335.019 425.126 335.057C424.837 335.09 424.602 335.118 424.422 335.142C423.987 335.199 423.58 335.291 423.201 335.419C422.827 335.542 422.524 335.729 422.292 335.98C422.064 336.226 421.951 336.562 421.951 336.989C421.951 337.571 422.166 338.011 422.597 338.31C423.033 338.603 423.584 338.75 424.252 338.75ZM438.902 338.139C438.552 338.139 438.251 338.014 438 337.763C437.749 337.512 437.624 337.211 437.624 336.861C437.624 336.51 437.749 336.21 438 335.959C438.251 335.708 438.552 335.582 438.902 335.582C439.253 335.582 439.553 335.708 439.804 335.959C440.055 336.21 440.181 336.51 440.181 336.861C440.181 337.093 440.121 337.306 440.003 337.5C439.889 337.694 439.735 337.85 439.541 337.969C439.352 338.082 439.139 338.139 438.902 338.139ZM438.902 330.781C438.552 330.781 438.251 330.656 438 330.405C437.749 330.154 437.624 329.853 437.624 329.503C437.624 329.152 437.749 328.852 438 328.601C438.251 328.35 438.552 328.224 438.902 328.224C439.253 328.224 439.553 328.35 439.804 328.601C440.055 328.852 440.181 329.152 440.181 329.503C440.181 329.735 440.121 329.948 440.003 330.142C439.889 330.336 439.735 330.492 439.541 330.611C439.352 330.724 439.139 330.781 438.902 330.781ZM453.899 325.455V340H452.137V327.301H452.052L448.501 329.659V327.869L452.137 325.455H453.899ZM462.826 340.199C461.756 340.199 460.845 339.908 460.092 339.325C459.339 338.738 458.764 337.888 458.366 336.776C457.968 335.658 457.769 334.309 457.769 332.727C457.769 331.155 457.968 329.813 458.366 328.7C458.768 327.583 459.346 326.731 460.099 326.143C460.856 325.552 461.766 325.256 462.826 325.256C463.887 325.256 464.794 325.552 465.546 326.143C466.304 326.731 466.882 327.583 467.279 328.7C467.682 329.813 467.883 331.155 467.883 332.727C467.883 334.309 467.684 335.658 467.286 336.776C466.889 337.888 466.313 338.738 465.561 339.325C464.808 339.908 463.896 340.199 462.826 340.199ZM462.826 338.636C463.887 338.636 464.711 338.125 465.298 337.102C465.885 336.08 466.178 334.621 466.178 332.727C466.178 331.468 466.044 330.395 465.774 329.51C465.508 328.625 465.125 327.95 464.623 327.486C464.126 327.022 463.527 326.79 462.826 326.79C461.775 326.79 460.954 327.308 460.362 328.345C459.77 329.377 459.474 330.838 459.474 332.727C459.474 333.987 459.606 335.057 459.872 335.938C460.137 336.818 460.518 337.488 461.015 337.947C461.517 338.407 462.121 338.636 462.826 338.636Z" fill="black"/>
</svg>
