<svg width="954" height="454" viewBox="0 0 954 454" fill="none" xmlns="http://www.w3.org/2000/svg">
<path d="M856.787 306.818H859.415L865.594 321.911H865.807L871.986 306.818H874.614V325H872.554V311.186H872.377L866.695 325H864.706L859.024 311.186H858.847V325H856.787V306.818ZM882.757 325.32C881.893 325.32 881.109 325.157 880.404 324.831C879.7 324.5 879.141 324.023 878.727 323.402C878.312 322.775 878.105 322.017 878.105 321.129C878.105 320.348 878.259 319.715 878.567 319.229C878.874 318.738 879.286 318.353 879.801 318.075C880.316 317.797 880.884 317.59 881.505 317.454C882.133 317.312 882.763 317.199 883.396 317.116C884.225 317.01 884.897 316.93 885.412 316.877C885.932 316.818 886.311 316.72 886.548 316.584C886.791 316.448 886.912 316.211 886.912 315.874V315.803C886.912 314.927 886.672 314.246 886.193 313.761C885.719 313.275 885 313.033 884.035 313.033C883.035 313.033 882.251 313.252 881.683 313.69C881.115 314.128 880.715 314.595 880.484 315.092L878.496 314.382C878.851 313.554 879.324 312.908 879.916 312.447C880.514 311.979 881.165 311.654 881.869 311.47C882.58 311.281 883.278 311.186 883.964 311.186C884.402 311.186 884.905 311.239 885.474 311.346C886.048 311.446 886.601 311.657 887.134 311.976C887.672 312.296 888.119 312.778 888.474 313.423C888.83 314.068 889.007 314.933 889.007 316.016V325H886.912V323.153H886.805C886.663 323.449 886.427 323.766 886.095 324.103C885.764 324.441 885.323 324.728 884.772 324.964C884.222 325.201 883.55 325.32 882.757 325.32ZM883.077 323.438C883.905 323.438 884.604 323.275 885.172 322.949C885.746 322.624 886.178 322.203 886.468 321.689C886.764 321.174 886.912 320.632 886.912 320.064V318.146C886.823 318.253 886.628 318.35 886.326 318.439C886.03 318.522 885.687 318.596 885.296 318.661C884.911 318.72 884.536 318.774 884.169 318.821C883.808 318.862 883.515 318.898 883.29 318.928C882.745 318.999 882.236 319.114 881.763 319.274C881.295 319.428 880.916 319.661 880.626 319.975C880.342 320.283 880.2 320.703 880.2 321.236C880.2 321.964 880.47 322.514 881.008 322.887C881.553 323.254 882.242 323.438 883.077 323.438ZM894.394 311.364L897.661 316.939L900.928 311.364H903.343L898.939 318.182L903.343 325H900.928L897.661 319.709L894.394 325H891.979L896.311 318.182L891.979 311.364H894.394Z" fill="black"/>
<path d="M856.787 15.8182H859.415L865.594 30.9105H865.807L871.986 15.8182H874.614V34H872.554V20.1861H872.377L866.695 34H864.706L859.024 20.1861H858.847V34H856.787V15.8182ZM882.757 34.3196C881.893 34.3196 881.109 34.1568 880.404 33.8313C879.7 33.4999 879.141 33.0234 878.727 32.402C878.312 31.7746 878.105 31.017 878.105 30.1293C878.105 29.348 878.259 28.7147 878.567 28.2294C878.874 27.7382 879.286 27.3535 879.801 27.0753C880.316 26.7971 880.884 26.59 881.505 26.4538C882.133 26.3118 882.763 26.1993 883.396 26.1165C884.225 26.0099 884.897 25.93 885.412 25.8768C885.932 25.8176 886.311 25.7199 886.548 25.5838C886.791 25.4477 886.912 25.2109 886.912 24.8736V24.8026C886.912 23.9266 886.672 23.246 886.193 22.7607C885.719 22.2753 885 22.0327 884.035 22.0327C883.035 22.0327 882.251 22.2517 881.683 22.6896C881.115 23.1276 880.715 23.5952 880.484 24.0923L878.496 23.3821C878.851 22.5535 879.324 21.9084 879.916 21.4467C880.514 20.9792 881.165 20.6536 881.869 20.4702C882.58 20.2808 883.278 20.1861 883.964 20.1861C884.402 20.1861 884.905 20.2393 885.474 20.3459C886.048 20.4465 886.601 20.6566 887.134 20.9762C887.672 21.2958 888.119 21.7782 888.474 22.4233C888.83 23.0684 889.007 23.9325 889.007 25.0156V34H886.912V32.1534H886.805C886.663 32.4493 886.427 32.766 886.095 33.1033C885.764 33.4407 885.323 33.7277 884.772 33.9645C884.222 34.2012 883.55 34.3196 882.757 34.3196ZM883.077 32.4375C883.905 32.4375 884.604 32.2747 885.172 31.9492C885.746 31.6237 886.178 31.2035 886.468 30.6886C886.764 30.1737 886.912 29.6321 886.912 29.0639V27.1463C886.823 27.2528 886.628 27.3505 886.326 27.4393C886.03 27.5221 885.687 27.5961 885.296 27.6612C884.911 27.7204 884.536 27.7737 884.169 27.821C883.808 27.8625 883.515 27.898 883.29 27.9276C882.745 27.9986 882.236 28.114 881.763 28.2738C881.295 28.4277 880.916 28.6615 880.626 28.9751C880.342 29.2829 880.2 29.7031 880.2 30.2358C880.2 30.9638 880.47 31.5142 881.008 31.8871C881.553 32.254 882.242 32.4375 883.077 32.4375ZM894.394 20.3636L897.661 25.9389L900.928 20.3636H903.343L898.939 27.1818L903.343 34H900.928L897.661 28.7088L894.394 34H891.979L896.311 27.1818L891.979 20.3636H894.394Z" fill="black"/>
<path d="M860.303 178.818H862.931L869.11 193.911H869.323L875.502 178.818H878.129V197H876.07V183.186H875.892L870.21 197H868.222L862.54 183.186H862.362V197H860.303V178.818ZM882.26 197V183.364H884.355V197H882.26ZM883.325 181.091C882.917 181.091 882.565 180.952 882.269 180.674C881.979 180.395 881.834 180.061 881.834 179.67C881.834 179.28 881.979 178.945 882.269 178.667C882.565 178.389 882.917 178.25 883.325 178.25C883.734 178.25 884.083 178.389 884.373 178.667C884.669 178.945 884.817 179.28 884.817 179.67C884.817 180.061 884.669 180.395 884.373 180.674C884.083 180.952 883.734 181.091 883.325 181.091ZM890.288 188.797V197H888.193V183.364H890.217V185.494H890.394C890.714 184.802 891.199 184.246 891.85 183.825C892.501 183.399 893.342 183.186 894.371 183.186C895.295 183.186 896.103 183.375 896.795 183.754C897.488 184.127 898.026 184.695 898.411 185.459C898.796 186.216 898.988 187.175 898.988 188.335V197H896.893V188.477C896.893 187.406 896.615 186.571 896.058 185.974C895.502 185.37 894.738 185.068 893.768 185.068C893.099 185.068 892.501 185.213 891.974 185.503C891.454 185.793 891.042 186.216 890.74 186.773C890.439 187.329 890.288 188.004 890.288 188.797Z" fill="black"/>
<path d="M860.303 419.818H862.931L869.11 434.911H869.323L875.502 419.818H878.129V438H876.07V424.186H875.892L870.21 438H868.222L862.54 424.186H862.362V438H860.303V419.818ZM882.26 438V424.364H884.355V438H882.26ZM883.325 422.091C882.917 422.091 882.565 421.952 882.269 421.674C881.979 421.395 881.834 421.061 881.834 420.67C881.834 420.28 881.979 419.945 882.269 419.667C882.565 419.389 882.917 419.25 883.325 419.25C883.734 419.25 884.083 419.389 884.373 419.667C884.669 419.945 884.817 420.28 884.817 420.67C884.817 421.061 884.669 421.395 884.373 421.674C884.083 421.952 883.734 422.091 883.325 422.091ZM890.288 429.797V438H888.193V424.364H890.217V426.494H890.394C890.714 425.802 891.199 425.246 891.85 424.825C892.501 424.399 893.342 424.186 894.371 424.186C895.295 424.186 896.103 424.375 896.795 424.754C897.488 425.127 898.026 425.695 898.411 426.459C898.796 427.216 898.988 428.175 898.988 429.335V438H896.893V429.477C896.893 428.406 896.615 427.571 896.058 426.974C895.502 426.37 894.738 426.068 893.768 426.068C893.099 426.068 892.501 426.213 891.974 426.503C891.454 426.793 891.042 427.216 890.74 427.773C890.439 428.329 890.288 429.004 890.288 429.797Z" fill="black"/>
<line y1="105.5" x2="954" y2="105.5" stroke="black" stroke-opacity="0.2" stroke-width="3"/>
<line y1="250.5" x2="954" y2="250.5" stroke="black" stroke-opacity="0.19" stroke-width="3"/>
<line y1="371.5" x2="954" y2="371.5" stroke="black" stroke-opacity="0.19" stroke-width="3"/>
<path d="M268 188C268 201.255 257.255 212 244 212C230.745 212 220 201.255 220 188C220 174.745 230.745 164 244 164C257.255 164 268 174.745 268 188Z" fill="#D9D9D9" stroke="black" stroke-width="2"/>
<path d="M668 188C668 201.255 657.255 212 644 212C630.745 212 620 201.255 620 188C620 174.745 630.745 164 644 164C657.255 164 668 174.745 668 188Z" fill="#D9D9D9" stroke="black" stroke-width="2"/>
<path d="M468 25C468 38.2548 457.255 49 444 49C430.745 49 420 38.2548 420 25C420 11.7452 430.745 1 444 1C457.255 1 468 11.7452 468 25Z" fill="#D9D9D9" stroke="black" stroke-width="2"/>
<path d="M568 316C568 329.255 557.255 340 544 340C530.745 340 520 329.255 520 316C520 302.745 530.745 292 544 292C557.255 292 568 302.745 568 316Z" fill="#D9D9D9" stroke="black" stroke-width="2"/>
<path d="M368 316C368 329.255 357.255 340 344 340C330.745 340 320 329.255 320 316C320 302.745 330.745 292 344 292C357.255 292 368 302.745 368 316Z" fill="#D9D9D9" stroke="black" stroke-width="2"/>
<path d="M168 316C168 329.255 157.255 340 144 340C130.745 340 120 329.255 120 316C120 302.745 130.745 292 144 292C157.255 292 168 302.745 168 316Z" fill="#D9D9D9" stroke="black" stroke-width="2"/>
<path d="M618 429C618 442.255 607.255 453 594 453C580.745 453 570 442.255 570 429C570 415.745 580.745 405 594 405C607.255 405 618 415.745 618 429Z" fill="#D9D9D9" stroke="black" stroke-width="2"/>
<path d="M594.011 436.699C593.178 436.699 592.428 436.533 591.76 436.202C591.092 435.87 590.557 435.416 590.155 434.838C589.752 434.26 589.532 433.602 589.494 432.864H591.199C591.265 433.522 591.563 434.066 592.094 434.497C592.629 434.923 593.268 435.136 594.011 435.136C594.608 435.136 595.138 434.997 595.602 434.717C596.071 434.438 596.438 434.054 596.703 433.567C596.973 433.074 597.108 432.518 597.108 431.898C597.108 431.263 596.968 430.697 596.689 430.2C596.414 429.698 596.036 429.303 595.553 429.014C595.07 428.725 594.518 428.579 593.898 428.574C593.453 428.569 592.996 428.638 592.527 428.78C592.058 428.917 591.672 429.095 591.369 429.312L589.722 429.114L590.602 421.955H598.159V423.517H592.08L591.568 427.807H591.653C591.952 427.57 592.326 427.374 592.776 427.217C593.225 427.061 593.694 426.983 594.182 426.983C595.072 426.983 595.865 427.196 596.561 427.622C597.262 428.044 597.811 428.621 598.209 429.355C598.611 430.089 598.813 430.927 598.813 431.869C598.813 432.797 598.604 433.626 598.188 434.355C597.776 435.08 597.207 435.652 596.483 436.074C595.759 436.491 594.935 436.699 594.011 436.699Z" fill="black"/>
<path d="M518 429C518 442.255 507.255 453 494 453C480.745 453 470 442.255 470 429C470 415.745 480.745 405 494 405C507.255 405 518 415.745 518 429Z" fill="#D9D9D9" stroke="black" stroke-width="2"/>
<path d="M493.94 421.756C494.537 421.76 495.134 421.874 495.73 422.097C496.327 422.319 496.871 422.688 497.364 423.205C497.856 423.716 498.251 424.414 498.55 425.3C498.848 426.185 498.997 427.295 498.997 428.631C498.997 429.923 498.874 431.071 498.628 432.075C498.386 433.074 498.036 433.917 497.577 434.604C497.122 435.29 496.568 435.811 495.915 436.166C495.266 436.521 494.532 436.699 493.713 436.699C492.899 436.699 492.172 436.538 491.533 436.216C490.898 435.889 490.377 435.437 489.97 434.859C489.568 434.277 489.31 433.602 489.196 432.835H490.929C491.085 433.503 491.395 434.054 491.859 434.49C492.328 434.921 492.946 435.136 493.713 435.136C494.835 435.136 495.721 434.646 496.369 433.666C497.023 432.686 497.349 431.301 497.349 429.511H497.236C496.971 429.909 496.656 430.252 496.291 430.541C495.927 430.83 495.522 431.053 495.077 431.209C494.632 431.365 494.158 431.443 493.656 431.443C492.823 431.443 492.058 431.237 491.362 430.825C490.671 430.409 490.117 429.838 489.7 429.114C489.288 428.384 489.082 427.551 489.082 426.614C489.082 425.723 489.281 424.909 489.679 424.17C490.081 423.427 490.645 422.835 491.369 422.395C492.099 421.955 492.956 421.741 493.94 421.756ZM493.94 423.318C493.344 423.318 492.806 423.467 492.328 423.766C491.855 424.059 491.478 424.457 491.199 424.959C490.924 425.456 490.787 426.008 490.787 426.614C490.787 427.22 490.92 427.771 491.185 428.268C491.455 428.761 491.822 429.154 492.286 429.447C492.754 429.736 493.287 429.881 493.884 429.881C494.333 429.881 494.752 429.793 495.141 429.618C495.529 429.438 495.867 429.194 496.156 428.886C496.45 428.574 496.679 428.221 496.845 427.828C497.011 427.43 497.094 427.016 497.094 426.585C497.094 426.017 496.956 425.484 496.682 424.987C496.412 424.49 496.038 424.088 495.56 423.78C495.086 423.472 494.546 423.318 493.94 423.318Z" fill="black"/>
<path d="M318 429C318 442.255 307.255 453 294 453C280.745 453 270 442.255 270 429C270 415.745 280.745 405 294 405C307.255 405 318 415.745 318 429Z" fill="#D9D9D9" stroke="black" stroke-width="2"/>
<path d="M289.96 421.955V436.5H288.199V423.801H288.114L284.563 426.159V424.369L288.199 421.955H289.96ZM294.144 436.5V435.222L298.945 429.966C299.508 429.35 299.972 428.815 300.337 428.361C300.701 427.902 300.971 427.471 301.147 427.068C301.326 426.661 301.416 426.235 301.416 425.79C301.416 425.278 301.293 424.836 301.047 424.462C300.806 424.088 300.474 423.799 300.053 423.595C299.631 423.392 299.158 423.29 298.632 423.29C298.074 423.29 297.586 423.406 297.169 423.638C296.757 423.865 296.438 424.185 296.21 424.597C295.988 425.009 295.877 425.491 295.877 426.045H294.201C294.201 425.193 294.397 424.445 294.79 423.801C295.183 423.157 295.718 422.655 296.395 422.295C297.077 421.936 297.842 421.756 298.689 421.756C299.541 421.756 300.297 421.936 300.955 422.295C301.613 422.655 302.129 423.141 302.503 423.751C302.877 424.362 303.064 425.042 303.064 425.79C303.064 426.325 302.967 426.848 302.773 427.359C302.584 427.866 302.252 428.432 301.779 429.057C301.31 429.677 300.659 430.435 299.826 431.33L296.558 434.824V434.938H303.32V436.5H294.144Z" fill="black"/>
<path d="M218 429C218 442.255 207.255 453 194 453C180.745 453 170 442.255 170 429C170 415.745 180.745 405 194 405C207.255 405 218 415.745 218 429Z" fill="#D9D9D9" stroke="black" stroke-width="2"/>
<path d="M189.765 421.955V436.5H188.004V423.801H187.919L184.367 426.159V424.369L188.004 421.955H189.765ZM198.693 436.699C197.623 436.699 196.711 436.408 195.958 435.825C195.205 435.238 194.63 434.388 194.232 433.276C193.835 432.158 193.636 430.809 193.636 429.227C193.636 427.655 193.835 426.313 194.232 425.2C194.635 424.083 195.213 423.231 195.965 422.643C196.723 422.052 197.632 421.756 198.693 421.756C199.753 421.756 200.66 422.052 201.413 422.643C202.17 423.231 202.748 424.083 203.146 425.2C203.548 426.313 203.75 427.655 203.75 429.227C203.75 430.809 203.551 432.158 203.153 433.276C202.755 434.388 202.18 435.238 201.427 435.825C200.674 436.408 199.763 436.699 198.693 436.699ZM198.693 435.136C199.753 435.136 200.577 434.625 201.164 433.602C201.751 432.58 202.045 431.121 202.045 429.227C202.045 427.968 201.91 426.895 201.64 426.01C201.375 425.125 200.991 424.45 200.49 423.986C199.992 423.522 199.393 423.29 198.693 423.29C197.642 423.29 196.82 423.808 196.228 424.845C195.636 425.877 195.34 427.338 195.34 429.227C195.34 430.487 195.473 431.557 195.738 432.438C196.003 433.318 196.384 433.988 196.882 434.447C197.384 434.907 197.987 435.136 198.693 435.136Z" fill="black"/>
<path d="M118 429C118 442.255 107.255 453 94 453C80.7452 453 70 442.255 70 429C70 415.745 80.7452 405 94 405C107.255 405 118 415.745 118 429Z" fill="#D9D9D9" stroke="black" stroke-width="2"/>
<path d="M90.2916 436.5L96.7973 423.631V423.517H89.2973V421.955H98.6155V423.602L92.1382 436.5H90.2916Z" fill="black"/>
<path d="M93.0077 404.124C93.0762 404.672 93.576 405.061 94.124 404.992L103.055 403.876C103.603 403.807 103.991 403.308 103.923 402.76C103.854 402.212 103.354 401.823 102.806 401.891L94.8682 402.884L93.876 394.945C93.8075 394.397 93.3077 394.009 92.7597 394.077C92.2116 394.146 91.8229 394.646 91.8914 395.194L93.0077 404.124ZM142.211 340.386L93.2106 403.386L94.7894 404.614L143.789 341.614L142.211 340.386Z" fill="black"/>
<path d="M193.886 404.993C194.434 405.057 194.93 404.663 194.993 404.114L196.022 395.173C196.085 394.625 195.692 394.129 195.143 394.066C194.594 394.002 194.098 394.396 194.035 394.945L193.121 402.892L185.173 401.978C184.625 401.915 184.129 402.308 184.066 402.857C184.002 403.406 184.396 403.902 184.945 403.965L193.886 404.993ZM143.217 341.622L193.217 404.622L194.783 403.378L144.783 340.378L143.217 341.622Z" fill="black"/>
<path d="M418 429C418 442.255 407.255 453 394 453C380.745 453 370 442.255 370 429C370 415.745 380.745 405 394 405C407.255 405 418 415.745 418 429Z" fill="#D9D9D9" stroke="black" stroke-width="2"/>
<path d="M390.292 436.5L396.797 423.631V423.517H389.297V421.955H398.615V423.602L392.138 436.5H390.292Z" fill="black"/>
<path d="M393.886 404.993C394.434 405.057 394.93 404.663 394.993 404.114L396.022 395.173C396.085 394.625 395.692 394.129 395.143 394.066C394.594 394.002 394.098 394.396 394.035 394.945L393.121 402.892L385.173 401.978C384.625 401.915 384.129 402.308 384.066 402.857C384.002 403.406 384.396 403.902 384.945 403.965L393.886 404.993ZM343.217 341.622L393.217 404.622L394.783 403.378L344.783 340.378L343.217 341.622Z" fill="black"/>
<path d="M594.886 404.993C595.434 405.057 595.93 404.663 595.993 404.114L597.022 395.173C597.085 394.625 596.692 394.129 596.143 394.066C595.594 394.002 595.098 394.396 595.035 394.945L594.121 402.892L586.173 401.978C585.625 401.915 585.129 402.308 585.066 402.857C585.002 403.406 585.396 403.902 585.945 403.965L594.886 404.993ZM544.217 341.622L594.217 404.622L595.783 403.378L545.783 340.378L544.217 341.622Z" fill="black"/>
<path d="M93.0077 404.124C93.0762 404.672 93.576 405.061 94.124 404.992L103.055 403.876C103.603 403.807 103.991 403.308 103.923 402.76C103.854 402.212 103.354 401.823 102.806 401.891L94.8682 402.884L93.876 394.945C93.8075 394.397 93.3077 394.009 92.7597 394.077C92.2116 394.146 91.8229 394.646 91.8914 395.194L93.0077 404.124ZM142.211 340.386L93.2106 403.386L94.7894 404.614L143.789 341.614L142.211 340.386Z" fill="black"/>
<path d="M142.008 290.873C141.938 291.42 142.325 291.921 142.873 291.992L151.799 293.139C152.347 293.209 152.848 292.822 152.918 292.274C152.989 291.727 152.602 291.226 152.054 291.155L144.119 290.136L145.139 282.201C145.209 281.653 144.822 281.152 144.274 281.082C143.727 281.011 143.226 281.398 143.155 281.946L142.008 290.873ZM243.389 212.209L142.389 290.209L143.611 291.791L244.611 213.791L243.389 212.209Z" fill="black"/>
<path d="M344.123 291.992C344.671 291.925 345.06 291.425 344.992 290.877L343.888 281.945C343.821 281.397 343.321 281.008 342.773 281.076C342.225 281.143 341.836 281.643 341.904 282.191L342.885 290.13L334.945 291.112C334.397 291.179 334.008 291.679 334.076 292.227C334.143 292.775 334.643 293.164 335.191 293.096L344.123 291.992ZM243.385 213.789L343.385 291.788L344.615 290.211L244.615 212.211L243.385 213.789Z" fill="black"/>
<path d="M243.037 162.732C242.889 163.264 243.2 163.816 243.732 163.963L252.403 166.374C252.936 166.522 253.487 166.21 253.635 165.678C253.783 165.146 253.471 164.595 252.939 164.447L245.231 162.304L247.374 154.597C247.522 154.064 247.21 153.513 246.678 153.365C246.146 153.217 245.595 153.529 245.447 154.061L243.037 162.732ZM443.508 49.1294L243.508 162.129L244.492 163.871L444.492 50.8706L443.508 49.1294Z" fill="black"/>
<path d="M644.268 163.963C644.8 163.816 645.111 163.264 644.963 162.732L642.553 154.061C642.405 153.529 641.854 153.217 641.322 153.365C640.79 153.513 640.478 154.064 640.626 154.597L642.769 162.304L635.061 164.447C634.529 164.595 634.217 165.146 634.365 165.678C634.513 166.21 635.064 166.522 635.597 166.374L644.268 163.963ZM443.508 50.8706L643.508 163.871L644.492 162.129L444.492 49.1294L443.508 50.8706Z" fill="black"/>
<path d="M543.008 290.873C542.938 291.42 543.325 291.921 543.873 291.992L552.799 293.139C553.347 293.209 553.848 292.822 553.918 292.274C553.989 291.727 553.602 291.226 553.054 291.155L545.119 290.136L546.139 282.201C546.209 281.653 545.822 281.152 545.274 281.082C544.727 281.011 544.226 281.398 544.155 281.946L543.008 290.873ZM644.389 212.209L543.389 290.209L544.611 291.791L645.611 213.791L644.389 212.209Z" fill="black"/>
<path d="M293.008 404.124C293.076 404.672 293.576 405.061 294.124 404.992L303.055 403.876C303.603 403.807 303.991 403.308 303.923 402.76C303.854 402.212 303.354 401.823 302.806 401.891L294.868 402.884L293.876 394.945C293.807 394.397 293.308 394.009 292.76 394.077C292.212 394.146 291.823 394.646 291.891 395.194L293.008 404.124ZM342.211 340.386L293.211 403.386L294.789 404.614L343.789 341.614L342.211 340.386Z" fill="black"/>
<path d="M768 316C768 329.255 757.255 340 744 340C730.745 340 720 329.255 720 316C720 302.745 730.745 292 744 292C757.255 292 768 302.745 768 316Z" fill="#D9D9D9" stroke="black" stroke-width="2"/>
<path d="M818 429C818 442.255 807.255 453 794 453C780.745 453 770 442.255 770 429C770 415.745 780.745 405 794 405C807.255 405 818 415.745 818 429Z" fill="#D9D9D9" stroke="black" stroke-width="2"/>
<path d="M789.775 421.955V436.5H788.014V423.801H787.928L784.377 426.159V424.369L788.014 421.955H789.775ZM798.589 421.756C799.185 421.76 799.782 421.874 800.379 422.097C800.975 422.319 801.52 422.688 802.012 423.205C802.505 423.716 802.9 424.414 803.198 425.3C803.496 426.185 803.646 427.295 803.646 428.631C803.646 429.923 803.523 431.071 803.276 432.075C803.035 433.074 802.684 433.917 802.225 434.604C801.771 435.29 801.217 435.811 800.563 436.166C799.915 436.521 799.181 436.699 798.362 436.699C797.547 436.699 796.82 436.538 796.181 436.216C795.547 435.889 795.026 435.437 794.619 434.859C794.216 434.277 793.958 433.602 793.844 432.835H795.577C795.734 433.503 796.044 434.054 796.508 434.49C796.977 434.921 797.594 435.136 798.362 435.136C799.484 435.136 800.369 434.646 801.018 433.666C801.671 432.686 801.998 431.301 801.998 429.511H801.884C801.619 429.909 801.304 430.252 800.94 430.541C800.575 430.83 800.17 431.053 799.725 431.209C799.28 431.365 798.807 431.443 798.305 431.443C797.471 431.443 796.707 431.237 796.011 430.825C795.319 430.409 794.765 429.838 794.349 429.114C793.937 428.384 793.731 427.551 793.731 426.614C793.731 425.723 793.93 424.909 794.327 424.17C794.73 423.427 795.293 422.835 796.018 422.395C796.747 421.955 797.604 421.741 798.589 421.756ZM798.589 423.318C797.992 423.318 797.455 423.467 796.977 423.766C796.503 424.059 796.127 424.457 795.847 424.959C795.573 425.456 795.435 426.008 795.435 426.614C795.435 427.22 795.568 427.771 795.833 428.268C796.103 428.761 796.47 429.154 796.934 429.447C797.403 429.736 797.935 429.881 798.532 429.881C798.982 429.881 799.401 429.793 799.789 429.618C800.177 429.438 800.516 429.194 800.805 428.886C801.098 428.574 801.328 428.221 801.494 427.828C801.659 427.43 801.742 427.016 801.742 426.585C801.742 426.017 801.605 425.484 801.33 424.987C801.06 424.49 800.686 424.088 800.208 423.78C799.735 423.472 799.195 423.318 798.589 423.318Z" fill="black"/>
<path d="M718 429C718 442.255 707.255 453 694 453C680.745 453 670 442.255 670 429C670 415.745 680.745 405 694 405C707.255 405 718 415.745 718 429Z" fill="#D9D9D9" stroke="black" stroke-width="2"/>
<path d="M694.098 436.699C693.16 436.699 692.324 436.538 691.59 436.216C690.861 435.894 690.281 435.446 689.85 434.874C689.424 434.296 689.192 433.626 689.154 432.864H690.944C690.982 433.332 691.143 433.737 691.427 434.078C691.711 434.414 692.083 434.675 692.542 434.859C693.001 435.044 693.51 435.136 694.069 435.136C694.694 435.136 695.248 435.027 695.731 434.81C696.214 434.592 696.593 434.289 696.867 433.901C697.142 433.512 697.279 433.062 697.279 432.551C697.279 432.016 697.147 431.545 696.882 431.138C696.616 430.726 696.228 430.404 695.717 430.172C695.205 429.94 694.58 429.824 693.842 429.824H692.677V428.261H693.842C694.419 428.261 694.926 428.157 695.362 427.949C695.802 427.741 696.145 427.447 696.392 427.068C696.642 426.689 696.768 426.244 696.768 425.733C696.768 425.241 696.659 424.812 696.441 424.447C696.223 424.083 695.916 423.799 695.518 423.595C695.125 423.392 694.661 423.29 694.126 423.29C693.624 423.29 693.151 423.382 692.705 423.567C692.265 423.747 691.905 424.009 691.626 424.355C691.347 424.696 691.195 425.108 691.171 425.591H689.467C689.495 424.829 689.725 424.161 690.156 423.588C690.587 423.01 691.15 422.561 691.846 422.239C692.547 421.917 693.316 421.756 694.154 421.756C695.054 421.756 695.826 421.938 696.47 422.303C697.114 422.662 697.608 423.138 697.954 423.73C698.3 424.322 698.473 424.961 698.473 425.648C698.473 426.467 698.257 427.165 697.826 427.743C697.4 428.321 696.82 428.721 696.086 428.943V429.057C697.005 429.208 697.722 429.599 698.238 430.229C698.754 430.854 699.012 431.628 699.012 432.551C699.012 433.342 698.797 434.052 698.366 434.682C697.94 435.307 697.357 435.799 696.619 436.159C695.88 436.519 695.04 436.699 694.098 436.699Z" fill="black"/>
<path d="M793.886 404.993C794.434 405.057 794.93 404.663 794.993 404.114L796.022 395.173C796.085 394.625 795.692 394.129 795.143 394.066C794.594 394.002 794.098 394.396 794.035 394.945L793.121 402.892L785.173 401.978C784.625 401.915 784.129 402.308 784.066 402.857C784.002 403.406 784.396 403.902 784.945 403.965L793.886 404.993ZM743.217 341.622L793.217 404.622L794.783 403.378L744.783 340.378L743.217 341.622Z" fill="black"/>
<path d="M744.123 291.992C744.671 291.925 745.06 291.425 744.992 290.877L743.888 281.945C743.821 281.397 743.321 281.008 742.773 281.076C742.225 281.143 741.836 281.643 741.904 282.191L742.885 290.13L734.945 291.112C734.397 291.179 734.008 291.679 734.076 292.227C734.143 292.775 734.643 293.164 735.191 293.096L744.123 291.992ZM643.385 213.789L743.385 291.788L744.615 290.211L644.615 212.211L643.385 213.789Z" fill="black"/>
<path d="M694.008 404.124C694.076 404.672 694.576 405.061 695.124 404.992L704.055 403.876C704.603 403.807 704.991 403.308 704.923 402.76C704.854 402.212 704.354 401.823 703.806 401.891L695.868 402.884L694.876 394.945C694.807 394.397 694.308 394.009 693.76 394.077C693.212 394.146 692.823 394.646 692.891 395.194L694.008 404.124ZM743.211 340.386L694.211 403.386L695.789 404.614L744.789 341.614L743.211 340.386Z" fill="black"/>
<path d="M493.008 404.124C493.076 404.672 493.576 405.061 494.124 404.992L503.055 403.876C503.603 403.807 503.991 403.308 503.923 402.76C503.854 402.212 503.354 401.823 502.806 401.891L494.868 402.884L493.876 394.945C493.807 394.397 493.308 394.009 492.76 394.077C492.212 394.146 491.823 394.646 491.891 395.194L493.008 404.124ZM542.211 340.386L493.211 403.386L494.789 404.614L543.789 341.614L542.211 340.386Z" fill="black"/>
</svg>
