<svg width="512" height="492" viewBox="0 0 512 492" fill="none" xmlns="http://www.w3.org/2000/svg">
<path d="M49 467C49 480.255 38.2548 491 25 491C11.7452 491 1 480.255 1 467C1 453.745 11.7452 443 25 443C38.2548 443 49 453.745 49 467Z" fill="#D9D9D9" stroke="black" stroke-width="2"/>
<path d="M17.6195 472.659C16.9529 472.659 16.3525 472.527 15.8184 472.261C15.2843 471.996 14.8563 471.633 14.5343 471.17C14.2123 470.708 14.0362 470.182 14.0059 469.591H15.3695C15.4226 470.117 15.6612 470.553 16.0854 470.898C16.5135 471.239 17.0248 471.409 17.6195 471.409C18.0968 471.409 18.521 471.297 18.8923 471.074C19.2673 470.85 19.5608 470.544 19.7729 470.153C19.9889 469.759 20.0968 469.314 20.0968 468.818C20.0968 468.311 19.9851 467.858 19.7616 467.46C19.5419 467.059 19.2389 466.742 18.8525 466.511C18.4661 466.28 18.0248 466.163 17.5286 466.159C17.1726 466.155 16.807 466.21 16.432 466.324C16.057 466.434 15.7483 466.576 15.5059 466.75L14.1877 466.591L14.8923 460.864H20.9377V462.114H16.0741L15.665 465.545H15.7332C15.9718 465.356 16.271 465.199 16.6309 465.074C16.9907 464.949 17.3657 464.886 17.7559 464.886C18.468 464.886 19.1025 465.057 19.6593 465.398C20.2199 465.735 20.6593 466.197 20.9775 466.784C21.2995 467.371 21.4604 468.042 21.4604 468.795C21.4604 469.538 21.2938 470.201 20.9604 470.784C20.6309 471.364 20.1764 471.822 19.5968 472.159C19.0173 472.492 18.3582 472.659 17.6195 472.659ZM28.7403 466.057V467.307H23.6494V466.057H28.7403ZM35.1678 460.864V472.5H33.7587V462.341H33.6906L30.8496 464.227V462.795L33.7587 460.864H35.1678Z" fill="black"/>
<path d="M86 296C86 309.255 75.2548 320 62 320C48.7452 320 38 309.255 38 296C38 282.745 48.7452 272 62 272C75.2548 272 86 282.745 86 296Z" fill="#D9D9D9" stroke="black" stroke-width="2"/>
<path d="M50.3624 301.5L55.567 291.205V291.114H49.567V289.864H57.0215V291.182L51.8397 301.5H50.3624ZM64.1621 295.057V296.307H59.0712V295.057H64.1621ZM70.2431 301.659C69.4931 301.659 68.8246 301.53 68.2374 301.273C67.6541 301.015 67.1901 300.657 66.8454 300.199C66.5045 299.737 66.3189 299.201 66.2886 298.591H67.7204C67.7507 298.966 67.8795 299.29 68.1068 299.562C68.334 299.831 68.6314 300.04 68.9988 300.188C69.3662 300.335 69.7734 300.409 70.2204 300.409C70.7204 300.409 71.1636 300.322 71.5499 300.148C71.9363 299.973 72.2393 299.731 72.459 299.42C72.6787 299.11 72.7886 298.75 72.7886 298.341C72.7886 297.913 72.6825 297.536 72.4704 297.21C72.2583 296.881 71.9477 296.623 71.5386 296.438C71.1295 296.252 70.6295 296.159 70.0386 296.159H69.1068V294.909H70.0386C70.5007 294.909 70.906 294.826 71.2545 294.659C71.6068 294.492 71.8814 294.258 72.0783 293.955C72.2791 293.652 72.3795 293.295 72.3795 292.886C72.3795 292.492 72.2924 292.15 72.1181 291.858C71.9439 291.566 71.6977 291.339 71.3795 291.176C71.0651 291.013 70.6939 290.932 70.2658 290.932C69.8643 290.932 69.4855 291.006 69.1295 291.153C68.7772 291.297 68.4893 291.508 68.2658 291.784C68.0424 292.057 67.9211 292.386 67.9022 292.773H66.5386C66.5613 292.163 66.745 291.629 67.0897 291.17C67.4344 290.708 67.8852 290.348 68.442 290.091C69.0026 289.833 69.6181 289.705 70.2886 289.705C71.0083 289.705 71.6257 289.85 72.1408 290.142C72.656 290.43 73.0518 290.811 73.3283 291.284C73.6049 291.758 73.7431 292.269 73.7431 292.818C73.7431 293.473 73.5708 294.032 73.2261 294.494C72.8852 294.956 72.4211 295.277 71.834 295.455V295.545C72.5689 295.667 73.1427 295.979 73.5556 296.483C73.9685 296.983 74.1749 297.602 74.1749 298.341C74.1749 298.973 74.0026 299.542 73.6579 300.045C73.317 300.545 72.8511 300.939 72.2602 301.227C71.6693 301.515 70.9969 301.659 70.2431 301.659Z" fill="black"/>
<path d="M298 467C298 480.255 287.255 491 274 491C260.745 491 250 480.255 250 467C250 453.745 260.745 443 274 443C287.255 443 298 453.745 298 467Z" fill="#D9D9D9" stroke="black" stroke-width="2"/>
<path d="M262.445 470.114V468.955L267.559 460.864H268.399V462.659H267.831L263.968 468.773V468.864H270.854V470.114H262.445ZM267.922 472.5V469.761V469.222V460.864H269.263V472.5H267.922ZM278.006 466.057V467.307H272.915V466.057H278.006ZM284.434 460.864V472.5H283.024V462.341H282.956L280.115 464.227V462.795L283.024 460.864H284.434Z" fill="black"/>
<path d="M224 467C224 480.255 213.255 491 200 491C186.745 491 176 480.255 176 467C176 453.745 186.745 443 200 443C213.255 443 224 453.745 224 467Z" fill="#D9D9D9" stroke="black" stroke-width="2"/>
<path d="M187.725 472.5V471.477L191.566 467.273C192.017 466.78 192.388 466.352 192.68 465.989C192.972 465.621 193.188 465.277 193.328 464.955C193.472 464.629 193.544 464.288 193.544 463.932C193.544 463.523 193.445 463.169 193.248 462.869C193.055 462.57 192.79 462.339 192.453 462.176C192.116 462.013 191.737 461.932 191.316 461.932C190.869 461.932 190.479 462.025 190.146 462.21C189.816 462.392 189.561 462.648 189.379 462.977C189.201 463.307 189.112 463.693 189.112 464.136H187.771C187.771 463.455 187.928 462.856 188.242 462.341C188.557 461.826 188.985 461.424 189.527 461.136C190.072 460.848 190.684 460.705 191.362 460.705C192.044 460.705 192.648 460.848 193.174 461.136C193.701 461.424 194.114 461.812 194.413 462.301C194.712 462.79 194.862 463.333 194.862 463.932C194.862 464.36 194.784 464.778 194.629 465.188C194.477 465.593 194.212 466.045 193.833 466.545C193.458 467.042 192.938 467.648 192.271 468.364L189.657 471.159V471.25H195.066V472.5H187.725ZM202.436 466.057V467.307H197.345V466.057H202.436ZM208.568 472.659C207.712 472.659 206.983 472.426 206.38 471.96C205.778 471.491 205.318 470.811 205 469.92C204.681 469.027 204.522 467.947 204.522 466.682C204.522 465.424 204.681 464.35 205 463.46C205.322 462.566 205.784 461.884 206.386 461.415C206.992 460.941 207.719 460.705 208.568 460.705C209.416 460.705 210.142 460.941 210.744 461.415C211.35 461.884 211.812 462.566 212.13 463.46C212.452 464.35 212.613 465.424 212.613 466.682C212.613 467.947 212.454 469.027 212.136 469.92C211.818 470.811 211.358 471.491 210.755 471.96C210.153 472.426 209.424 472.659 208.568 472.659ZM208.568 471.409C209.416 471.409 210.075 471 210.545 470.182C211.015 469.364 211.25 468.197 211.25 466.682C211.25 465.674 211.142 464.816 210.926 464.108C210.714 463.4 210.407 462.86 210.005 462.489C209.608 462.117 209.128 461.932 208.568 461.932C207.727 461.932 207.07 462.347 206.596 463.176C206.123 464.002 205.886 465.17 205.886 466.682C205.886 467.689 205.992 468.545 206.204 469.25C206.416 469.955 206.721 470.491 207.119 470.858C207.52 471.225 208.003 471.409 208.568 471.409Z" fill="black"/>
<path d="M123 466C123 479.255 112.255 490 99 490C85.7452 490 75 479.255 75 466C75 452.745 85.7452 442 99 442C112.255 442 123 452.745 123 466Z" fill="#D9D9D9" stroke="black" stroke-width="2"/>
<path d="M87.1551 471.5V470.477L90.996 466.273C91.4468 465.78 91.818 465.352 92.1097 464.989C92.4013 464.621 92.6172 464.277 92.7574 463.955C92.9013 463.629 92.9733 463.288 92.9733 462.932C92.9733 462.523 92.8748 462.169 92.6778 461.869C92.4847 461.57 92.2195 461.339 91.8824 461.176C91.5453 461.013 91.1665 460.932 90.746 460.932C90.299 460.932 89.9089 461.025 89.5756 461.21C89.246 461.392 88.9903 461.648 88.8085 461.977C88.6305 462.307 88.5415 462.693 88.5415 463.136H87.2006C87.2006 462.455 87.3578 461.856 87.6722 461.341C87.9865 460.826 88.4146 460.424 88.9562 460.136C89.5017 459.848 90.1134 459.705 90.7915 459.705C91.4733 459.705 92.0775 459.848 92.604 460.136C93.1305 460.424 93.5434 460.812 93.8426 461.301C94.1418 461.79 94.2915 462.333 94.2915 462.932C94.2915 463.36 94.2138 463.778 94.0585 464.188C93.907 464.593 93.6418 465.045 93.2631 465.545C92.8881 466.042 92.3672 466.648 91.7006 467.364L89.0869 470.159V470.25H94.496V471.5H87.1551ZM101.865 465.057V466.307H96.7744V465.057H101.865ZM103.655 471.5V470.477L107.496 466.273C107.947 465.78 108.318 465.352 108.61 464.989C108.901 464.621 109.117 464.277 109.257 463.955C109.401 463.629 109.473 463.288 109.473 462.932C109.473 462.523 109.375 462.169 109.178 461.869C108.985 461.57 108.72 461.339 108.382 461.176C108.045 461.013 107.666 460.932 107.246 460.932C106.799 460.932 106.409 461.025 106.076 461.21C105.746 461.392 105.49 461.648 105.309 461.977C105.13 462.307 105.041 462.693 105.041 463.136H103.701C103.701 462.455 103.858 461.856 104.172 461.341C104.487 460.826 104.915 460.424 105.456 460.136C106.002 459.848 106.613 459.705 107.291 459.705C107.973 459.705 108.577 459.848 109.104 460.136C109.63 460.424 110.043 460.812 110.343 461.301C110.642 461.79 110.791 462.333 110.791 462.932C110.791 463.36 110.714 463.778 110.559 464.188C110.407 464.593 110.142 465.045 109.763 465.545C109.388 466.042 108.867 466.648 108.201 467.364L105.587 470.159V470.25H110.996V471.5H103.655Z" fill="black"/>
<path d="M372 467C372 480.255 361.255 491 348 491C334.745 491 324 480.255 324 467C324 453.745 334.745 443 348 443C361.255 443 372 453.745 372 467Z" fill="#D9D9D9" stroke="black" stroke-width="2"/>
<path d="M339.407 472.659C338.657 472.659 337.989 472.53 337.402 472.273C336.818 472.015 336.354 471.657 336.01 471.199C335.669 470.737 335.483 470.201 335.453 469.591H336.885C336.915 469.966 337.044 470.29 337.271 470.562C337.498 470.831 337.795 471.04 338.163 471.188C338.53 471.335 338.938 471.409 339.385 471.409C339.885 471.409 340.328 471.322 340.714 471.148C341.1 470.973 341.403 470.731 341.623 470.42C341.843 470.11 341.953 469.75 341.953 469.341C341.953 468.913 341.847 468.536 341.635 468.21C341.422 467.881 341.112 467.623 340.703 467.438C340.294 467.252 339.794 467.159 339.203 467.159H338.271V465.909H339.203C339.665 465.909 340.07 465.826 340.419 465.659C340.771 465.492 341.045 465.258 341.242 464.955C341.443 464.652 341.544 464.295 341.544 463.886C341.544 463.492 341.456 463.15 341.282 462.858C341.108 462.566 340.862 462.339 340.544 462.176C340.229 462.013 339.858 461.932 339.43 461.932C339.028 461.932 338.65 462.006 338.294 462.153C337.941 462.297 337.653 462.508 337.43 462.784C337.206 463.057 337.085 463.386 337.066 463.773H335.703C335.725 463.163 335.909 462.629 336.254 462.17C336.599 461.708 337.049 461.348 337.606 461.091C338.167 460.833 338.782 460.705 339.453 460.705C340.172 460.705 340.79 460.85 341.305 461.142C341.82 461.43 342.216 461.811 342.492 462.284C342.769 462.758 342.907 463.269 342.907 463.818C342.907 464.473 342.735 465.032 342.39 465.494C342.049 465.956 341.585 466.277 340.998 466.455V466.545C341.733 466.667 342.307 466.979 342.72 467.483C343.133 467.983 343.339 468.602 343.339 469.341C343.339 469.973 343.167 470.542 342.822 471.045C342.481 471.545 342.015 471.939 341.424 472.227C340.833 472.515 340.161 472.659 339.407 472.659ZM350.686 466.057V467.307H345.595V466.057H350.686ZM356.767 472.659C356.017 472.659 355.348 472.53 354.761 472.273C354.178 472.015 353.714 471.657 353.369 471.199C353.028 470.737 352.842 470.201 352.812 469.591H354.244C354.274 469.966 354.403 470.29 354.63 470.562C354.858 470.831 355.155 471.04 355.522 471.188C355.89 471.335 356.297 471.409 356.744 471.409C357.244 471.409 357.687 471.322 358.073 471.148C358.46 470.973 358.763 470.731 358.983 470.42C359.202 470.11 359.312 469.75 359.312 469.341C359.312 468.913 359.206 468.536 358.994 468.21C358.782 467.881 358.471 467.623 358.062 467.438C357.653 467.252 357.153 467.159 356.562 467.159H355.63V465.909H356.562C357.024 465.909 357.429 465.826 357.778 465.659C358.13 465.492 358.405 465.258 358.602 464.955C358.803 464.652 358.903 464.295 358.903 463.886C358.903 463.492 358.816 463.15 358.642 462.858C358.467 462.566 358.221 462.339 357.903 462.176C357.589 462.013 357.217 461.932 356.789 461.932C356.388 461.932 356.009 462.006 355.653 462.153C355.301 462.297 355.013 462.508 354.789 462.784C354.566 463.057 354.445 463.386 354.426 463.773H353.062C353.085 463.163 353.269 462.629 353.613 462.17C353.958 461.708 354.409 461.348 354.965 461.091C355.526 460.833 356.142 460.705 356.812 460.705C357.532 460.705 358.149 460.85 358.664 461.142C359.179 461.43 359.575 461.811 359.852 462.284C360.128 462.758 360.267 463.269 360.267 463.818C360.267 464.473 360.094 465.032 359.75 465.494C359.409 465.956 358.945 466.277 358.358 466.455V466.545C359.092 466.667 359.666 466.979 360.079 467.483C360.492 467.983 360.698 468.602 360.698 469.341C360.698 469.973 360.526 470.542 360.181 471.045C359.84 471.545 359.375 471.939 358.784 472.227C358.193 472.515 357.52 472.659 356.767 472.659Z" fill="black"/>
<path d="M511 295C511 308.255 500.255 319 487 319C473.745 319 463 308.255 463 295C463 281.745 473.745 271 487 271C500.255 271 511 281.745 511 295Z" fill="#D9D9D9" stroke="black" stroke-width="2"/>
<path d="M479.941 288.864V300.5H478.532V290.341H478.464L475.623 292.227V290.795L478.532 288.864H479.941ZM488.311 294.057V295.307H483.22V294.057H488.311ZM494.443 300.659C493.587 300.659 492.858 300.426 492.255 299.96C491.653 299.491 491.193 298.811 490.875 297.92C490.556 297.027 490.397 295.947 490.397 294.682C490.397 293.424 490.556 292.35 490.875 291.46C491.197 290.566 491.659 289.884 492.261 289.415C492.867 288.941 493.594 288.705 494.443 288.705C495.291 288.705 496.017 288.941 496.619 289.415C497.225 289.884 497.687 290.566 498.005 291.46C498.327 292.35 498.488 293.424 498.488 294.682C498.488 295.947 498.329 297.027 498.011 297.92C497.693 298.811 497.233 299.491 496.63 299.96C496.028 300.426 495.299 300.659 494.443 300.659ZM494.443 299.409C495.291 299.409 495.95 299 496.42 298.182C496.89 297.364 497.125 296.197 497.125 294.682C497.125 293.674 497.017 292.816 496.801 292.108C496.589 291.4 496.282 290.86 495.88 290.489C495.483 290.117 495.003 289.932 494.443 289.932C493.602 289.932 492.945 290.347 492.471 291.176C491.998 292.002 491.761 293.17 491.761 294.682C491.761 295.689 491.867 296.545 492.079 297.25C492.291 297.955 492.596 298.491 492.994 298.858C493.395 299.225 493.878 299.409 494.443 299.409Z" fill="black"/>
<path d="M298 124C298 137.255 287.255 148 274 148C260.745 148 250 137.255 250 124C250 110.745 260.745 100 274 100C287.255 100 298 110.745 298 124Z" fill="#D9D9D9" stroke="black" stroke-width="2"/>
<path d="M262.98 117.864V129.5H261.571V119.341H261.503L258.662 121.227V119.795L261.571 117.864H262.98ZM266.691 129.5L271.895 119.205V119.114H265.895V117.864H273.35V119.182L268.168 129.5H266.691ZM280.49 123.057V124.307H275.399V123.057H280.49ZM282.831 129.5L288.036 119.205V119.114H282.036V117.864H289.49V119.182L284.309 129.5H282.831Z" fill="black"/>
<path d="M298 296C298 309.255 287.255 320 274 320C260.745 320 250 309.255 250 296C250 282.745 260.745 272 274 272C287.255 272 298 282.745 298 296Z" fill="#D9D9D9" stroke="black" stroke-width="2"/>
<path d="M265.149 289.705C265.626 289.708 266.103 289.799 266.581 289.977C267.058 290.155 267.493 290.451 267.887 290.864C268.281 291.273 268.598 291.831 268.836 292.54C269.075 293.248 269.194 294.136 269.194 295.205C269.194 296.239 269.096 297.157 268.899 297.96C268.706 298.759 268.425 299.434 268.058 299.983C267.694 300.532 267.251 300.949 266.728 301.233C266.209 301.517 265.622 301.659 264.967 301.659C264.315 301.659 263.734 301.53 263.223 301.273C262.715 301.011 262.298 300.65 261.973 300.188C261.651 299.722 261.444 299.182 261.353 298.568H262.74C262.865 299.102 263.113 299.544 263.484 299.892C263.859 300.237 264.353 300.409 264.967 300.409C265.865 300.409 266.573 300.017 267.092 299.233C267.615 298.449 267.876 297.341 267.876 295.909H267.785C267.573 296.227 267.321 296.502 267.029 296.733C266.738 296.964 266.414 297.142 266.058 297.267C265.702 297.392 265.323 297.455 264.921 297.455C264.255 297.455 263.643 297.29 263.086 296.96C262.533 296.627 262.09 296.17 261.757 295.591C261.427 295.008 261.262 294.341 261.262 293.591C261.262 292.879 261.421 292.227 261.74 291.636C262.062 291.042 262.512 290.568 263.092 290.216C263.675 289.864 264.361 289.693 265.149 289.705ZM265.149 290.955C264.671 290.955 264.242 291.074 263.859 291.312C263.48 291.547 263.179 291.866 262.956 292.267C262.736 292.665 262.626 293.106 262.626 293.591C262.626 294.076 262.732 294.517 262.944 294.915C263.16 295.309 263.454 295.623 263.825 295.858C264.2 296.089 264.626 296.205 265.103 296.205C265.463 296.205 265.798 296.134 266.109 295.994C266.42 295.85 266.69 295.655 266.921 295.409C267.156 295.159 267.34 294.877 267.473 294.562C267.605 294.244 267.671 293.913 267.671 293.568C267.671 293.114 267.562 292.687 267.342 292.29C267.126 291.892 266.827 291.57 266.444 291.324C266.065 291.078 265.634 290.955 265.149 290.955ZM276.451 295.057V296.307H271.36V295.057H276.451ZM278.515 299.114V297.955L283.629 289.864H284.47V291.659H283.902L280.038 297.773V297.864H286.924V299.114H278.515ZM283.992 301.5V298.761V298.222V289.864H285.333V301.5H283.992Z" fill="black"/>
<path d="M24.117 442.469C24.3763 442.957 24.9818 443.142 25.4694 442.883L33.4162 438.658C33.9038 438.399 34.089 437.793 33.8297 437.306C33.5705 436.818 32.965 436.633 32.4773 436.892L25.4135 440.648L21.6581 433.584C21.3989 433.096 20.7934 432.911 20.3057 433.17C19.8181 433.43 19.6329 434.035 19.8922 434.523L24.117 442.469ZM61.0437 320.708L24.0437 441.708L25.9563 442.292L62.9563 321.292L61.0437 320.708Z" fill="black"/>
<path d="M98.5306 442.883C99.0182 443.142 99.6237 442.957 99.883 442.469L104.108 434.523C104.367 434.035 104.182 433.43 103.694 433.17C103.207 432.911 102.601 433.096 102.342 433.584L98.5865 440.648L91.5227 436.892C91.035 436.633 90.4295 436.818 90.1703 437.306C89.911 437.793 90.0962 438.399 90.5838 438.658L98.5306 442.883ZM61.0437 321.292L98.0437 442.292L99.9563 441.708L62.9563 320.708L61.0437 321.292Z" fill="black"/>
<path d="M199.454 441.495C199.584 442.032 200.124 442.362 200.661 442.233L209.41 440.124C209.947 439.995 210.278 439.455 210.148 438.918C210.019 438.381 209.479 438.05 208.942 438.18L201.164 440.054L199.29 432.277C199.16 431.74 198.62 431.41 198.083 431.539C197.546 431.669 197.216 432.209 197.346 432.746L199.454 441.495ZM273.573 319.739L199.573 440.739L201.28 441.783L275.28 320.783L273.573 319.739Z" fill="black"/>
<path d="M273.793 441.707C274.183 442.098 274.817 442.098 275.207 441.707L281.571 435.343C281.962 434.953 281.962 434.319 281.571 433.929C281.181 433.538 280.547 433.538 280.157 433.929L274.5 439.586L268.843 433.929C268.453 433.538 267.819 433.538 267.429 433.929C267.038 434.319 267.038 434.953 267.429 435.343L273.793 441.707ZM273.5 320V441H275.5V320H273.5Z" fill="black"/>
<path d="M348.192 441.711C348.729 441.841 349.269 441.51 349.399 440.973L351.508 432.224C351.637 431.687 351.307 431.147 350.77 431.018C350.233 430.888 349.693 431.218 349.563 431.755L347.689 439.533L339.911 437.658C339.374 437.529 338.834 437.859 338.705 438.396C338.576 438.933 338.906 439.473 339.443 439.602L348.192 441.711ZM273.573 320.261L347.573 441.261L349.28 440.217L275.28 319.217L273.573 320.261Z" fill="black"/>
<path d="M61.0344 270.74C60.8908 271.273 61.2066 271.822 61.7398 271.966L70.4299 274.307C70.9631 274.451 71.5119 274.135 71.6556 273.602C71.7993 273.069 71.4835 272.52 70.9502 272.376L63.2258 270.295L65.3072 262.57C65.4509 262.037 65.1351 261.488 64.6018 261.344C64.0686 261.201 63.5198 261.517 63.3761 262.05L61.0344 270.74ZM273.501 148.133L61.5012 270.133L62.4988 271.867L274.499 149.867L273.501 148.133Z" fill="black"/>
<path d="M273.293 270.707C273.683 271.098 274.317 271.098 274.707 270.707L281.071 264.343C281.462 263.953 281.462 263.319 281.071 262.929C280.681 262.538 280.047 262.538 279.657 262.929L274 268.586L268.343 262.929C267.953 262.538 267.319 262.538 266.929 262.929C266.538 263.319 266.538 263.953 266.929 264.343L273.293 270.707ZM273 149L273 270H275L275 149H273Z" fill="black"/>
<path d="M487.262 271.965C487.795 271.82 488.11 271.271 487.965 270.738L485.606 262.053C485.461 261.52 484.912 261.205 484.379 261.35C483.846 261.494 483.531 262.044 483.676 262.577L485.773 270.297L478.053 272.394C477.52 272.539 477.205 273.088 477.35 273.621C477.494 274.154 478.044 274.469 478.577 274.324L487.262 271.965ZM273.503 149.868L486.503 271.868L487.497 270.132L274.497 148.132L273.503 149.868Z" fill="black"/>
<path d="M231.396 20.3636C231.29 19.464 230.858 18.7656 230.1 18.2685C229.343 17.7713 228.413 17.5227 227.313 17.5227C226.508 17.5227 225.803 17.6529 225.2 17.9134C224.602 18.1738 224.134 18.5318 223.797 18.9876C223.465 19.4433 223.3 19.9612 223.3 20.5412C223.3 21.0265 223.415 21.4438 223.646 21.793C223.883 22.1362 224.185 22.4233 224.552 22.6541C224.918 22.879 225.303 23.0655 225.706 23.2134C226.108 23.3555 226.478 23.4709 226.815 23.5597L228.662 24.0568C229.135 24.1811 229.662 24.3527 230.242 24.5717C230.828 24.7907 231.387 25.0896 231.92 25.4684C232.459 25.8413 232.903 26.3207 233.252 26.9066C233.601 27.4925 233.776 28.2116 233.776 29.0639C233.776 30.0464 233.518 30.9342 233.003 31.7273C232.494 32.5204 231.749 33.1507 230.766 33.6183C229.789 34.0858 228.603 34.3196 227.206 34.3196C225.904 34.3196 224.776 34.1095 223.824 33.6893C222.877 33.2691 222.131 32.6831 221.586 31.9315C221.048 31.1798 220.743 30.3068 220.672 29.3125H222.945C223.004 29.9991 223.235 30.5672 223.637 31.017C224.045 31.4609 224.56 31.7924 225.182 32.0114C225.809 32.2244 226.484 32.331 227.206 32.331C228.046 32.331 228.801 32.1948 229.47 31.9226C230.139 31.6444 230.668 31.2597 231.059 30.7685C231.45 30.2713 231.645 29.6913 231.645 29.0284C231.645 28.4247 231.476 27.9335 231.139 27.5547C230.802 27.1759 230.358 26.8681 229.807 26.6314C229.257 26.3946 228.662 26.1875 228.023 26.0099L225.786 25.3707C224.365 24.9624 223.241 24.3794 222.412 23.6218C221.583 22.8642 221.169 21.8729 221.169 20.6477C221.169 19.6297 221.444 18.742 221.995 17.9844C222.551 17.2209 223.297 16.629 224.232 16.2088C225.173 15.7827 226.224 15.5696 227.384 15.5696C228.555 15.5696 229.597 15.7797 230.509 16.1999C231.42 16.6142 232.142 17.1824 232.675 17.9045C233.213 18.6265 233.497 19.4463 233.527 20.3636H231.396ZM242.829 34.2841C241.515 34.2841 240.381 33.9941 239.429 33.4141C238.482 32.8281 237.751 32.0114 237.236 30.9638C236.727 29.9103 236.472 28.6851 236.472 27.2884C236.472 25.8916 236.727 24.6605 237.236 23.5952C237.751 22.5239 238.467 21.6894 239.384 21.0916C240.307 20.4879 241.385 20.1861 242.616 20.1861C243.326 20.1861 244.027 20.3045 244.72 20.5412C245.412 20.7779 246.043 21.1626 246.611 21.6953C247.179 22.2221 247.632 22.9205 247.969 23.7905C248.306 24.6605 248.475 25.7318 248.475 27.0043V27.892H237.964V26.081H246.344C246.344 25.3116 246.191 24.625 245.883 24.0213C245.581 23.4176 245.149 22.9412 244.587 22.592C244.03 22.2428 243.373 22.0682 242.616 22.0682C241.781 22.0682 241.059 22.2753 240.45 22.6896C239.846 23.098 239.381 23.6307 239.056 24.2876C238.73 24.9446 238.567 25.6489 238.567 26.4006V27.608C238.567 28.6378 238.745 29.5108 239.1 30.2269C239.461 30.9371 239.961 31.4787 240.6 31.8516C241.24 32.2185 241.982 32.402 242.829 32.402C243.379 32.402 243.876 32.325 244.32 32.1712C244.77 32.0114 245.158 31.7746 245.483 31.4609C245.809 31.1413 246.06 30.7448 246.238 30.2713L248.262 30.8395C248.049 31.526 247.691 32.1297 247.188 32.6506C246.685 33.1655 246.063 33.5679 245.323 33.858C244.584 34.142 243.752 34.2841 242.829 34.2841ZM241.55 18.517L243.717 14.3977H246.167L243.397 18.517H241.55ZM253.757 15.8182V34H251.662V15.8182H253.757ZM263.312 34.2841C261.998 34.2841 260.865 33.9941 259.912 33.4141C258.965 32.8281 258.234 32.0114 257.719 30.9638C257.21 29.9103 256.956 28.6851 256.956 27.2884C256.956 25.8916 257.21 24.6605 257.719 23.5952C258.234 22.5239 258.95 21.6894 259.868 21.0916C260.791 20.4879 261.868 20.1861 263.099 20.1861C263.809 20.1861 264.511 20.3045 265.203 20.5412C265.896 20.7779 266.526 21.1626 267.094 21.6953C267.662 22.2221 268.115 22.9205 268.452 23.7905C268.79 24.6605 268.958 25.7318 268.958 27.0043V27.892H258.447V26.081H266.828C266.828 25.3116 266.674 24.625 266.366 24.0213C266.064 23.4176 265.632 22.9412 265.07 22.592C264.514 22.2428 263.857 22.0682 263.099 22.0682C262.265 22.0682 261.543 22.2753 260.933 22.6896C260.329 23.098 259.865 23.6307 259.539 24.2876C259.214 24.9446 259.051 25.6489 259.051 26.4006V27.608C259.051 28.6378 259.228 29.5108 259.583 30.2269C259.945 30.9371 260.445 31.4787 261.084 31.8516C261.723 32.2185 262.466 32.402 263.312 32.402C263.863 32.402 264.36 32.325 264.804 32.1712C265.253 32.0114 265.641 31.7746 265.967 31.4609C266.292 31.1413 266.544 30.7448 266.721 30.2713L268.745 30.8395C268.532 31.526 268.174 32.1297 267.671 32.6506C267.168 33.1655 266.547 33.5679 265.807 33.858C265.067 34.142 264.235 34.2841 263.312 34.2841ZM277.685 34.2841C276.407 34.2841 275.306 33.9822 274.383 33.3786C273.46 32.7749 272.749 31.9433 272.252 30.8839C271.755 29.8245 271.506 28.6141 271.506 27.2528C271.506 25.8679 271.761 24.6457 272.27 23.5863C272.785 22.521 273.501 21.6894 274.418 21.0916C275.342 20.4879 276.419 20.1861 277.65 20.1861C278.609 20.1861 279.473 20.3636 280.242 20.7188C281.012 21.0739 281.642 21.571 282.133 22.2102C282.624 22.8494 282.929 23.5952 283.048 24.4474H280.952C280.793 23.826 280.438 23.2756 279.887 22.7962C279.343 22.3108 278.609 22.0682 277.685 22.0682C276.869 22.0682 276.153 22.2812 275.537 22.7074C274.927 23.1276 274.451 23.7224 274.108 24.4918C273.77 25.2553 273.602 26.152 273.602 27.1818C273.602 28.2353 273.767 29.1527 274.099 29.9339C274.436 30.7152 274.91 31.3219 275.519 31.7539C276.135 32.186 276.857 32.402 277.685 32.402C278.23 32.402 278.724 32.3073 279.168 32.1179C279.612 31.9285 279.988 31.6562 280.295 31.3011C280.603 30.946 280.822 30.5199 280.952 30.0227H283.048C282.929 30.8277 282.636 31.5527 282.169 32.1978C281.707 32.837 281.095 33.346 280.331 33.7248C279.573 34.0977 278.692 34.2841 277.685 34.2841ZM292.041 20.3636V22.1392H284.974V20.3636H292.041ZM287.034 17.0966H289.129V30.0938C289.129 30.6856 289.215 31.1295 289.386 31.4254C289.564 31.7154 289.789 31.9107 290.061 32.0114C290.339 32.1061 290.632 32.1534 290.94 32.1534C291.171 32.1534 291.36 32.1416 291.508 32.1179C291.656 32.0883 291.775 32.0646 291.863 32.0469L292.289 33.929C292.147 33.9822 291.949 34.0355 291.695 34.0888C291.44 34.148 291.118 34.1776 290.727 34.1776C290.135 34.1776 289.555 34.0503 288.987 33.7958C288.425 33.5413 287.957 33.1536 287.584 32.6328C287.217 32.112 287.034 31.455 287.034 30.6619V17.0966ZM295.193 34V20.3636H297.288V34H295.193ZM296.258 18.0909C295.849 18.0909 295.497 17.9518 295.201 17.6737C294.911 17.3955 294.766 17.0611 294.766 16.6705C294.766 16.2798 294.911 15.9454 295.201 15.6673C295.497 15.3891 295.849 15.25 296.258 15.25C296.666 15.25 297.015 15.3891 297.305 15.6673C297.601 15.9454 297.749 16.2798 297.749 16.6705C297.749 17.0611 297.601 17.3955 297.305 17.6737C297.015 17.9518 296.666 18.0909 296.258 18.0909ZM306.665 34.2841C305.434 34.2841 304.354 33.9911 303.424 33.4052C302.501 32.8192 301.779 31.9995 301.258 30.946C300.743 29.8925 300.486 28.6615 300.486 27.2528C300.486 25.8324 300.743 24.5924 301.258 23.533C301.779 22.4736 302.501 21.6509 303.424 21.065C304.354 20.479 305.434 20.1861 306.665 20.1861C307.896 20.1861 308.973 20.479 309.896 21.065C310.826 21.6509 311.548 22.4736 312.063 23.533C312.583 24.5924 312.844 25.8324 312.844 27.2528C312.844 28.6615 312.583 29.8925 312.063 30.946C311.548 31.9995 310.826 32.8192 309.896 33.4052C308.973 33.9911 307.896 34.2841 306.665 34.2841ZM306.665 32.402C307.6 32.402 308.369 32.1623 308.973 31.6829C309.577 31.2035 310.024 30.5732 310.314 29.7919C310.604 29.0107 310.749 28.1643 310.749 27.2528C310.749 26.3414 310.604 25.4921 310.314 24.7049C310.024 23.9177 309.577 23.2815 308.973 22.7962C308.369 22.3108 307.6 22.0682 306.665 22.0682C305.73 22.0682 304.96 22.3108 304.357 22.7962C303.753 23.2815 303.306 23.9177 303.016 24.7049C302.726 25.4921 302.581 26.3414 302.581 27.2528C302.581 28.1643 302.726 29.0107 303.016 29.7919C303.306 30.5732 303.753 31.2035 304.357 31.6829C304.96 32.1623 305.73 32.402 306.665 32.402ZM318.137 25.7969V34H316.042V20.3636H318.066V22.4943H318.244C318.563 21.8018 319.049 21.2455 319.7 20.8253C320.351 20.3991 321.191 20.1861 322.221 20.1861C323.144 20.1861 323.952 20.3755 324.645 20.7543C325.337 21.1271 325.876 21.6953 326.261 22.4588C326.645 23.2164 326.838 24.1752 326.838 25.3352V34H324.742V25.4773C324.742 24.406 324.464 23.5715 323.908 22.9737C323.352 22.37 322.588 22.0682 321.617 22.0682C320.949 22.0682 320.351 22.2132 319.824 22.5032C319.303 22.7932 318.892 23.2164 318.59 23.7727C318.288 24.3291 318.137 25.0038 318.137 25.7969Z" fill="black"/>
</svg>
