<svg width="999" height="454" viewBox="0 0 999 454" fill="none" xmlns="http://www.w3.org/2000/svg">
<path d="M901.787 306.818H904.415L910.594 321.911H910.807L916.986 306.818H919.614V325H917.554V311.186H917.377L911.695 325H909.706L904.024 311.186H903.847V325H901.787V306.818ZM927.757 325.32C926.893 325.32 926.109 325.157 925.404 324.831C924.7 324.5 924.141 324.023 923.727 323.402C923.312 322.775 923.105 322.017 923.105 321.129C923.105 320.348 923.259 319.715 923.567 319.229C923.874 318.738 924.286 318.353 924.801 318.075C925.316 317.797 925.884 317.59 926.505 317.454C927.133 317.312 927.763 317.199 928.396 317.116C929.225 317.01 929.897 316.93 930.412 316.877C930.932 316.818 931.311 316.72 931.548 316.584C931.791 316.448 931.912 316.211 931.912 315.874V315.803C931.912 314.927 931.672 314.246 931.193 313.761C930.719 313.275 930 313.033 929.035 313.033C928.035 313.033 927.251 313.252 926.683 313.69C926.115 314.128 925.715 314.595 925.484 315.092L923.496 314.382C923.851 313.554 924.324 312.908 924.916 312.447C925.514 311.979 926.165 311.654 926.869 311.47C927.58 311.281 928.278 311.186 928.964 311.186C929.402 311.186 929.905 311.239 930.474 311.346C931.048 311.446 931.601 311.657 932.134 311.976C932.672 312.296 933.119 312.778 933.474 313.423C933.83 314.068 934.007 314.933 934.007 316.016V325H931.912V323.153H931.805C931.663 323.449 931.427 323.766 931.095 324.103C930.764 324.441 930.323 324.728 929.772 324.964C929.222 325.201 928.55 325.32 927.757 325.32ZM928.077 323.438C928.905 323.438 929.604 323.275 930.172 322.949C930.746 322.624 931.178 322.203 931.468 321.689C931.764 321.174 931.912 320.632 931.912 320.064V318.146C931.823 318.253 931.628 318.35 931.326 318.439C931.03 318.522 930.687 318.596 930.296 318.661C929.911 318.72 929.536 318.774 929.169 318.821C928.808 318.862 928.515 318.898 928.29 318.928C927.745 318.999 927.236 319.114 926.763 319.274C926.295 319.428 925.916 319.661 925.626 319.975C925.342 320.283 925.2 320.703 925.2 321.236C925.2 321.964 925.47 322.514 926.008 322.887C926.553 323.254 927.242 323.438 928.077 323.438ZM939.394 311.364L942.661 316.939L945.928 311.364H948.343L943.939 318.182L948.343 325H945.928L942.661 319.709L939.394 325H936.979L941.311 318.182L936.979 311.364H939.394Z" fill="black"/>
<path d="M901.787 15.8182H904.415L910.594 30.9105H910.807L916.986 15.8182H919.614V34H917.554V20.1861H917.377L911.695 34H909.706L904.024 20.1861H903.847V34H901.787V15.8182ZM927.757 34.3196C926.893 34.3196 926.109 34.1568 925.404 33.8313C924.7 33.4999 924.141 33.0234 923.727 32.402C923.312 31.7746 923.105 31.017 923.105 30.1293C923.105 29.348 923.259 28.7147 923.567 28.2294C923.874 27.7382 924.286 27.3535 924.801 27.0753C925.316 26.7971 925.884 26.59 926.505 26.4538C927.133 26.3118 927.763 26.1993 928.396 26.1165C929.225 26.0099 929.897 25.93 930.412 25.8768C930.932 25.8176 931.311 25.7199 931.548 25.5838C931.791 25.4477 931.912 25.2109 931.912 24.8736V24.8026C931.912 23.9266 931.672 23.246 931.193 22.7607C930.719 22.2753 930 22.0327 929.035 22.0327C928.035 22.0327 927.251 22.2517 926.683 22.6896C926.115 23.1276 925.715 23.5952 925.484 24.0923L923.496 23.3821C923.851 22.5535 924.324 21.9084 924.916 21.4467C925.514 20.9792 926.165 20.6536 926.869 20.4702C927.58 20.2808 928.278 20.1861 928.964 20.1861C929.402 20.1861 929.905 20.2393 930.474 20.3459C931.048 20.4465 931.601 20.6566 932.134 20.9762C932.672 21.2958 933.119 21.7782 933.474 22.4233C933.83 23.0684 934.007 23.9325 934.007 25.0156V34H931.912V32.1534H931.805C931.663 32.4493 931.427 32.766 931.095 33.1033C930.764 33.4407 930.323 33.7277 929.772 33.9645C929.222 34.2012 928.55 34.3196 927.757 34.3196ZM928.077 32.4375C928.905 32.4375 929.604 32.2747 930.172 31.9492C930.746 31.6237 931.178 31.2035 931.468 30.6886C931.764 30.1737 931.912 29.6321 931.912 29.0639V27.1463C931.823 27.2528 931.628 27.3505 931.326 27.4393C931.03 27.5221 930.687 27.5961 930.296 27.6612C929.911 27.7204 929.536 27.7737 929.169 27.821C928.808 27.8625 928.515 27.898 928.29 27.9276C927.745 27.9986 927.236 28.114 926.763 28.2738C926.295 28.4277 925.916 28.6615 925.626 28.9751C925.342 29.2829 925.2 29.7031 925.2 30.2358C925.2 30.9638 925.47 31.5142 926.008 31.8871C926.553 32.254 927.242 32.4375 928.077 32.4375ZM939.394 20.3636L942.661 25.9389L945.928 20.3636H948.343L943.939 27.1818L948.343 34H945.928L942.661 28.7088L939.394 34H936.979L941.311 27.1818L936.979 20.3636H939.394Z" fill="black"/>
<path d="M905.303 178.818H907.931L914.11 193.911H914.323L920.502 178.818H923.129V197H921.07V183.186H920.892L915.21 197H913.222L907.54 183.186H907.362V197H905.303V178.818ZM927.26 197V183.364H929.355V197H927.26ZM928.325 181.091C927.917 181.091 927.565 180.952 927.269 180.674C926.979 180.395 926.834 180.061 926.834 179.67C926.834 179.28 926.979 178.945 927.269 178.667C927.565 178.389 927.917 178.25 928.325 178.25C928.734 178.25 929.083 178.389 929.373 178.667C929.669 178.945 929.817 179.28 929.817 179.67C929.817 180.061 929.669 180.395 929.373 180.674C929.083 180.952 928.734 181.091 928.325 181.091ZM935.288 188.797V197H933.193V183.364H935.217V185.494H935.394C935.714 184.802 936.199 184.246 936.85 183.825C937.501 183.399 938.342 183.186 939.371 183.186C940.295 183.186 941.103 183.375 941.795 183.754C942.488 184.127 943.026 184.695 943.411 185.459C943.796 186.216 943.988 187.175 943.988 188.335V197H941.893V188.477C941.893 187.406 941.615 186.571 941.058 185.974C940.502 185.37 939.738 185.068 938.768 185.068C938.099 185.068 937.501 185.213 936.974 185.503C936.454 185.793 936.042 186.216 935.74 186.773C935.439 187.329 935.288 188.004 935.288 188.797Z" fill="black"/>
<path d="M905.303 419.818H907.931L914.11 434.911H914.323L920.502 419.818H923.129V438H921.07V424.186H920.892L915.21 438H913.222L907.54 424.186H907.362V438H905.303V419.818ZM927.26 438V424.364H929.355V438H927.26ZM928.325 422.091C927.917 422.091 927.565 421.952 927.269 421.674C926.979 421.395 926.834 421.061 926.834 420.67C926.834 420.28 926.979 419.945 927.269 419.667C927.565 419.389 927.917 419.25 928.325 419.25C928.734 419.25 929.083 419.389 929.373 419.667C929.669 419.945 929.817 420.28 929.817 420.67C929.817 421.061 929.669 421.395 929.373 421.674C929.083 421.952 928.734 422.091 928.325 422.091ZM935.288 429.797V438H933.193V424.364H935.217V426.494H935.394C935.714 425.802 936.199 425.246 936.85 424.825C937.501 424.399 938.342 424.186 939.371 424.186C940.295 424.186 941.103 424.375 941.795 424.754C942.488 425.127 943.026 425.695 943.411 426.459C943.796 427.216 943.988 428.175 943.988 429.335V438H941.893V429.477C941.893 428.406 941.615 427.571 941.058 426.974C940.502 426.37 939.738 426.068 938.768 426.068C938.099 426.068 937.501 426.213 936.974 426.503C936.454 426.793 936.042 427.216 935.74 427.773C935.439 428.329 935.288 429.004 935.288 429.797Z" fill="black"/>
<line x1="45" y1="105.5" x2="999" y2="105.5" stroke="black" stroke-opacity="0.2" stroke-width="3"/>
<line x1="45" y1="250.5" x2="999" y2="250.5" stroke="black" stroke-opacity="0.19" stroke-width="3"/>
<line x1="45" y1="371.5" x2="999" y2="371.5" stroke="black" stroke-opacity="0.19" stroke-width="3"/>
<path d="M313 188C313 201.255 302.255 212 289 212C275.745 212 265 201.255 265 188C265 174.745 275.745 164 289 164C302.255 164 313 174.745 313 188Z" fill="#D9D9D9" stroke="black" stroke-width="2"/>
<path d="M284.765 180.955V195.5H283.004V182.801H282.919L279.367 185.159V183.369L283.004 180.955H284.765ZM293.693 195.699C292.623 195.699 291.711 195.408 290.958 194.825C290.205 194.238 289.63 193.388 289.232 192.276C288.835 191.158 288.636 189.809 288.636 188.227C288.636 186.655 288.835 185.313 289.232 184.2C289.635 183.083 290.213 182.231 290.965 181.643C291.723 181.052 292.632 180.756 293.693 180.756C294.753 180.756 295.66 181.052 296.413 181.643C297.17 182.231 297.748 183.083 298.146 184.2C298.548 185.313 298.75 186.655 298.75 188.227C298.75 189.809 298.551 191.158 298.153 192.276C297.755 193.388 297.18 194.238 296.427 194.825C295.674 195.408 294.763 195.699 293.693 195.699ZM293.693 194.136C294.753 194.136 295.577 193.625 296.164 192.602C296.751 191.58 297.045 190.121 297.045 188.227C297.045 186.968 296.91 185.895 296.64 185.01C296.375 184.125 295.991 183.45 295.49 182.986C294.992 182.522 294.393 182.29 293.693 182.29C292.642 182.29 291.82 182.808 291.228 183.845C290.636 184.877 290.34 186.338 290.34 188.227C290.34 189.487 290.473 190.557 290.738 191.438C291.003 192.318 291.384 192.988 291.882 193.447C292.384 193.907 292.987 194.136 293.693 194.136Z" fill="black"/>
<path d="M713 188C713 201.255 702.255 212 689 212C675.745 212 665 201.255 665 188C665 174.745 675.745 164 689 164C702.255 164 713 174.745 713 188Z" fill="#D9D9D9" stroke="black" stroke-width="2"/>
<path d="M678.229 193.455V191.864H687.377V193.455H678.229ZM687.377 187.432L678.229 190.727V188.994L684.621 186.892L684.564 187.006V186.722L684.621 186.835L678.229 184.733V183L687.377 186.295V187.432ZM695.532 180.756C696.129 180.76 696.725 180.874 697.322 181.097C697.919 181.319 698.463 181.688 698.955 182.205C699.448 182.716 699.843 183.414 700.142 184.3C700.44 185.185 700.589 186.295 700.589 187.631C700.589 188.923 700.466 190.071 700.22 191.075C699.978 192.074 699.628 192.917 699.169 193.604C698.714 194.29 698.16 194.811 697.507 195.166C696.858 195.521 696.124 195.699 695.305 195.699C694.491 195.699 693.764 195.538 693.125 195.216C692.49 194.889 691.969 194.437 691.562 193.859C691.16 193.277 690.901 192.602 690.788 191.835H692.521C692.677 192.503 692.987 193.054 693.451 193.49C693.92 193.921 694.538 194.136 695.305 194.136C696.427 194.136 697.312 193.646 697.961 192.666C698.615 191.686 698.941 190.301 698.941 188.511H698.828C698.562 188.909 698.248 189.252 697.883 189.541C697.518 189.83 697.114 190.053 696.669 190.209C696.223 190.365 695.75 190.443 695.248 190.443C694.415 190.443 693.65 190.237 692.954 189.825C692.263 189.409 691.709 188.838 691.292 188.114C690.88 187.384 690.674 186.551 690.674 185.614C690.674 184.723 690.873 183.909 691.271 183.17C691.673 182.427 692.237 181.835 692.961 181.395C693.69 180.955 694.547 180.741 695.532 180.756ZM695.532 182.318C694.936 182.318 694.398 182.467 693.92 182.766C693.446 183.059 693.07 183.457 692.791 183.959C692.516 184.456 692.379 185.008 692.379 185.614C692.379 186.22 692.511 186.771 692.776 187.268C693.046 187.761 693.413 188.154 693.877 188.447C694.346 188.736 694.879 188.881 695.475 188.881C695.925 188.881 696.344 188.793 696.732 188.618C697.121 188.438 697.459 188.194 697.748 187.886C698.042 187.574 698.271 187.221 698.437 186.828C698.603 186.43 698.686 186.016 698.686 185.585C698.686 185.017 698.548 184.484 698.274 183.987C698.004 183.49 697.63 183.088 697.151 182.78C696.678 182.472 696.138 182.318 695.532 182.318Z" fill="black"/>
<path d="M513 25C513 38.2548 502.255 49 489 49C475.745 49 465 38.2548 465 25C465 11.7452 475.745 1 489 1C502.255 1 513 11.7452 513 25Z" fill="#D9D9D9" stroke="black" stroke-width="2"/>
<path d="M484.765 17.9545V32.5H483.004V19.8011H482.919L479.367 22.1591V20.3693L483.004 17.9545H484.765ZM493.693 32.6989C492.623 32.6989 491.711 32.4077 490.958 31.8253C490.205 31.2382 489.63 30.3883 489.232 29.2756C488.835 28.1581 488.636 26.8087 488.636 25.2273C488.636 23.6553 488.835 22.313 489.232 21.2003C489.635 20.0829 490.213 19.2306 490.965 18.6435C491.723 18.0516 492.632 17.7557 493.693 17.7557C494.753 17.7557 495.66 18.0516 496.413 18.6435C497.17 19.2306 497.748 20.0829 498.146 21.2003C498.548 22.313 498.75 23.6553 498.75 25.2273C498.75 26.8087 498.551 28.1581 498.153 29.2756C497.755 30.3883 497.18 31.2382 496.427 31.8253C495.674 32.4077 494.763 32.6989 493.693 32.6989ZM493.693 31.1364C494.753 31.1364 495.577 30.625 496.164 29.6023C496.751 28.5795 497.045 27.1212 497.045 25.2273C497.045 23.9678 496.91 22.8954 496.64 22.0099C496.375 21.1245 495.991 20.4498 495.49 19.9858C494.992 19.5218 494.393 19.2898 493.693 19.2898C492.642 19.2898 491.82 19.8082 491.228 20.8452C490.636 21.8774 490.34 23.3381 490.34 25.2273C490.34 26.4867 490.473 27.5568 490.738 28.4375C491.003 29.3182 491.384 29.9882 491.882 30.4474C492.384 30.9067 492.987 31.1364 493.693 31.1364Z" fill="black"/>
<path d="M613 316C613 329.255 602.255 340 589 340C575.745 340 565 329.255 565 316C565 302.745 575.745 292 589 292C602.255 292 613 302.745 613 316Z" fill="#D9D9D9" stroke="black" stroke-width="2"/>
<path d="M588.94 308.756C589.537 308.76 590.134 308.874 590.73 309.097C591.327 309.319 591.871 309.688 592.364 310.205C592.856 310.716 593.251 311.414 593.55 312.3C593.848 313.185 593.997 314.295 593.997 315.631C593.997 316.923 593.874 318.071 593.628 319.075C593.386 320.074 593.036 320.917 592.577 321.604C592.122 322.29 591.568 322.811 590.915 323.166C590.266 323.521 589.532 323.699 588.713 323.699C587.899 323.699 587.172 323.538 586.533 323.216C585.898 322.889 585.377 322.437 584.97 321.859C584.568 321.277 584.31 320.602 584.196 319.835H585.929C586.085 320.503 586.395 321.054 586.859 321.49C587.328 321.921 587.946 322.136 588.713 322.136C589.835 322.136 590.721 321.646 591.369 320.666C592.023 319.686 592.349 318.301 592.349 316.511H592.236C591.971 316.909 591.656 317.252 591.291 317.541C590.927 317.83 590.522 318.053 590.077 318.209C589.632 318.365 589.158 318.443 588.656 318.443C587.823 318.443 587.058 318.237 586.362 317.825C585.671 317.409 585.117 316.838 584.7 316.114C584.288 315.384 584.082 314.551 584.082 313.614C584.082 312.723 584.281 311.909 584.679 311.17C585.081 310.427 585.645 309.835 586.369 309.395C587.099 308.955 587.956 308.741 588.94 308.756ZM588.94 310.318C588.344 310.318 587.806 310.467 587.328 310.766C586.855 311.059 586.478 311.457 586.199 311.959C585.924 312.456 585.787 313.008 585.787 313.614C585.787 314.22 585.92 314.771 586.185 315.268C586.455 315.761 586.822 316.154 587.286 316.447C587.754 316.736 588.287 316.881 588.884 316.881C589.333 316.881 589.752 316.793 590.141 316.618C590.529 316.438 590.867 316.194 591.156 315.886C591.45 315.574 591.679 315.221 591.845 314.828C592.011 314.43 592.094 314.016 592.094 313.585C592.094 313.017 591.956 312.484 591.682 311.987C591.412 311.49 591.038 311.088 590.56 310.78C590.086 310.472 589.546 310.318 588.94 310.318Z" fill="black"/>
<path d="M413 316C413 329.255 402.255 340 389 340C375.745 340 365 329.255 365 316C365 302.745 375.745 292 389 292C402.255 292 413 302.745 413 316Z" fill="#D9D9D9" stroke="black" stroke-width="2"/>
<path d="M382.914 321.455H373.766V319.864H382.914V321.455ZM373.766 315.432V314.295L382.914 311V312.733L376.522 314.835L376.579 314.722V315.006L376.522 314.892L382.914 316.994V318.727L373.766 315.432ZM391.552 308.955V323.5H389.791V310.801H389.706L386.155 313.159V311.369L389.791 308.955H391.552ZM395.735 323.5V322.222L400.537 316.966C401.1 316.35 401.564 315.815 401.929 315.361C402.293 314.902 402.563 314.471 402.738 314.068C402.918 313.661 403.008 313.235 403.008 312.79C403.008 312.278 402.885 311.836 402.639 311.462C402.397 311.088 402.066 310.799 401.645 310.595C401.223 310.392 400.75 310.29 400.224 310.29C399.665 310.29 399.178 310.406 398.761 310.638C398.349 310.865 398.03 311.185 397.802 311.597C397.58 312.009 397.468 312.491 397.468 313.045H395.792C395.792 312.193 395.989 311.445 396.382 310.801C396.775 310.157 397.31 309.655 397.987 309.295C398.669 308.936 399.433 308.756 400.281 308.756C401.133 308.756 401.888 308.936 402.547 309.295C403.205 309.655 403.721 310.141 404.095 310.751C404.469 311.362 404.656 312.042 404.656 312.79C404.656 313.325 404.559 313.848 404.365 314.359C404.175 314.866 403.844 315.432 403.37 316.057C402.902 316.677 402.251 317.435 401.417 318.33L398.15 321.824V321.938H404.912V323.5H395.735Z" fill="black"/>
<path d="M213 316C213 329.255 202.255 340 189 340C175.745 340 165 329.255 165 316C165 302.745 175.745 292 189 292C202.255 292 213 302.745 213 316Z" fill="#D9D9D9" stroke="black" stroke-width="2"/>
<path d="M184.765 308.955V323.5H183.004V310.801H182.919L179.367 313.159V311.369L183.004 308.955H184.765ZM193.693 323.699C192.623 323.699 191.711 323.408 190.958 322.825C190.205 322.238 189.63 321.388 189.232 320.276C188.835 319.158 188.636 317.809 188.636 316.227C188.636 314.655 188.835 313.313 189.232 312.2C189.635 311.083 190.213 310.231 190.965 309.643C191.723 309.052 192.632 308.756 193.693 308.756C194.753 308.756 195.66 309.052 196.413 309.643C197.17 310.231 197.748 311.083 198.146 312.2C198.548 313.313 198.75 314.655 198.75 316.227C198.75 317.809 198.551 319.158 198.153 320.276C197.755 321.388 197.18 322.238 196.427 322.825C195.674 323.408 194.763 323.699 193.693 323.699ZM193.693 322.136C194.753 322.136 195.577 321.625 196.164 320.602C196.751 319.58 197.045 318.121 197.045 316.227C197.045 314.968 196.91 313.895 196.64 313.01C196.375 312.125 195.991 311.45 195.49 310.986C194.992 310.522 194.393 310.29 193.693 310.29C192.642 310.29 191.82 310.808 191.228 311.845C190.636 312.877 190.34 314.338 190.34 316.227C190.34 317.487 190.473 318.557 190.738 319.438C191.003 320.318 191.384 320.988 191.882 321.447C192.384 321.907 192.987 322.136 193.693 322.136Z" fill="black"/>
<path d="M663 429C663 442.255 652.255 453 639 453C625.745 453 615 442.255 615 429C615 415.745 625.745 405 639 405C652.255 405 663 415.745 663 429Z" fill="#D9D9D9" stroke="black" stroke-width="2"/>
<path d="M639.011 436.699C638.178 436.699 637.428 436.533 636.76 436.202C636.092 435.87 635.557 435.416 635.155 434.838C634.752 434.26 634.532 433.602 634.494 432.864H636.199C636.265 433.522 636.563 434.066 637.094 434.497C637.629 434.923 638.268 435.136 639.011 435.136C639.608 435.136 640.138 434.997 640.602 434.717C641.071 434.438 641.438 434.054 641.703 433.567C641.973 433.074 642.108 432.518 642.108 431.898C642.108 431.263 641.968 430.697 641.689 430.2C641.414 429.698 641.036 429.303 640.553 429.014C640.07 428.725 639.518 428.579 638.898 428.574C638.453 428.569 637.996 428.638 637.527 428.78C637.058 428.917 636.672 429.095 636.369 429.312L634.722 429.114L635.602 421.955H643.159V423.517H637.08L636.568 427.807H636.653C636.952 427.57 637.326 427.374 637.776 427.217C638.225 427.061 638.694 426.983 639.182 426.983C640.072 426.983 640.865 427.196 641.561 427.622C642.262 428.044 642.811 428.621 643.209 429.355C643.611 430.089 643.813 430.927 643.813 431.869C643.813 432.797 643.604 433.626 643.188 434.355C642.776 435.08 642.207 435.652 641.483 436.074C640.759 436.491 639.935 436.699 639.011 436.699Z" fill="black"/>
<path d="M563 429C563 442.255 552.255 453 539 453C525.745 453 515 442.255 515 429C515 415.745 525.745 405 539 405C552.255 405 563 415.745 563 429Z" fill="#D9D9D9" stroke="black" stroke-width="2"/>
<path d="M538.94 421.756C539.537 421.76 540.134 421.874 540.73 422.097C541.327 422.319 541.871 422.688 542.364 423.205C542.856 423.716 543.251 424.414 543.55 425.3C543.848 426.185 543.997 427.295 543.997 428.631C543.997 429.923 543.874 431.071 543.628 432.075C543.386 433.074 543.036 433.917 542.577 434.604C542.122 435.29 541.568 435.811 540.915 436.166C540.266 436.521 539.532 436.699 538.713 436.699C537.899 436.699 537.172 436.538 536.533 436.216C535.898 435.889 535.377 435.437 534.97 434.859C534.568 434.277 534.31 433.602 534.196 432.835H535.929C536.085 433.503 536.395 434.054 536.859 434.49C537.328 434.921 537.946 435.136 538.713 435.136C539.835 435.136 540.721 434.646 541.369 433.666C542.023 432.686 542.349 431.301 542.349 429.511H542.236C541.971 429.909 541.656 430.252 541.291 430.541C540.927 430.83 540.522 431.053 540.077 431.209C539.632 431.365 539.158 431.443 538.656 431.443C537.823 431.443 537.058 431.237 536.362 430.825C535.671 430.409 535.117 429.838 534.7 429.114C534.288 428.384 534.082 427.551 534.082 426.614C534.082 425.723 534.281 424.909 534.679 424.17C535.081 423.427 535.645 422.835 536.369 422.395C537.099 421.955 537.956 421.741 538.94 421.756ZM538.94 423.318C538.344 423.318 537.806 423.467 537.328 423.766C536.855 424.059 536.478 424.457 536.199 424.959C535.924 425.456 535.787 426.008 535.787 426.614C535.787 427.22 535.92 427.771 536.185 428.268C536.455 428.761 536.822 429.154 537.286 429.447C537.754 429.736 538.287 429.881 538.884 429.881C539.333 429.881 539.752 429.793 540.141 429.618C540.529 429.438 540.867 429.194 541.156 428.886C541.45 428.574 541.679 428.221 541.845 427.828C542.011 427.43 542.094 427.016 542.094 426.585C542.094 426.017 541.956 425.484 541.682 424.987C541.412 424.49 541.038 424.088 540.56 423.78C540.086 423.472 539.546 423.318 538.94 423.318Z" fill="black"/>
<path d="M363 429C363 442.255 352.255 453 339 453C325.745 453 315 442.255 315 429C315 415.745 325.745 405 339 405C352.255 405 363 415.745 363 429Z" fill="#D9D9D9" stroke="black" stroke-width="2"/>
<path d="M334.96 421.955V436.5H333.199V423.801H333.114L329.563 426.159V424.369L333.199 421.955H334.96ZM339.144 436.5V435.222L343.945 429.966C344.508 429.35 344.972 428.815 345.337 428.361C345.701 427.902 345.971 427.471 346.147 427.068C346.326 426.661 346.416 426.235 346.416 425.79C346.416 425.278 346.293 424.836 346.047 424.462C345.806 424.088 345.474 423.799 345.053 423.595C344.631 423.392 344.158 423.29 343.632 423.29C343.074 423.29 342.586 423.406 342.169 423.638C341.757 423.865 341.438 424.185 341.21 424.597C340.988 425.009 340.877 425.491 340.877 426.045H339.201C339.201 425.193 339.397 424.445 339.79 423.801C340.183 423.157 340.718 422.655 341.395 422.295C342.077 421.936 342.842 421.756 343.689 421.756C344.541 421.756 345.297 421.936 345.955 422.295C346.613 422.655 347.129 423.141 347.503 423.751C347.877 424.362 348.064 425.042 348.064 425.79C348.064 426.325 347.967 426.848 347.773 427.359C347.584 427.866 347.252 428.432 346.779 429.057C346.31 429.677 345.659 430.435 344.826 431.33L341.558 434.824V434.938H348.32V436.5H339.144Z" fill="black"/>
<path d="M263 429C263 442.255 252.255 453 239 453C225.745 453 215 442.255 215 429C215 415.745 225.745 405 239 405C252.255 405 263 415.745 263 429Z" fill="#D9D9D9" stroke="black" stroke-width="2"/>
<path d="M234.765 421.955V436.5H233.004V423.801H232.919L229.367 426.159V424.369L233.004 421.955H234.765ZM243.693 436.699C242.623 436.699 241.711 436.408 240.958 435.825C240.205 435.238 239.63 434.388 239.232 433.276C238.835 432.158 238.636 430.809 238.636 429.227C238.636 427.655 238.835 426.313 239.232 425.2C239.635 424.083 240.213 423.231 240.965 422.643C241.723 422.052 242.632 421.756 243.693 421.756C244.753 421.756 245.66 422.052 246.413 422.643C247.17 423.231 247.748 424.083 248.146 425.2C248.548 426.313 248.75 427.655 248.75 429.227C248.75 430.809 248.551 432.158 248.153 433.276C247.755 434.388 247.18 435.238 246.427 435.825C245.674 436.408 244.763 436.699 243.693 436.699ZM243.693 435.136C244.753 435.136 245.577 434.625 246.164 433.602C246.751 432.58 247.045 431.121 247.045 429.227C247.045 427.968 246.91 426.895 246.64 426.01C246.375 425.125 245.991 424.45 245.49 423.986C244.992 423.522 244.393 423.29 243.693 423.29C242.642 423.29 241.82 423.808 241.228 424.845C240.636 425.877 240.34 427.338 240.34 429.227C240.34 430.487 240.473 431.557 240.738 432.438C241.003 433.318 241.384 433.988 241.882 434.447C242.384 434.907 242.987 435.136 243.693 435.136Z" fill="black"/>
<path d="M163 429C163 442.255 152.255 453 139 453C125.745 453 115 442.255 115 429C115 415.745 125.745 405 139 405C152.255 405 163 415.745 163 429Z" fill="#D9D9D9" stroke="black" stroke-width="2"/>
<path d="M135.292 436.5L141.797 423.631V423.517H134.297V421.955H143.615V423.602L137.138 436.5H135.292Z" fill="black"/>
<path d="M138.008 404.124C138.076 404.672 138.576 405.061 139.124 404.992L148.055 403.876C148.603 403.807 148.991 403.308 148.923 402.76C148.854 402.212 148.354 401.823 147.806 401.891L139.868 402.884L138.876 394.945C138.807 394.397 138.308 394.009 137.76 394.077C137.212 394.146 136.823 394.646 136.891 395.194L138.008 404.124ZM187.211 340.386L138.211 403.386L139.789 404.614L188.789 341.614L187.211 340.386Z" fill="black"/>
<path d="M238.886 404.993C239.434 405.057 239.93 404.663 239.993 404.114L241.022 395.173C241.085 394.625 240.692 394.129 240.143 394.066C239.594 394.002 239.098 394.396 239.035 394.945L238.121 402.892L230.173 401.978C229.625 401.915 229.129 402.308 229.066 402.857C229.002 403.406 229.396 403.902 229.945 403.965L238.886 404.993ZM188.217 341.622L238.217 404.622L239.783 403.378L189.783 340.378L188.217 341.622Z" fill="black"/>
<g opacity="0.5">
<path d="M463 429C463 442.255 452.255 453 439 453C425.745 453 415 442.255 415 429C415 415.745 425.745 405 439 405C452.255 405 463 415.745 463 429Z" fill="#D9D9D9" stroke="black" stroke-width="2"/>
<path d="M435.292 436.5L441.797 423.631V423.517H434.297V421.955H443.615V423.602L437.138 436.5H435.292Z" fill="black"/>
<path d="M438.886 404.993C439.434 405.057 439.93 404.663 439.993 404.114L441.022 395.173C441.085 394.625 440.692 394.129 440.143 394.066C439.594 394.002 439.098 394.396 439.035 394.945L438.121 402.892L430.173 401.978C429.625 401.915 429.129 402.308 429.066 402.857C429.002 403.406 429.396 403.902 429.945 403.965L438.886 404.993ZM388.217 341.622L438.217 404.622L439.783 403.378L389.783 340.378L388.217 341.622Z" fill="black"/>
</g>
<path d="M639.886 404.993C640.434 405.057 640.93 404.663 640.993 404.114L642.022 395.173C642.085 394.625 641.692 394.129 641.143 394.066C640.594 394.002 640.098 394.396 640.035 394.945L639.121 402.892L631.173 401.978C630.625 401.915 630.129 402.308 630.066 402.857C630.002 403.406 630.396 403.902 630.945 403.965L639.886 404.993ZM589.217 341.622L639.217 404.622L640.783 403.378L590.783 340.378L589.217 341.622Z" fill="black"/>
<path d="M138.008 404.124C138.076 404.672 138.576 405.061 139.124 404.992L148.055 403.876C148.603 403.807 148.991 403.308 148.923 402.76C148.854 402.212 148.354 401.823 147.806 401.891L139.868 402.884L138.876 394.945C138.807 394.397 138.308 394.009 137.76 394.077C137.212 394.146 136.823 394.646 136.891 395.194L138.008 404.124ZM187.211 340.386L138.211 403.386L139.789 404.614L188.789 341.614L187.211 340.386Z" fill="black"/>
<path d="M187.008 290.873C186.938 291.42 187.325 291.921 187.873 291.992L196.799 293.139C197.347 293.209 197.848 292.822 197.918 292.274C197.989 291.727 197.602 291.226 197.054 291.155L189.119 290.136L190.139 282.201C190.209 281.653 189.822 281.152 189.274 281.082C188.727 281.011 188.226 281.398 188.155 281.946L187.008 290.873ZM288.389 212.209L187.389 290.209L188.611 291.791L289.611 213.791L288.389 212.209Z" fill="black"/>
<path d="M389.123 291.992C389.671 291.925 390.06 291.425 389.992 290.877L388.888 281.945C388.821 281.397 388.321 281.008 387.773 281.076C387.225 281.143 386.836 281.643 386.904 282.191L387.885 290.13L379.945 291.112C379.397 291.179 379.008 291.679 379.076 292.227C379.143 292.775 379.643 293.164 380.191 293.096L389.123 291.992ZM288.385 213.789L388.385 291.788L389.615 290.211L289.615 212.211L288.385 213.789Z" fill="black"/>
<path d="M288.037 162.732C287.889 163.264 288.2 163.816 288.732 163.963L297.403 166.374C297.936 166.522 298.487 166.21 298.635 165.678C298.783 165.146 298.471 164.595 297.939 164.447L290.231 162.304L292.374 154.597C292.522 154.064 292.21 153.513 291.678 153.365C291.146 153.217 290.595 153.529 290.447 154.061L288.037 162.732ZM488.508 49.1294L288.508 162.129L289.492 163.871L489.492 50.8706L488.508 49.1294Z" fill="black"/>
<path d="M689.268 163.963C689.8 163.816 690.111 163.264 689.963 162.732L687.553 154.061C687.405 153.529 686.854 153.217 686.322 153.365C685.79 153.513 685.478 154.064 685.626 154.597L687.769 162.304L680.061 164.447C679.529 164.595 679.217 165.146 679.365 165.678C679.513 166.21 680.064 166.522 680.597 166.374L689.268 163.963ZM488.508 50.8706L688.508 163.871L689.492 162.129L489.492 49.1294L488.508 50.8706Z" fill="black"/>
<path d="M588.008 290.873C587.938 291.42 588.325 291.921 588.873 291.992L597.799 293.139C598.347 293.209 598.848 292.822 598.918 292.274C598.989 291.727 598.602 291.226 598.054 291.155L590.119 290.136L591.139 282.201C591.209 281.653 590.822 281.152 590.274 281.082C589.727 281.011 589.226 281.398 589.155 281.946L588.008 290.873ZM689.389 212.209L588.389 290.209L589.611 291.791L690.611 213.791L689.389 212.209Z" fill="black"/>
<path d="M338.008 404.124C338.076 404.672 338.576 405.061 339.124 404.992L348.055 403.876C348.603 403.807 348.991 403.308 348.923 402.76C348.854 402.212 348.354 401.823 347.806 401.891L339.868 402.884L338.876 394.945C338.807 394.397 338.308 394.009 337.76 394.077C337.212 394.146 336.823 394.646 336.891 395.194L338.008 404.124ZM387.211 340.386L338.211 403.386L339.789 404.614L388.789 341.614L387.211 340.386Z" fill="black"/>
<g opacity="0.5">
<path d="M813 316C813 329.255 802.255 340 789 340C775.745 340 765 329.255 765 316C765 302.745 775.745 292 789 292C802.255 292 813 302.745 813 316Z" fill="#D9D9D9" stroke="black" stroke-width="2"/>
<path d="M784.775 308.955V323.5H783.014V310.801H782.928L779.377 313.159V311.369L783.014 308.955H784.775ZM793.589 308.756C794.185 308.76 794.782 308.874 795.379 309.097C795.975 309.319 796.52 309.688 797.012 310.205C797.505 310.716 797.9 311.414 798.198 312.3C798.496 313.185 798.646 314.295 798.646 315.631C798.646 316.923 798.523 318.071 798.276 319.075C798.035 320.074 797.684 320.917 797.225 321.604C796.771 322.29 796.217 322.811 795.563 323.166C794.915 323.521 794.181 323.699 793.362 323.699C792.547 323.699 791.82 323.538 791.181 323.216C790.547 322.889 790.026 322.437 789.619 321.859C789.216 321.277 788.958 320.602 788.844 319.835H790.577C790.734 320.503 791.044 321.054 791.508 321.49C791.977 321.921 792.594 322.136 793.362 322.136C794.484 322.136 795.369 321.646 796.018 320.666C796.671 319.686 796.998 318.301 796.998 316.511H796.884C796.619 316.909 796.304 317.252 795.94 317.541C795.575 317.83 795.17 318.053 794.725 318.209C794.28 318.365 793.807 318.443 793.305 318.443C792.471 318.443 791.707 318.237 791.011 317.825C790.319 317.409 789.765 316.838 789.349 316.114C788.937 315.384 788.731 314.551 788.731 313.614C788.731 312.723 788.93 311.909 789.327 311.17C789.73 310.427 790.293 309.835 791.018 309.395C791.747 308.955 792.604 308.741 793.589 308.756ZM793.589 310.318C792.992 310.318 792.455 310.467 791.977 310.766C791.503 311.059 791.127 311.457 790.847 311.959C790.573 312.456 790.435 313.008 790.435 313.614C790.435 314.22 790.568 314.771 790.833 315.268C791.103 315.761 791.47 316.154 791.934 316.447C792.403 316.736 792.935 316.881 793.532 316.881C793.982 316.881 794.401 316.793 794.789 316.618C795.177 316.438 795.516 316.194 795.805 315.886C796.098 315.574 796.328 315.221 796.494 314.828C796.659 314.43 796.742 314.016 796.742 313.585C796.742 313.017 796.605 312.484 796.33 311.987C796.06 311.49 795.686 311.088 795.208 310.78C794.735 310.472 794.195 310.318 793.589 310.318Z" fill="black"/>
<path d="M863 429C863 442.255 852.255 453 839 453C825.745 453 815 442.255 815 429C815 415.745 825.745 405 839 405C852.255 405 863 415.745 863 429Z" fill="#D9D9D9" stroke="black" stroke-width="2"/>
<path d="M834.775 421.955V436.5H833.014V423.801H832.928L829.377 426.159V424.369L833.014 421.955H834.775ZM843.589 421.756C844.185 421.76 844.782 421.874 845.379 422.097C845.975 422.319 846.52 422.688 847.012 423.205C847.505 423.716 847.9 424.414 848.198 425.3C848.496 426.185 848.646 427.295 848.646 428.631C848.646 429.923 848.523 431.071 848.276 432.075C848.035 433.074 847.684 433.917 847.225 434.604C846.771 435.29 846.217 435.811 845.563 436.166C844.915 436.521 844.181 436.699 843.362 436.699C842.547 436.699 841.82 436.538 841.181 436.216C840.547 435.889 840.026 435.437 839.619 434.859C839.216 434.277 838.958 433.602 838.844 432.835H840.577C840.734 433.503 841.044 434.054 841.508 434.49C841.977 434.921 842.594 435.136 843.362 435.136C844.484 435.136 845.369 434.646 846.018 433.666C846.671 432.686 846.998 431.301 846.998 429.511H846.884C846.619 429.909 846.304 430.252 845.94 430.541C845.575 430.83 845.17 431.053 844.725 431.209C844.28 431.365 843.807 431.443 843.305 431.443C842.471 431.443 841.707 431.237 841.011 430.825C840.319 430.409 839.765 429.838 839.349 429.114C838.937 428.384 838.731 427.551 838.731 426.614C838.731 425.723 838.93 424.909 839.327 424.17C839.73 423.427 840.293 422.835 841.018 422.395C841.747 421.955 842.604 421.741 843.589 421.756ZM843.589 423.318C842.992 423.318 842.455 423.467 841.977 423.766C841.503 424.059 841.127 424.457 840.847 424.959C840.573 425.456 840.435 426.008 840.435 426.614C840.435 427.22 840.568 427.771 840.833 428.268C841.103 428.761 841.47 429.154 841.934 429.447C842.403 429.736 842.935 429.881 843.532 429.881C843.982 429.881 844.401 429.793 844.789 429.618C845.177 429.438 845.516 429.194 845.805 428.886C846.098 428.574 846.328 428.221 846.494 427.828C846.659 427.43 846.742 427.016 846.742 426.585C846.742 426.017 846.605 425.484 846.33 424.987C846.06 424.49 845.686 424.088 845.208 423.78C844.735 423.472 844.195 423.318 843.589 423.318Z" fill="black"/>
<path d="M763 429C763 442.255 752.255 453 739 453C725.745 453 715 442.255 715 429C715 415.745 725.745 405 739 405C752.255 405 763 415.745 763 429Z" fill="#D9D9D9" stroke="black" stroke-width="2"/>
<path d="M739.098 436.699C738.16 436.699 737.324 436.538 736.59 436.216C735.861 435.894 735.281 435.446 734.85 434.874C734.424 434.296 734.192 433.626 734.154 432.864H735.944C735.982 433.332 736.143 433.737 736.427 434.078C736.711 434.414 737.083 434.675 737.542 434.859C738.001 435.044 738.51 435.136 739.069 435.136C739.694 435.136 740.248 435.027 740.731 434.81C741.214 434.592 741.593 434.289 741.867 433.901C742.142 433.512 742.279 433.062 742.279 432.551C742.279 432.016 742.147 431.545 741.882 431.138C741.616 430.726 741.228 430.404 740.717 430.172C740.205 429.94 739.58 429.824 738.842 429.824H737.677V428.261H738.842C739.419 428.261 739.926 428.157 740.362 427.949C740.802 427.741 741.145 427.447 741.392 427.068C741.642 426.689 741.768 426.244 741.768 425.733C741.768 425.241 741.659 424.812 741.441 424.447C741.223 424.083 740.916 423.799 740.518 423.595C740.125 423.392 739.661 423.29 739.126 423.29C738.624 423.29 738.151 423.382 737.705 423.567C737.265 423.747 736.905 424.009 736.626 424.355C736.347 424.696 736.195 425.108 736.171 425.591H734.467C734.495 424.829 734.725 424.161 735.156 423.588C735.587 423.01 736.15 422.561 736.846 422.239C737.547 421.917 738.316 421.756 739.154 421.756C740.054 421.756 740.826 421.938 741.47 422.303C742.114 422.662 742.608 423.138 742.954 423.73C743.3 424.322 743.473 424.961 743.473 425.648C743.473 426.467 743.257 427.165 742.826 427.743C742.4 428.321 741.82 428.721 741.086 428.943V429.057C742.005 429.208 742.722 429.599 743.238 430.229C743.754 430.854 744.012 431.628 744.012 432.551C744.012 433.342 743.797 434.052 743.366 434.682C742.94 435.307 742.357 435.799 741.619 436.159C740.88 436.519 740.04 436.699 739.098 436.699Z" fill="black"/>
<path d="M838.886 404.993C839.434 405.057 839.93 404.663 839.993 404.114L841.022 395.173C841.085 394.625 840.692 394.129 840.143 394.066C839.594 394.002 839.098 394.396 839.035 394.945L838.121 402.892L830.173 401.978C829.625 401.915 829.129 402.308 829.066 402.857C829.002 403.406 829.396 403.902 829.945 403.965L838.886 404.993ZM788.217 341.622L838.217 404.622L839.783 403.378L789.783 340.378L788.217 341.622Z" fill="black"/>
<path d="M789.123 291.992C789.671 291.925 790.06 291.425 789.992 290.877L788.888 281.945C788.821 281.397 788.321 281.008 787.773 281.076C787.225 281.143 786.836 281.643 786.904 282.191L787.885 290.13L779.945 291.112C779.397 291.179 779.008 291.679 779.076 292.227C779.143 292.775 779.643 293.164 780.191 293.096L789.123 291.992ZM688.385 213.789L788.385 291.788L789.615 290.211L689.615 212.211L688.385 213.789Z" fill="black"/>
<path d="M739.008 404.124C739.076 404.672 739.576 405.061 740.124 404.992L749.055 403.876C749.603 403.807 749.991 403.308 749.923 402.76C749.854 402.212 749.354 401.823 748.806 401.891L740.868 402.884L739.876 394.945C739.807 394.397 739.308 394.009 738.76 394.077C738.212 394.146 737.823 394.646 737.891 395.194L739.008 404.124ZM788.211 340.386L739.211 403.386L740.789 404.614L789.789 341.614L788.211 340.386Z" fill="black"/>
</g>
<path d="M538.008 404.124C538.076 404.672 538.576 405.061 539.124 404.992L548.055 403.876C548.603 403.807 548.991 403.308 548.923 402.76C548.854 402.212 548.354 401.823 547.806 401.891L539.868 402.884L538.876 394.945C538.807 394.397 538.308 394.009 537.76 394.077C537.212 394.146 536.823 394.646 536.891 395.194L538.008 404.124ZM587.211 340.386L538.211 403.386L539.789 404.614L588.789 341.614L587.211 340.386Z" fill="black"/>
<path d="M285.518 19.3196C284.654 19.3196 283.87 19.1568 283.166 18.8313C282.461 18.4999 281.902 18.0234 281.488 17.402C281.073 16.7746 280.866 16.017 280.866 15.1293C280.866 14.348 281.02 13.7147 281.328 13.2294C281.636 12.7382 282.047 12.3535 282.562 12.0753C283.077 11.7971 283.645 11.59 284.267 11.4538C284.894 11.3118 285.524 11.1993 286.157 11.1165C286.986 11.0099 287.658 10.93 288.173 10.8768C288.694 10.8176 289.072 10.7199 289.309 10.5838C289.552 10.4477 289.673 10.2109 289.673 9.87358V9.80256C289.673 8.92661 289.433 8.24598 288.954 7.76065C288.481 7.27533 287.761 7.03267 286.797 7.03267C285.796 7.03267 285.012 7.25166 284.444 7.68963C283.876 8.1276 283.476 8.59517 283.246 9.09233L281.257 8.3821C281.612 7.5535 282.086 6.90838 282.677 6.44673C283.275 5.97917 283.926 5.65365 284.631 5.47017C285.341 5.28078 286.039 5.18608 286.726 5.18608C287.164 5.18608 287.667 5.23935 288.235 5.34588C288.809 5.4465 289.362 5.6566 289.895 5.97621C290.434 6.29581 290.881 6.77817 291.236 7.4233C291.591 8.06842 291.768 8.93253 291.768 10.0156V19H289.673V17.1534H289.567C289.425 17.4493 289.188 17.766 288.856 18.1033C288.525 18.4407 288.084 18.7277 287.534 18.9645C286.983 19.2012 286.311 19.3196 285.518 19.3196ZM285.838 17.4375C286.666 17.4375 287.365 17.2747 287.933 16.9492C288.507 16.6237 288.939 16.2035 289.229 15.6886C289.525 15.1737 289.673 14.6321 289.673 14.0639V12.1463C289.584 12.2528 289.389 12.3505 289.087 12.4393C288.791 12.5221 288.448 12.5961 288.057 12.6612C287.673 12.7204 287.297 12.7737 286.93 12.821C286.569 12.8625 286.276 12.898 286.051 12.9276C285.506 12.9986 284.997 13.114 284.524 13.2738C284.056 13.4277 283.678 13.6615 283.388 13.9751C283.104 14.2829 282.961 14.7031 282.961 15.2358C282.961 15.9638 283.231 16.5142 283.769 16.8871C284.314 17.254 285.003 17.4375 285.838 17.4375ZM297.688 0.818181V19H295.592V0.818181H297.688ZM301.525 24.1136V5.36364H303.549V7.52983H303.798C303.952 7.29309 304.165 6.99124 304.437 6.62429C304.715 6.25142 305.112 5.91998 305.627 5.62997C306.147 5.33404 306.852 5.18608 307.74 5.18608C308.888 5.18608 309.9 5.47313 310.776 6.04723C311.652 6.62133 312.335 7.43513 312.827 8.48864C313.318 9.54214 313.563 10.785 313.563 12.2173C313.563 13.6615 313.318 14.9132 312.827 15.9727C312.335 17.0262 311.655 17.8429 310.785 18.4229C309.915 18.997 308.911 19.2841 307.775 19.2841C306.899 19.2841 306.198 19.1391 305.671 18.8491C305.144 18.5531 304.739 18.2187 304.455 17.8459C304.171 17.4671 303.952 17.1534 303.798 16.9048H303.62V24.1136H301.525ZM303.585 12.1818C303.585 13.2116 303.736 14.1201 304.037 14.9073C304.339 15.6886 304.78 16.3011 305.36 16.745C305.94 17.183 306.651 17.402 307.491 17.402C308.367 17.402 309.098 17.1712 309.684 16.7095C310.276 16.242 310.72 15.6146 311.015 14.8274C311.317 14.0343 311.468 13.1525 311.468 12.1818C311.468 11.223 311.32 10.3589 311.024 9.58949C310.734 8.81416 310.293 8.20159 309.702 7.75178C309.116 7.29605 308.379 7.06818 307.491 7.06818C306.639 7.06818 305.923 7.28421 305.343 7.71626C304.762 8.1424 304.325 8.74018 304.029 9.50959C303.733 10.2731 303.585 11.1638 303.585 12.1818ZM318.855 10.7969V19H316.759V0.818181H318.855V7.49432H319.032C319.352 6.79001 319.831 6.23071 320.47 5.81641C321.115 5.39619 321.974 5.18608 323.045 5.18608C323.974 5.18608 324.788 5.37251 325.486 5.74538C326.185 6.11233 326.726 6.67756 327.111 7.44105C327.502 8.19863 327.697 9.16335 327.697 10.3352V19H325.602V10.4773C325.602 9.39418 325.321 8.5567 324.758 7.96484C324.202 7.36707 323.43 7.06818 322.441 7.06818C321.755 7.06818 321.139 7.21319 320.595 7.5032C320.056 7.79321 319.63 8.21638 319.316 8.77273C319.008 9.32907 318.855 10.0038 318.855 10.7969ZM335.543 19.3196C334.679 19.3196 333.894 19.1568 333.19 18.8313C332.486 18.4999 331.926 18.0234 331.512 17.402C331.098 16.7746 330.891 16.017 330.891 15.1293C330.891 14.348 331.045 13.7147 331.352 13.2294C331.66 12.7382 332.071 12.3535 332.586 12.0753C333.101 11.7971 333.669 11.59 334.291 11.4538C334.918 11.3118 335.549 11.1993 336.182 11.1165C337.011 11.0099 337.682 10.93 338.197 10.8768C338.718 10.8176 339.097 10.7199 339.334 10.5838C339.576 10.4477 339.698 10.2109 339.698 9.87358V9.80256C339.698 8.92661 339.458 8.24598 338.978 7.76065C338.505 7.27533 337.786 7.03267 336.821 7.03267C335.821 7.03267 335.037 7.25166 334.468 7.68963C333.9 8.1276 333.501 8.59517 333.27 9.09233L331.281 8.3821C331.636 7.5535 332.11 6.90838 332.702 6.44673C333.3 5.97917 333.951 5.65365 334.655 5.47017C335.365 5.28078 336.064 5.18608 336.75 5.18608C337.188 5.18608 337.691 5.23935 338.259 5.34588C338.833 5.4465 339.387 5.6566 339.919 5.97621C340.458 6.29581 340.905 6.77817 341.26 7.4233C341.615 8.06842 341.793 8.93253 341.793 10.0156V19H339.698V17.1534H339.591C339.449 17.4493 339.212 17.766 338.881 18.1033C338.549 18.4407 338.108 18.7277 337.558 18.9645C337.008 19.2012 336.336 19.3196 335.543 19.3196ZM335.862 17.4375C336.691 17.4375 337.389 17.2747 337.957 16.9492C338.532 16.6237 338.964 16.2035 339.254 15.6886C339.55 15.1737 339.698 14.6321 339.698 14.0639V12.1463C339.609 12.2528 339.413 12.3505 339.112 12.4393C338.816 12.5221 338.472 12.5961 338.082 12.6612C337.697 12.7204 337.321 12.7737 336.954 12.821C336.593 12.8625 336.3 12.898 336.075 12.9276C335.531 12.9986 335.022 13.114 334.548 13.2738C334.081 13.4277 333.702 13.6615 333.412 13.9751C333.128 14.2829 332.986 14.7031 332.986 15.2358C332.986 15.9638 333.255 16.5142 333.794 16.8871C334.338 17.254 335.028 17.4375 335.862 17.4375ZM354.175 19.142C353.737 19.142 353.361 18.9852 353.048 18.6715C352.734 18.3578 352.577 17.982 352.577 17.544C352.577 17.1061 352.734 16.7302 353.048 16.4165C353.361 16.1029 353.737 15.946 354.175 15.946C354.613 15.946 354.989 16.1029 355.303 16.4165C355.616 16.7302 355.773 17.1061 355.773 17.544C355.773 17.834 355.699 18.1004 355.551 18.343C355.409 18.5857 355.217 18.781 354.974 18.929C354.737 19.071 354.471 19.142 354.175 19.142ZM354.175 9.02131C353.737 9.02131 353.361 8.86446 353.048 8.55078C352.734 8.2371 352.577 7.86127 352.577 7.4233C352.577 6.98532 352.734 6.60949 353.048 6.29581C353.361 5.98213 353.737 5.82528 354.175 5.82528C354.613 5.82528 354.989 5.98213 355.303 6.29581C355.616 6.60949 355.773 6.98532 355.773 7.4233C355.773 7.7133 355.699 7.97964 355.551 8.2223C355.409 8.46496 355.217 8.66027 354.974 8.80824C354.737 8.95028 354.471 9.02131 354.175 9.02131ZM374.377 10.2287V12.1818H366.422V10.2287H374.377ZM382.324 6.39347C382.964 6.39347 383.55 6.48816 384.082 6.67756C384.621 6.86103 385.106 7.10369 385.538 7.40554C385.976 7.70147 386.361 8.01515 386.692 8.34659C386.905 8.5419 387.101 8.74313 387.278 8.95028C387.462 9.15743 387.633 9.35866 387.793 9.55398C387.935 9.35866 388.086 9.16631 388.246 8.97692C388.406 8.78752 388.61 8.57741 388.859 8.34659C389.356 7.84943 389.968 7.39962 390.696 6.99716C391.43 6.5947 392.285 6.39347 393.262 6.39347C394.162 6.39347 394.978 6.61245 395.712 7.05043C396.452 7.48248 397.038 8.06842 397.47 8.80824C397.908 9.54214 398.127 10.3589 398.127 11.2585C398.127 11.9392 398 12.5784 397.745 13.1761C397.497 13.768 397.15 14.2888 396.707 14.7386C396.263 15.1825 395.745 15.5317 395.153 15.7862C394.567 16.0348 393.937 16.1591 393.262 16.1591C392.611 16.1591 392.013 16.0674 391.469 15.8839C390.93 15.6945 390.442 15.4548 390.004 15.1648C389.572 14.8688 389.19 14.5611 388.859 14.2415C388.646 14.0284 388.45 13.8183 388.273 13.6112C388.095 13.3981 387.935 13.1939 387.793 12.9986C387.633 13.1939 387.462 13.3981 387.278 13.6112C387.101 13.8183 386.905 14.0284 386.692 14.2415C386.361 14.5611 385.976 14.8688 385.538 15.1648C385.106 15.4548 384.621 15.6945 384.082 15.8839C383.55 16.0674 382.964 16.1591 382.324 16.1591C381.413 16.1591 380.587 15.9401 379.848 15.5021C379.108 15.0642 378.519 14.4753 378.081 13.7354C377.643 12.9956 377.424 12.17 377.424 11.2585C377.424 10.5838 377.548 9.95348 377.797 9.36754C378.051 8.77569 378.4 8.25781 378.844 7.81392C379.294 7.37003 379.815 7.02379 380.407 6.77521C381.005 6.52071 381.644 6.39347 382.324 6.39347ZM379.448 11.2585C379.448 11.7912 379.575 12.2765 379.83 12.7145C380.09 13.1465 380.436 13.4928 380.869 13.7532C381.306 14.0077 381.792 14.1349 382.324 14.1349C382.91 14.1349 383.446 14.0018 383.931 13.7354C384.417 13.4691 384.864 13.1406 385.272 12.75C385.538 12.4837 385.772 12.2262 385.973 11.9776C386.175 11.729 386.355 11.4893 386.515 11.2585C386.355 11.0455 386.177 10.8176 385.982 10.5749C385.793 10.3263 385.556 10.0689 385.272 9.80256C384.881 9.41193 384.437 9.08345 383.94 8.81712C383.449 8.55078 382.91 8.41761 382.324 8.41761C381.792 8.41761 381.306 8.54782 380.869 8.80824C380.436 9.06274 380.09 9.40601 379.83 9.83807C379.575 10.2642 379.448 10.7377 379.448 11.2585ZM396.103 11.2585C396.103 10.7377 395.973 10.2642 395.712 9.83807C395.458 9.40601 395.114 9.06274 394.682 8.80824C394.256 8.54782 393.783 8.41761 393.262 8.41761C392.86 8.41761 392.481 8.47976 392.126 8.60405C391.771 8.72242 391.439 8.88814 391.131 9.10121C390.824 9.30836 390.539 9.54214 390.279 9.80256C389.959 10.1044 389.693 10.3974 389.48 10.6815C389.273 10.9596 389.125 11.152 389.036 11.2585C389.196 11.4893 389.376 11.729 389.578 11.9776C389.779 12.2262 390.013 12.4837 390.279 12.75C390.687 13.1406 391.134 13.4691 391.62 13.7354C392.111 14.0018 392.658 14.1349 393.262 14.1349C393.783 14.1349 394.256 14.0077 394.682 13.7532C395.114 13.4928 395.458 13.1465 395.712 12.7145C395.973 12.2765 396.103 11.7912 396.103 11.2585ZM284.731 49V30.8182H286.827V37.5298H287.004C287.158 37.2931 287.371 36.9912 287.643 36.6243C287.922 36.2514 288.318 35.92 288.833 35.63C289.354 35.334 290.058 35.1861 290.946 35.1861C292.094 35.1861 293.106 35.4731 293.982 36.0472C294.858 36.6213 295.542 37.4351 296.033 38.4886C296.524 39.5421 296.77 40.785 296.77 42.2173C296.77 43.6615 296.524 44.9132 296.033 45.9727C295.542 47.0262 294.861 47.8429 293.991 48.4229C293.121 48.997 292.118 49.2841 290.981 49.2841C290.106 49.2841 289.404 49.1391 288.877 48.8491C288.351 48.5531 287.945 48.2187 287.661 47.8459C287.377 47.4671 287.158 47.1534 287.004 46.9048H286.756V49H284.731ZM286.791 42.1818C286.791 43.2116 286.942 44.1201 287.244 44.9073C287.546 45.6886 287.987 46.3011 288.567 46.745C289.147 47.183 289.857 47.402 290.697 47.402C291.573 47.402 292.304 47.1712 292.89 46.7095C293.482 46.242 293.926 45.6146 294.222 44.8274C294.524 44.0343 294.675 43.1525 294.675 42.1818C294.675 41.223 294.527 40.3589 294.231 39.5895C293.941 38.8142 293.5 38.2016 292.908 37.7518C292.322 37.296 291.585 37.0682 290.697 37.0682C289.845 37.0682 289.129 37.2842 288.549 37.7163C287.969 38.1424 287.531 38.7402 287.235 39.5096C286.939 40.2731 286.791 41.1638 286.791 42.1818ZM305.692 49.2841C304.378 49.2841 303.245 48.9941 302.292 48.4141C301.345 47.8281 300.614 47.0114 300.099 45.9638C299.59 44.9103 299.336 43.6851 299.336 42.2884C299.336 40.8916 299.59 39.6605 300.099 38.5952C300.614 37.5239 301.33 36.6894 302.247 36.0916C303.171 35.4879 304.248 35.1861 305.479 35.1861C306.189 35.1861 306.891 35.3045 307.583 35.5412C308.276 35.7779 308.906 36.1626 309.474 36.6953C310.042 37.2221 310.495 37.9205 310.832 38.7905C311.17 39.6605 311.338 40.7318 311.338 42.0043V42.892H300.827V41.081H309.208C309.208 40.3116 309.054 39.625 308.746 39.0213C308.444 38.4176 308.012 37.9412 307.45 37.592C306.894 37.2428 306.237 37.0682 305.479 37.0682C304.644 37.0682 303.922 37.2753 303.313 37.6896C302.709 38.098 302.245 38.6307 301.919 39.2876C301.593 39.9446 301.431 40.6489 301.431 41.4006V42.608C301.431 43.6378 301.608 44.5108 301.963 45.2269C302.324 45.9371 302.825 46.4787 303.464 46.8516C304.103 47.2185 304.846 47.402 305.692 47.402C306.242 47.402 306.74 47.325 307.184 47.1712C307.633 47.0114 308.021 46.7746 308.347 46.4609C308.672 46.1413 308.924 45.7448 309.101 45.2713L311.125 45.8395C310.912 46.526 310.554 47.1297 310.051 47.6506C309.548 48.1655 308.927 48.5679 308.187 48.858C307.447 49.142 306.615 49.2841 305.692 49.2841ZM307.219 33.7301L305.372 31.2443L303.526 33.7301H301.537V33.5881L304.414 29.8949H306.331L309.208 33.5881V33.7301H307.219ZM320.456 35.3636V37.1392H313.389V35.3636H320.456ZM315.449 32.0966H317.544V45.0938C317.544 45.6856 317.63 46.1295 317.801 46.4254C317.979 46.7154 318.204 46.9107 318.476 47.0114C318.754 47.1061 319.047 47.1534 319.355 47.1534C319.586 47.1534 319.775 47.1416 319.923 47.1179C320.071 47.0883 320.19 47.0646 320.278 47.0469L320.705 48.929C320.562 48.9822 320.364 49.0355 320.11 49.0888C319.855 49.148 319.533 49.1776 319.142 49.1776C318.55 49.1776 317.97 49.0503 317.402 48.7958C316.84 48.5413 316.372 48.1536 315.999 47.6328C315.632 47.112 315.449 46.455 315.449 45.6619V32.0966ZM327.62 49.3196C326.756 49.3196 325.972 49.1568 325.268 48.8313C324.563 48.4999 324.004 48.0234 323.59 47.402C323.176 46.7746 322.968 46.017 322.968 45.1293C322.968 44.348 323.122 43.7147 323.43 43.2294C323.738 42.7382 324.149 42.3535 324.664 42.0753C325.179 41.7971 325.747 41.59 326.369 41.4538C326.996 41.3118 327.626 41.1993 328.26 41.1165C329.088 41.0099 329.76 40.93 330.275 40.8768C330.796 40.8176 331.174 40.7199 331.411 40.5838C331.654 40.4477 331.775 40.2109 331.775 39.8736V39.8026C331.775 38.9266 331.535 38.246 331.056 37.7607C330.583 37.2753 329.863 37.0327 328.899 37.0327C327.899 37.0327 327.114 37.2517 326.546 37.6896C325.978 38.1276 325.578 38.5952 325.348 39.0923L323.359 38.3821C323.714 37.5535 324.188 36.9084 324.779 36.4467C325.377 35.9792 326.028 35.6536 326.733 35.4702C327.443 35.2808 328.141 35.1861 328.828 35.1861C329.266 35.1861 329.769 35.2393 330.337 35.3459C330.911 35.4465 331.464 35.6566 331.997 35.9762C332.536 36.2958 332.983 36.7782 333.338 37.4233C333.693 38.0684 333.87 38.9325 333.87 40.0156V49H331.775V47.1534H331.669C331.527 47.4493 331.29 47.766 330.958 48.1033C330.627 48.4407 330.186 48.7277 329.636 48.9645C329.085 49.2012 328.413 49.3196 327.62 49.3196ZM327.94 47.4375C328.769 47.4375 329.467 47.2747 330.035 46.9492C330.609 46.6237 331.041 46.2035 331.331 45.6886C331.627 45.1737 331.775 44.6321 331.775 44.0639V42.1463C331.686 42.2528 331.491 42.3505 331.189 42.4393C330.893 42.5221 330.55 42.5961 330.159 42.6612C329.775 42.7204 329.399 42.7737 329.032 42.821C328.671 42.8625 328.378 42.898 328.153 42.9276C327.609 42.9986 327.1 43.114 326.626 43.2738C326.158 43.4277 325.78 43.6615 325.49 43.9751C325.206 44.2829 325.064 44.7031 325.064 45.2358C325.064 45.9638 325.333 46.5142 325.871 46.8871C326.416 47.254 327.105 47.4375 327.94 47.4375ZM346.253 49.142C345.815 49.142 345.439 48.9852 345.125 48.6715C344.812 48.3578 344.655 47.982 344.655 47.544C344.655 47.1061 344.812 46.7302 345.125 46.4165C345.439 46.1029 345.815 45.946 346.253 45.946C346.691 45.946 347.067 46.1029 347.38 46.4165C347.694 46.7302 347.851 47.1061 347.851 47.544C347.851 47.834 347.777 48.1004 347.629 48.343C347.487 48.5857 347.294 48.781 347.052 48.929C346.815 49.071 346.549 49.142 346.253 49.142ZM346.253 39.0213C345.815 39.0213 345.439 38.8645 345.125 38.5508C344.812 38.2371 344.655 37.8613 344.655 37.4233C344.655 36.9853 344.812 36.6095 345.125 36.2958C345.439 35.9821 345.815 35.8253 346.253 35.8253C346.691 35.8253 347.067 35.9821 347.38 36.2958C347.694 36.6095 347.851 36.9853 347.851 37.4233C347.851 37.7133 347.777 37.9796 347.629 38.2223C347.487 38.465 347.294 38.6603 347.052 38.8082C346.815 38.9503 346.549 39.0213 346.253 39.0213ZM363.968 47.7571V36.0384H365.957V47.7571H363.968ZM359.103 42.892V40.9034H370.822V42.892H359.103ZM379.383 36.3935C380.022 36.3935 380.608 36.4882 381.14 36.6776C381.679 36.861 382.164 37.1037 382.596 37.4055C383.034 37.7015 383.419 38.0152 383.75 38.3466C383.964 38.5419 384.159 38.7431 384.336 38.9503C384.52 39.1574 384.692 39.3587 384.851 39.554C384.993 39.3587 385.144 39.1663 385.304 38.9769C385.464 38.7875 385.668 38.5774 385.917 38.3466C386.414 37.8494 387.026 37.3996 387.754 36.9972C388.488 36.5947 389.344 36.3935 390.32 36.3935C391.22 36.3935 392.036 36.6125 392.77 37.0504C393.51 37.4825 394.096 38.0684 394.528 38.8082C394.966 39.5421 395.185 40.3589 395.185 41.2585C395.185 41.9392 395.058 42.5784 394.803 43.1761C394.555 43.768 394.209 44.2888 393.765 44.7386C393.321 45.1825 392.803 45.5317 392.211 45.7862C391.625 46.0348 390.995 46.1591 390.32 46.1591C389.669 46.1591 389.071 46.0674 388.527 45.8839C387.988 45.6945 387.5 45.4548 387.062 45.1648C386.63 44.8688 386.248 44.5611 385.917 44.2415C385.704 44.0284 385.508 43.8183 385.331 43.6112C385.153 43.3981 384.993 43.1939 384.851 42.9986C384.692 43.1939 384.52 43.3981 384.336 43.6112C384.159 43.8183 383.964 44.0284 383.75 44.2415C383.419 44.5611 383.034 44.8688 382.596 45.1648C382.164 45.4548 381.679 45.6945 381.14 45.8839C380.608 46.0674 380.022 46.1591 379.383 46.1591C378.471 46.1591 377.645 45.9401 376.906 45.5021C376.166 45.0642 375.577 44.4753 375.139 43.7354C374.701 42.9956 374.482 42.17 374.482 41.2585C374.482 40.5838 374.606 39.9535 374.855 39.3675C375.109 38.7757 375.459 38.2578 375.902 37.8139C376.352 37.37 376.873 37.0238 377.465 36.7752C378.063 36.5207 378.702 36.3935 379.383 36.3935ZM376.506 41.2585C376.506 41.7912 376.633 42.2765 376.888 42.7145C377.148 43.1465 377.495 43.4928 377.927 43.7532C378.365 44.0077 378.85 44.1349 379.383 44.1349C379.969 44.1349 380.504 44.0018 380.989 43.7354C381.475 43.4691 381.922 43.1406 382.33 42.75C382.596 42.4837 382.83 42.2262 383.031 41.9776C383.233 41.729 383.413 41.4893 383.573 41.2585C383.413 41.0455 383.236 40.8176 383.04 40.5749C382.851 40.3263 382.614 40.0689 382.33 39.8026C381.939 39.4119 381.496 39.0835 380.998 38.8171C380.507 38.5508 379.969 38.4176 379.383 38.4176C378.85 38.4176 378.365 38.5478 377.927 38.8082C377.495 39.0627 377.148 39.406 376.888 39.8381C376.633 40.2642 376.506 40.7377 376.506 41.2585ZM393.161 41.2585C393.161 40.7377 393.031 40.2642 392.77 39.8381C392.516 39.406 392.173 39.0627 391.741 38.8082C391.314 38.5478 390.841 38.4176 390.32 38.4176C389.918 38.4176 389.539 38.4798 389.184 38.604C388.829 38.7224 388.497 38.8881 388.189 39.1012C387.882 39.3084 387.598 39.5421 387.337 39.8026C387.018 40.1044 386.751 40.3974 386.538 40.6815C386.331 40.9596 386.183 41.152 386.094 41.2585C386.254 41.4893 386.435 41.729 386.636 41.9776C386.837 42.2262 387.071 42.4837 387.337 42.75C387.746 43.1406 388.192 43.4691 388.678 43.7354C389.169 44.0018 389.716 44.1349 390.32 44.1349C390.841 44.1349 391.314 44.0077 391.741 43.7532C392.173 43.4928 392.516 43.1465 392.77 42.7145C393.031 42.2765 393.161 41.7912 393.161 41.2585Z" fill="black"/>
<path d="M12.2781 311.32C11.4139 311.32 10.6297 311.157 9.92543 310.831C9.22112 310.5 8.66181 310.023 8.24751 309.402C7.83322 308.775 7.62607 308.017 7.62607 307.129C7.62607 306.348 7.77995 305.715 8.08771 305.229C8.39548 304.738 8.80682 304.353 9.32173 304.075C9.83665 303.797 10.4048 303.59 11.0263 303.454C11.6536 303.312 12.284 303.199 12.9173 303.116C13.7459 303.01 14.4176 302.93 14.9325 302.877C15.4534 302.818 15.8321 302.72 16.0689 302.584C16.3116 302.448 16.4329 302.211 16.4329 301.874V301.803C16.4329 300.927 16.1932 300.246 15.7138 299.761C15.2403 299.275 14.5212 299.033 13.5565 299.033C12.5562 299.033 11.772 299.252 11.2038 299.69C10.6357 300.128 10.2362 300.595 10.0053 301.092L8.01669 300.382C8.3718 299.554 8.84529 298.908 9.43714 298.447C10.0349 297.979 10.686 297.654 11.3903 297.47C12.1005 297.281 12.7989 297.186 13.4854 297.186C13.9234 297.186 14.4265 297.239 14.9947 297.346C15.5688 297.446 16.1222 297.657 16.6548 297.976C17.1934 298.296 17.6403 298.778 17.9954 299.423C18.3505 300.068 18.5281 300.933 18.5281 302.016V311H16.4329V309.153H16.3263C16.1843 309.449 15.9476 309.766 15.6161 310.103C15.2847 310.441 14.8438 310.728 14.2933 310.964C13.7429 311.201 13.0711 311.32 12.2781 311.32ZM12.5977 309.438C13.4263 309.438 14.1246 309.275 14.6928 308.949C15.2669 308.624 15.699 308.203 15.989 307.689C16.2849 307.174 16.4329 306.632 16.4329 306.064V304.146C16.3441 304.253 16.1488 304.35 15.8469 304.439C15.551 304.522 15.2077 304.596 14.8171 304.661C14.4324 304.72 14.0566 304.774 13.6896 304.821C13.3286 304.862 13.0356 304.898 12.8107 304.928C12.2662 304.999 11.7572 305.114 11.2837 305.274C10.8162 305.428 10.4374 305.661 10.1474 305.975C9.86328 306.283 9.72124 306.703 9.72124 307.236C9.72124 307.964 9.99053 308.514 10.5291 308.887C11.0736 309.254 11.7631 309.438 12.5977 309.438ZM24.4474 292.818V311H22.3522V292.818H24.4474ZM28.2848 316.114V297.364H30.3089V299.53H30.5575C30.7114 299.293 30.9245 298.991 31.1967 298.624C31.4749 298.251 31.8714 297.92 32.3864 297.63C32.9072 297.334 33.6115 297.186 34.4993 297.186C35.6475 297.186 36.6596 297.473 37.5355 298.047C38.4115 298.621 39.0951 299.435 39.5863 300.489C40.0775 301.542 40.3232 302.785 40.3232 304.217C40.3232 305.661 40.0775 306.913 39.5863 307.973C39.0951 309.026 38.4144 309.843 37.5444 310.423C36.6744 310.997 35.6712 311.284 34.5348 311.284C33.6589 311.284 32.9575 311.139 32.4308 310.849C31.904 310.553 31.4986 310.219 31.2145 309.846C30.9304 309.467 30.7114 309.153 30.5575 308.905H30.38V316.114H28.2848ZM30.3445 304.182C30.3445 305.212 30.4954 306.12 30.7972 306.907C31.0991 307.689 31.54 308.301 32.12 308.745C32.7 309.183 33.4103 309.402 34.2507 309.402C35.1267 309.402 35.8576 309.171 36.4435 308.71C37.0354 308.242 37.4793 307.615 37.7752 306.827C38.0771 306.034 38.228 305.152 38.228 304.182C38.228 303.223 38.08 302.359 37.7841 301.589C37.4941 300.814 37.0531 300.202 36.4613 299.752C35.8754 299.296 35.1385 299.068 34.2507 299.068C33.3984 299.068 32.6823 299.284 32.1023 299.716C31.5223 300.142 31.0843 300.74 30.7884 301.51C30.4924 302.273 30.3445 303.164 30.3445 304.182ZM45.6143 302.797V311H43.5192V292.818H45.6143V299.494H45.7919C46.1115 298.79 46.5909 298.231 47.2301 297.816C47.8752 297.396 48.7334 297.186 49.8047 297.186C50.7339 297.186 51.5477 297.373 52.2461 297.745C52.9445 298.112 53.486 298.678 53.8707 299.441C54.2614 300.199 54.4567 301.163 54.4567 302.335V311H52.3615V302.477C52.3615 301.394 52.0804 300.557 51.5181 299.965C50.9618 299.367 50.1894 299.068 49.201 299.068C48.5144 299.068 47.8989 299.213 47.3544 299.503C46.8158 299.793 46.3897 300.216 46.076 300.773C45.7682 301.329 45.6143 302.004 45.6143 302.797ZM62.3025 311.32C61.4384 311.32 60.6541 311.157 59.9498 310.831C59.2455 310.5 58.6862 310.023 58.2719 309.402C57.8576 308.775 57.6505 308.017 57.6505 307.129C57.6505 306.348 57.8044 305.715 58.1121 305.229C58.4199 304.738 58.8312 304.353 59.3461 304.075C59.8611 303.797 60.4292 303.59 61.0507 303.454C61.6781 303.312 62.3084 303.199 62.9417 303.116C63.7703 303.01 64.442 302.93 64.9569 302.877C65.4778 302.818 65.8566 302.72 66.0933 302.584C66.336 302.448 66.4573 302.211 66.4573 301.874V301.803C66.4573 300.927 66.2176 300.246 65.7382 299.761C65.2647 299.275 64.5456 299.033 63.5809 299.033C62.5806 299.033 61.7964 299.252 61.2282 299.69C60.6601 300.128 60.2606 300.595 60.0297 301.092L58.0411 300.382C58.3962 299.554 58.8697 298.908 59.4616 298.447C60.0593 297.979 60.7104 297.654 61.4147 297.47C62.1249 297.281 62.8233 297.186 63.5099 297.186C63.9478 297.186 64.4509 297.239 65.0191 297.346C65.5932 297.446 66.1466 297.657 66.6792 297.976C67.2178 298.296 67.6647 298.778 68.0198 299.423C68.3749 300.068 68.5525 300.933 68.5525 302.016V311H66.4573V309.153H66.3508C66.2087 309.449 65.972 309.766 65.6405 310.103C65.3091 310.441 64.8682 310.728 64.3177 310.964C63.7673 311.201 63.0956 311.32 62.3025 311.32ZM62.6221 309.438C63.4507 309.438 64.1491 309.275 64.7172 308.949C65.2913 308.624 65.7234 308.203 66.0134 307.689C66.3093 307.174 66.4573 306.632 66.4573 306.064V304.146C66.3685 304.253 66.1732 304.35 65.8714 304.439C65.5754 304.522 65.2322 304.596 64.8415 304.661C64.4568 304.72 64.081 304.774 63.714 304.821C63.353 304.862 63.06 304.898 62.8351 304.928C62.2906 304.999 61.7816 305.114 61.3081 305.274C60.8406 305.428 60.4618 305.661 60.1718 305.975C59.8877 306.283 59.7456 306.703 59.7456 307.236C59.7456 307.964 60.0149 308.514 60.5535 308.887C61.098 309.254 61.7876 309.438 62.6221 309.438ZM80.9348 308.674C80.4969 308.674 80.121 308.517 79.8074 308.203C79.4937 307.89 79.3368 307.514 79.3368 307.076C79.3368 306.638 79.4937 306.262 79.8074 305.949C80.121 305.635 80.4969 305.478 80.9348 305.478C81.3728 305.478 81.7486 305.635 82.0623 305.949C82.376 306.262 82.5328 306.638 82.5328 307.076C82.5328 307.366 82.4589 307.632 82.3109 307.875C82.1689 308.118 81.9765 308.313 81.7338 308.461C81.4971 308.603 81.2308 308.674 80.9348 308.674ZM80.9348 299.477C80.4969 299.477 80.121 299.32 79.8074 299.006C79.4937 298.692 79.3368 298.317 79.3368 297.879C79.3368 297.441 79.4937 297.065 79.8074 296.751C80.121 296.437 80.4969 296.281 80.9348 296.281C81.3728 296.281 81.7486 296.437 82.0623 296.751C82.376 297.065 82.5328 297.441 82.5328 297.879C82.5328 298.169 82.4589 298.435 82.3109 298.678C82.1689 298.92 81.9765 299.116 81.7338 299.263C81.4971 299.406 81.2308 299.477 80.9348 299.477ZM99.6804 292.818V311H97.4787V295.126H97.3722L92.9332 298.074V295.837L97.4787 292.818H99.6804ZM110.84 311.249C109.502 311.249 108.363 310.885 107.422 310.157C106.481 309.423 105.762 308.36 105.265 306.969C104.767 305.573 104.519 303.886 104.519 301.909C104.519 299.944 104.767 298.266 105.265 296.875C105.768 295.479 106.49 294.413 107.431 293.679C108.378 292.94 109.514 292.57 110.84 292.57C112.166 292.57 113.299 292.94 114.24 293.679C115.187 294.413 115.909 295.479 116.406 296.875C116.909 298.266 117.161 299.944 117.161 301.909C117.161 303.886 116.912 305.573 116.415 306.969C115.918 308.36 115.199 309.423 114.258 310.157C113.317 310.885 112.177 311.249 110.84 311.249ZM110.84 309.295C112.166 309.295 113.195 308.656 113.929 307.378C114.663 306.099 115.03 304.277 115.03 301.909C115.03 300.335 114.862 298.994 114.524 297.887C114.193 296.781 113.713 295.937 113.086 295.357C112.464 294.777 111.716 294.487 110.84 294.487C109.526 294.487 108.499 295.135 107.759 296.431C107.019 297.722 106.65 299.548 106.65 301.909C106.65 303.483 106.815 304.821 107.147 305.922C107.478 307.023 107.955 307.86 108.576 308.434C109.203 309.008 109.958 309.295 110.84 309.295ZM7.73149 341V322.818H9.82666V329.53H10.0042C10.1581 329.293 10.3712 328.991 10.6434 328.624C10.9216 328.251 11.3181 327.92 11.8331 327.63C12.3539 327.334 13.0582 327.186 13.946 327.186C15.0942 327.186 16.1063 327.473 16.9822 328.047C17.8581 328.621 18.5417 329.435 19.033 330.489C19.5242 331.542 19.7698 332.785 19.7698 334.217C19.7698 335.661 19.5242 336.913 19.033 337.973C18.5417 339.026 17.8611 339.843 16.9911 340.423C16.121 340.997 15.1179 341.284 13.9815 341.284C13.1055 341.284 12.4042 341.139 11.8774 340.849C11.3507 340.553 10.9453 340.219 10.6612 339.846C10.3771 339.467 10.1581 339.153 10.0042 338.905H9.75564V341H7.73149ZM9.79115 334.182C9.79115 335.212 9.94207 336.12 10.2439 336.907C10.5458 337.689 10.9867 338.301 11.5667 338.745C12.1467 339.183 12.857 339.402 13.6974 339.402C14.5733 339.402 15.3043 339.171 15.8902 338.71C16.4821 338.242 16.926 337.615 17.2219 336.827C17.5237 336.034 17.6747 335.152 17.6747 334.182C17.6747 333.223 17.5267 332.359 17.2308 331.589C16.9408 330.814 16.4998 330.202 15.908 329.752C15.322 329.296 14.5852 329.068 13.6974 329.068C12.8451 329.068 12.129 329.284 11.549 329.716C10.9689 330.142 10.531 330.74 10.235 331.51C9.93911 332.273 9.79115 333.164 9.79115 334.182ZM28.6921 341.284C27.3782 341.284 26.2447 340.994 25.2919 340.414C24.3449 339.828 23.6139 339.011 23.099 337.964C22.59 336.91 22.3355 335.685 22.3355 334.288C22.3355 332.892 22.59 331.661 23.099 330.595C23.6139 329.524 24.3301 328.689 25.2475 328.092C26.1708 327.488 27.2479 327.186 28.479 327.186C29.1892 327.186 29.8906 327.304 30.5831 327.541C31.2755 327.778 31.9059 328.163 32.474 328.695C33.0422 329.222 33.495 329.92 33.8323 330.79C34.1697 331.661 34.3384 332.732 34.3384 334.004V334.892H23.827V333.081H32.2077C32.2077 332.312 32.0538 331.625 31.746 331.021C31.4442 330.418 31.0121 329.941 30.4499 329.592C29.8935 329.243 29.2366 329.068 28.479 329.068C27.6445 329.068 26.9224 329.275 26.3128 329.69C25.7091 330.098 25.2445 330.631 24.919 331.288C24.5935 331.945 24.4307 332.649 24.4307 333.401V334.608C24.4307 335.638 24.6083 336.511 24.9634 337.227C25.3244 337.937 25.8245 338.479 26.4637 338.852C27.1029 339.219 27.8457 339.402 28.6921 339.402C29.2425 339.402 29.7397 339.325 30.1835 339.171C30.6334 339.011 31.021 338.775 31.3465 338.461C31.6721 338.141 31.9236 337.745 32.1012 337.271L34.1253 337.839C33.9122 338.526 33.5542 339.13 33.0511 339.651C32.548 340.165 31.9266 340.568 31.1867 340.858C30.4469 341.142 29.6154 341.284 28.6921 341.284ZM30.2191 325.73L28.3725 323.244L26.5259 325.73H24.5372V325.588L27.4137 321.895H29.3313L32.2077 325.588V325.73H30.2191ZM43.4559 327.364V329.139H36.3892V327.364H43.4559ZM38.4488 324.097H40.544V337.094C40.544 337.686 40.6298 338.129 40.8014 338.425C40.979 338.715 41.2039 338.911 41.4762 339.011C41.7543 339.106 42.0473 339.153 42.3551 339.153C42.5859 339.153 42.7753 339.142 42.9233 339.118C43.0712 339.088 43.1896 339.065 43.2784 339.047L43.7045 340.929C43.5625 340.982 43.3642 341.036 43.1097 341.089C42.8552 341.148 42.5326 341.178 42.142 341.178C41.5501 341.178 40.9701 341.05 40.4019 340.796C39.8397 340.541 39.3721 340.154 38.9992 339.633C38.6323 339.112 38.4488 338.455 38.4488 337.662V324.097ZM50.6203 341.32C49.7562 341.32 48.972 341.157 48.2677 340.831C47.5634 340.5 47.0041 340.023 46.5898 339.402C46.1755 338.775 45.9684 338.017 45.9684 337.129C45.9684 336.348 46.1222 335.715 46.43 335.229C46.7378 334.738 47.1491 334.353 47.664 334.075C48.1789 333.797 48.7471 333.59 49.3686 333.454C49.9959 333.312 50.6263 333.199 51.2595 333.116C52.0881 333.01 52.7599 332.93 53.2748 332.877C53.7956 332.818 54.1744 332.72 54.4112 332.584C54.6538 332.448 54.7752 332.211 54.7752 331.874V331.803C54.7752 330.927 54.5355 330.246 54.0561 329.761C53.5826 329.275 52.8635 329.033 51.8987 329.033C50.8985 329.033 50.1143 329.252 49.5461 329.69C48.9779 330.128 48.5784 330.595 48.3476 331.092L46.359 330.382C46.7141 329.554 47.1876 328.908 47.7794 328.447C48.3772 327.979 49.0282 327.654 49.7326 327.47C50.4428 327.281 51.1412 327.186 51.8277 327.186C52.2657 327.186 52.7688 327.239 53.337 327.346C53.9111 327.446 54.4644 327.657 54.9971 327.976C55.5357 328.296 55.9826 328.778 56.3377 329.423C56.6928 330.068 56.8703 330.933 56.8703 332.016V341H54.7752V339.153H54.6686C54.5266 339.449 54.2898 339.766 53.9584 340.103C53.627 340.441 53.186 340.728 52.6356 340.964C52.0852 341.201 51.4134 341.32 50.6203 341.32ZM50.9399 339.438C51.7685 339.438 52.4669 339.275 53.0351 338.949C53.6092 338.624 54.0413 338.203 54.3313 337.689C54.6272 337.174 54.7752 336.632 54.7752 336.064V334.146C54.6864 334.253 54.4911 334.35 54.1892 334.439C53.8933 334.522 53.55 334.596 53.1594 334.661C52.7747 334.72 52.3989 334.774 52.0319 334.821C51.6709 334.862 51.3779 334.898 51.153 334.928C50.6085 334.999 50.0995 335.114 49.626 335.274C49.1585 335.428 48.7797 335.661 48.4897 335.975C48.2056 336.283 48.0635 336.703 48.0635 337.236C48.0635 337.964 48.3328 338.514 48.8714 338.887C49.4159 339.254 50.1054 339.438 50.9399 339.438ZM69.2527 341.142C68.8147 341.142 68.4389 340.985 68.1252 340.672C67.8115 340.358 67.6547 339.982 67.6547 339.544C67.6547 339.106 67.8115 338.73 68.1252 338.417C68.4389 338.103 68.8147 337.946 69.2527 337.946C69.6907 337.946 70.0665 338.103 70.3802 338.417C70.6939 338.73 70.8507 339.106 70.8507 339.544C70.8507 339.834 70.7767 340.1 70.6288 340.343C70.4867 340.586 70.2944 340.781 70.0517 340.929C69.815 341.071 69.5486 341.142 69.2527 341.142ZM69.2527 331.021C68.8147 331.021 68.4389 330.864 68.1252 330.551C67.8115 330.237 67.6547 329.861 67.6547 329.423C67.6547 328.985 67.8115 328.609 68.1252 328.296C68.4389 327.982 68.8147 327.825 69.2527 327.825C69.6907 327.825 70.0665 327.982 70.3802 328.296C70.6939 328.609 70.8507 328.985 70.8507 329.423C70.8507 329.713 70.7767 329.98 70.6288 330.222C70.4867 330.465 70.2944 330.66 70.0517 330.808C69.815 330.95 69.5486 331.021 69.2527 331.021ZM86.9684 339.757V328.038H88.9571V339.757H86.9684ZM82.1034 334.892V332.903H93.8221V334.892H82.1034ZM102.383 328.393C103.022 328.393 103.608 328.488 104.14 328.678C104.679 328.861 105.164 329.104 105.596 329.406C106.034 329.701 106.419 330.015 106.75 330.347C106.964 330.542 107.159 330.743 107.336 330.95C107.52 331.157 107.692 331.359 107.851 331.554C107.993 331.359 108.144 331.166 108.304 330.977C108.464 330.788 108.668 330.577 108.917 330.347C109.414 329.849 110.026 329.4 110.754 328.997C111.488 328.595 112.344 328.393 113.32 328.393C114.22 328.393 115.036 328.612 115.77 329.05C116.51 329.482 117.096 330.068 117.528 330.808C117.966 331.542 118.185 332.359 118.185 333.259C118.185 333.939 118.058 334.578 117.803 335.176C117.555 335.768 117.209 336.289 116.765 336.739C116.321 337.183 115.803 337.532 115.211 337.786C114.625 338.035 113.995 338.159 113.32 338.159C112.669 338.159 112.071 338.067 111.527 337.884C110.988 337.694 110.5 337.455 110.062 337.165C109.63 336.869 109.248 336.561 108.917 336.241C108.704 336.028 108.508 335.818 108.331 335.611C108.153 335.398 107.993 335.194 107.851 334.999C107.692 335.194 107.52 335.398 107.336 335.611C107.159 335.818 106.964 336.028 106.75 336.241C106.419 336.561 106.034 336.869 105.596 337.165C105.164 337.455 104.679 337.694 104.14 337.884C103.608 338.067 103.022 338.159 102.383 338.159C101.471 338.159 100.645 337.94 99.9057 337.502C99.1659 337.064 98.577 336.475 98.139 335.735C97.701 334.996 97.482 334.17 97.482 333.259C97.482 332.584 97.6063 331.953 97.8549 331.368C98.1094 330.776 98.4586 330.258 98.9025 329.814C99.3523 329.37 99.8731 329.024 100.465 328.775C101.063 328.521 101.702 328.393 102.383 328.393ZM99.5062 333.259C99.5062 333.791 99.6334 334.277 99.8879 334.714C100.148 335.147 100.495 335.493 100.927 335.753C101.365 336.008 101.85 336.135 102.383 336.135C102.969 336.135 103.504 336.002 103.989 335.735C104.475 335.469 104.922 335.141 105.33 334.75C105.596 334.484 105.83 334.226 106.031 333.978C106.233 333.729 106.413 333.489 106.573 333.259C106.413 333.045 106.236 332.818 106.04 332.575C105.851 332.326 105.614 332.069 105.33 331.803C104.939 331.412 104.496 331.083 103.998 330.817C103.507 330.551 102.969 330.418 102.383 330.418C101.85 330.418 101.365 330.548 100.927 330.808C100.495 331.063 100.148 331.406 99.8879 331.838C99.6334 332.264 99.5062 332.738 99.5062 333.259ZM116.161 333.259C116.161 332.738 116.031 332.264 115.77 331.838C115.516 331.406 115.173 331.063 114.741 330.808C114.314 330.548 113.841 330.418 113.32 330.418C112.918 330.418 112.539 330.48 112.184 330.604C111.829 330.722 111.497 330.888 111.189 331.101C110.882 331.308 110.598 331.542 110.337 331.803C110.018 332.104 109.751 332.397 109.538 332.681C109.331 332.96 109.183 333.152 109.094 333.259C109.254 333.489 109.435 333.729 109.636 333.978C109.837 334.226 110.071 334.484 110.337 334.75C110.746 335.141 111.192 335.469 111.678 335.735C112.169 336.002 112.716 336.135 113.32 336.135C113.841 336.135 114.314 336.008 114.741 335.753C115.173 335.493 115.516 335.147 115.77 334.714C116.031 334.277 116.161 333.791 116.161 333.259Z" fill="black"/>
<path d="M97.5183 183.32C96.6542 183.32 95.87 183.157 95.1657 182.831C94.4614 182.5 93.902 182.023 93.4877 181.402C93.0734 180.775 92.8663 180.017 92.8663 179.129C92.8663 178.348 93.0202 177.715 93.3279 177.229C93.6357 176.738 94.0471 176.353 94.562 176.075C95.0769 175.797 95.6451 175.59 96.2665 175.454C96.8939 175.312 97.5242 175.199 98.1575 175.116C98.9861 175.01 99.6578 174.93 100.173 174.877C100.694 174.818 101.072 174.72 101.309 174.584C101.552 174.448 101.673 174.211 101.673 173.874V173.803C101.673 172.927 101.433 172.246 100.954 171.761C100.481 171.275 99.7614 171.033 98.7967 171.033C97.7965 171.033 97.0123 171.252 96.4441 171.69C95.8759 172.128 95.4764 172.595 95.2456 173.092L93.2569 172.382C93.612 171.554 94.0855 170.908 94.6774 170.447C95.2752 169.979 95.9262 169.654 96.6305 169.47C97.3407 169.281 98.0391 169.186 98.7257 169.186C99.1636 169.186 99.6667 169.239 100.235 169.346C100.809 169.446 101.362 169.657 101.895 169.976C102.434 170.296 102.881 170.778 103.236 171.423C103.591 172.068 103.768 172.933 103.768 174.016V183H101.673V181.153H101.567C101.425 181.449 101.188 181.766 100.856 182.103C100.525 182.441 100.084 182.728 99.5336 182.964C98.9831 183.201 98.3114 183.32 97.5183 183.32ZM97.8379 181.438C98.6665 181.438 99.3649 181.275 99.9331 180.949C100.507 180.624 100.939 180.203 101.229 179.689C101.525 179.174 101.673 178.632 101.673 178.064V176.146C101.584 176.253 101.389 176.35 101.087 176.439C100.791 176.522 100.448 176.596 100.057 176.661C99.6726 176.72 99.2968 176.774 98.9299 176.821C98.5688 176.862 98.2759 176.898 98.051 176.928C97.5065 176.999 96.9975 177.114 96.524 177.274C96.0564 177.428 95.6776 177.661 95.3876 177.975C95.1035 178.283 94.9615 178.703 94.9615 179.236C94.9615 179.964 95.2308 180.514 95.7694 180.887C96.3139 181.254 97.0034 181.438 97.8379 181.438ZM109.688 164.818V183H107.592V164.818H109.688ZM113.525 188.114V169.364H115.549V171.53H115.798C115.952 171.293 116.165 170.991 116.437 170.624C116.715 170.251 117.112 169.92 117.627 169.63C118.147 169.334 118.852 169.186 119.74 169.186C120.888 169.186 121.9 169.473 122.776 170.047C123.652 170.621 124.335 171.435 124.827 172.489C125.318 173.542 125.563 174.785 125.563 176.217C125.563 177.661 125.318 178.913 124.827 179.973C124.335 181.026 123.655 181.843 122.785 182.423C121.915 182.997 120.911 183.284 119.775 183.284C118.899 183.284 118.198 183.139 117.671 182.849C117.144 182.553 116.739 182.219 116.455 181.846C116.171 181.467 115.952 181.153 115.798 180.905H115.62V188.114H113.525ZM115.585 176.182C115.585 177.212 115.736 178.12 116.037 178.907C116.339 179.689 116.78 180.301 117.36 180.745C117.94 181.183 118.651 181.402 119.491 181.402C120.367 181.402 121.098 181.171 121.684 180.71C122.276 180.242 122.72 179.615 123.015 178.827C123.317 178.034 123.468 177.152 123.468 176.182C123.468 175.223 123.32 174.359 123.024 173.589C122.734 172.814 122.293 172.202 121.702 171.752C121.116 171.296 120.379 171.068 119.491 171.068C118.639 171.068 117.923 171.284 117.343 171.716C116.762 172.142 116.325 172.74 116.029 173.51C115.733 174.273 115.585 175.164 115.585 176.182ZM130.855 174.797V183H128.759V164.818H130.855V171.494H131.032C131.352 170.79 131.831 170.231 132.47 169.816C133.115 169.396 133.974 169.186 135.045 169.186C135.974 169.186 136.788 169.373 137.486 169.745C138.185 170.112 138.726 170.678 139.111 171.441C139.502 172.199 139.697 173.163 139.697 174.335V183H137.602V174.477C137.602 173.394 137.321 172.557 136.758 171.965C136.202 171.367 135.43 171.068 134.441 171.068C133.755 171.068 133.139 171.213 132.595 171.503C132.056 171.793 131.63 172.216 131.316 172.773C131.008 173.329 130.855 174.004 130.855 174.797ZM147.543 183.32C146.679 183.32 145.894 183.157 145.19 182.831C144.486 182.5 143.926 182.023 143.512 181.402C143.098 180.775 142.891 180.017 142.891 179.129C142.891 178.348 143.045 177.715 143.352 177.229C143.66 176.738 144.071 176.353 144.586 176.075C145.101 175.797 145.669 175.59 146.291 175.454C146.918 175.312 147.549 175.199 148.182 175.116C149.011 175.01 149.682 174.93 150.197 174.877C150.718 174.818 151.097 174.72 151.334 174.584C151.576 174.448 151.698 174.211 151.698 173.874V173.803C151.698 172.927 151.458 172.246 150.978 171.761C150.505 171.275 149.786 171.033 148.821 171.033C147.821 171.033 147.037 171.252 146.468 171.69C145.9 172.128 145.501 172.595 145.27 173.092L143.281 172.382C143.636 171.554 144.11 170.908 144.702 170.447C145.3 169.979 145.951 169.654 146.655 169.47C147.365 169.281 148.064 169.186 148.75 169.186C149.188 169.186 149.691 169.239 150.259 169.346C150.833 169.446 151.387 169.657 151.919 169.976C152.458 170.296 152.905 170.778 153.26 171.423C153.615 172.068 153.793 172.933 153.793 174.016V183H151.698V181.153H151.591C151.449 181.449 151.212 181.766 150.881 182.103C150.549 182.441 150.108 182.728 149.558 182.964C149.008 183.201 148.336 183.32 147.543 183.32ZM147.862 181.438C148.691 181.438 149.389 181.275 149.957 180.949C150.532 180.624 150.964 180.203 151.254 179.689C151.55 179.174 151.698 178.632 151.698 178.064V176.146C151.609 176.253 151.413 176.35 151.112 176.439C150.816 176.522 150.472 176.596 150.082 176.661C149.697 176.72 149.321 176.774 148.954 176.821C148.593 176.862 148.3 176.898 148.075 176.928C147.531 176.999 147.022 177.114 146.548 177.274C146.081 177.428 145.702 177.661 145.412 177.975C145.128 178.283 144.986 178.703 144.986 179.236C144.986 179.964 145.255 180.514 145.794 180.887C146.338 181.254 147.028 181.438 147.862 181.438ZM166.175 183.142C165.737 183.142 165.361 182.985 165.048 182.672C164.734 182.358 164.577 181.982 164.577 181.544C164.577 181.106 164.734 180.73 165.048 180.417C165.361 180.103 165.737 179.946 166.175 179.946C166.613 179.946 166.989 180.103 167.303 180.417C167.616 180.73 167.773 181.106 167.773 181.544C167.773 181.834 167.699 182.1 167.551 182.343C167.409 182.586 167.217 182.781 166.974 182.929C166.737 183.071 166.471 183.142 166.175 183.142ZM166.175 173.021C165.737 173.021 165.361 172.864 165.048 172.551C164.734 172.237 164.577 171.861 164.577 171.423C164.577 170.985 164.734 170.609 165.048 170.296C165.361 169.982 165.737 169.825 166.175 169.825C166.613 169.825 166.989 169.982 167.303 170.296C167.616 170.609 167.773 170.985 167.773 171.423C167.773 171.713 167.699 171.98 167.551 172.222C167.409 172.465 167.217 172.66 166.974 172.808C166.737 172.95 166.471 173.021 166.175 173.021ZM186.377 174.229V176.182H178.422V174.229H186.377ZM194.324 170.393C194.964 170.393 195.55 170.488 196.082 170.678C196.621 170.861 197.106 171.104 197.538 171.406C197.976 171.701 198.361 172.015 198.692 172.347C198.905 172.542 199.101 172.743 199.278 172.95C199.462 173.157 199.633 173.359 199.793 173.554C199.935 173.359 200.086 173.166 200.246 172.977C200.406 172.788 200.61 172.577 200.859 172.347C201.356 171.849 201.968 171.4 202.696 170.997C203.43 170.595 204.285 170.393 205.262 170.393C206.162 170.393 206.978 170.612 207.712 171.05C208.452 171.482 209.038 172.068 209.47 172.808C209.908 173.542 210.127 174.359 210.127 175.259C210.127 175.939 210 176.578 209.745 177.176C209.497 177.768 209.15 178.289 208.707 178.739C208.263 179.183 207.745 179.532 207.153 179.786C206.567 180.035 205.937 180.159 205.262 180.159C204.611 180.159 204.013 180.067 203.469 179.884C202.93 179.694 202.442 179.455 202.004 179.165C201.572 178.869 201.19 178.561 200.859 178.241C200.646 178.028 200.45 177.818 200.273 177.611C200.095 177.398 199.935 177.194 199.793 176.999C199.633 177.194 199.462 177.398 199.278 177.611C199.101 177.818 198.905 178.028 198.692 178.241C198.361 178.561 197.976 178.869 197.538 179.165C197.106 179.455 196.621 179.694 196.082 179.884C195.55 180.067 194.964 180.159 194.324 180.159C193.413 180.159 192.587 179.94 191.848 179.502C191.108 179.064 190.519 178.475 190.081 177.735C189.643 176.996 189.424 176.17 189.424 175.259C189.424 174.584 189.548 173.953 189.797 173.368C190.051 172.776 190.4 172.258 190.844 171.814C191.294 171.37 191.815 171.024 192.407 170.775C193.005 170.521 193.644 170.393 194.324 170.393ZM191.448 175.259C191.448 175.791 191.575 176.277 191.83 176.714C192.09 177.147 192.436 177.493 192.869 177.753C193.306 178.008 193.792 178.135 194.324 178.135C194.91 178.135 195.446 178.002 195.931 177.735C196.417 177.469 196.864 177.141 197.272 176.75C197.538 176.484 197.772 176.226 197.973 175.978C198.175 175.729 198.355 175.489 198.515 175.259C198.355 175.045 198.177 174.818 197.982 174.575C197.793 174.326 197.556 174.069 197.272 173.803C196.881 173.412 196.437 173.083 195.94 172.817C195.449 172.551 194.91 172.418 194.324 172.418C193.792 172.418 193.306 172.548 192.869 172.808C192.436 173.063 192.09 173.406 191.83 173.838C191.575 174.264 191.448 174.738 191.448 175.259ZM208.103 175.259C208.103 174.738 207.973 174.264 207.712 173.838C207.458 173.406 207.114 173.063 206.682 172.808C206.256 172.548 205.783 172.418 205.262 172.418C204.86 172.418 204.481 172.48 204.126 172.604C203.771 172.722 203.439 172.888 203.131 173.101C202.824 173.308 202.539 173.542 202.279 173.803C201.959 174.104 201.693 174.397 201.48 174.681C201.273 174.96 201.125 175.152 201.036 175.259C201.196 175.489 201.376 175.729 201.578 175.978C201.779 176.226 202.013 176.484 202.279 176.75C202.687 177.141 203.134 177.469 203.62 177.735C204.111 178.002 204.658 178.135 205.262 178.135C205.783 178.135 206.256 178.008 206.682 177.753C207.114 177.493 207.458 177.147 207.712 176.714C207.973 176.277 208.103 175.791 208.103 175.259ZM102.981 213V194.818H105.077V201.53H105.254C105.408 201.293 105.621 200.991 105.893 200.624C106.172 200.251 106.568 199.92 107.083 199.63C107.604 199.334 108.308 199.186 109.196 199.186C110.344 199.186 111.356 199.473 112.232 200.047C113.108 200.621 113.792 201.435 114.283 202.489C114.774 203.542 115.02 204.785 115.02 206.217C115.02 207.661 114.774 208.913 114.283 209.973C113.792 211.026 113.111 211.843 112.241 212.423C111.371 212.997 110.368 213.284 109.231 213.284C108.356 213.284 107.654 213.139 107.127 212.849C106.601 212.553 106.195 212.219 105.911 211.846C105.627 211.467 105.408 211.153 105.254 210.905H105.006V213H102.981ZM105.041 206.182C105.041 207.212 105.192 208.12 105.494 208.907C105.796 209.689 106.237 210.301 106.817 210.745C107.397 211.183 108.107 211.402 108.947 211.402C109.823 211.402 110.554 211.171 111.14 210.71C111.732 210.242 112.176 209.615 112.472 208.827C112.774 208.034 112.925 207.152 112.925 206.182C112.925 205.223 112.777 204.359 112.481 203.589C112.191 202.814 111.75 202.202 111.158 201.752C110.572 201.296 109.835 201.068 108.947 201.068C108.095 201.068 107.379 201.284 106.799 201.716C106.219 202.142 105.781 202.74 105.485 203.51C105.189 204.273 105.041 205.164 105.041 206.182ZM123.942 213.284C122.628 213.284 121.495 212.994 120.542 212.414C119.595 211.828 118.864 211.011 118.349 209.964C117.84 208.91 117.586 207.685 117.586 206.288C117.586 204.892 117.84 203.661 118.349 202.595C118.864 201.524 119.58 200.689 120.497 200.092C121.421 199.488 122.498 199.186 123.729 199.186C124.439 199.186 125.141 199.304 125.833 199.541C126.526 199.778 127.156 200.163 127.724 200.695C128.292 201.222 128.745 201.92 129.082 202.79C129.42 203.661 129.588 204.732 129.588 206.004V206.892H119.077V205.081H127.458C127.458 204.312 127.304 203.625 126.996 203.021C126.694 202.418 126.262 201.941 125.7 201.592C125.144 201.243 124.487 201.068 123.729 201.068C122.894 201.068 122.172 201.275 121.563 201.69C120.959 202.098 120.495 202.631 120.169 203.288C119.843 203.945 119.681 204.649 119.681 205.401V206.608C119.681 207.638 119.858 208.511 120.213 209.227C120.574 209.937 121.075 210.479 121.714 210.852C122.353 211.219 123.096 211.402 123.942 211.402C124.492 211.402 124.99 211.325 125.434 211.171C125.883 211.011 126.271 210.775 126.597 210.461C126.922 210.141 127.174 209.745 127.351 209.271L129.375 209.839C129.162 210.526 128.804 211.13 128.301 211.651C127.798 212.165 127.177 212.568 126.437 212.858C125.697 213.142 124.865 213.284 123.942 213.284ZM125.469 197.73L123.622 195.244L121.776 197.73H119.787V197.588L122.664 193.895H124.581L127.458 197.588V197.73H125.469ZM138.706 199.364V201.139H131.639V199.364H138.706ZM133.699 196.097H135.794V209.094C135.794 209.686 135.88 210.129 136.051 210.425C136.229 210.715 136.454 210.911 136.726 211.011C137.004 211.106 137.297 211.153 137.605 211.153C137.836 211.153 138.025 211.142 138.173 211.118C138.321 211.088 138.44 211.065 138.528 211.047L138.955 212.929C138.812 212.982 138.614 213.036 138.36 213.089C138.105 213.148 137.783 213.178 137.392 213.178C136.8 213.178 136.22 213.05 135.652 212.796C135.09 212.541 134.622 212.154 134.249 211.633C133.882 211.112 133.699 210.455 133.699 209.662V196.097ZM145.87 213.32C145.006 213.32 144.222 213.157 143.518 212.831C142.813 212.5 142.254 212.023 141.84 211.402C141.426 210.775 141.218 210.017 141.218 209.129C141.218 208.348 141.372 207.715 141.68 207.229C141.988 206.738 142.399 206.353 142.914 206.075C143.429 205.797 143.997 205.59 144.619 205.454C145.246 205.312 145.876 205.199 146.51 205.116C147.338 205.01 148.01 204.93 148.525 204.877C149.046 204.818 149.424 204.72 149.661 204.584C149.904 204.448 150.025 204.211 150.025 203.874V203.803C150.025 202.927 149.785 202.246 149.306 201.761C148.833 201.275 148.113 201.033 147.149 201.033C146.149 201.033 145.364 201.252 144.796 201.69C144.228 202.128 143.828 202.595 143.598 203.092L141.609 202.382C141.964 201.554 142.438 200.908 143.029 200.447C143.627 199.979 144.278 199.654 144.983 199.47C145.693 199.281 146.391 199.186 147.078 199.186C147.516 199.186 148.019 199.239 148.587 199.346C149.161 199.446 149.714 199.657 150.247 199.976C150.786 200.296 151.233 200.778 151.588 201.423C151.943 202.068 152.12 202.933 152.12 204.016V213H150.025V211.153H149.919C149.777 211.449 149.54 211.766 149.208 212.103C148.877 212.441 148.436 212.728 147.886 212.964C147.335 213.201 146.663 213.32 145.87 213.32ZM146.19 211.438C147.019 211.438 147.717 211.275 148.285 210.949C148.859 210.624 149.291 210.203 149.581 209.689C149.877 209.174 150.025 208.632 150.025 208.064V206.146C149.936 206.253 149.741 206.35 149.439 206.439C149.143 206.522 148.8 206.596 148.409 206.661C148.025 206.72 147.649 206.774 147.282 206.821C146.921 206.862 146.628 206.898 146.403 206.928C145.859 206.999 145.35 207.114 144.876 207.274C144.408 207.428 144.03 207.661 143.74 207.975C143.456 208.283 143.314 208.703 143.314 209.236C143.314 209.964 143.583 210.514 144.121 210.887C144.666 211.254 145.355 211.438 146.19 211.438ZM164.503 210.674C164.065 210.674 163.689 210.517 163.375 210.203C163.062 209.89 162.905 209.514 162.905 209.076C162.905 208.638 163.062 208.262 163.375 207.949C163.689 207.635 164.065 207.478 164.503 207.478C164.941 207.478 165.317 207.635 165.63 207.949C165.944 208.262 166.101 208.638 166.101 209.076C166.101 209.366 166.027 209.632 165.879 209.875C165.737 210.118 165.544 210.313 165.302 210.461C165.065 210.603 164.799 210.674 164.503 210.674ZM164.503 201.477C164.065 201.477 163.689 201.32 163.375 201.006C163.062 200.692 162.905 200.317 162.905 199.879C162.905 199.441 163.062 199.065 163.375 198.751C163.689 198.437 164.065 198.281 164.503 198.281C164.941 198.281 165.317 198.437 165.63 198.751C165.944 199.065 166.101 199.441 166.101 199.879C166.101 200.169 166.027 200.435 165.879 200.678C165.737 200.92 165.544 201.116 165.302 201.263C165.065 201.406 164.799 201.477 164.503 201.477ZM183.248 194.818V213H181.047V197.126H180.94L176.501 200.074V197.837L181.047 194.818H183.248ZM194.408 213.249C193.07 213.249 191.931 212.885 190.99 212.157C190.049 211.423 189.33 210.36 188.832 208.969C188.335 207.573 188.087 205.886 188.087 203.909C188.087 201.944 188.335 200.266 188.832 198.875C189.336 197.479 190.058 196.413 190.999 195.679C191.946 194.94 193.082 194.57 194.408 194.57C195.733 194.57 196.867 194.94 197.808 195.679C198.755 196.413 199.477 197.479 199.974 198.875C200.477 200.266 200.729 201.944 200.729 203.909C200.729 205.886 200.48 207.573 199.983 208.969C199.486 210.36 198.767 211.423 197.826 212.157C196.885 212.885 195.745 213.249 194.408 213.249ZM194.408 211.295C195.733 211.295 196.763 210.656 197.497 209.378C198.231 208.099 198.598 206.277 198.598 203.909C198.598 202.335 198.429 200.994 198.092 199.887C197.761 198.781 197.281 197.937 196.654 197.357C196.032 196.777 195.284 196.487 194.408 196.487C193.094 196.487 192.067 197.135 191.327 198.431C190.587 199.722 190.217 201.548 190.217 203.909C190.217 205.483 190.383 206.821 190.715 207.922C191.046 209.023 191.522 209.86 192.144 210.434C192.771 211.008 193.526 211.295 194.408 211.295Z" fill="black"/>
</svg>
