<svg width="512" height="663" viewBox="0 0 512 663" fill="none" xmlns="http://www.w3.org/2000/svg">
<path d="M123 638C123 651.255 112.255 662 99 662C85.7452 662 75 651.255 75 638C75 624.745 85.7452 614 99 614C112.255 614 123 624.745 123 638Z" fill="#D9D9D9" stroke="black" stroke-width="2"/>
<path d="M90.3646 643.659C89.5086 643.659 88.7794 643.426 88.1771 642.96C87.5749 642.491 87.1146 641.811 86.7964 640.92C86.4783 640.027 86.3192 638.947 86.3192 637.682C86.3192 636.424 86.4783 635.35 86.7964 634.46C87.1184 633.566 87.5805 632.884 88.1828 632.415C88.7889 631.941 89.5161 631.705 90.3646 631.705C91.2131 631.705 91.9385 631.941 92.5408 632.415C93.1468 632.884 93.6089 633.566 93.9271 634.46C94.2491 635.35 94.4101 636.424 94.4101 637.682C94.4101 638.947 94.251 640.027 93.9328 640.92C93.6146 641.811 93.1544 642.491 92.5521 642.96C91.9499 643.426 91.2207 643.659 90.3646 643.659ZM90.3646 642.409C91.2131 642.409 91.8722 642 92.3419 641.182C92.8116 640.364 93.0464 639.197 93.0464 637.682C93.0464 636.674 92.9385 635.816 92.7226 635.108C92.5105 634.4 92.2036 633.86 91.8021 633.489C91.4044 633.117 90.9252 632.932 90.3646 632.932C89.5237 632.932 88.8665 633.347 88.393 634.176C87.9195 635.002 87.6828 636.17 87.6828 637.682C87.6828 638.689 87.7889 639.545 88.001 640.25C88.2131 640.955 88.518 641.491 88.9158 641.858C89.3173 642.225 89.8002 642.409 90.3646 642.409ZM101.592 637.057V638.307H96.501V637.057H101.592ZM107.724 643.659C106.868 643.659 106.139 643.426 105.536 642.96C104.934 642.491 104.474 641.811 104.156 640.92C103.838 640.027 103.679 638.947 103.679 637.682C103.679 636.424 103.838 635.35 104.156 634.46C104.478 633.566 104.94 632.884 105.542 632.415C106.148 631.941 106.876 631.705 107.724 631.705C108.572 631.705 109.298 631.941 109.9 632.415C110.506 632.884 110.968 633.566 111.286 634.46C111.608 635.35 111.769 636.424 111.769 637.682C111.769 638.947 111.61 640.027 111.292 640.92C110.974 641.811 110.514 642.491 109.911 642.96C109.309 643.426 108.58 643.659 107.724 643.659ZM107.724 642.409C108.572 642.409 109.232 642 109.701 641.182C110.171 640.364 110.406 639.197 110.406 637.682C110.406 636.674 110.298 635.816 110.082 635.108C109.87 634.4 109.563 633.86 109.161 633.489C108.764 633.117 108.285 632.932 107.724 632.932C106.883 632.932 106.226 633.347 105.752 634.176C105.279 635.002 105.042 636.17 105.042 637.682C105.042 638.689 105.148 639.545 105.36 640.25C105.572 640.955 105.877 641.491 106.275 641.858C106.677 642.225 107.16 642.409 107.724 642.409Z" fill="black"/>
<path d="M98.7929 612.707C99.1834 613.098 99.8166 613.098 100.207 612.707L106.571 606.343C106.962 605.953 106.962 605.319 106.571 604.929C106.181 604.538 105.547 604.538 105.157 604.929L99.5 610.586L93.8431 604.929C93.4526 604.538 92.8195 604.538 92.4289 604.929C92.0384 605.319 92.0384 605.953 92.4289 606.343L98.7929 612.707ZM98.5 491L98.5 612H100.5L100.5 491H98.5Z" fill="black"/>
<path d="M49 467C49 480.255 38.2548 491 25 491C11.7452 491 1 480.255 1 467C1 453.745 11.7452 443 25 443C38.2548 443 49 453.745 49 467Z" fill="#D9D9D9" stroke="black" stroke-width="2"/>
<path d="M17.6196 472.659C16.9529 472.659 16.3526 472.527 15.8185 472.261C15.2844 471.996 14.8563 471.633 14.5344 471.17C14.2124 470.708 14.0363 470.182 14.006 469.591H15.3696C15.4226 470.117 15.6613 470.553 16.0855 470.898C16.5135 471.239 17.0249 471.409 17.6196 471.409C18.0969 471.409 18.5211 471.297 18.8923 471.074C19.2673 470.85 19.5609 470.544 19.773 470.153C19.9889 469.759 20.0969 469.314 20.0969 468.818C20.0969 468.311 19.9851 467.858 19.7616 467.46C19.5419 467.059 19.2389 466.742 18.8526 466.511C18.4662 466.28 18.0249 466.163 17.5287 466.159C17.1726 466.155 16.8071 466.21 16.4321 466.324C16.0571 466.434 15.7484 466.576 15.506 466.75L14.1878 466.591L14.8923 460.864H20.9378V462.114H16.0741L15.6651 465.545H15.7332C15.9719 465.356 16.2711 465.199 16.631 465.074C16.9908 464.949 17.3658 464.886 17.756 464.886C18.4681 464.886 19.1026 465.057 19.6594 465.398C20.22 465.735 20.6594 466.197 20.9776 466.784C21.2995 467.371 21.4605 468.042 21.4605 468.795C21.4605 469.538 21.2938 470.201 20.9605 470.784C20.631 471.364 20.1764 471.822 19.5969 472.159C19.0173 472.492 18.3582 472.659 17.6196 472.659ZM28.7403 466.057V467.307H23.6494V466.057H28.7403ZM35.1679 460.864V472.5H33.7588V462.341H33.6906L30.8497 464.227V462.795L33.7588 460.864H35.1679Z" fill="black"/>
<path d="M86 296C86 309.255 75.2548 320 62 320C48.7452 320 38 309.255 38 296C38 282.745 48.7452 272 62 272C75.2548 272 86 282.745 86 296Z" fill="#D9D9D9" stroke="black" stroke-width="2"/>
<path d="M50.3625 301.5L55.567 291.205V291.114H49.567V289.864H57.0216V291.182L51.8398 301.5H50.3625ZM64.1622 295.057V296.307H59.0713V295.057H64.1622ZM70.2432 301.659C69.4932 301.659 68.8246 301.53 68.2375 301.273C67.6542 301.015 67.1901 300.657 66.8454 300.199C66.5045 299.737 66.3189 299.201 66.2886 298.591H67.7204C67.7508 298.966 67.8795 299.29 68.1068 299.562C68.3341 299.831 68.6314 300.04 68.9989 300.188C69.3663 300.335 69.7735 300.409 70.2204 300.409C70.7204 300.409 71.1636 300.322 71.55 300.148C71.9364 299.973 72.2394 299.731 72.4591 299.42C72.6788 299.11 72.7886 298.75 72.7886 298.341C72.7886 297.913 72.6826 297.536 72.4704 297.21C72.2583 296.881 71.9477 296.623 71.5386 296.438C71.1295 296.252 70.6295 296.159 70.0386 296.159H69.1068V294.909H70.0386C70.5008 294.909 70.9061 294.826 71.2545 294.659C71.6068 294.492 71.8814 294.258 72.0784 293.955C72.2792 293.652 72.3795 293.295 72.3795 292.886C72.3795 292.492 72.2924 292.15 72.1182 291.858C71.9439 291.566 71.6977 291.339 71.3795 291.176C71.0651 291.013 70.6939 290.932 70.2659 290.932C69.8644 290.932 69.4856 291.006 69.1295 291.153C68.7773 291.297 68.4894 291.508 68.2659 291.784C68.0424 292.057 67.9212 292.386 67.9023 292.773H66.5386C66.5614 292.163 66.7451 291.629 67.0898 291.17C67.4345 290.708 67.8852 290.348 68.442 290.091C69.0026 289.833 69.6182 289.705 70.2886 289.705C71.0083 289.705 71.6258 289.85 72.1409 290.142C72.6561 290.43 73.0519 290.811 73.3284 291.284C73.6049 291.758 73.7432 292.269 73.7432 292.818C73.7432 293.473 73.5708 294.032 73.2261 294.494C72.8852 294.956 72.4212 295.277 71.8341 295.455V295.545C72.5689 295.667 73.1428 295.979 73.5557 296.483C73.9686 296.983 74.175 297.602 74.175 298.341C74.175 298.973 74.0026 299.542 73.6579 300.045C73.317 300.545 72.8511 300.939 72.2602 301.227C71.6693 301.515 70.997 301.659 70.2432 301.659Z" fill="black"/>
<path d="M298 467C298 480.255 287.255 491 274 491C260.745 491 250 480.255 250 467C250 453.745 260.745 443 274 443C287.255 443 298 453.745 298 467Z" fill="#D9D9D9" stroke="black" stroke-width="2"/>
<path d="M262.445 470.114V468.955L267.559 460.864H268.399V462.659H267.831L263.968 468.773V468.864H270.854V470.114H262.445ZM267.922 472.5V469.761V469.222V460.864H269.263V472.5H267.922ZM278.006 466.057V467.307H272.915V466.057H278.006ZM284.434 460.864V472.5H283.024V462.341H282.956L280.115 464.227V462.795L283.024 460.864H284.434Z" fill="black"/>
<path d="M224 467C224 480.255 213.255 491 200 491C186.745 491 176 480.255 176 467C176 453.745 186.745 443 200 443C213.255 443 224 453.745 224 467Z" fill="#D9D9D9" stroke="black" stroke-width="2"/>
<path d="M187.725 472.5V471.477L191.566 467.273C192.017 466.78 192.388 466.352 192.68 465.989C192.972 465.621 193.188 465.277 193.328 464.955C193.472 464.629 193.544 464.288 193.544 463.932C193.544 463.523 193.445 463.169 193.248 462.869C193.055 462.57 192.79 462.339 192.453 462.176C192.116 462.013 191.737 461.932 191.316 461.932C190.869 461.932 190.479 462.025 190.146 462.21C189.816 462.392 189.561 462.648 189.379 462.977C189.201 463.307 189.112 463.693 189.112 464.136H187.771C187.771 463.455 187.928 462.856 188.242 462.341C188.557 461.826 188.985 461.424 189.527 461.136C190.072 460.848 190.684 460.705 191.362 460.705C192.044 460.705 192.648 460.848 193.174 461.136C193.701 461.424 194.114 461.812 194.413 462.301C194.712 462.79 194.862 463.333 194.862 463.932C194.862 464.36 194.784 464.778 194.629 465.188C194.477 465.593 194.212 466.045 193.833 466.545C193.458 467.042 192.938 467.648 192.271 468.364L189.657 471.159V471.25H195.066V472.5H187.725ZM202.436 466.057V467.307H197.345V466.057H202.436ZM208.568 472.659C207.712 472.659 206.983 472.426 206.38 471.96C205.778 471.491 205.318 470.811 205 469.92C204.681 469.027 204.522 467.947 204.522 466.682C204.522 465.424 204.681 464.35 205 463.46C205.322 462.566 205.784 461.884 206.386 461.415C206.992 460.941 207.719 460.705 208.568 460.705C209.416 460.705 210.142 460.941 210.744 461.415C211.35 461.884 211.812 462.566 212.13 463.46C212.452 464.35 212.613 465.424 212.613 466.682C212.613 467.947 212.454 469.027 212.136 469.92C211.818 470.811 211.358 471.491 210.755 471.96C210.153 472.426 209.424 472.659 208.568 472.659ZM208.568 471.409C209.416 471.409 210.075 471 210.545 470.182C211.015 469.364 211.25 468.197 211.25 466.682C211.25 465.674 211.142 464.816 210.926 464.108C210.714 463.4 210.407 462.86 210.005 462.489C209.608 462.117 209.128 461.932 208.568 461.932C207.727 461.932 207.07 462.347 206.596 463.176C206.123 464.002 205.886 465.17 205.886 466.682C205.886 467.689 205.992 468.545 206.204 469.25C206.416 469.955 206.721 470.491 207.119 470.858C207.52 471.225 208.003 471.409 208.568 471.409Z" fill="black"/>
<path d="M123 466C123 479.255 112.255 490 99 490C85.7452 490 75 479.255 75 466C75 452.745 85.7452 442 99 442C112.255 442 123 452.745 123 466Z" fill="#D9D9D9" stroke="black" stroke-width="2"/>
<path d="M87.1551 471.5V470.477L90.996 466.273C91.4468 465.78 91.818 465.352 92.1097 464.989C92.4013 464.621 92.6172 464.277 92.7574 463.955C92.9013 463.629 92.9733 463.288 92.9733 462.932C92.9733 462.523 92.8748 462.169 92.6778 461.869C92.4847 461.57 92.2195 461.339 91.8824 461.176C91.5453 461.013 91.1665 460.932 90.746 460.932C90.299 460.932 89.9089 461.025 89.5756 461.21C89.246 461.392 88.9903 461.648 88.8085 461.977C88.6305 462.307 88.5415 462.693 88.5415 463.136H87.2006C87.2006 462.455 87.3578 461.856 87.6722 461.341C87.9865 460.826 88.4146 460.424 88.9562 460.136C89.5017 459.848 90.1134 459.705 90.7915 459.705C91.4733 459.705 92.0775 459.848 92.604 460.136C93.1305 460.424 93.5434 460.812 93.8426 461.301C94.1418 461.79 94.2915 462.333 94.2915 462.932C94.2915 463.36 94.2138 463.778 94.0585 464.188C93.907 464.593 93.6418 465.045 93.2631 465.545C92.8881 466.042 92.3672 466.648 91.7006 467.364L89.0869 470.159V470.25H94.496V471.5H87.1551ZM101.865 465.057V466.307H96.7744V465.057H101.865ZM103.655 471.5V470.477L107.496 466.273C107.947 465.78 108.318 465.352 108.61 464.989C108.901 464.621 109.117 464.277 109.257 463.955C109.401 463.629 109.473 463.288 109.473 462.932C109.473 462.523 109.375 462.169 109.178 461.869C108.985 461.57 108.72 461.339 108.382 461.176C108.045 461.013 107.666 460.932 107.246 460.932C106.799 460.932 106.409 461.025 106.076 461.21C105.746 461.392 105.49 461.648 105.309 461.977C105.13 462.307 105.041 462.693 105.041 463.136H103.701C103.701 462.455 103.858 461.856 104.172 461.341C104.487 460.826 104.915 460.424 105.456 460.136C106.002 459.848 106.613 459.705 107.291 459.705C107.973 459.705 108.577 459.848 109.104 460.136C109.63 460.424 110.043 460.812 110.343 461.301C110.642 461.79 110.791 462.333 110.791 462.932C110.791 463.36 110.714 463.778 110.559 464.188C110.407 464.593 110.142 465.045 109.763 465.545C109.388 466.042 108.867 466.648 108.201 467.364L105.587 470.159V470.25H110.996V471.5H103.655Z" fill="black"/>
<path d="M372 467C372 480.255 361.255 491 348 491C334.745 491 324 480.255 324 467C324 453.745 334.745 443 348 443C361.255 443 372 453.745 372 467Z" fill="#D9D9D9" stroke="black" stroke-width="2"/>
<path d="M339.407 472.659C338.657 472.659 337.989 472.53 337.402 472.273C336.818 472.015 336.354 471.657 336.01 471.199C335.669 470.737 335.483 470.201 335.453 469.591H336.885C336.915 469.966 337.044 470.29 337.271 470.562C337.498 470.831 337.795 471.04 338.163 471.188C338.53 471.335 338.938 471.409 339.385 471.409C339.885 471.409 340.328 471.322 340.714 471.148C341.1 470.973 341.403 470.731 341.623 470.42C341.843 470.11 341.953 469.75 341.953 469.341C341.953 468.913 341.847 468.536 341.635 468.21C341.422 467.881 341.112 467.623 340.703 467.438C340.294 467.252 339.794 467.159 339.203 467.159H338.271V465.909H339.203C339.665 465.909 340.07 465.826 340.419 465.659C340.771 465.492 341.045 465.258 341.242 464.955C341.443 464.652 341.544 464.295 341.544 463.886C341.544 463.492 341.456 463.15 341.282 462.858C341.108 462.566 340.862 462.339 340.544 462.176C340.229 462.013 339.858 461.932 339.43 461.932C339.028 461.932 338.65 462.006 338.294 462.153C337.941 462.297 337.653 462.508 337.43 462.784C337.206 463.057 337.085 463.386 337.066 463.773H335.703C335.725 463.163 335.909 462.629 336.254 462.17C336.599 461.708 337.049 461.348 337.606 461.091C338.167 460.833 338.782 460.705 339.453 460.705C340.172 460.705 340.79 460.85 341.305 461.142C341.82 461.43 342.216 461.811 342.492 462.284C342.769 462.758 342.907 463.269 342.907 463.818C342.907 464.473 342.735 465.032 342.39 465.494C342.049 465.956 341.585 466.277 340.998 466.455V466.545C341.733 466.667 342.307 466.979 342.72 467.483C343.133 467.983 343.339 468.602 343.339 469.341C343.339 469.973 343.167 470.542 342.822 471.045C342.481 471.545 342.015 471.939 341.424 472.227C340.833 472.515 340.161 472.659 339.407 472.659ZM350.686 466.057V467.307H345.595V466.057H350.686ZM356.767 472.659C356.017 472.659 355.348 472.53 354.761 472.273C354.178 472.015 353.714 471.657 353.369 471.199C353.028 470.737 352.842 470.201 352.812 469.591H354.244C354.274 469.966 354.403 470.29 354.63 470.562C354.858 470.831 355.155 471.04 355.522 471.188C355.89 471.335 356.297 471.409 356.744 471.409C357.244 471.409 357.687 471.322 358.073 471.148C358.46 470.973 358.763 470.731 358.983 470.42C359.202 470.11 359.312 469.75 359.312 469.341C359.312 468.913 359.206 468.536 358.994 468.21C358.782 467.881 358.471 467.623 358.062 467.438C357.653 467.252 357.153 467.159 356.562 467.159H355.63V465.909H356.562C357.024 465.909 357.429 465.826 357.778 465.659C358.13 465.492 358.405 465.258 358.602 464.955C358.803 464.652 358.903 464.295 358.903 463.886C358.903 463.492 358.816 463.15 358.642 462.858C358.467 462.566 358.221 462.339 357.903 462.176C357.589 462.013 357.217 461.932 356.789 461.932C356.388 461.932 356.009 462.006 355.653 462.153C355.301 462.297 355.013 462.508 354.789 462.784C354.566 463.057 354.445 463.386 354.426 463.773H353.062C353.085 463.163 353.269 462.629 353.613 462.17C353.958 461.708 354.409 461.348 354.965 461.091C355.526 460.833 356.142 460.705 356.812 460.705C357.532 460.705 358.149 460.85 358.664 461.142C359.179 461.43 359.575 461.811 359.852 462.284C360.128 462.758 360.267 463.269 360.267 463.818C360.267 464.473 360.094 465.032 359.75 465.494C359.409 465.956 358.945 466.277 358.358 466.455V466.545C359.092 466.667 359.666 466.979 360.079 467.483C360.492 467.983 360.698 468.602 360.698 469.341C360.698 469.973 360.526 470.542 360.181 471.045C359.84 471.545 359.375 471.939 358.784 472.227C358.193 472.515 357.52 472.659 356.767 472.659Z" fill="black"/>
<path d="M511 295C511 308.255 500.255 319 487 319C473.745 319 463 308.255 463 295C463 281.745 473.745 271 487 271C500.255 271 511 281.745 511 295Z" fill="#D9D9D9" stroke="black" stroke-width="2"/>
<path d="M479.941 288.864V300.5H478.532V290.341H478.464L475.623 292.227V290.795L478.532 288.864H479.941ZM488.311 294.057V295.307H483.22V294.057H488.311ZM494.443 300.659C493.587 300.659 492.857 300.426 492.255 299.96C491.653 299.491 491.193 298.811 490.874 297.92C490.556 297.027 490.397 295.947 490.397 294.682C490.397 293.424 490.556 292.35 490.874 291.46C491.196 290.566 491.659 289.884 492.261 289.415C492.867 288.941 493.594 288.705 494.443 288.705C495.291 288.705 496.016 288.941 496.619 289.415C497.225 289.884 497.687 290.566 498.005 291.46C498.327 292.35 498.488 293.424 498.488 294.682C498.488 295.947 498.329 297.027 498.011 297.92C497.693 298.811 497.232 299.491 496.63 299.96C496.028 300.426 495.299 300.659 494.443 300.659ZM494.443 299.409C495.291 299.409 495.95 299 496.42 298.182C496.89 297.364 497.124 296.197 497.124 294.682C497.124 293.674 497.016 292.816 496.801 292.108C496.588 291.4 496.282 290.86 495.88 290.489C495.482 290.117 495.003 289.932 494.443 289.932C493.602 289.932 492.945 290.347 492.471 291.176C491.998 292.002 491.761 293.17 491.761 294.682C491.761 295.689 491.867 296.545 492.079 297.25C492.291 297.955 492.596 298.491 492.994 298.858C493.395 299.225 493.878 299.409 494.443 299.409Z" fill="black"/>
<path d="M298 124C298 137.255 287.255 148 274 148C260.745 148 250 137.255 250 124C250 110.745 260.745 100 274 100C287.255 100 298 110.745 298 124Z" fill="#D9D9D9" stroke="black" stroke-width="2"/>
<path d="M262.98 117.864V129.5H261.571V119.341H261.503L258.662 121.227V119.795L261.571 117.864H262.98ZM266.691 129.5L271.895 119.205V119.114H265.895V117.864H273.35V119.182L268.168 129.5H266.691ZM280.49 123.057V124.307H275.399V123.057H280.49ZM282.831 129.5L288.036 119.205V119.114H282.036V117.864H289.49V119.182L284.309 129.5H282.831Z" fill="black"/>
<path d="M298 296C298 309.255 287.255 320 274 320C260.745 320 250 309.255 250 296C250 282.745 260.745 272 274 272C287.255 272 298 282.745 298 296Z" fill="#D9D9D9" stroke="black" stroke-width="2"/>
<path d="M265.149 289.705C265.626 289.708 266.103 289.799 266.581 289.977C267.058 290.155 267.493 290.451 267.887 290.864C268.281 291.273 268.598 291.831 268.836 292.54C269.075 293.248 269.194 294.136 269.194 295.205C269.194 296.239 269.096 297.157 268.899 297.96C268.706 298.759 268.425 299.434 268.058 299.983C267.694 300.532 267.251 300.949 266.728 301.233C266.209 301.517 265.622 301.659 264.967 301.659C264.315 301.659 263.734 301.53 263.223 301.273C262.715 301.011 262.298 300.65 261.973 300.188C261.651 299.722 261.444 299.182 261.353 298.568H262.74C262.865 299.102 263.113 299.544 263.484 299.892C263.859 300.237 264.353 300.409 264.967 300.409C265.865 300.409 266.573 300.017 267.092 299.233C267.615 298.449 267.876 297.341 267.876 295.909H267.785C267.573 296.227 267.321 296.502 267.029 296.733C266.738 296.964 266.414 297.142 266.058 297.267C265.702 297.392 265.323 297.455 264.921 297.455C264.255 297.455 263.643 297.29 263.086 296.96C262.533 296.627 262.09 296.17 261.757 295.591C261.427 295.008 261.262 294.341 261.262 293.591C261.262 292.879 261.421 292.227 261.74 291.636C262.062 291.042 262.512 290.568 263.092 290.216C263.675 289.864 264.361 289.693 265.149 289.705ZM265.149 290.955C264.671 290.955 264.242 291.074 263.859 291.312C263.48 291.547 263.179 291.866 262.956 292.267C262.736 292.665 262.626 293.106 262.626 293.591C262.626 294.076 262.732 294.517 262.944 294.915C263.16 295.309 263.454 295.623 263.825 295.858C264.2 296.089 264.626 296.205 265.103 296.205C265.463 296.205 265.798 296.134 266.109 295.994C266.42 295.85 266.69 295.655 266.921 295.409C267.156 295.159 267.34 294.877 267.473 294.562C267.605 294.244 267.671 293.913 267.671 293.568C267.671 293.114 267.562 292.687 267.342 292.29C267.126 291.892 266.827 291.57 266.444 291.324C266.065 291.078 265.634 290.955 265.149 290.955ZM276.451 295.057V296.307H271.36V295.057H276.451ZM278.515 299.114V297.955L283.629 289.864H284.47V291.659H283.902L280.038 297.773V297.864H286.924V299.114H278.515ZM283.992 301.5V298.761V298.222V289.864H285.333V301.5H283.992Z" fill="black"/>
<path d="M24.117 442.469C24.3763 442.957 24.9818 443.142 25.4694 442.883L33.4162 438.658C33.9038 438.399 34.089 437.793 33.8297 437.306C33.5705 436.818 32.965 436.633 32.4773 436.892L25.4135 440.648L21.6581 433.584C21.3989 433.096 20.7934 432.911 20.3057 433.17C19.8181 433.43 19.6329 434.035 19.8922 434.523L24.117 442.469ZM61.0437 320.708L24.0437 441.708L25.9563 442.292L62.9563 321.292L61.0437 320.708Z" fill="black"/>
<path d="M98.5306 442.883C99.0182 443.142 99.6237 442.957 99.883 442.469L104.108 434.523C104.367 434.035 104.182 433.43 103.694 433.17C103.207 432.911 102.601 433.096 102.342 433.584L98.5865 440.648L91.5227 436.892C91.035 436.633 90.4295 436.818 90.1703 437.306C89.911 437.793 90.0962 438.399 90.5838 438.658L98.5306 442.883ZM61.0437 321.292L98.0437 442.292L99.9563 441.708L62.9563 320.708L61.0437 321.292Z" fill="black"/>
<path d="M199.454 441.495C199.584 442.032 200.124 442.362 200.661 442.233L209.41 440.124C209.947 439.995 210.278 439.455 210.148 438.918C210.019 438.381 209.479 438.05 208.942 438.18L201.164 440.054L199.29 432.277C199.16 431.74 198.62 431.41 198.083 431.539C197.546 431.669 197.216 432.209 197.346 432.746L199.454 441.495ZM273.573 319.739L199.573 440.739L201.28 441.783L275.28 320.783L273.573 319.739Z" fill="black"/>
<path d="M273.793 441.707C274.183 442.098 274.817 442.098 275.207 441.707L281.571 435.343C281.962 434.953 281.962 434.319 281.571 433.929C281.181 433.538 280.547 433.538 280.157 433.929L274.5 439.586L268.843 433.929C268.453 433.538 267.819 433.538 267.429 433.929C267.038 434.319 267.038 434.953 267.429 435.343L273.793 441.707ZM273.5 320V441H275.5V320H273.5Z" fill="black"/>
<path d="M348.192 441.711C348.729 441.841 349.269 441.51 349.399 440.973L351.508 432.224C351.637 431.687 351.307 431.147 350.77 431.018C350.233 430.888 349.693 431.218 349.563 431.755L347.689 439.533L339.911 437.658C339.374 437.529 338.834 437.859 338.705 438.396C338.576 438.933 338.906 439.473 339.443 439.602L348.192 441.711ZM273.573 320.261L347.573 441.261L349.28 440.217L275.28 319.217L273.573 320.261Z" fill="black"/>
<path d="M61.0344 270.74C60.8908 271.273 61.2066 271.822 61.7398 271.966L70.4299 274.307C70.9631 274.451 71.5119 274.135 71.6556 273.602C71.7993 273.069 71.4835 272.52 70.9502 272.376L63.2258 270.295L65.3072 262.57C65.4509 262.037 65.1351 261.488 64.6018 261.344C64.0686 261.201 63.5198 261.517 63.3761 262.05L61.0344 270.74ZM273.501 148.133L61.5012 270.133L62.4988 271.867L274.499 149.867L273.501 148.133Z" fill="black"/>
<path d="M273.293 270.707C273.683 271.098 274.317 271.098 274.707 270.707L281.071 264.343C281.462 263.953 281.462 263.319 281.071 262.929C280.681 262.538 280.047 262.538 279.657 262.929L274 268.586L268.343 262.929C267.953 262.538 267.319 262.538 266.929 262.929C266.538 263.319 266.538 263.953 266.929 264.343L273.293 270.707ZM273 149L273 270H275L275 149H273Z" fill="black"/>
<path d="M487.262 271.965C487.795 271.82 488.11 271.271 487.965 270.738L485.606 262.053C485.461 261.52 484.912 261.205 484.379 261.35C483.846 261.494 483.531 262.044 483.676 262.577L485.773 270.297L478.053 272.394C477.52 272.539 477.205 273.088 477.35 273.621C477.494 274.154 478.044 274.469 478.577 274.324L487.262 271.965ZM273.503 149.868L486.503 271.868L487.497 270.132L274.497 148.132L273.503 149.868Z" fill="black"/>
<path d="M215.74 34V15.8182H226.713V17.7713H217.942V23.9148H226.145V25.8679H217.942V32.0469H226.855V34H215.74ZM231.96 20.3636L235.227 25.9389L238.494 20.3636H240.909L236.506 27.1818L240.909 34H238.494L235.227 28.7088L231.96 34H229.545L233.878 27.1818L229.545 20.3636H231.96ZM243.899 39.1136V20.3636H245.923V22.5298H246.171C246.325 22.2931 246.538 21.9912 246.811 21.6243C247.089 21.2514 247.485 20.92 248 20.63C248.521 20.334 249.225 20.1861 250.113 20.1861C251.261 20.1861 252.273 20.4731 253.149 21.0472C254.025 21.6213 254.709 22.4351 255.2 23.4886C255.691 24.5421 255.937 25.785 255.937 27.2173C255.937 28.6615 255.691 29.9132 255.2 30.9727C254.709 32.0262 254.028 32.8429 253.158 33.4229C252.288 33.997 251.285 34.2841 250.149 34.2841C249.273 34.2841 248.571 34.1391 248.045 33.8491C247.518 33.5531 247.112 33.2187 246.828 32.8459C246.544 32.4671 246.325 32.1534 246.171 31.9048H245.994V39.1136H243.899ZM245.958 27.1818C245.958 28.2116 246.109 29.1201 246.411 29.9073C246.713 30.6886 247.154 31.3011 247.734 31.745C248.314 32.183 249.024 32.402 249.864 32.402C250.74 32.402 251.471 32.1712 252.057 31.7095C252.649 31.242 253.093 30.6146 253.389 29.8274C253.691 29.0343 253.842 28.1525 253.842 27.1818C253.842 26.223 253.694 25.3589 253.398 24.5895C253.108 23.8142 252.667 23.2016 252.075 22.7518C251.489 22.296 250.752 22.0682 249.864 22.0682C249.012 22.0682 248.296 22.2842 247.716 22.7163C247.136 23.1424 246.698 23.7402 246.402 24.5096C246.106 25.2731 245.958 26.1638 245.958 27.1818ZM263.146 34.3196C262.282 34.3196 261.497 34.1568 260.793 33.8313C260.089 33.4999 259.529 33.0234 259.115 32.402C258.701 31.7746 258.494 31.017 258.494 30.1293C258.494 29.348 258.648 28.7147 258.955 28.2294C259.263 27.7382 259.674 27.3535 260.189 27.0753C260.704 26.7971 261.273 26.59 261.894 26.4538C262.521 26.3118 263.152 26.1993 263.785 26.1165C264.614 26.0099 265.285 25.93 265.8 25.8768C266.321 25.8176 266.7 25.7199 266.937 25.5838C267.179 25.4477 267.301 25.2109 267.301 24.8736V24.8026C267.301 23.9266 267.061 23.246 266.581 22.7607C266.108 22.2753 265.389 22.0327 264.424 22.0327C263.424 22.0327 262.64 22.2517 262.072 22.6896C261.503 23.1276 261.104 23.5952 260.873 24.0923L258.884 23.3821C259.239 22.5535 259.713 21.9084 260.305 21.4467C260.903 20.9792 261.554 20.6536 262.258 20.4702C262.968 20.2808 263.667 20.1861 264.353 20.1861C264.791 20.1861 265.294 20.2393 265.862 20.3459C266.436 20.4465 266.99 20.6566 267.523 20.9762C268.061 21.2958 268.508 21.7782 268.863 22.4233C269.218 23.0684 269.396 23.9325 269.396 25.0156V34H267.301V32.1534H267.194C267.052 32.4493 266.815 32.766 266.484 33.1033C266.152 33.4407 265.711 33.7277 265.161 33.9645C264.611 34.2012 263.939 34.3196 263.146 34.3196ZM263.465 32.4375C264.294 32.4375 264.992 32.2747 265.561 31.9492C266.135 31.6237 266.567 31.2035 266.857 30.6886C267.153 30.1737 267.301 29.6321 267.301 29.0639V27.1463C267.212 27.2528 267.016 27.3505 266.715 27.4393C266.419 27.5221 266.075 27.5961 265.685 27.6612C265.3 27.7204 264.924 27.7737 264.557 27.821C264.196 27.8625 263.903 27.898 263.678 27.9276C263.134 27.9986 262.625 28.114 262.151 28.2738C261.684 28.4277 261.305 28.6615 261.015 28.9751C260.731 29.2829 260.589 29.7031 260.589 30.2358C260.589 30.9638 260.858 31.5142 261.397 31.8871C261.941 32.254 262.631 32.4375 263.465 32.4375ZM275.315 25.7969V34H273.22V20.3636H275.244V22.4943H275.422C275.741 21.8018 276.226 21.2455 276.878 20.8253C277.529 20.3991 278.369 20.1861 279.399 20.1861C280.322 20.1861 281.13 20.3755 281.822 20.7543C282.515 21.1271 283.054 21.6953 283.438 22.4588C283.823 23.2164 284.015 24.1752 284.015 25.3352V34H281.92V25.4773C281.92 24.406 281.642 23.5715 281.086 22.9737C280.529 22.37 279.766 22.0682 278.795 22.0682C278.126 22.0682 277.529 22.2132 277.002 22.5032C276.481 22.7932 276.07 23.2164 275.768 23.7727C275.466 24.3291 275.315 25.0038 275.315 25.7969ZM297.503 23.4176L295.621 23.9503C295.503 23.6366 295.328 23.3318 295.097 23.0359C294.872 22.734 294.564 22.4854 294.174 22.2901C293.783 22.0948 293.283 21.9972 292.673 21.9972C291.839 21.9972 291.143 22.1895 290.587 22.5742C290.037 22.953 289.761 23.4354 289.761 24.0213C289.761 24.5421 289.951 24.9535 290.33 25.2553C290.708 25.5572 291.3 25.8087 292.105 26.0099L294.129 26.5071C295.349 26.803 296.257 27.2558 296.855 27.8654C297.453 28.4691 297.752 29.2474 297.752 30.2003C297.752 30.9815 297.527 31.6799 297.077 32.2955C296.633 32.911 296.011 33.3963 295.212 33.7514C294.413 34.1065 293.484 34.2841 292.425 34.2841C291.034 34.2841 289.883 33.9822 288.971 33.3786C288.06 32.7749 287.483 31.893 287.24 30.733L289.229 30.2358C289.418 30.9697 289.776 31.5201 290.303 31.8871C290.836 32.254 291.531 32.4375 292.389 32.4375C293.366 32.4375 294.141 32.2304 294.715 31.8161C295.295 31.3958 295.585 30.8928 295.585 30.3068C295.585 29.8333 295.42 29.4368 295.088 29.1172C294.757 28.7917 294.248 28.549 293.561 28.3892L291.288 27.8565C290.04 27.5606 289.122 27.1019 288.536 26.4805C287.956 25.8531 287.666 25.0689 287.666 24.1278C287.666 23.3584 287.882 22.6778 288.314 22.0859C288.752 21.4941 289.347 21.0295 290.099 20.6921C290.856 20.3548 291.715 20.1861 292.673 20.1861C294.023 20.1861 295.082 20.482 295.852 21.0739C296.627 21.6657 297.177 22.447 297.503 23.4176ZM300.905 34V20.3636H303.001V34H300.905ZM301.971 18.0909C301.562 18.0909 301.21 17.9518 300.914 17.6737C300.624 17.3955 300.479 17.0611 300.479 16.6705C300.479 16.2798 300.624 15.9454 300.914 15.6673C301.21 15.3891 301.562 15.25 301.971 15.25C302.379 15.25 302.728 15.3891 303.018 15.6673C303.314 15.9454 303.462 16.2798 303.462 16.6705C303.462 17.0611 303.314 17.3955 303.018 17.6737C302.728 17.9518 302.379 18.0909 301.971 18.0909ZM312.378 34.2841C311.147 34.2841 310.067 33.9911 309.137 33.4052C308.214 32.8192 307.492 31.9995 306.971 30.946C306.456 29.8925 306.199 28.6615 306.199 27.2528C306.199 25.8324 306.456 24.5924 306.971 23.533C307.492 22.4736 308.214 21.6509 309.137 21.065C310.067 20.479 311.147 20.1861 312.378 20.1861C313.609 20.1861 314.686 20.479 315.609 21.065C316.539 21.6509 317.261 22.4736 317.776 23.533C318.296 24.5924 318.557 25.8324 318.557 27.2528C318.557 28.6615 318.296 29.8925 317.776 30.946C317.261 31.9995 316.539 32.8192 315.609 33.4052C314.686 33.9911 313.609 34.2841 312.378 34.2841ZM312.378 32.402C313.313 32.402 314.082 32.1623 314.686 31.6829C315.29 31.2035 315.737 30.5732 316.027 29.7919C316.317 29.0107 316.462 28.1643 316.462 27.2528C316.462 26.3414 316.317 25.4921 316.027 24.7049C315.737 23.9177 315.29 23.2815 314.686 22.7962C314.082 22.3108 313.313 22.0682 312.378 22.0682C311.443 22.0682 310.673 22.3108 310.07 22.7962C309.466 23.2815 309.019 23.9177 308.729 24.7049C308.439 25.4921 308.294 26.3414 308.294 27.2528C308.294 28.1643 308.439 29.0107 308.729 29.7919C309.019 30.5732 309.466 31.2035 310.07 31.6829C310.673 32.1623 311.443 32.402 312.378 32.402ZM323.85 25.7969V34H321.755V20.3636H323.779V22.4943H323.957C324.276 21.8018 324.762 21.2455 325.413 20.8253C326.064 20.3991 326.904 20.1861 327.934 20.1861C328.857 20.1861 329.665 20.3755 330.358 20.7543C331.05 21.1271 331.589 21.6953 331.973 22.4588C332.358 23.2164 332.55 24.1752 332.55 25.3352V34H330.455V25.4773C330.455 24.406 330.177 23.5715 329.621 22.9737C329.064 22.37 328.301 22.0682 327.33 22.0682C326.662 22.0682 326.064 22.2132 325.537 22.5032C325.016 22.7932 324.605 23.2164 324.303 23.7727C324.001 24.3291 323.85 25.0038 323.85 25.7969Z" fill="black"/>
</svg>
