<svg width="1000" height="392" viewBox="0 0 1000 392" fill="none" xmlns="http://www.w3.org/2000/svg">
<path d="M108 367C108 380.255 97.2548 391 84 391C70.7452 391 60 380.255 60 367C60 353.745 70.7452 343 84 343C97.2548 343 108 353.745 108 367Z" fill="#D9D9D9" stroke="black" stroke-width="2"/>
<path d="M86.5079 358.318V376.5H84.3061V360.626H84.1996L79.7607 363.574V361.337L84.3061 358.318H86.5079Z" fill="black"/>
<path d="M182 367C182 380.255 171.255 391 158 391C144.745 391 134 380.255 134 367C134 353.745 144.745 343 158 343C171.255 343 182 353.745 182 367Z" fill="#D9D9D9" stroke="black" stroke-width="2"/>
<path d="M158.003 376.749C156.962 376.749 156.023 376.541 155.189 376.127C154.354 375.713 153.686 375.145 153.183 374.423C152.679 373.701 152.404 372.878 152.357 371.955H154.488C154.57 372.777 154.943 373.458 155.606 373.996C156.275 374.529 157.074 374.795 158.003 374.795C158.749 374.795 159.412 374.621 159.992 374.272C160.578 373.922 161.036 373.443 161.368 372.833C161.705 372.218 161.874 371.522 161.874 370.747C161.874 369.954 161.699 369.247 161.35 368.625C161.007 367.998 160.533 367.504 159.93 367.143C159.326 366.782 158.636 366.598 157.861 366.592C157.305 366.586 156.734 366.672 156.148 366.85C155.562 367.021 155.079 367.243 154.701 367.516L152.641 367.267L153.742 358.318H163.188V360.271H155.588L154.949 365.634H155.056C155.429 365.338 155.896 365.092 156.458 364.897C157.021 364.701 157.607 364.604 158.216 364.604C159.329 364.604 160.32 364.87 161.19 365.403C162.066 365.929 162.753 366.652 163.25 367.569C163.753 368.486 164.005 369.534 164.005 370.712C164.005 371.872 163.744 372.907 163.223 373.819C162.708 374.724 161.998 375.441 161.093 375.967C160.187 376.488 159.157 376.749 158.003 376.749Z" fill="black"/>
<path d="M433 25C433 38.2548 422.255 49 409 49C395.745 49 385 38.2548 385 25C385 11.7452 395.745 1 409 1C422.255 1 433 11.7452 433 25Z" fill="#D9D9D9" stroke="black" stroke-width="2"/>
<path d="M404.353 34.5L412.486 18.4134V18.2713H403.111V16.3182H414.758V18.3778L406.662 34.5H404.353Z" fill="black"/>
<path d="M684 196C684 209.255 673.255 220 660 220C646.745 220 636 209.255 636 196C636 182.745 646.745 172 660 172C673.255 172 684 182.745 684 196Z" fill="#D9D9D9" stroke="black" stroke-width="2"/>
<path d="M660.048 205.749C658.828 205.749 657.751 205.533 656.816 205.1C655.887 204.663 655.162 204.062 654.641 203.298C654.12 202.529 653.863 201.653 653.869 200.67C653.863 199.901 654.014 199.191 654.321 198.54C654.629 197.883 655.049 197.335 655.582 196.897C656.121 196.453 656.721 196.172 657.384 196.054V195.947C656.514 195.723 655.822 195.234 655.307 194.483C654.792 193.725 654.537 192.864 654.543 191.899C654.537 190.976 654.771 190.15 655.245 189.422C655.718 188.694 656.369 188.12 657.198 187.7C658.032 187.28 658.982 187.07 660.048 187.07C661.101 187.07 662.042 187.28 662.871 187.7C663.699 188.12 664.35 188.694 664.824 189.422C665.303 190.15 665.546 190.976 665.552 191.899C665.546 192.864 665.283 193.725 664.762 194.483C664.247 195.234 663.563 195.723 662.711 195.947V196.054C663.368 196.172 663.96 196.453 664.487 196.897C665.013 197.335 665.433 197.883 665.747 198.54C666.061 199.191 666.221 199.901 666.227 200.67C666.221 201.653 665.954 202.529 665.428 203.298C664.907 204.062 664.182 204.663 663.252 205.1C662.329 205.533 661.261 205.749 660.048 205.749ZM660.048 203.795C660.87 203.795 661.58 203.662 662.178 203.396C662.776 203.13 663.238 202.754 663.563 202.268C663.889 201.783 664.054 201.215 664.06 200.564C664.054 199.877 663.877 199.271 663.528 198.744C663.178 198.217 662.702 197.803 662.098 197.501C661.501 197.199 660.817 197.048 660.048 197.048C659.272 197.048 658.58 197.199 657.97 197.501C657.366 197.803 656.89 198.217 656.541 198.744C656.198 199.271 656.029 199.877 656.035 200.564C656.029 201.215 656.186 201.783 656.505 202.268C656.831 202.754 657.295 203.13 657.899 203.396C658.503 203.662 659.219 203.795 660.048 203.795ZM660.048 195.166C660.699 195.166 661.276 195.036 661.779 194.776C662.288 194.515 662.687 194.151 662.977 193.684C663.267 193.216 663.415 192.669 663.421 192.041C663.415 191.426 663.27 190.89 662.986 190.434C662.702 189.973 662.308 189.618 661.805 189.369C661.302 189.114 660.716 188.987 660.048 188.987C659.367 188.987 658.772 189.114 658.263 189.369C657.754 189.618 657.361 189.973 657.082 190.434C656.804 190.89 656.668 191.426 656.674 192.041C656.668 192.669 656.807 193.216 657.091 193.684C657.381 194.151 657.781 194.515 658.29 194.776C658.799 195.036 659.385 195.166 660.048 195.166Z" fill="black"/>
<path d="M433 196C433 209.255 422.255 220 409 220C395.745 220 385 209.255 385 196C385 182.745 395.745 172 409 172C422.255 172 433 182.745 433 196Z" fill="#D9D9D9" stroke="black" stroke-width="2"/>
<path d="M404.353 205.5L412.486 189.413V189.271H403.111V187.318H414.758V189.378L406.662 205.5H404.353Z" fill="black"/>
<path d="M182 196C182 209.255 171.255 220 158 220C144.745 220 134 209.255 134 196C134 182.745 144.745 172 158 172C171.255 172 182 182.745 182 196Z" fill="#D9D9D9" stroke="black" stroke-width="2"/>
<path d="M152.939 187.318V205.5H150.738V189.626H150.631L146.192 192.574V190.337L150.738 187.318H152.939ZM158.169 205.5V203.902L164.17 197.332C164.874 196.563 165.454 195.894 165.91 195.326C166.366 194.752 166.703 194.213 166.922 193.71C167.147 193.201 167.259 192.669 167.259 192.112C167.259 191.473 167.106 190.92 166.798 190.452C166.496 189.984 166.082 189.623 165.555 189.369C165.028 189.114 164.436 188.987 163.779 188.987C163.081 188.987 162.471 189.132 161.951 189.422C161.436 189.706 161.036 190.106 160.752 190.621C160.474 191.136 160.335 191.739 160.335 192.432H158.24C158.24 191.366 158.485 190.431 158.976 189.626C159.468 188.821 160.136 188.194 160.983 187.744C161.835 187.295 162.791 187.07 163.85 187.07C164.916 187.07 165.86 187.295 166.682 187.744C167.505 188.194 168.15 188.801 168.618 189.564C169.085 190.328 169.319 191.177 169.319 192.112C169.319 192.781 169.198 193.435 168.955 194.074C168.718 194.708 168.304 195.415 167.712 196.196C167.126 196.971 166.312 197.918 165.271 199.037L161.187 203.405V203.547H169.639V205.5H158.169Z" fill="black"/>
<path d="M758 367C758 380.255 747.255 391 734 391C720.745 391 710 380.255 710 367C710 353.745 720.745 343 734 343C747.255 343 758 353.745 758 367Z" fill="#D9D9D9" stroke="black" stroke-width="2"/>
<path d="M734.111 376.749C732.939 376.749 731.894 376.547 730.977 376.145C730.065 375.742 729.34 375.183 728.802 374.467C728.269 373.745 727.979 372.907 727.932 371.955H730.169C730.216 372.54 730.418 373.047 730.773 373.473C731.128 373.893 731.592 374.218 732.167 374.449C732.741 374.68 733.377 374.795 734.075 374.795C734.857 374.795 735.549 374.659 736.153 374.387C736.756 374.115 737.23 373.736 737.573 373.251C737.916 372.765 738.088 372.203 738.088 371.564C738.088 370.895 737.922 370.306 737.591 369.797C737.26 369.282 736.774 368.88 736.135 368.59C735.496 368.3 734.715 368.155 733.791 368.155H732.335V366.202H733.791C734.513 366.202 735.147 366.071 735.691 365.811C736.242 365.551 736.671 365.184 736.978 364.71C737.292 364.237 737.449 363.68 737.449 363.041C737.449 362.426 737.313 361.89 737.041 361.434C736.768 360.979 736.384 360.623 735.886 360.369C735.395 360.114 734.815 359.987 734.146 359.987C733.519 359.987 732.927 360.103 732.371 360.333C731.82 360.558 731.371 360.887 731.021 361.319C730.672 361.745 730.483 362.26 730.453 362.864H728.322C728.358 361.911 728.645 361.076 729.184 360.36C729.722 359.638 730.427 359.076 731.297 358.673C732.173 358.271 733.134 358.07 734.182 358.07C735.306 358.07 736.271 358.297 737.076 358.753C737.881 359.203 738.499 359.798 738.932 360.538C739.364 361.277 739.58 362.076 739.58 362.935C739.58 363.959 739.31 364.832 738.772 365.554C738.239 366.276 737.514 366.776 736.597 367.054V367.196C737.745 367.385 738.641 367.874 739.287 368.661C739.932 369.442 740.254 370.41 740.254 371.564C740.254 372.552 739.985 373.44 739.446 374.227C738.914 375.009 738.186 375.624 737.262 376.074C736.339 376.524 735.289 376.749 734.111 376.749Z" fill="black"/>
<path d="M684 367C684 380.255 673.255 391 660 391C646.745 391 636 380.255 636 367C636 353.745 646.745 343 660 343C673.255 343 684 353.745 684 367Z" fill="#D9D9D9" stroke="black" stroke-width="2"/>
<path d="M653.48 372.771V370.96L661.47 358.318H662.784V361.124H661.896L655.859 370.676V370.818H666.619V372.771H653.48ZM662.038 376.5V372.221V371.377V358.318H664.134V376.5H662.038Z" fill="black"/>
<path d="M610 367C610 380.255 599.255 391 586 391C572.745 391 562 380.255 562 367C562 353.745 572.745 343 586 343C599.255 343 610 353.745 610 367Z" fill="#D9D9D9" stroke="black" stroke-width="2"/>
<path d="M586.048 376.749C584.828 376.749 583.751 376.533 582.816 376.1C581.887 375.663 581.162 375.062 580.641 374.298C580.12 373.529 579.863 372.653 579.869 371.67C579.863 370.901 580.014 370.191 580.321 369.54C580.629 368.883 581.049 368.335 581.582 367.897C582.121 367.453 582.721 367.172 583.384 367.054V366.947C582.514 366.723 581.822 366.234 581.307 365.483C580.792 364.725 580.537 363.864 580.543 362.899C580.537 361.976 580.771 361.15 581.245 360.422C581.718 359.694 582.369 359.12 583.198 358.7C584.032 358.28 584.982 358.07 586.048 358.07C587.101 358.07 588.042 358.28 588.871 358.7C589.699 359.12 590.35 359.694 590.824 360.422C591.303 361.15 591.546 361.976 591.552 362.899C591.546 363.864 591.283 364.725 590.762 365.483C590.247 366.234 589.563 366.723 588.711 366.947V367.054C589.368 367.172 589.96 367.453 590.487 367.897C591.013 368.335 591.433 368.883 591.747 369.54C592.061 370.191 592.221 370.901 592.227 371.67C592.221 372.653 591.954 373.529 591.428 374.298C590.907 375.062 590.182 375.663 589.252 376.1C588.329 376.533 587.261 376.749 586.048 376.749ZM586.048 374.795C586.87 374.795 587.58 374.662 588.178 374.396C588.776 374.13 589.238 373.754 589.563 373.268C589.889 372.783 590.054 372.215 590.06 371.564C590.054 370.877 589.877 370.271 589.528 369.744C589.178 369.217 588.702 368.803 588.098 368.501C587.501 368.199 586.817 368.048 586.048 368.048C585.272 368.048 584.58 368.199 583.97 368.501C583.366 368.803 582.89 369.217 582.541 369.744C582.198 370.271 582.029 370.877 582.035 371.564C582.029 372.215 582.186 372.783 582.505 373.268C582.831 373.754 583.295 374.13 583.899 374.396C584.503 374.662 585.219 374.795 586.048 374.795ZM586.048 366.166C586.699 366.166 587.276 366.036 587.779 365.776C588.288 365.515 588.687 365.151 588.977 364.684C589.267 364.216 589.415 363.669 589.421 363.041C589.415 362.426 589.27 361.89 588.986 361.434C588.702 360.973 588.308 360.618 587.805 360.369C587.302 360.114 586.716 359.987 586.048 359.987C585.367 359.987 584.772 360.114 584.263 360.369C583.754 360.618 583.361 360.973 583.082 361.434C582.804 361.89 582.668 362.426 582.674 363.041C582.668 363.669 582.807 364.216 583.091 364.684C583.381 365.151 583.781 365.515 584.29 365.776C584.799 366.036 585.385 366.166 586.048 366.166Z" fill="black"/>
<path d="M507 367C507 380.255 496.255 391 483 391C469.745 391 459 380.255 459 367C459 353.745 469.745 343 483 343C496.255 343 507 353.745 507 367Z" fill="#D9D9D9" stroke="black" stroke-width="2"/>
<path d="M478.353 376.5L486.486 360.413V360.271H477.111V358.318H488.758V360.378L480.662 376.5H478.353Z" fill="black"/>
<path d="M433 367C433 380.255 422.255 391 409 391C395.745 391 385 380.255 385 367C385 353.745 395.745 343 409 343C422.255 343 433 353.745 433 367Z" fill="#D9D9D9" stroke="black" stroke-width="2"/>
<path d="M403.358 376.5V374.902L409.359 368.332C410.064 367.563 410.644 366.894 411.099 366.326C411.555 365.752 411.893 365.213 412.112 364.71C412.336 364.201 412.449 363.669 412.449 363.112C412.449 362.473 412.295 361.92 411.987 361.452C411.685 360.984 411.271 360.623 410.744 360.369C410.218 360.114 409.626 359.987 408.969 359.987C408.27 359.987 407.661 360.132 407.14 360.422C406.625 360.706 406.226 361.106 405.941 361.621C405.663 362.136 405.524 362.739 405.524 363.432H403.429C403.429 362.366 403.675 361.431 404.166 360.626C404.657 359.821 405.326 359.194 406.172 358.744C407.025 358.295 407.98 358.07 409.04 358.07C410.105 358.07 411.049 358.295 411.872 358.744C412.695 359.194 413.34 359.801 413.807 360.564C414.275 361.328 414.509 362.177 414.509 363.112C414.509 363.781 414.387 364.435 414.145 365.074C413.908 365.708 413.494 366.415 412.902 367.196C412.316 367.971 411.502 368.918 410.46 370.037L406.376 374.405V374.547H414.828V376.5H403.358Z" fill="black"/>
<path d="M359 367C359 380.255 348.255 391 335 391C321.745 391 311 380.255 311 367C311 353.745 321.745 343 335 343C348.255 343 359 353.745 359 367Z" fill="#D9D9D9" stroke="black" stroke-width="2"/>
<path d="M335.163 376.749C334.417 376.737 333.672 376.595 332.926 376.322C332.18 376.05 331.499 375.592 330.884 374.946C330.268 374.295 329.774 373.416 329.401 372.31C329.028 371.197 328.842 369.8 328.842 368.119C328.842 366.509 328.993 365.083 329.295 363.84C329.597 362.591 330.035 361.541 330.609 360.689C331.183 359.83 331.875 359.179 332.686 358.735C333.503 358.292 334.423 358.07 335.447 358.07C336.465 358.07 337.371 358.274 338.164 358.682C338.963 359.085 339.614 359.647 340.117 360.369C340.62 361.091 340.945 361.923 341.093 362.864H338.927C338.726 362.047 338.335 361.369 337.755 360.831C337.175 360.292 336.406 360.023 335.447 360.023C334.038 360.023 332.929 360.635 332.118 361.86C331.313 363.086 330.908 364.805 330.902 367.018H331.044C331.375 366.515 331.769 366.086 332.224 365.731C332.686 365.37 333.195 365.092 333.751 364.897C334.308 364.701 334.897 364.604 335.518 364.604C336.56 364.604 337.513 364.864 338.377 365.385C339.241 365.9 339.933 366.613 340.454 367.525C340.975 368.43 341.235 369.469 341.235 370.641C341.235 371.765 340.984 372.795 340.481 373.73C339.978 374.659 339.27 375.399 338.359 375.95C337.453 376.494 336.388 376.76 335.163 376.749ZM335.163 374.795C335.909 374.795 336.578 374.609 337.169 374.236C337.767 373.863 338.238 373.363 338.581 372.736C338.93 372.108 339.105 371.41 339.105 370.641C339.105 369.889 338.936 369.205 338.599 368.59C338.267 367.968 337.809 367.474 337.223 367.107C336.643 366.74 335.98 366.557 335.234 366.557C334.672 366.557 334.148 366.669 333.663 366.894C333.177 367.113 332.751 367.415 332.384 367.8C332.023 368.184 331.739 368.625 331.532 369.123C331.325 369.614 331.221 370.132 331.221 370.676C331.221 371.398 331.39 372.073 331.727 372.7C332.071 373.328 332.538 373.834 333.13 374.218C333.728 374.603 334.405 374.795 335.163 374.795Z" fill="black"/>
<path d="M256 367C256 380.255 245.255 391 232 391C218.745 391 208 380.255 208 367C208 353.745 218.745 343 232 343C245.255 343 256 353.745 256 367Z" fill="#D9D9D9" stroke="black" stroke-width="2"/>
<path d="M226.939 358.318V376.5H224.738V360.626H224.631L220.192 363.574V361.337L224.738 358.318H226.939ZM232.169 376.5V374.902L238.17 368.332C238.874 367.563 239.454 366.894 239.91 366.326C240.366 365.752 240.703 365.213 240.922 364.71C241.147 364.201 241.259 363.669 241.259 363.112C241.259 362.473 241.106 361.92 240.798 361.452C240.496 360.984 240.082 360.623 239.555 360.369C239.028 360.114 238.436 359.987 237.779 359.987C237.081 359.987 236.471 360.132 235.951 360.422C235.436 360.706 235.036 361.106 234.752 361.621C234.474 362.136 234.335 362.739 234.335 363.432H232.24C232.24 362.366 232.485 361.431 232.976 360.626C233.468 359.821 234.136 359.194 234.983 358.744C235.835 358.295 236.791 358.07 237.85 358.07C238.916 358.07 239.86 358.295 240.682 358.744C241.505 359.194 242.15 359.801 242.618 360.564C243.085 361.328 243.319 362.177 243.319 363.112C243.319 363.781 243.198 364.435 242.955 365.074C242.718 365.708 242.304 366.415 241.712 367.196C241.126 367.971 240.312 368.918 239.271 370.037L235.187 374.405V374.547H243.639V376.5H232.169Z" fill="black"/>
<path d="M87.0339 342.258C87.1763 342.792 87.7244 343.109 88.258 342.966L96.9533 340.644C97.4869 340.502 97.804 339.954 97.6615 339.42C97.519 338.887 96.971 338.57 96.4374 338.712L88.7082 340.776L86.6444 333.047C86.5019 332.513 85.9538 332.196 85.4202 332.338C84.8866 332.481 84.5696 333.029 84.7121 333.563L87.0339 342.258ZM157.134 220.499L87.1344 341.499L88.8656 342.501L158.866 221.501L157.134 220.499Z" fill="black"/>
<path d="M157.293 342.707C157.683 343.098 158.317 343.098 158.707 342.707L165.071 336.343C165.462 335.953 165.462 335.319 165.071 334.929C164.681 334.538 164.047 334.538 163.657 334.929L158 340.586L152.343 334.929C151.953 334.538 151.319 334.538 150.929 334.929C150.538 335.319 150.538 335.953 150.929 336.343L157.293 342.707ZM157 221V342H159V221H157Z" fill="black"/>
<path d="M231.766 342.972C232.303 343.102 232.843 342.771 232.972 342.234L235.081 333.485C235.21 332.948 234.88 332.408 234.343 332.278C233.806 332.149 233.266 332.479 233.137 333.016L231.262 340.794L223.485 338.919C222.948 338.79 222.408 339.12 222.278 339.657C222.149 340.194 222.479 340.734 223.016 340.863L231.766 342.972ZM157.147 221.522L231.147 342.522L232.853 341.478L158.853 220.478L157.147 221.522Z" fill="black"/>
<path d="M334.454 342.495C334.584 343.032 335.124 343.362 335.661 343.233L344.41 341.124C344.947 340.995 345.278 340.455 345.148 339.918C345.019 339.381 344.479 339.05 343.942 339.18L336.164 341.054L334.29 333.277C334.16 332.74 333.62 332.41 333.083 332.539C332.546 332.669 332.216 333.209 332.346 333.746L334.454 342.495ZM408.573 220.739L334.573 341.739L336.28 342.783L410.28 221.783L408.573 220.739Z" fill="black"/>
<path d="M408.793 342.707C409.183 343.098 409.817 343.098 410.207 342.707L416.571 336.343C416.962 335.953 416.962 335.319 416.571 334.929C416.181 334.538 415.547 334.538 415.157 334.929L409.5 340.586L403.843 334.929C403.453 334.538 402.819 334.538 402.429 334.929C402.038 335.319 402.038 335.953 402.429 336.343L408.793 342.707ZM408.5 221V342H410.5V221H408.5Z" fill="black"/>
<path d="M483.192 342.711C483.729 342.841 484.269 342.51 484.399 341.973L486.508 333.224C486.637 332.687 486.307 332.147 485.77 332.018C485.233 331.888 484.693 332.218 484.563 332.755L482.689 340.533L474.911 338.658C474.375 338.529 473.834 338.859 473.705 339.396C473.576 339.933 473.906 340.473 474.443 340.602L483.192 342.711ZM408.573 221.261L482.573 342.261L484.28 341.217L410.28 220.217L408.573 221.261Z" fill="black"/>
<path d="M585.454 342.495C585.584 343.032 586.124 343.362 586.661 343.233L595.41 341.124C595.947 340.995 596.278 340.455 596.148 339.918C596.019 339.381 595.479 339.05 594.942 339.18L587.164 341.054L585.29 333.277C585.16 332.74 584.62 332.41 584.083 332.539C583.546 332.669 583.216 333.209 583.346 333.746L585.454 342.495ZM659.573 220.739L585.573 341.739L587.28 342.783L661.28 221.783L659.573 220.739Z" fill="black"/>
<path d="M659.793 342.707C660.183 343.098 660.817 343.098 661.207 342.707L667.571 336.343C667.962 335.953 667.962 335.319 667.571 334.929C667.181 334.538 666.547 334.538 666.157 334.929L660.5 340.586L654.843 334.929C654.453 334.538 653.819 334.538 653.429 334.929C653.038 335.319 653.038 335.953 653.429 336.343L659.793 342.707ZM659.5 221V342H661.5V221H659.5Z" fill="black"/>
<path d="M734.192 342.711C734.729 342.841 735.269 342.51 735.399 341.973L737.508 333.224C737.637 332.687 737.307 332.147 736.77 332.018C736.233 331.888 735.693 332.218 735.563 332.755L733.689 340.533L725.911 338.658C725.374 338.529 724.834 338.859 724.705 339.396C724.576 339.933 724.906 340.473 725.443 340.602L734.192 342.711ZM659.573 221.261L733.573 342.261L735.28 341.217L661.28 220.217L659.573 221.261Z" fill="black"/>
<path d="M157.056 170.67C156.874 171.191 157.149 171.762 157.67 171.944L166.166 174.913C166.688 175.095 167.258 174.82 167.44 174.299C167.622 173.778 167.347 173.207 166.826 173.025L159.274 170.386L161.913 162.834C162.095 162.312 161.82 161.742 161.299 161.56C160.778 161.378 160.207 161.653 160.025 162.174L157.056 170.67ZM408.566 49.0992L157.566 170.099L158.434 171.901L409.434 50.9008L408.566 49.0992Z" fill="black"/>
<path d="M408.293 171.707C408.683 172.098 409.317 172.098 409.707 171.707L416.071 165.343C416.462 164.953 416.462 164.319 416.071 163.929C415.681 163.538 415.047 163.538 414.657 163.929L409 169.586L403.343 163.929C402.953 163.538 402.319 163.538 401.929 163.929C401.538 164.319 401.538 164.953 401.929 165.343L408.293 171.707ZM408 50L408 171H410L410 50H408Z" fill="black"/>
<path d="M660.33 171.944C660.851 171.762 661.126 171.191 660.944 170.67L657.975 162.174C657.793 161.653 657.222 161.378 656.701 161.56C656.18 161.742 655.905 162.312 656.087 162.834L658.726 170.386L651.174 173.025C650.653 173.207 650.378 173.778 650.56 174.299C650.742 174.82 651.312 175.095 651.834 174.913L660.33 171.944ZM408.566 50.9008L659.566 171.901L660.434 170.099L409.434 49.0992L408.566 50.9008Z" fill="black"/>
<path d="M836.803 357.818H839.431L845.61 372.911H845.823L852.002 357.818H854.629V376H852.57V362.186H852.392L846.71 376H844.722L839.04 362.186H838.862V376H836.803V357.818ZM858.76 376V362.364H860.855V376H858.76ZM859.825 360.091C859.417 360.091 859.065 359.952 858.769 359.674C858.479 359.395 858.334 359.061 858.334 358.67C858.334 358.28 858.479 357.945 858.769 357.667C859.065 357.389 859.417 357.25 859.825 357.25C860.234 357.25 860.583 357.389 860.873 357.667C861.169 357.945 861.317 358.28 861.317 358.67C861.317 359.061 861.169 359.395 860.873 359.674C860.583 359.952 860.234 360.091 859.825 360.091ZM866.788 367.797V376H864.693V362.364H866.717V364.494H866.894C867.214 363.802 867.699 363.246 868.35 362.825C869.001 362.399 869.842 362.186 870.871 362.186C871.795 362.186 872.603 362.375 873.295 362.754C873.988 363.127 874.526 363.695 874.911 364.459C875.296 365.216 875.488 366.175 875.488 367.335V376H873.393V367.477C873.393 366.406 873.115 365.571 872.558 364.974C872.002 364.37 871.238 364.068 870.268 364.068C869.599 364.068 869.001 364.213 868.474 364.503C867.954 364.793 867.542 365.216 867.24 365.773C866.939 366.329 866.788 367.004 866.788 367.797Z" fill="black"/>
<path d="M836.803 15.8182H839.431L845.61 30.9105H845.823L852.002 15.8182H854.629V34H852.57V20.1861H852.392L846.71 34H844.722L839.04 20.1861H838.862V34H836.803V15.8182ZM858.76 34V20.3636H860.855V34H858.76ZM859.825 18.0909C859.417 18.0909 859.065 17.9518 858.769 17.6737C858.479 17.3955 858.334 17.0611 858.334 16.6705C858.334 16.2798 858.479 15.9454 858.769 15.6673C859.065 15.3891 859.417 15.25 859.825 15.25C860.234 15.25 860.583 15.3891 860.873 15.6673C861.169 15.9454 861.317 16.2798 861.317 16.6705C861.317 17.0611 861.169 17.3955 860.873 17.6737C860.583 17.9518 860.234 18.0909 859.825 18.0909ZM866.788 25.7969V34H864.693V20.3636H866.717V22.4943H866.894C867.214 21.8018 867.699 21.2455 868.35 20.8253C869.001 20.3991 869.842 20.1861 870.871 20.1861C871.795 20.1861 872.603 20.3755 873.295 20.7543C873.988 21.1271 874.526 21.6953 874.911 22.4588C875.296 23.2164 875.488 24.1752 875.488 25.3352V34H873.393V25.4773C873.393 24.406 873.115 23.5715 872.558 22.9737C872.002 22.37 871.238 22.0682 870.268 22.0682C869.599 22.0682 869.001 22.2132 868.474 22.5032C867.954 22.7932 867.542 23.2164 867.24 23.7727C866.939 24.3291 866.788 25.0038 866.788 25.7969Z" fill="black"/>
<path d="M833.287 186.818H835.915L842.094 201.911H842.307L848.486 186.818H851.114V205H849.054V191.186H848.877L843.195 205H841.206L835.524 191.186H835.347V205H833.287V186.818ZM859.257 205.32C858.393 205.32 857.609 205.157 856.904 204.831C856.2 204.5 855.641 204.023 855.227 203.402C854.812 202.775 854.605 202.017 854.605 201.129C854.605 200.348 854.759 199.715 855.067 199.229C855.374 198.738 855.786 198.353 856.301 198.075C856.816 197.797 857.384 197.59 858.005 197.454C858.633 197.312 859.263 197.199 859.896 197.116C860.725 197.01 861.397 196.93 861.912 196.877C862.432 196.818 862.811 196.72 863.048 196.584C863.291 196.448 863.412 196.211 863.412 195.874V195.803C863.412 194.927 863.172 194.246 862.693 193.761C862.219 193.275 861.5 193.033 860.535 193.033C859.535 193.033 858.751 193.252 858.183 193.69C857.615 194.128 857.215 194.595 856.984 195.092L854.996 194.382C855.351 193.554 855.824 192.908 856.416 192.447C857.014 191.979 857.665 191.654 858.369 191.47C859.08 191.281 859.778 191.186 860.464 191.186C860.902 191.186 861.405 191.239 861.974 191.346C862.548 191.446 863.101 191.657 863.634 191.976C864.172 192.296 864.619 192.778 864.974 193.423C865.33 194.068 865.507 194.933 865.507 196.016V205H863.412V203.153H863.305C863.163 203.449 862.927 203.766 862.595 204.103C862.264 204.441 861.823 204.728 861.272 204.964C860.722 205.201 860.05 205.32 859.257 205.32ZM859.577 203.438C860.405 203.438 861.104 203.275 861.672 202.949C862.246 202.624 862.678 202.203 862.968 201.689C863.264 201.174 863.412 200.632 863.412 200.064V198.146C863.323 198.253 863.128 198.35 862.826 198.439C862.53 198.522 862.187 198.596 861.796 198.661C861.411 198.72 861.036 198.774 860.669 198.821C860.308 198.862 860.015 198.898 859.79 198.928C859.245 198.999 858.736 199.114 858.263 199.274C857.795 199.428 857.416 199.661 857.126 199.975C856.842 200.283 856.7 200.703 856.7 201.236C856.7 201.964 856.97 202.514 857.508 202.887C858.053 203.254 858.742 203.438 859.577 203.438ZM870.894 191.364L874.161 196.939L877.428 191.364H879.843L875.439 198.182L879.843 205H877.428L874.161 199.709L870.894 205H868.479L872.811 198.182L868.479 191.364H870.894Z" fill="black"/>
<line y1="108.5" x2="1000" y2="108.5" stroke="black" stroke-opacity="0.2" stroke-width="3"/>
<line y1="279.5" x2="1000" y2="279.5" stroke="black" stroke-opacity="0.19" stroke-width="3"/>
<path d="M241.5 269L242.4 268.565L241.5 269ZM182.901 195.005C182.351 195.06 181.95 195.549 182.005 196.099L182.895 205.055C182.95 205.604 183.44 206.006 183.989 205.951C184.539 205.896 184.94 205.406 184.886 204.857L184.094 196.896L192.055 196.105C192.604 196.05 193.006 195.56 192.951 195.011C192.896 194.461 192.406 194.06 191.857 194.114L182.901 195.005ZM257 367C257.997 367.08 257.997 367.08 257.997 367.079C257.997 367.079 257.997 367.078 257.997 367.077C257.997 367.075 257.997 367.072 257.998 367.068C257.998 367.061 257.999 367.05 258 367.036C258.002 367.007 258.006 366.965 258.01 366.91C258.018 366.8 258.03 366.636 258.044 366.422C258.073 365.994 258.112 365.362 258.155 364.543C258.24 362.907 258.34 360.527 258.397 357.542C258.51 351.574 258.451 343.184 257.764 333.492C256.391 314.127 252.503 289.481 242.4 268.565L240.6 269.435C250.541 290.019 254.403 314.373 255.769 333.633C256.451 343.254 256.509 351.583 256.397 357.504C256.341 360.465 256.242 362.823 256.157 364.439C256.115 365.247 256.076 365.869 256.048 366.289C256.034 366.498 256.023 366.657 256.015 366.763C256.011 366.816 256.008 366.856 256.006 366.882C256.005 366.895 256.004 366.905 256.004 366.911C256.004 366.914 256.003 366.917 256.003 366.918C256.003 366.919 256.003 366.919 256.003 366.92C256.003 366.92 256.003 366.92 257 367ZM242.4 268.565C232.318 247.691 217.621 229.358 205.466 216.257C199.386 209.703 193.933 204.45 189.999 200.834C188.031 199.026 186.443 197.626 185.345 196.678C184.796 196.204 184.37 195.842 184.08 195.598C183.935 195.477 183.824 195.384 183.749 195.322C183.712 195.291 183.683 195.267 183.664 195.251C183.654 195.243 183.647 195.237 183.642 195.233C183.639 195.231 183.637 195.229 183.636 195.228C183.635 195.228 183.635 195.227 183.634 195.227C183.634 195.227 183.634 195.226 183 196C182.366 196.774 182.366 196.774 182.366 196.774C182.367 196.774 182.367 196.774 182.367 196.775C182.368 196.775 182.37 196.777 182.372 196.778C182.376 196.782 182.383 196.787 182.392 196.795C182.41 196.809 182.437 196.832 182.472 196.861C182.544 196.921 182.652 197.01 182.793 197.129C183.077 197.367 183.496 197.723 184.038 198.191C185.121 199.127 186.694 200.513 188.645 202.307C192.548 205.894 197.962 211.109 204 217.618C216.085 230.642 230.638 248.809 240.6 269.435L242.4 268.565Z" fill="#FF0000"/>
<path d="M635.748 195.959C635.809 195.41 635.414 194.915 634.865 194.853L625.921 193.85C625.373 193.789 624.878 194.184 624.816 194.733C624.755 195.281 625.15 195.776 625.699 195.838L633.649 196.729L632.757 204.68C632.696 205.228 633.091 205.723 633.639 205.785C634.188 205.846 634.683 205.451 634.745 204.903L635.748 195.959ZM573.925 274.231L572.991 273.873L573.925 274.231ZM634.754 195.847C634.13 195.066 634.13 195.066 634.129 195.066C634.129 195.067 634.128 195.067 634.127 195.068C634.126 195.069 634.124 195.071 634.121 195.073C634.115 195.078 634.106 195.085 634.095 195.093C634.073 195.111 634.04 195.138 633.997 195.172C633.911 195.242 633.784 195.345 633.618 195.482C633.286 195.754 632.798 196.158 632.173 196.687C630.921 197.744 629.118 199.301 626.903 201.303C622.475 205.306 616.399 211.092 609.804 218.228C596.628 232.485 581.323 252.19 572.991 273.873L574.858 274.59C583.058 253.252 598.168 233.765 611.273 219.585C617.819 212.502 623.851 206.759 628.245 202.787C630.441 200.801 632.228 199.259 633.464 198.214C634.082 197.692 634.562 197.294 634.887 197.028C635.049 196.895 635.173 196.794 635.255 196.727C635.297 196.694 635.328 196.669 635.348 196.652C635.358 196.644 635.366 196.638 635.371 196.634C635.373 196.632 635.375 196.631 635.376 196.63C635.377 196.629 635.377 196.629 635.378 196.629C635.378 196.629 635.378 196.629 634.754 195.847ZM572.991 273.873C564.676 295.512 561.373 318.775 560.143 336.603C559.528 345.523 559.431 353.093 559.488 358.437C559.517 361.109 559.584 363.224 559.644 364.674C559.674 365.399 559.702 365.957 559.723 366.335C559.734 366.524 559.742 366.668 559.748 366.766C559.751 366.814 559.753 366.851 559.755 366.876C559.756 366.889 559.756 366.898 559.757 366.905C559.757 366.908 559.757 366.911 559.757 366.912C559.757 366.913 559.758 366.914 559.758 366.914C559.758 366.915 559.758 366.915 560.755 366.848C561.753 366.78 561.753 366.78 561.753 366.78C561.753 366.78 561.753 366.779 561.753 366.779C561.753 366.777 561.753 366.775 561.753 366.773C561.752 366.767 561.752 366.759 561.751 366.747C561.749 366.724 561.747 366.689 561.744 366.643C561.739 366.55 561.73 366.41 561.72 366.225C561.7 365.856 561.672 365.307 561.642 364.591C561.583 363.16 561.517 361.065 561.488 358.415C561.432 353.115 561.528 345.598 562.138 336.741C563.361 319.016 566.642 295.971 574.858 274.59L572.991 273.873Z" fill="#FF0000"/>
<path d="M492.5 269.847L493.4 269.412L492.5 269.847ZM433.901 195.852C433.351 195.907 432.95 196.397 433.005 196.946L433.895 205.902C433.95 206.452 434.44 206.853 434.989 206.798C435.539 206.744 435.94 206.254 435.886 205.704L435.094 197.743L443.055 196.952C443.604 196.897 444.006 196.407 443.951 195.858C443.896 195.308 443.406 194.907 442.857 194.962L433.901 195.852ZM508 367.847C508.997 367.927 508.997 367.927 508.997 367.926C508.997 367.926 508.997 367.925 508.997 367.924C508.997 367.922 508.997 367.919 508.998 367.916C508.998 367.908 508.999 367.897 509 367.883C509.002 367.855 509.006 367.813 509.01 367.758C509.018 367.647 509.03 367.484 509.044 367.269C509.073 366.841 509.112 366.209 509.155 365.391C509.24 363.755 509.34 361.374 509.397 358.39C509.51 352.421 509.451 344.031 508.764 334.339C507.391 314.974 503.503 290.328 493.4 269.412L491.6 270.282C501.541 290.866 505.403 315.22 506.769 334.481C507.451 344.101 507.509 352.43 507.397 358.352C507.341 361.312 507.242 363.67 507.157 365.286C507.115 366.094 507.076 366.717 507.048 367.136C507.034 367.345 507.023 367.504 507.015 367.61C507.011 367.663 507.008 367.703 507.006 367.729C507.005 367.742 507.004 367.752 507.004 367.758C507.004 367.762 507.003 367.764 507.003 367.765C507.003 367.766 507.003 367.767 507.003 367.767C507.003 367.767 507.003 367.767 508 367.847ZM493.4 269.412C483.318 248.538 468.621 230.205 456.466 217.105C450.386 210.551 444.933 205.298 440.999 201.681C439.031 199.873 437.443 198.474 436.345 197.525C435.796 197.051 435.37 196.689 435.08 196.446C434.935 196.324 434.824 196.231 434.749 196.169C434.712 196.138 434.683 196.115 434.664 196.099C434.654 196.091 434.647 196.085 434.642 196.08C434.639 196.078 434.637 196.077 434.636 196.076C434.635 196.075 434.635 196.075 434.634 196.074C434.634 196.074 434.634 196.074 434 196.847C433.366 197.621 433.366 197.621 433.366 197.621C433.367 197.621 433.367 197.621 433.367 197.622C433.368 197.623 433.37 197.624 433.372 197.626C433.376 197.629 433.383 197.635 433.392 197.642C433.41 197.657 433.437 197.679 433.472 197.709C433.544 197.768 433.652 197.858 433.793 197.977C434.077 198.215 434.496 198.57 435.038 199.039C436.121 199.975 437.694 201.361 439.645 203.154C443.548 206.741 448.962 211.956 455 218.465C467.085 231.49 481.638 249.657 491.6 270.282L493.4 269.412Z" fill="#FF0000"/>
<path d="M357 106L356 105.98L357 106ZM384.997 24.9206C384.953 24.3701 384.471 23.9593 383.921 24.0032L374.949 24.7177C374.398 24.7616 373.988 25.2434 374.032 25.7939C374.075 26.3445 374.557 26.7552 375.108 26.7114L383.083 26.0762L383.718 34.051C383.762 34.6015 384.243 35.0123 384.794 34.9684C385.344 34.9246 385.755 34.4427 385.711 33.8922L384.997 24.9206ZM384 196C384.816 195.422 384.816 195.422 384.816 195.422C384.816 195.422 384.816 195.421 384.815 195.421C384.815 195.42 384.814 195.419 384.812 195.416C384.809 195.412 384.805 195.406 384.798 195.397C384.786 195.379 384.767 195.352 384.741 195.315C384.69 195.241 384.614 195.13 384.513 194.982C384.312 194.686 384.016 194.243 383.638 193.66C382.883 192.494 381.801 190.768 380.505 188.537C377.913 184.074 374.464 177.596 371.045 169.547C364.205 153.441 357.503 131.085 358 106.02L356 105.98C355.497 131.415 362.295 154.059 369.205 170.328C372.661 178.467 376.149 185.019 378.776 189.541C380.089 191.803 381.188 193.557 381.96 194.748C382.345 195.343 382.65 195.798 382.859 196.106C382.963 196.26 383.043 196.376 383.098 196.455C383.126 196.495 383.147 196.525 383.161 196.545C383.168 196.556 383.174 196.564 383.178 196.569C383.18 196.572 383.181 196.574 383.182 196.576C383.183 196.576 383.183 196.577 383.184 196.577C383.184 196.578 383.184 196.578 384 196ZM358 106.02C358.496 80.9395 365.201 60.829 371.778 46.9918C375.067 40.0734 378.322 34.7256 380.752 31.1127C381.966 29.3063 382.974 27.9341 383.675 27.0165C384.026 26.5577 384.3 26.2126 384.485 25.9838C384.578 25.8694 384.648 25.784 384.695 25.7281C384.718 25.7001 384.735 25.6795 384.746 25.6662C384.752 25.6596 384.756 25.6548 384.758 25.6519C384.76 25.6505 384.76 25.6495 384.761 25.6489C384.761 25.6487 384.761 25.6486 384.761 25.6485C384.761 25.6486 384.761 25.6487 384 25C383.239 24.3513 383.239 24.3517 383.238 24.3522C383.238 24.3525 383.237 24.3532 383.237 24.3539C383.236 24.3552 383.234 24.357 383.232 24.3592C383.228 24.3637 383.223 24.3701 383.216 24.3784C383.202 24.3948 383.182 24.4187 383.156 24.45C383.104 24.5126 383.028 24.6046 382.93 24.7259C382.734 24.9686 382.449 25.3281 382.086 25.8019C381.362 26.7495 380.331 28.1546 379.092 29.9967C376.615 33.6806 373.308 39.1141 369.972 46.1332C363.299 60.171 356.504 80.5605 356 105.98L358 106.02Z" fill="#FF0000"/>
</svg>
