<svg width="512" height="806" viewBox="0 0 512 806" fill="none" xmlns="http://www.w3.org/2000/svg">
<path d="M123 630C123 643.255 112.255 654 99 654C85.7452 654 75 643.255 75 630C75 616.745 85.7452 606 99 606C112.255 606 123 616.745 123 630Z" fill="#D9D9D9" stroke="black" stroke-width="2"/>
<path d="M93.2225 623.864V635.5H91.8134V625.341H91.7452L88.9043 627.227V625.795L91.8134 623.864H93.2225ZM101.592 629.057V630.307H96.5009V629.057H101.592ZM108.019 623.864V635.5H106.61V625.341H106.542L103.701 627.227V625.795L106.61 623.864H108.019Z" fill="black"/>
<path d="M91.4506 784.909V798H89.8653V786.571H89.7886L86.5926 788.693V787.082L89.8653 784.909H91.4506ZM100.866 790.751V792.158H95.1388V790.751H100.866ZM108.097 784.909V798H106.512V786.571H106.435L103.239 788.693V787.082L106.512 784.909H108.097Z" fill="black"/>
<path d="M98.7929 604.707C99.1834 605.098 99.8166 605.098 100.207 604.707L106.571 598.343C106.962 597.953 106.962 597.319 106.571 596.929C106.181 596.538 105.547 596.538 105.157 596.929L99.5 602.586L93.8431 596.929C93.4526 596.538 92.8195 596.538 92.4289 596.929C92.0384 597.319 92.0384 597.953 92.4289 598.343L98.7929 604.707ZM98.5 483L98.5 604H100.5L100.5 483H98.5Z" fill="black"/>
<path d="M49 459C49 472.255 38.2548 483 25 483C11.7452 483 1 472.255 1 459C1 445.745 11.7452 435 25 435C38.2548 435 49 445.745 49 459Z" fill="#D9D9D9" stroke="black" stroke-width="2"/>
<path d="M17.6195 464.659C16.9528 464.659 16.3524 464.527 15.8183 464.261C15.2842 463.996 14.8562 463.633 14.5342 463.17C14.2123 462.708 14.0361 462.182 14.0058 461.591H15.3695C15.4225 462.117 15.6611 462.553 16.0854 462.898C16.5134 463.239 17.0248 463.409 17.6195 463.409C18.0967 463.409 18.521 463.297 18.8922 463.074C19.2672 462.85 19.5608 462.544 19.7729 462.153C19.9888 461.759 20.0967 461.314 20.0967 460.818C20.0967 460.311 19.985 459.858 19.7615 459.46C19.5418 459.059 19.2388 458.742 18.8524 458.511C18.4661 458.28 18.0248 458.163 17.5286 458.159C17.1725 458.155 16.807 458.21 16.432 458.324C16.057 458.434 15.7483 458.576 15.5058 458.75L14.1877 458.591L14.8922 452.864H20.9377V454.114H16.074L15.6649 457.545H15.7331C15.9717 457.356 16.271 457.199 16.6308 457.074C16.9907 456.949 17.3657 456.886 17.7558 456.886C18.468 456.886 19.1024 457.057 19.6592 457.398C20.2199 457.735 20.6592 458.197 20.9774 458.784C21.2994 459.371 21.4604 460.042 21.4604 460.795C21.4604 461.538 21.2937 462.201 20.9604 462.784C20.6308 463.364 20.1763 463.822 19.5967 464.159C19.0172 464.492 18.3581 464.659 17.6195 464.659ZM28.7402 458.057V459.307H23.6493V458.057H28.7402ZM35.1678 452.864V464.5H33.7587V454.341H33.6905L30.8496 456.227V454.795L33.7587 452.864H35.1678Z" fill="black"/>
<path d="M86 288C86 301.255 75.2548 312 62 312C48.7452 312 38 301.255 38 288C38 274.745 48.7452 264 62 264C75.2548 264 86 274.745 86 288Z" fill="#D9D9D9" stroke="black" stroke-width="2"/>
<path d="M53.2338 293.659C52.4535 293.659 51.7641 293.521 51.1656 293.244C50.5709 292.964 50.1069 292.58 49.7736 292.091C49.4403 291.598 49.2755 291.038 49.2793 290.409C49.2755 289.917 49.3721 289.462 49.569 289.045C49.766 288.625 50.035 288.275 50.3759 287.994C50.7206 287.71 51.105 287.53 51.5293 287.455V287.386C50.9725 287.242 50.5293 286.93 50.1997 286.449C49.8702 285.964 49.7073 285.413 49.7111 284.795C49.7073 284.205 49.8569 283.676 50.16 283.21C50.463 282.744 50.8797 282.377 51.41 282.108C51.944 281.839 52.552 281.705 53.2338 281.705C53.9081 281.705 54.5103 281.839 55.0406 282.108C55.5709 282.377 55.9876 282.744 56.2906 283.21C56.5975 283.676 56.7528 284.205 56.7565 284.795C56.7528 285.413 56.5842 285.964 56.2509 286.449C55.9213 286.93 55.4838 287.242 54.9384 287.386V287.455C55.3588 287.53 55.7376 287.71 56.0747 287.994C56.4119 288.275 56.6808 288.625 56.8815 289.045C57.0823 289.462 57.1846 289.917 57.1884 290.409C57.1846 291.038 57.0141 291.598 56.677 292.091C56.3437 292.58 55.8797 292.964 55.285 293.244C54.694 293.521 54.0103 293.659 53.2338 293.659ZM53.2338 292.409C53.7603 292.409 54.2149 292.324 54.5975 292.153C54.98 291.983 55.2755 291.742 55.4838 291.432C55.6922 291.121 55.7982 290.758 55.802 290.341C55.7982 289.902 55.6846 289.513 55.4611 289.176C55.2376 288.839 54.9327 288.574 54.5463 288.381C54.1637 288.187 53.7262 288.091 53.2338 288.091C52.7376 288.091 52.2944 288.187 51.9043 288.381C51.5179 288.574 51.213 288.839 50.9895 289.176C50.7698 289.513 50.6619 289.902 50.6656 290.341C50.6619 290.758 50.7622 291.121 50.9668 291.432C51.1751 291.742 51.4725 291.983 51.8588 292.153C52.2452 292.324 52.7035 292.409 53.2338 292.409ZM53.2338 286.886C53.6505 286.886 54.0198 286.803 54.3418 286.636C54.6675 286.47 54.9232 286.237 55.1088 285.938C55.2944 285.638 55.3891 285.288 55.3929 284.886C55.3891 284.492 55.2963 284.15 55.1145 283.858C54.9327 283.562 54.6808 283.335 54.3588 283.176C54.0369 283.013 53.6619 282.932 53.2338 282.932C52.7982 282.932 52.4175 283.013 52.0918 283.176C51.766 283.335 51.5141 283.562 51.3361 283.858C51.1581 284.15 51.0709 284.492 51.0747 284.886C51.0709 285.288 51.16 285.638 51.3418 285.938C51.5274 286.237 51.7831 286.47 52.1088 286.636C52.4346 286.803 52.8096 286.886 53.2338 286.886ZM64.3886 287.057V288.307H59.2977V287.057H64.3886ZM66.4526 291.114V289.955L71.5662 281.864H72.4071V283.659H71.8389L67.9753 289.773V289.864H74.8617V291.114H66.4526ZM71.9298 293.5V290.761V290.222V281.864H73.2708V293.5H71.9298Z" fill="black"/>
<path d="M298 459C298 472.255 287.255 483 274 483C260.745 483 250 472.255 250 459C250 445.745 260.745 435 274 435C287.255 435 298 445.745 298 459Z" fill="#D9D9D9" stroke="black" stroke-width="2"/>
<path d="M262.445 462.114V460.955L267.558 452.864H268.399V454.659H267.831L263.967 460.773V460.864H270.854V462.114H262.445ZM267.922 464.5V461.761V461.222V452.864H269.263V464.5H267.922ZM278.006 458.057V459.307H272.915V458.057H278.006ZM284.433 452.864V464.5H283.024V454.341H282.956L280.115 456.227V454.795L283.024 452.864H284.433Z" fill="black"/>
<path d="M224 459C224 472.255 213.255 483 200 483C186.745 483 176 472.255 176 459C176 445.745 186.745 435 200 435C213.255 435 224 445.745 224 459Z" fill="#D9D9D9" stroke="black" stroke-width="2"/>
<path d="M187.725 464.5V463.477L191.566 459.273C192.017 458.78 192.388 458.352 192.68 457.989C192.972 457.621 193.187 457.277 193.328 456.955C193.472 456.629 193.543 456.288 193.543 455.932C193.543 455.523 193.445 455.169 193.248 454.869C193.055 454.57 192.79 454.339 192.453 454.176C192.115 454.013 191.737 453.932 191.316 453.932C190.869 453.932 190.479 454.025 190.146 454.21C189.816 454.392 189.561 454.648 189.379 454.977C189.201 455.307 189.112 455.693 189.112 456.136H187.771C187.771 455.455 187.928 454.856 188.242 454.341C188.557 453.826 188.985 453.424 189.526 453.136C190.072 452.848 190.684 452.705 191.362 452.705C192.043 452.705 192.648 452.848 193.174 453.136C193.701 453.424 194.114 453.812 194.413 454.301C194.712 454.79 194.862 455.333 194.862 455.932C194.862 456.36 194.784 456.778 194.629 457.188C194.477 457.593 194.212 458.045 193.833 458.545C193.458 459.042 192.937 459.648 192.271 460.364L189.657 463.159V463.25H195.066V464.5H187.725ZM202.436 458.057V459.307H197.345V458.057H202.436ZM208.568 464.659C207.712 464.659 206.982 464.426 206.38 463.96C205.778 463.491 205.318 462.811 204.999 461.92C204.681 461.027 204.522 459.947 204.522 458.682C204.522 457.424 204.681 456.35 204.999 455.46C205.321 454.566 205.784 453.884 206.386 453.415C206.992 452.941 207.719 452.705 208.568 452.705C209.416 452.705 210.141 452.941 210.744 453.415C211.35 453.884 211.812 454.566 212.13 455.46C212.452 456.35 212.613 457.424 212.613 458.682C212.613 459.947 212.454 461.027 212.136 461.92C211.818 462.811 211.357 463.491 210.755 463.96C210.153 464.426 209.424 464.659 208.568 464.659ZM208.568 463.409C209.416 463.409 210.075 463 210.545 462.182C211.015 461.364 211.249 460.197 211.249 458.682C211.249 457.674 211.141 456.816 210.926 456.108C210.713 455.4 210.407 454.86 210.005 454.489C209.607 454.117 209.128 453.932 208.568 453.932C207.727 453.932 207.07 454.347 206.596 455.176C206.123 456.002 205.886 457.17 205.886 458.682C205.886 459.689 205.992 460.545 206.204 461.25C206.416 461.955 206.721 462.491 207.119 462.858C207.52 463.225 208.003 463.409 208.568 463.409Z" fill="black"/>
<path d="M123 458C123 471.255 112.255 482 99 482C85.7452 482 75 471.255 75 458C75 444.745 85.7452 434 99 434C112.255 434 123 444.745 123 458Z" fill="#D9D9D9" stroke="black" stroke-width="2"/>
<path d="M90.4071 463.659C89.6571 463.659 88.9886 463.53 88.4014 463.273C87.8181 463.015 87.3541 462.657 87.0094 462.199C86.6685 461.737 86.4829 461.201 86.4526 460.591H87.8844C87.9147 460.966 88.0435 461.29 88.2708 461.562C88.498 461.831 88.7954 462.04 89.1628 462.188C89.5302 462.335 89.9374 462.409 90.3844 462.409C90.8844 462.409 91.3276 462.322 91.7139 462.148C92.1003 461.973 92.4033 461.731 92.623 461.42C92.8427 461.11 92.9526 460.75 92.9526 460.341C92.9526 459.913 92.8465 459.536 92.6344 459.21C92.4223 458.881 92.1117 458.623 91.7026 458.438C91.2935 458.252 90.7935 458.159 90.2026 458.159H89.2708V456.909H90.2026C90.6647 456.909 91.07 456.826 91.4185 456.659C91.7708 456.492 92.0454 456.258 92.2423 455.955C92.4431 455.652 92.5435 455.295 92.5435 454.886C92.5435 454.492 92.4564 454.15 92.2821 453.858C92.1079 453.566 91.8617 453.339 91.5435 453.176C91.2291 453.013 90.8579 452.932 90.4298 452.932C90.0283 452.932 89.6495 453.006 89.2935 453.153C88.9412 453.297 88.6533 453.508 88.4298 453.784C88.2064 454.057 88.0851 454.386 88.0662 454.773H86.7026C86.7253 454.163 86.909 453.629 87.2537 453.17C87.5984 452.708 88.0492 452.348 88.606 452.091C89.1666 451.833 89.7821 451.705 90.4526 451.705C91.1723 451.705 91.7897 451.85 92.3048 452.142C92.82 452.43 93.2158 452.811 93.4923 453.284C93.7689 453.758 93.9071 454.269 93.9071 454.818C93.9071 455.473 93.7348 456.032 93.3901 456.494C93.0492 456.956 92.5851 457.277 91.998 457.455V457.545C92.7329 457.667 93.3067 457.979 93.7196 458.483C94.1325 458.983 94.3389 459.602 94.3389 460.341C94.3389 460.973 94.1666 461.542 93.8219 462.045C93.481 462.545 93.0151 462.939 92.4242 463.227C91.8333 463.515 91.1609 463.659 90.4071 463.659ZM101.686 457.057V458.307H96.5946V457.057H101.686ZM107.766 463.659C107.016 463.659 106.348 463.53 105.761 463.273C105.177 463.015 104.713 462.657 104.369 462.199C104.028 461.737 103.842 461.201 103.812 460.591H105.244C105.274 460.966 105.403 461.29 105.63 461.562C105.857 461.831 106.155 462.04 106.522 462.188C106.89 462.335 107.297 462.409 107.744 462.409C108.244 462.409 108.687 462.322 109.073 462.148C109.46 461.973 109.763 461.731 109.982 461.42C110.202 461.11 110.312 460.75 110.312 460.341C110.312 459.913 110.206 459.536 109.994 459.21C109.782 458.881 109.471 458.623 109.062 458.438C108.653 458.252 108.153 458.159 107.562 458.159H106.63V456.909H107.562C108.024 456.909 108.429 456.826 108.778 456.659C109.13 456.492 109.405 456.258 109.602 455.955C109.802 455.652 109.903 455.295 109.903 454.886C109.903 454.492 109.816 454.15 109.641 453.858C109.467 453.566 109.221 453.339 108.903 453.176C108.588 453.013 108.217 452.932 107.789 452.932C107.388 452.932 107.009 453.006 106.653 453.153C106.301 453.297 106.013 453.508 105.789 453.784C105.566 454.057 105.445 454.386 105.426 454.773H104.062C104.085 454.163 104.268 453.629 104.613 453.17C104.958 452.708 105.409 452.348 105.965 452.091C106.526 451.833 107.141 451.705 107.812 451.705C108.532 451.705 109.149 451.85 109.664 452.142C110.179 452.43 110.575 452.811 110.852 453.284C111.128 453.758 111.266 454.269 111.266 454.818C111.266 455.473 111.094 456.032 110.749 456.494C110.409 456.956 109.945 457.277 109.357 457.455V457.545C110.092 457.667 110.666 457.979 111.079 458.483C111.492 458.983 111.698 459.602 111.698 460.341C111.698 460.973 111.526 461.542 111.181 462.045C110.84 462.545 110.374 462.939 109.784 463.227C109.193 463.515 108.52 463.659 107.766 463.659Z" fill="black"/>
<path d="M372 459C372 472.255 361.255 483 348 483C334.745 483 324 472.255 324 459C324 445.745 334.745 435 348 435C361.255 435 372 445.745 372 459Z" fill="#D9D9D9" stroke="black" stroke-width="2"/>
<path d="M339.407 464.659C338.657 464.659 337.989 464.53 337.401 464.273C336.818 464.015 336.354 463.657 336.009 463.199C335.668 462.737 335.483 462.201 335.453 461.591H336.884C336.915 461.966 337.043 462.29 337.271 462.562C337.498 462.831 337.795 463.04 338.163 463.188C338.53 463.335 338.937 463.409 339.384 463.409C339.884 463.409 340.328 463.322 340.714 463.148C341.1 462.973 341.403 462.731 341.623 462.42C341.843 462.11 341.953 461.75 341.953 461.341C341.953 460.913 341.847 460.536 341.634 460.21C341.422 459.881 341.112 459.623 340.703 459.438C340.293 459.252 339.793 459.159 339.203 459.159H338.271V457.909H339.203C339.665 457.909 340.07 457.826 340.418 457.659C340.771 457.492 341.045 457.258 341.242 456.955C341.443 456.652 341.543 456.295 341.543 455.886C341.543 455.492 341.456 455.15 341.282 454.858C341.108 454.566 340.862 454.339 340.543 454.176C340.229 454.013 339.858 453.932 339.43 453.932C339.028 453.932 338.65 454.006 338.293 454.153C337.941 454.297 337.653 454.508 337.43 454.784C337.206 455.057 337.085 455.386 337.066 455.773H335.703C335.725 455.163 335.909 454.629 336.254 454.17C336.598 453.708 337.049 453.348 337.606 453.091C338.167 452.833 338.782 452.705 339.453 452.705C340.172 452.705 340.79 452.85 341.305 453.142C341.82 453.43 342.216 453.811 342.492 454.284C342.769 454.758 342.907 455.269 342.907 455.818C342.907 456.473 342.735 457.032 342.39 457.494C342.049 457.956 341.585 458.277 340.998 458.455V458.545C341.733 458.667 342.307 458.979 342.72 459.483C343.132 459.983 343.339 460.602 343.339 461.341C343.339 461.973 343.167 462.542 342.822 463.045C342.481 463.545 342.015 463.939 341.424 464.227C340.833 464.515 340.161 464.659 339.407 464.659ZM350.686 458.057V459.307H345.595V458.057H350.686ZM356.766 464.659C356.016 464.659 355.348 464.53 354.761 464.273C354.177 464.015 353.713 463.657 353.369 463.199C353.028 462.737 352.842 462.201 352.812 461.591H354.244C354.274 461.966 354.403 462.29 354.63 462.562C354.857 462.831 355.155 463.04 355.522 463.188C355.89 463.335 356.297 463.409 356.744 463.409C357.244 463.409 357.687 463.322 358.073 463.148C358.46 462.973 358.763 462.731 358.982 462.42C359.202 462.11 359.312 461.75 359.312 461.341C359.312 460.913 359.206 460.536 358.994 460.21C358.782 459.881 358.471 459.623 358.062 459.438C357.653 459.252 357.153 459.159 356.562 459.159H355.63V457.909H356.562C357.024 457.909 357.429 457.826 357.778 457.659C358.13 457.492 358.405 457.258 358.602 456.955C358.802 456.652 358.903 456.295 358.903 455.886C358.903 455.492 358.816 455.15 358.641 454.858C358.467 454.566 358.221 454.339 357.903 454.176C357.588 454.013 357.217 453.932 356.789 453.932C356.388 453.932 356.009 454.006 355.653 454.153C355.301 454.297 355.013 454.508 354.789 454.784C354.566 455.057 354.445 455.386 354.426 455.773H353.062C353.085 455.163 353.268 454.629 353.613 454.17C353.958 453.708 354.409 453.348 354.965 453.091C355.526 452.833 356.141 452.705 356.812 452.705C357.532 452.705 358.149 452.85 358.664 453.142C359.179 453.43 359.575 453.811 359.852 454.284C360.128 454.758 360.266 455.269 360.266 455.818C360.266 456.473 360.094 457.032 359.749 457.494C359.409 457.956 358.945 458.277 358.357 458.455V458.545C359.092 458.667 359.666 458.979 360.079 459.483C360.492 459.983 360.698 460.602 360.698 461.341C360.698 461.973 360.526 462.542 360.181 463.045C359.84 463.545 359.374 463.939 358.784 464.227C358.193 464.515 357.52 464.659 356.766 464.659Z" fill="black"/>
<path d="M511 287C511 300.255 500.255 311 487 311C473.745 311 463 300.255 463 287C463 273.745 473.745 263 487 263C500.255 263 511 273.745 511 287Z" fill="#D9D9D9" stroke="black" stroke-width="2"/>
<path d="M479.941 280.864V292.5H478.532V282.341H478.464L475.623 284.227V282.795L478.532 280.864H479.941ZM488.311 286.057V287.307H483.22V286.057H488.311ZM494.443 292.659C493.587 292.659 492.857 292.426 492.255 291.96C491.653 291.491 491.193 290.811 490.874 289.92C490.556 289.027 490.397 287.947 490.397 286.682C490.397 285.424 490.556 284.35 490.874 283.46C491.196 282.566 491.659 281.884 492.261 281.415C492.867 280.941 493.594 280.705 494.443 280.705C495.291 280.705 496.016 280.941 496.619 281.415C497.225 281.884 497.687 282.566 498.005 283.46C498.327 284.35 498.488 285.424 498.488 286.682C498.488 287.947 498.329 289.027 498.011 289.92C497.693 290.811 497.232 291.491 496.63 291.96C496.028 292.426 495.299 292.659 494.443 292.659ZM494.443 291.409C495.291 291.409 495.95 291 496.42 290.182C496.89 289.364 497.124 288.197 497.124 286.682C497.124 285.674 497.016 284.816 496.801 284.108C496.588 283.4 496.282 282.86 495.88 282.489C495.482 282.117 495.003 281.932 494.443 281.932C493.602 281.932 492.945 282.347 492.471 283.176C491.998 284.002 491.761 285.17 491.761 286.682C491.761 287.689 491.867 288.545 492.079 289.25C492.291 289.955 492.596 290.491 492.994 290.858C493.395 291.225 493.878 291.409 494.443 291.409Z" fill="black"/>
<path d="M298 116C298 129.255 287.255 140 274 140C260.745 140 250 129.255 250 116C250 102.745 260.745 92 274 92C287.255 92 298 102.745 298 116Z" fill="#D9D9D9" stroke="black" stroke-width="2"/>
<path d="M262.082 109.864V121.5H260.673V111.341H260.605L257.764 113.227V111.795L260.673 109.864H262.082ZM269.156 121.659C268.375 121.659 267.686 121.521 267.088 121.244C266.493 120.964 266.029 120.58 265.695 120.091C265.362 119.598 265.197 119.038 265.201 118.409C265.197 117.917 265.294 117.462 265.491 117.045C265.688 116.625 265.957 116.275 266.298 115.994C266.642 115.71 267.027 115.53 267.451 115.455V115.386C266.894 115.242 266.451 114.93 266.122 114.449C265.792 113.964 265.629 113.413 265.633 112.795C265.629 112.205 265.779 111.676 266.082 111.21C266.385 110.744 266.802 110.377 267.332 110.108C267.866 109.839 268.474 109.705 269.156 109.705C269.83 109.705 270.432 109.839 270.963 110.108C271.493 110.377 271.909 110.744 272.213 111.21C272.519 111.676 272.675 112.205 272.678 112.795C272.675 113.413 272.506 113.964 272.173 114.449C271.843 114.93 271.406 115.242 270.86 115.386V115.455C271.281 115.53 271.659 115.71 271.997 115.994C272.334 116.275 272.603 116.625 272.803 117.045C273.004 117.462 273.106 117.917 273.11 118.409C273.106 119.038 272.936 119.598 272.599 120.091C272.266 120.58 271.802 120.964 271.207 121.244C270.616 121.521 269.932 121.659 269.156 121.659ZM269.156 120.409C269.682 120.409 270.137 120.324 270.519 120.153C270.902 119.983 271.197 119.742 271.406 119.432C271.614 119.121 271.72 118.758 271.724 118.341C271.72 117.902 271.606 117.513 271.383 117.176C271.159 116.839 270.855 116.574 270.468 116.381C270.086 116.187 269.648 116.091 269.156 116.091C268.659 116.091 268.216 116.187 267.826 116.381C267.44 116.574 267.135 116.839 266.911 117.176C266.692 117.513 266.584 117.902 266.588 118.341C266.584 118.758 266.684 119.121 266.889 119.432C267.097 119.742 267.394 119.983 267.781 120.153C268.167 120.324 268.625 120.409 269.156 120.409ZM269.156 114.886C269.572 114.886 269.942 114.803 270.264 114.636C270.589 114.47 270.845 114.237 271.031 113.938C271.216 113.638 271.311 113.288 271.315 112.886C271.311 112.492 271.218 112.15 271.036 111.858C270.855 111.562 270.603 111.335 270.281 111.176C269.959 111.013 269.584 110.932 269.156 110.932C268.72 110.932 268.339 111.013 268.014 111.176C267.688 111.335 267.436 111.562 267.258 111.858C267.08 112.15 266.993 112.492 266.997 112.886C266.993 113.288 267.082 113.638 267.264 113.938C267.449 114.237 267.705 114.47 268.031 114.636C268.356 114.803 268.731 114.886 269.156 114.886ZM280.311 115.057V116.307H275.22V115.057H280.311ZM286.374 121.659C285.594 121.659 284.905 121.521 284.306 121.244C283.712 120.964 283.248 120.58 282.914 120.091C282.581 119.598 282.416 119.038 282.42 118.409C282.416 117.917 282.513 117.462 282.71 117.045C282.907 116.625 283.176 116.275 283.516 115.994C283.861 115.71 284.246 115.53 284.67 115.455V115.386C284.113 115.242 283.67 114.93 283.34 114.449C283.011 113.964 282.848 113.413 282.852 112.795C282.848 112.205 282.998 111.676 283.301 111.21C283.604 110.744 284.02 110.377 284.551 110.108C285.085 109.839 285.693 109.705 286.374 109.705C287.049 109.705 287.651 109.839 288.181 110.108C288.712 110.377 289.128 110.744 289.431 111.21C289.738 111.676 289.893 112.205 289.897 112.795C289.893 113.413 289.725 113.964 289.391 114.449C289.062 114.93 288.624 115.242 288.079 115.386V115.455C288.499 115.53 288.878 115.71 289.215 115.994C289.552 116.275 289.821 116.625 290.022 117.045C290.223 117.462 290.325 117.917 290.329 118.409C290.325 119.038 290.155 119.598 289.818 120.091C289.484 120.58 289.02 120.964 288.426 121.244C287.835 121.521 287.151 121.659 286.374 121.659ZM286.374 120.409C286.901 120.409 287.356 120.324 287.738 120.153C288.121 119.983 288.416 119.742 288.624 119.432C288.833 119.121 288.939 118.758 288.943 118.341C288.939 117.902 288.825 117.513 288.602 117.176C288.378 116.839 288.073 116.574 287.687 116.381C287.304 116.187 286.867 116.091 286.374 116.091C285.878 116.091 285.435 116.187 285.045 116.381C284.659 116.574 284.354 116.839 284.13 117.176C283.91 117.513 283.802 117.902 283.806 118.341C283.802 118.758 283.903 119.121 284.107 119.432C284.316 119.742 284.613 119.983 284.999 120.153C285.386 120.324 285.844 120.409 286.374 120.409ZM286.374 114.886C286.791 114.886 287.16 114.803 287.482 114.636C287.808 114.47 288.064 114.237 288.249 113.938C288.435 113.638 288.53 113.288 288.534 112.886C288.53 112.492 288.437 112.15 288.255 111.858C288.073 111.562 287.821 111.335 287.499 111.176C287.177 111.013 286.802 110.932 286.374 110.932C285.939 110.932 285.558 111.013 285.232 111.176C284.907 111.335 284.655 111.562 284.477 111.858C284.299 112.15 284.212 112.492 284.215 112.886C284.212 113.288 284.301 113.638 284.482 113.938C284.668 114.237 284.924 114.47 285.249 114.636C285.575 114.803 285.95 114.886 286.374 114.886Z" fill="black"/>
<path d="M298 288C298 301.255 287.255 312 274 312C260.745 312 250 301.255 250 288C250 274.745 260.745 264 274 264C287.255 264 298 274.745 298 288Z" fill="#D9D9D9" stroke="black" stroke-width="2"/>
<path d="M265.149 281.705C265.626 281.708 266.103 281.799 266.58 281.977C267.058 282.155 267.493 282.451 267.887 282.864C268.281 283.273 268.597 283.831 268.836 284.54C269.075 285.248 269.194 286.136 269.194 287.205C269.194 288.239 269.096 289.157 268.899 289.96C268.705 290.759 268.425 291.434 268.058 291.983C267.694 292.532 267.251 292.949 266.728 293.233C266.209 293.517 265.622 293.659 264.967 293.659C264.315 293.659 263.734 293.53 263.222 293.273C262.715 293.011 262.298 292.65 261.972 292.188C261.65 291.722 261.444 291.182 261.353 290.568H262.74C262.865 291.102 263.113 291.544 263.484 291.892C263.859 292.237 264.353 292.409 264.967 292.409C265.865 292.409 266.573 292.017 267.092 291.233C267.615 290.449 267.876 289.341 267.876 287.909H267.785C267.573 288.227 267.321 288.502 267.029 288.733C266.738 288.964 266.414 289.142 266.058 289.267C265.702 289.392 265.323 289.455 264.921 289.455C264.255 289.455 263.643 289.29 263.086 288.96C262.533 288.627 262.09 288.17 261.757 287.591C261.427 287.008 261.262 286.341 261.262 285.591C261.262 284.879 261.421 284.227 261.74 283.636C262.061 283.042 262.512 282.568 263.092 282.216C263.675 281.864 264.361 281.693 265.149 281.705ZM265.149 282.955C264.671 282.955 264.241 283.074 263.859 283.312C263.48 283.547 263.179 283.866 262.955 284.267C262.736 284.665 262.626 285.106 262.626 285.591C262.626 286.076 262.732 286.517 262.944 286.915C263.16 287.309 263.454 287.623 263.825 287.858C264.2 288.089 264.626 288.205 265.103 288.205C265.463 288.205 265.798 288.134 266.109 287.994C266.419 287.85 266.69 287.655 266.921 287.409C267.156 287.159 267.34 286.877 267.472 286.562C267.605 286.244 267.671 285.913 267.671 285.568C267.671 285.114 267.561 284.687 267.342 284.29C267.126 283.892 266.827 283.57 266.444 283.324C266.065 283.078 265.633 282.955 265.149 282.955ZM276.451 287.057V288.307H271.36V287.057H276.451ZM278.515 291.114V289.955L283.629 281.864H284.47V283.659H283.901L280.038 289.773V289.864H286.924V291.114H278.515ZM283.992 293.5V290.761V290.222V281.864H285.333V293.5H283.992Z" fill="black"/>
<path d="M24.117 434.469C24.3763 434.957 24.9818 435.142 25.4694 434.883L33.4162 430.658C33.9038 430.399 34.089 429.793 33.8297 429.306C33.5705 428.818 32.965 428.633 32.4773 428.892L25.4135 432.648L21.6581 425.584C21.3989 425.096 20.7934 424.911 20.3057 425.17C19.8181 425.43 19.6329 426.035 19.8922 426.523L24.117 434.469ZM61.0437 312.708L24.0437 433.708L25.9563 434.292L62.9563 313.292L61.0437 312.708Z" fill="black"/>
<path d="M98.5306 434.883C99.0182 435.142 99.6237 434.957 99.883 434.469L104.108 426.523C104.367 426.035 104.182 425.43 103.694 425.17C103.207 424.911 102.601 425.096 102.342 425.584L98.5865 432.648L91.5227 428.892C91.035 428.633 90.4295 428.818 90.1703 429.306C89.911 429.793 90.0962 430.399 90.5838 430.658L98.5306 434.883ZM61.0437 313.292L98.0437 434.292L99.9563 433.708L62.9563 312.708L61.0437 313.292Z" fill="black"/>
<path d="M199.454 433.495C199.584 434.032 200.124 434.362 200.661 434.233L209.41 432.124C209.947 431.995 210.278 431.455 210.148 430.918C210.019 430.381 209.479 430.05 208.942 430.18L201.164 432.054L199.29 424.277C199.16 423.74 198.62 423.41 198.083 423.539C197.546 423.669 197.216 424.209 197.346 424.746L199.454 433.495ZM273.573 311.739L199.573 432.739L201.28 433.783L275.28 312.783L273.573 311.739Z" fill="black"/>
<path d="M273.793 433.707C274.183 434.098 274.817 434.098 275.207 433.707L281.571 427.343C281.962 426.953 281.962 426.319 281.571 425.929C281.181 425.538 280.547 425.538 280.157 425.929L274.5 431.586L268.843 425.929C268.453 425.538 267.819 425.538 267.429 425.929C267.038 426.319 267.038 426.953 267.429 427.343L273.793 433.707ZM273.5 312V433H275.5V312H273.5Z" fill="black"/>
<path d="M348.192 433.711C348.729 433.841 349.269 433.51 349.399 432.973L351.508 424.224C351.637 423.687 351.307 423.147 350.77 423.018C350.233 422.888 349.693 423.218 349.563 423.755L347.689 431.533L339.911 429.658C339.374 429.529 338.834 429.859 338.705 430.396C338.576 430.933 338.906 431.473 339.443 431.602L348.192 433.711ZM273.573 312.261L347.573 433.261L349.28 432.217L275.28 311.217L273.573 312.261Z" fill="black"/>
<path d="M61.0344 262.74C60.8908 263.273 61.2066 263.822 61.7398 263.966L70.4299 266.307C70.9631 266.451 71.5119 266.135 71.6556 265.602C71.7993 265.069 71.4835 264.52 70.9502 264.376L63.2258 262.295L65.3072 254.57C65.4509 254.037 65.1351 253.488 64.6018 253.344C64.0686 253.201 63.5198 253.517 63.3761 254.05L61.0344 262.74ZM273.501 140.133L61.5012 262.133L62.4988 263.867L274.499 141.867L273.501 140.133Z" fill="black"/>
<path d="M273.293 262.707C273.683 263.098 274.317 263.098 274.707 262.707L281.071 256.343C281.462 255.953 281.462 255.319 281.071 254.929C280.681 254.538 280.047 254.538 279.657 254.929L274 260.586L268.343 254.929C267.953 254.538 267.319 254.538 266.929 254.929C266.538 255.319 266.538 255.953 266.929 256.343L273.293 262.707ZM273 141L273 262H275L275 141H273Z" fill="black"/>
<path d="M487.262 263.965C487.795 263.82 488.11 263.271 487.965 262.738L485.606 254.053C485.461 253.52 484.912 253.205 484.379 253.35C483.846 253.494 483.531 254.044 483.676 254.577L485.773 262.297L478.053 264.394C477.52 264.539 477.205 265.088 477.35 265.621C477.494 266.154 478.044 266.469 478.577 266.324L487.262 263.965ZM273.503 141.868L486.503 263.868L487.497 262.132L274.497 140.132L273.503 141.868Z" fill="black"/>
<path d="M173.943 34V15.8182H180.086C181.507 15.8182 182.673 16.0608 183.584 16.5462C184.496 17.0256 185.17 17.6855 185.608 18.5259C186.046 19.3664 186.265 20.3222 186.265 21.3935C186.265 22.4647 186.046 23.4147 185.608 24.2433C185.17 25.0719 184.499 25.7229 183.593 26.1964C182.688 26.6639 181.531 26.8977 180.122 26.8977H175.15V24.9091H180.051C181.022 24.9091 181.803 24.767 182.395 24.483C182.992 24.1989 183.424 23.7964 183.691 23.2756C183.963 22.7488 184.099 22.1214 184.099 21.3935C184.099 20.6655 183.963 20.0292 183.691 19.4847C183.419 18.9402 182.984 18.52 182.386 18.2241C181.788 17.9222 180.998 17.7713 180.015 17.7713H176.145V34H173.943ZM182.501 25.8324L186.976 34H184.419L180.015 25.8324H182.501ZM195.221 34.2841C193.907 34.2841 192.774 33.9941 191.821 33.4141C190.874 32.8281 190.143 32.0114 189.628 30.9638C189.119 29.9103 188.864 28.6851 188.864 27.2884C188.864 25.8916 189.119 24.6605 189.628 23.5952C190.143 22.5239 190.859 21.6894 191.776 21.0916C192.7 20.4879 193.777 20.1861 195.008 20.1861C195.718 20.1861 196.419 20.3045 197.112 20.5412C197.804 20.7779 198.435 21.1626 199.003 21.6953C199.571 22.2221 200.024 22.9205 200.361 23.7905C200.699 24.6605 200.867 25.7318 200.867 27.0043V27.892H190.356V26.081H198.737C198.737 25.3116 198.583 24.625 198.275 24.0213C197.973 23.4176 197.541 22.9412 196.979 22.592C196.422 22.2428 195.765 22.0682 195.008 22.0682C194.173 22.0682 193.451 22.2753 192.842 22.6896C192.238 23.098 191.773 23.6307 191.448 24.2876C191.122 24.9446 190.96 25.6489 190.96 26.4006V27.608C190.96 28.6378 191.137 29.5108 191.492 30.2269C191.853 30.9371 192.353 31.4787 192.993 31.8516C193.632 32.2185 194.375 32.402 195.221 32.402C195.771 32.402 196.268 32.325 196.712 32.1712C197.162 32.0114 197.55 31.7746 197.875 31.4609C198.201 31.1413 198.452 30.7448 198.63 30.2713L200.654 30.8395C200.441 31.526 200.083 32.1297 199.58 32.6506C199.077 33.1655 198.455 33.5679 197.716 33.858C196.976 34.142 196.144 34.2841 195.221 34.2841ZM193.942 18.517L196.109 14.3977H198.559L195.789 18.517H193.942ZM209.985 20.3636V22.1392H202.918V20.3636H209.985ZM204.978 17.0966H207.073V30.0938C207.073 30.6856 207.159 31.1295 207.33 31.4254C207.508 31.7154 207.733 31.9107 208.005 32.0114C208.283 32.1061 208.576 32.1534 208.884 32.1534C209.115 32.1534 209.304 32.1416 209.452 32.1179C209.6 32.0883 209.718 32.0646 209.807 32.0469L210.233 33.929C210.091 33.9822 209.893 34.0355 209.638 34.0888C209.384 34.148 209.061 34.1776 208.671 34.1776C208.079 34.1776 207.499 34.0503 206.931 33.7958C206.368 33.5413 205.901 33.1536 205.528 32.6328C205.161 32.112 204.978 31.455 204.978 30.6619V17.0966ZM213.136 34V20.3636H215.161V22.4233H215.303C215.551 21.7486 216.001 21.2011 216.652 20.7809C217.303 20.3607 218.037 20.1506 218.854 20.1506C219.008 20.1506 219.2 20.1535 219.431 20.1594C219.662 20.1654 219.836 20.1742 219.955 20.1861V22.3168C219.884 22.299 219.721 22.2724 219.466 22.2369C219.218 22.1954 218.954 22.1747 218.676 22.1747C218.013 22.1747 217.421 22.3138 216.901 22.592C216.386 22.8642 215.977 23.243 215.675 23.7283C215.379 24.2077 215.232 24.7552 215.232 25.3707V34H213.136ZM227.563 34.2841C226.332 34.2841 225.252 33.9911 224.322 33.4052C223.399 32.8192 222.677 31.9995 222.156 30.946C221.641 29.8925 221.384 28.6615 221.384 27.2528C221.384 25.8324 221.641 24.5924 222.156 23.533C222.677 22.4736 223.399 21.6509 224.322 21.065C225.252 20.479 226.332 20.1861 227.563 20.1861C228.794 20.1861 229.871 20.479 230.794 21.065C231.724 21.6509 232.446 22.4736 232.961 23.533C233.481 24.5924 233.742 25.8324 233.742 27.2528C233.742 28.6615 233.481 29.8925 232.961 30.946C232.446 31.9995 231.724 32.8192 230.794 33.4052C229.871 33.9911 228.794 34.2841 227.563 34.2841ZM227.563 32.402C228.498 32.402 229.267 32.1623 229.871 31.6829C230.475 31.2035 230.922 30.5732 231.212 29.7919C231.502 29.0107 231.647 28.1643 231.647 27.2528C231.647 26.3414 231.502 25.4921 231.212 24.7049C230.922 23.9177 230.475 23.2815 229.871 22.7962C229.267 22.3108 228.498 22.0682 227.563 22.0682C226.628 22.0682 225.858 22.3108 225.255 22.7962C224.651 23.2815 224.204 23.9177 223.914 24.7049C223.624 25.4921 223.479 26.3414 223.479 27.2528C223.479 28.1643 223.624 29.0107 223.914 29.7919C224.204 30.5732 224.651 31.2035 225.255 31.6829C225.858 32.1623 226.628 32.402 227.563 32.402ZM236.94 39.1136V20.3636H238.964V22.5298H239.213C239.367 22.2931 239.58 21.9912 239.852 21.6243C240.13 21.2514 240.527 20.92 241.042 20.63C241.562 20.334 242.267 20.1861 243.155 20.1861C244.303 20.1861 245.315 20.4731 246.191 21.0472C247.067 21.6213 247.75 22.4351 248.242 23.4886C248.733 24.5421 248.978 25.785 248.978 27.2173C248.978 28.6615 248.733 29.9132 248.242 30.9727C247.75 32.0262 247.07 32.8429 246.2 33.4229C245.33 33.997 244.326 34.2841 243.19 34.2841C242.314 34.2841 241.613 34.1391 241.086 33.8491C240.559 33.5531 240.154 33.2187 239.87 32.8459C239.586 32.4671 239.367 32.1534 239.213 31.9048H239.035V39.1136H236.94ZM239 27.1818C239 28.2116 239.151 29.1201 239.453 29.9073C239.754 30.6886 240.195 31.3011 240.775 31.745C241.355 32.183 242.066 32.402 242.906 32.402C243.782 32.402 244.513 32.1712 245.099 31.7095C245.691 31.242 246.135 30.6146 246.43 29.8274C246.732 29.0343 246.883 28.1525 246.883 27.1818C246.883 26.223 246.735 25.3589 246.439 24.5895C246.149 23.8142 245.708 23.2016 245.117 22.7518C244.531 22.296 243.794 22.0682 242.906 22.0682C242.054 22.0682 241.338 22.2842 240.758 22.7163C240.178 23.1424 239.74 23.7402 239.444 24.5096C239.148 25.2731 239 26.1638 239 27.1818ZM252.174 34V20.3636H254.199V22.4233H254.341C254.589 21.7486 255.039 21.2011 255.69 20.7809C256.341 20.3607 257.075 20.1506 257.892 20.1506C258.046 20.1506 258.238 20.1535 258.469 20.1594C258.7 20.1654 258.874 20.1742 258.993 20.1861V22.3168C258.922 22.299 258.759 22.2724 258.504 22.2369C258.256 22.1954 257.992 22.1747 257.714 22.1747C257.051 22.1747 256.459 22.3138 255.939 22.592C255.424 22.8642 255.015 23.243 254.714 23.7283C254.418 24.2077 254.27 24.7552 254.27 25.3707V34H252.174ZM266.601 34.2841C265.37 34.2841 264.29 33.9911 263.361 33.4052C262.437 32.8192 261.715 31.9995 261.194 30.946C260.679 29.8925 260.422 28.6615 260.422 27.2528C260.422 25.8324 260.679 24.5924 261.194 23.533C261.715 22.4736 262.437 21.6509 263.361 21.065C264.29 20.479 265.37 20.1861 266.601 20.1861C267.832 20.1861 268.909 20.479 269.832 21.065C270.762 21.6509 271.484 22.4736 271.999 23.533C272.52 24.5924 272.78 25.8324 272.78 27.2528C272.78 28.6615 272.52 29.8925 271.999 30.946C271.484 31.9995 270.762 32.8192 269.832 33.4052C268.909 33.9911 267.832 34.2841 266.601 34.2841ZM266.601 32.402C267.536 32.402 268.305 32.1623 268.909 31.6829C269.513 31.2035 269.96 30.5732 270.25 29.7919C270.54 29.0107 270.685 28.1643 270.685 27.2528C270.685 26.3414 270.54 25.4921 270.25 24.7049C269.96 23.9177 269.513 23.2815 268.909 22.7962C268.305 22.3108 267.536 22.0682 266.601 22.0682C265.666 22.0682 264.896 22.3108 264.293 22.7962C263.689 23.2815 263.242 23.9177 262.952 24.7049C262.662 25.4921 262.517 26.3414 262.517 27.2528C262.517 28.1643 262.662 29.0107 262.952 29.7919C263.242 30.5732 263.689 31.2035 264.293 31.6829C264.896 32.1623 265.666 32.402 266.601 32.402ZM275.978 39.1136V20.3636H278.002V22.5298H278.251C278.405 22.2931 278.618 21.9912 278.89 21.6243C279.168 21.2514 279.565 20.92 280.08 20.63C280.601 20.334 281.305 20.1861 282.193 20.1861C283.341 20.1861 284.353 20.4731 285.229 21.0472C286.105 21.6213 286.788 22.4351 287.28 23.4886C287.771 24.5421 288.017 25.785 288.017 27.2173C288.017 28.6615 287.771 29.9132 287.28 30.9727C286.788 32.0262 286.108 32.8429 285.238 33.4229C284.368 33.997 283.365 34.2841 282.228 34.2841C281.352 34.2841 280.651 34.1391 280.124 33.8491C279.597 33.5531 279.192 33.2187 278.908 32.8459C278.624 32.4671 278.405 32.1534 278.251 31.9048H278.073V39.1136H275.978ZM278.038 27.1818C278.038 28.2116 278.189 29.1201 278.491 29.9073C278.792 30.6886 279.233 31.3011 279.813 31.745C280.393 32.183 281.104 32.402 281.944 32.402C282.82 32.402 283.551 32.1712 284.137 31.7095C284.729 31.242 285.173 30.6146 285.469 29.8274C285.77 29.0343 285.921 28.1525 285.921 27.1818C285.921 26.223 285.773 25.3589 285.477 24.5895C285.187 23.8142 284.747 23.2016 284.155 22.7518C283.569 22.296 282.832 22.0682 281.944 22.0682C281.092 22.0682 280.376 22.2842 279.796 22.7163C279.216 23.1424 278.778 23.7402 278.482 24.5096C278.186 25.2731 278.038 26.1638 278.038 27.1818ZM295.225 34.3196C294.361 34.3196 293.577 34.1568 292.873 33.8313C292.168 33.4999 291.609 33.0234 291.195 32.402C290.78 31.7746 290.573 31.017 290.573 30.1293C290.573 29.348 290.727 28.7147 291.035 28.2294C291.343 27.7382 291.754 27.3535 292.269 27.0753C292.784 26.7971 293.352 26.59 293.974 26.4538C294.601 26.3118 295.231 26.1993 295.865 26.1165C296.693 26.0099 297.365 25.93 297.88 25.8768C298.401 25.8176 298.779 25.7199 299.016 25.5838C299.259 25.4477 299.38 25.2109 299.38 24.8736V24.8026C299.38 23.9266 299.14 23.246 298.661 22.7607C298.188 22.2753 297.468 22.0327 296.504 22.0327C295.503 22.0327 294.719 22.2517 294.151 22.6896C293.583 23.1276 293.183 23.5952 292.953 24.0923L290.964 23.3821C291.319 22.5535 291.793 21.9084 292.384 21.4467C292.982 20.9792 293.633 20.6536 294.338 20.4702C295.048 20.2808 295.746 20.1861 296.433 20.1861C296.871 20.1861 297.374 20.2393 297.942 20.3459C298.516 20.4465 299.069 20.6566 299.602 20.9762C300.141 21.2958 300.588 21.7782 300.943 22.4233C301.298 23.0684 301.475 23.9325 301.475 25.0156V34H299.38V32.1534H299.274C299.132 32.4493 298.895 32.766 298.563 33.1033C298.232 33.4407 297.791 33.7277 297.241 33.9645C296.69 34.2012 296.018 34.3196 295.225 34.3196ZM295.545 32.4375C296.374 32.4375 297.072 32.2747 297.64 31.9492C298.214 31.6237 298.646 31.2035 298.936 30.6886C299.232 30.1737 299.38 29.6321 299.38 29.0639V27.1463C299.291 27.2528 299.096 27.3505 298.794 27.4393C298.498 27.5221 298.155 27.5961 297.764 27.6612C297.38 27.7204 297.004 27.7737 296.637 27.821C296.276 27.8625 295.983 27.898 295.758 27.9276C295.213 27.9986 294.704 28.114 294.231 28.2738C293.763 28.4277 293.385 28.6615 293.095 28.9751C292.811 29.2829 292.669 29.7031 292.669 30.2358C292.669 30.9638 292.938 31.5142 293.476 31.8871C294.021 32.254 294.71 32.4375 295.545 32.4375ZM310.804 39.3977C309.792 39.3977 308.922 39.2675 308.194 39.0071C307.466 38.7526 306.859 38.4152 306.374 37.995C305.894 37.5807 305.513 37.1368 305.228 36.6634L306.897 35.4915C307.087 35.7401 307.327 36.0241 307.617 36.3438C307.907 36.6693 308.303 36.9504 308.806 37.1871C309.315 37.4298 309.981 37.5511 310.804 37.5511C311.905 37.5511 312.813 37.2848 313.529 36.7521C314.245 36.2195 314.603 35.3849 314.603 34.2486V31.4787H314.426C314.272 31.7273 314.053 32.035 313.769 32.402C313.491 32.763 313.088 33.0856 312.562 33.3697C312.041 33.6478 311.336 33.7869 310.449 33.7869C309.348 33.7869 308.359 33.5265 307.483 33.0057C306.613 32.4848 305.924 31.7273 305.415 30.733C304.912 29.7386 304.66 28.5312 304.66 27.1108C304.66 25.714 304.906 24.4978 305.397 23.462C305.888 22.4203 306.572 21.6154 307.448 21.0472C308.324 20.4731 309.336 20.1861 310.484 20.1861C311.372 20.1861 312.076 20.334 312.597 20.63C313.124 20.92 313.526 21.2514 313.804 21.6243C314.089 21.9912 314.307 22.2931 314.461 22.5298H314.674V20.3636H316.699V34.3906C316.699 35.5625 316.432 36.5154 315.9 37.2493C315.373 37.9891 314.663 38.5307 313.769 38.8739C312.881 39.2231 311.893 39.3977 310.804 39.3977ZM310.733 31.9048C311.573 31.9048 312.283 31.7125 312.863 31.3278C313.443 30.9431 313.884 30.3897 314.186 29.6676C314.488 28.9455 314.639 28.0814 314.639 27.0753C314.639 26.0928 314.491 25.2257 314.195 24.4741C313.899 23.7224 313.461 23.1335 312.881 22.7074C312.301 22.2812 311.585 22.0682 310.733 22.0682C309.845 22.0682 309.105 22.2931 308.513 22.7429C307.927 23.1927 307.486 23.7964 307.19 24.554C306.9 25.3116 306.755 26.152 306.755 27.0753C306.755 28.0223 306.903 28.8597 307.199 29.5877C307.501 30.3098 307.945 30.878 308.531 31.2923C309.123 31.7006 309.857 31.9048 310.733 31.9048ZM324.547 34.3196C323.682 34.3196 322.898 34.1568 322.194 33.8313C321.49 33.4999 320.93 33.0234 320.516 32.402C320.102 31.7746 319.895 31.017 319.895 30.1293C319.895 29.348 320.049 28.7147 320.356 28.2294C320.664 27.7382 321.075 27.3535 321.59 27.0753C322.105 26.7971 322.673 26.59 323.295 26.4538C323.922 26.3118 324.553 26.1993 325.186 26.1165C326.014 26.0099 326.686 25.93 327.201 25.8768C327.722 25.8176 328.101 25.7199 328.337 25.5838C328.58 25.4477 328.701 25.2109 328.701 24.8736V24.8026C328.701 23.9266 328.462 23.246 327.982 22.7607C327.509 22.2753 326.79 22.0327 325.825 22.0327C324.825 22.0327 324.041 22.2517 323.472 22.6896C322.904 23.1276 322.505 23.5952 322.274 24.0923L320.285 23.3821C320.64 22.5535 321.114 21.9084 321.706 21.4467C322.303 20.9792 322.955 20.6536 323.659 20.4702C324.369 20.2808 325.067 20.1861 325.754 20.1861C326.192 20.1861 326.695 20.2393 327.263 20.3459C327.837 20.4465 328.391 20.6566 328.923 20.9762C329.462 21.2958 329.909 21.7782 330.264 22.4233C330.619 23.0684 330.797 23.9325 330.797 25.0156V34H328.701V32.1534H328.595C328.453 32.4493 328.216 32.766 327.885 33.1033C327.553 33.4407 327.112 33.7277 326.562 33.9645C326.011 34.2012 325.34 34.3196 324.547 34.3196ZM324.866 32.4375C325.695 32.4375 326.393 32.2747 326.961 31.9492C327.535 31.6237 327.968 31.2035 328.258 30.6886C328.553 30.1737 328.701 29.6321 328.701 29.0639V27.1463C328.613 27.2528 328.417 27.3505 328.116 27.4393C327.82 27.5221 327.476 27.5961 327.086 27.6612C326.701 27.7204 326.325 27.7737 325.958 27.821C325.597 27.8625 325.304 27.898 325.079 27.9276C324.535 27.9986 324.026 28.114 323.552 28.2738C323.085 28.4277 322.706 28.6615 322.416 28.9751C322.132 29.2829 321.99 29.7031 321.99 30.2358C321.99 30.9638 322.259 31.5142 322.798 31.8871C323.342 32.254 324.032 32.4375 324.866 32.4375ZM340.551 20.3636V22.1392H333.484V20.3636H340.551ZM335.544 17.0966H337.639V30.0938C337.639 30.6856 337.725 31.1295 337.897 31.4254C338.074 31.7154 338.299 31.9107 338.571 32.0114C338.85 32.1061 339.143 32.1534 339.45 32.1534C339.681 32.1534 339.871 32.1416 340.018 32.1179C340.166 32.0883 340.285 32.0646 340.374 32.0469L340.8 33.929C340.658 33.9822 340.459 34.0355 340.205 34.0888C339.95 34.148 339.628 34.1776 339.237 34.1776C338.645 34.1776 338.065 34.0503 337.497 33.7958C336.935 33.5413 336.467 33.1536 336.094 32.6328C335.728 32.112 335.544 31.455 335.544 30.6619V17.0966ZM343.703 34V20.3636H345.798V34H343.703ZM344.768 18.0909C344.36 18.0909 344.008 17.9518 343.712 17.6737C343.422 17.3955 343.277 17.0611 343.277 16.6705C343.277 16.2798 343.422 15.9454 343.712 15.6673C344.008 15.3891 344.36 15.25 344.768 15.25C345.176 15.25 345.526 15.3891 345.816 15.6673C346.112 15.9454 346.26 16.2798 346.26 16.6705C346.26 17.0611 346.112 17.3955 345.816 17.6737C345.526 17.9518 345.176 18.0909 344.768 18.0909ZM355.175 34.2841C353.944 34.2841 352.864 33.9911 351.935 33.4052C351.011 32.8192 350.289 31.9995 349.769 30.946C349.254 29.8925 348.996 28.6615 348.996 27.2528C348.996 25.8324 349.254 24.5924 349.769 23.533C350.289 22.4736 351.011 21.6509 351.935 21.065C352.864 20.479 353.944 20.1861 355.175 20.1861C356.406 20.1861 357.483 20.479 358.407 21.065C359.336 21.6509 360.058 22.4736 360.573 23.533C361.094 24.5924 361.354 25.8324 361.354 27.2528C361.354 28.6615 361.094 29.8925 360.573 30.946C360.058 31.9995 359.336 32.8192 358.407 33.4052C357.483 33.9911 356.406 34.2841 355.175 34.2841ZM355.175 32.402C356.11 32.402 356.88 32.1623 357.483 31.6829C358.087 31.2035 358.534 30.5732 358.824 29.7919C359.114 29.0107 359.259 28.1643 359.259 27.2528C359.259 26.3414 359.114 25.4921 358.824 24.7049C358.534 23.9177 358.087 23.2815 357.483 22.7962C356.88 22.3108 356.11 22.0682 355.175 22.0682C354.24 22.0682 353.471 22.3108 352.867 22.7962C352.263 23.2815 351.816 23.9177 351.526 24.7049C351.236 25.4921 351.091 26.3414 351.091 27.2528C351.091 28.1643 351.236 29.0107 351.526 29.7919C351.816 30.5732 352.263 31.2035 352.867 31.6829C353.471 32.1623 354.24 32.402 355.175 32.402ZM366.648 25.7969V34H364.552V20.3636H366.577V22.4943H366.754C367.074 21.8018 367.559 21.2455 368.21 20.8253C368.861 20.3991 369.702 20.1861 370.731 20.1861C371.655 20.1861 372.463 20.3755 373.155 20.7543C373.847 21.1271 374.386 21.6953 374.771 22.4588C375.155 23.2164 375.348 24.1752 375.348 25.3352V34H373.253V25.4773C373.253 24.406 372.974 23.5715 372.418 22.9737C371.862 22.37 371.098 22.0682 370.128 22.0682C369.459 22.0682 368.861 22.2132 368.334 22.5032C367.814 22.7932 367.402 23.2164 367.1 23.7727C366.798 24.3291 366.648 25.0038 366.648 25.7969Z" fill="black"/>
<path d="M122.604 724H120.295L126.972 705.818H129.244L135.92 724H133.612L128.179 708.695H128.037L122.604 724ZM123.456 716.898H132.76V718.851H123.456V716.898ZM140.564 705.818V724H138.468V705.818H140.564ZM150.118 724.284C148.804 724.284 147.671 723.994 146.718 723.414C145.771 722.828 145.04 722.011 144.525 720.964C144.016 719.91 143.762 718.685 143.762 717.288C143.762 715.892 144.016 714.661 144.525 713.595C145.04 712.524 145.756 711.689 146.674 711.092C147.597 710.488 148.674 710.186 149.905 710.186C150.616 710.186 151.317 710.304 152.009 710.541C152.702 710.778 153.332 711.163 153.9 711.695C154.468 712.222 154.921 712.92 155.259 713.79C155.596 714.661 155.765 715.732 155.765 717.004V717.892H145.253V716.081H153.634C153.634 715.312 153.48 714.625 153.172 714.021C152.87 713.418 152.438 712.941 151.876 712.592C151.32 712.243 150.663 712.068 149.905 712.068C149.071 712.068 148.349 712.275 147.739 712.69C147.135 713.098 146.671 713.631 146.345 714.288C146.02 714.945 145.857 715.649 145.857 716.401V717.608C145.857 718.638 146.035 719.511 146.39 720.227C146.751 720.937 147.251 721.479 147.89 721.852C148.529 722.219 149.272 722.402 150.118 722.402C150.669 722.402 151.166 722.325 151.61 722.171C152.06 722.011 152.447 721.775 152.773 721.461C153.098 721.141 153.35 720.745 153.527 720.271L155.552 720.839C155.339 721.526 154.98 722.13 154.477 722.651C153.974 723.165 153.353 723.568 152.613 723.858C151.873 724.142 151.042 724.284 150.118 724.284ZM148.84 708.517L151.006 704.398H153.456L150.687 708.517H148.84ZM162.965 724.32C162.1 724.32 161.316 724.157 160.612 723.831C159.908 723.5 159.348 723.023 158.934 722.402C158.52 721.775 158.313 721.017 158.313 720.129C158.313 719.348 158.466 718.715 158.774 718.229C159.082 717.738 159.493 717.353 160.008 717.075C160.523 716.797 161.091 716.59 161.713 716.454C162.34 716.312 162.97 716.199 163.604 716.116C164.432 716.01 165.104 715.93 165.619 715.877C166.14 715.818 166.519 715.72 166.755 715.584C166.998 715.448 167.119 715.211 167.119 714.874V714.803C167.119 713.927 166.88 713.246 166.4 712.761C165.927 712.275 165.208 712.033 164.243 712.033C163.243 712.033 162.459 712.252 161.89 712.69C161.322 713.128 160.923 713.595 160.692 714.092L158.703 713.382C159.058 712.554 159.532 711.908 160.124 711.447C160.721 710.979 161.372 710.654 162.077 710.47C162.787 710.281 163.485 710.186 164.172 710.186C164.61 710.186 165.113 710.239 165.681 710.346C166.255 710.446 166.809 710.657 167.341 710.976C167.88 711.296 168.327 711.778 168.682 712.423C169.037 713.068 169.215 713.933 169.215 715.016V724H167.119V722.153H167.013C166.871 722.449 166.634 722.766 166.303 723.103C165.971 723.441 165.53 723.728 164.98 723.964C164.429 724.201 163.758 724.32 162.965 724.32ZM163.284 722.438C164.113 722.438 164.811 722.275 165.379 721.949C165.953 721.624 166.386 721.203 166.676 720.689C166.971 720.174 167.119 719.632 167.119 719.064V717.146C167.031 717.253 166.835 717.35 166.533 717.439C166.238 717.522 165.894 717.596 165.504 717.661C165.119 717.72 164.743 717.774 164.376 717.821C164.015 717.862 163.722 717.898 163.497 717.928C162.953 717.999 162.444 718.114 161.97 718.274C161.503 718.428 161.124 718.661 160.834 718.975C160.55 719.283 160.408 719.703 160.408 720.236C160.408 720.964 160.677 721.514 161.216 721.887C161.76 722.254 162.45 722.438 163.284 722.438ZM178.969 710.364V712.139H171.902V710.364H178.969ZM173.962 707.097H176.057V720.094C176.057 720.686 176.143 721.129 176.315 721.425C176.492 721.715 176.717 721.911 176.989 722.011C177.268 722.106 177.56 722.153 177.868 722.153C178.099 722.153 178.288 722.142 178.436 722.118C178.584 722.088 178.703 722.065 178.792 722.047L179.218 723.929C179.076 723.982 178.877 724.036 178.623 724.089C178.368 724.148 178.046 724.178 177.655 724.178C177.063 724.178 176.483 724.05 175.915 723.796C175.353 723.541 174.885 723.154 174.512 722.633C174.145 722.112 173.962 721.455 173.962 720.662V707.097ZM187.514 724.284C186.283 724.284 185.203 723.991 184.274 723.405C183.35 722.819 182.628 722 182.107 720.946C181.593 719.893 181.335 718.661 181.335 717.253C181.335 715.832 181.593 714.592 182.107 713.533C182.628 712.474 183.35 711.651 184.274 711.065C185.203 710.479 186.283 710.186 187.514 710.186C188.745 710.186 189.822 710.479 190.746 711.065C191.675 711.651 192.397 712.474 192.912 713.533C193.433 714.592 193.693 715.832 193.693 717.253C193.693 718.661 193.433 719.893 192.912 720.946C192.397 722 191.675 722.819 190.746 723.405C189.822 723.991 188.745 724.284 187.514 724.284ZM187.514 722.402C188.449 722.402 189.219 722.162 189.822 721.683C190.426 721.203 190.873 720.573 191.163 719.792C191.453 719.011 191.598 718.164 191.598 717.253C191.598 716.341 191.453 715.492 191.163 714.705C190.873 713.918 190.426 713.281 189.822 712.796C189.219 712.311 188.449 712.068 187.514 712.068C186.579 712.068 185.809 712.311 185.206 712.796C184.602 713.281 184.155 713.918 183.865 714.705C183.575 715.492 183.43 716.341 183.43 717.253C183.43 718.164 183.575 719.011 183.865 719.792C184.155 720.573 184.602 721.203 185.206 721.683C185.809 722.162 186.579 722.402 187.514 722.402ZM196.891 724V710.364H198.986V724H196.891ZM197.957 708.091C197.548 708.091 197.196 707.952 196.9 707.674C196.61 707.395 196.465 707.061 196.465 706.67C196.465 706.28 196.61 705.945 196.9 705.667C197.196 705.389 197.548 705.25 197.957 705.25C198.365 705.25 198.714 705.389 199.004 705.667C199.3 705.945 199.448 706.28 199.448 706.67C199.448 707.061 199.3 707.395 199.004 707.674C198.714 707.952 198.365 708.091 197.957 708.091ZM202.824 724V710.364H204.848V712.423H204.99C205.239 711.749 205.688 711.201 206.339 710.781C206.991 710.361 207.724 710.151 208.541 710.151C208.695 710.151 208.887 710.154 209.118 710.159C209.349 710.165 209.524 710.174 209.642 710.186V712.317C209.571 712.299 209.408 712.272 209.154 712.237C208.905 712.195 208.642 712.175 208.364 712.175C207.701 712.175 207.109 712.314 206.588 712.592C206.073 712.864 205.665 713.243 205.363 713.728C205.067 714.208 204.919 714.755 204.919 715.371V724H202.824ZM217.428 724.284C216.114 724.284 214.981 723.994 214.028 723.414C213.081 722.828 212.35 722.011 211.835 720.964C211.326 719.91 211.071 718.685 211.071 717.288C211.071 715.892 211.326 714.661 211.835 713.595C212.35 712.524 213.066 711.689 213.983 711.092C214.907 710.488 215.984 710.186 217.215 710.186C217.925 710.186 218.626 710.304 219.319 710.541C220.011 710.778 220.642 711.163 221.21 711.695C221.778 712.222 222.231 712.92 222.568 713.79C222.906 714.661 223.074 715.732 223.074 717.004V717.892H212.563V716.081H220.944C220.944 715.312 220.79 714.625 220.482 714.021C220.18 713.418 219.748 712.941 219.186 712.592C218.629 712.243 217.972 712.068 217.215 712.068C216.38 712.068 215.658 712.275 215.049 712.69C214.445 713.098 213.98 713.631 213.655 714.288C213.329 714.945 213.167 715.649 213.167 716.401V717.608C213.167 718.638 213.344 719.511 213.699 720.227C214.06 720.937 214.56 721.479 215.2 721.852C215.839 722.219 216.582 722.402 217.428 722.402C217.978 722.402 218.475 722.325 218.919 722.171C219.369 722.011 219.757 721.775 220.082 721.461C220.408 721.141 220.659 720.745 220.837 720.271L222.861 720.839C222.648 721.526 222.29 722.13 221.787 722.651C221.284 723.165 220.662 723.568 219.923 723.858C219.183 724.142 218.351 724.284 217.428 724.284Z" fill="black"/>
<path d="M98.1322 776.709C98.5255 777.097 99.1586 777.093 99.5464 776.699L105.866 770.292C106.254 769.898 106.25 769.265 105.857 768.877C105.463 768.49 104.83 768.494 104.442 768.887L98.8247 774.583L93.129 768.965C92.7358 768.577 92.1026 768.582 91.7148 768.975C91.327 769.368 91.3313 770.001 91.7246 770.389L98.1322 776.709ZM97 655.007L97.0348 660.048L99.0347 660.035L99 654.993L97 655.007ZM97.1043 670.132L97.1739 680.215L99.1738 680.201L99.1043 670.118L97.1043 670.132ZM97.2434 690.298L97.3129 700.381L99.3129 700.367L99.2434 690.284L97.2434 690.298ZM97.3825 710.464L97.452 720.547L99.452 720.533L99.3824 710.45L97.3825 710.464ZM97.5216 730.63L97.5911 740.713L99.5911 740.699L99.5215 730.616L97.5216 730.63ZM97.6606 750.796L97.7302 760.879L99.7301 760.866L99.6606 750.782L97.6606 750.796ZM97.7997 770.962L97.8345 776.004L99.8344 775.99L99.7997 770.949L97.7997 770.962ZM98.1322 776.709C98.5255 777.097 99.1586 777.093 99.5464 776.699L105.866 770.292C106.254 769.898 106.25 769.265 105.857 768.877C105.463 768.49 104.83 768.494 104.442 768.887L98.8247 774.583L93.129 768.965C92.7358 768.577 92.1026 768.582 91.7148 768.975C91.327 769.368 91.3313 770.001 91.7246 770.389L98.1322 776.709ZM97 655.007L97.0348 660.048L99.0347 660.035L99 654.993L97 655.007ZM97.1043 670.132L97.1739 680.215L99.1738 680.201L99.1043 670.118L97.1043 670.132ZM97.2434 690.298L97.3129 700.381L99.3129 700.367L99.2434 690.284L97.2434 690.298ZM97.3825 710.464L97.452 720.547L99.452 720.533L99.3824 710.45L97.3825 710.464ZM97.5216 730.63L97.5911 740.713L99.5911 740.699L99.5215 730.616L97.5216 730.63ZM97.6606 750.796L97.7302 760.879L99.7301 760.866L99.6606 750.782L97.6606 750.796ZM97.7997 770.962L97.8345 776.004L99.8344 775.99L99.7997 770.949L97.7997 770.962Z" fill="black"/>
<path d="M47.0264 711L46.0266 710.98L47.0264 711ZM75.0233 629.921C74.9794 629.37 74.4976 628.959 73.947 629.003L64.9754 629.718C64.4249 629.762 64.0141 630.243 64.058 630.794C64.1018 631.344 64.5837 631.755 65.1342 631.711L73.109 631.076L73.7441 639.051C73.788 639.602 74.2698 640.012 74.8204 639.968C75.3709 639.925 75.7817 639.443 75.7378 638.892L75.0233 629.921ZM74.0262 785C74.669 784.234 74.6693 784.234 74.6695 784.234C74.6694 784.234 74.6695 784.234 74.6694 784.234C74.6691 784.234 74.6683 784.233 74.6672 784.232C74.6649 784.23 74.6609 784.227 74.6552 784.222C74.6439 784.213 74.626 784.197 74.6018 784.176C74.5532 784.134 74.4791 784.069 74.3811 783.981C74.1852 783.804 73.8941 783.536 73.5215 783.174C72.7763 782.451 71.7057 781.356 70.4205 779.882C67.8499 776.934 64.4223 772.473 61.0223 766.446C54.2254 754.397 47.5301 736.072 48.0262 711.02L46.0266 710.98C45.5227 736.428 52.3272 755.103 59.2803 767.429C62.7553 773.589 66.265 778.16 68.9131 781.196C70.2373 782.715 71.3464 783.85 72.1285 784.609C72.5196 784.989 72.829 785.274 73.0428 785.467C73.1497 785.563 73.2327 785.636 73.29 785.686C73.3186 785.711 73.3409 785.73 73.3565 785.743C73.3643 785.75 73.3705 785.755 73.375 785.759C73.3772 785.761 73.379 785.762 73.3804 785.764C73.3811 785.764 73.3818 785.765 73.3822 785.765C73.3828 785.766 73.3833 785.766 74.0262 785ZM48.0262 711.02C48.5229 685.939 55.2272 665.829 61.8046 651.992C65.0932 645.073 68.3489 639.726 70.7781 636.113C71.9927 634.306 73.0003 632.934 73.7017 632.016C74.0524 631.558 74.3266 631.213 74.5117 630.984C74.6042 630.869 74.6745 630.784 74.721 630.728C74.7442 630.7 74.7615 630.679 74.7726 630.666C74.7782 630.66 74.7822 630.655 74.7847 630.652C74.7859 630.65 74.7868 630.649 74.7872 630.649C74.7875 630.649 74.7875 630.649 74.7876 630.648C74.7876 630.649 74.7874 630.649 74.0264 630C73.2654 629.351 73.265 629.352 73.2646 629.352C73.2643 629.353 73.2638 629.353 73.2632 629.354C73.2621 629.355 73.2605 629.357 73.2586 629.359C73.2548 629.364 73.2494 629.37 73.2425 629.378C73.2286 629.395 73.2086 629.419 73.1826 629.45C73.1306 629.513 73.0548 629.605 72.9567 629.726C72.7604 629.969 72.475 630.328 72.1128 630.802C71.3884 631.749 70.357 633.155 69.1184 634.997C66.6415 638.681 63.3347 644.114 59.9982 651.133C53.3256 665.171 46.53 685.561 46.0266 710.98L48.0262 711.02Z" fill="#FF0000"/>
<path d="M97.9999 142.5L98.6679 143.244L97.9999 142.5ZM250.383 116.424C250.894 116.212 251.135 115.627 250.924 115.117L247.472 106.805C247.26 106.295 246.675 106.053 246.165 106.265C245.655 106.476 245.413 107.062 245.625 107.572L248.693 114.96L241.305 118.028C240.795 118.24 240.553 118.825 240.765 119.335C240.976 119.845 241.562 120.087 242.072 119.875L250.383 116.424ZM37.026 288C38.022 287.911 38.022 287.911 38.022 287.911C38.022 287.91 38.0219 287.91 38.0218 287.909C38.0216 287.907 38.0214 287.903 38.021 287.899C38.0202 287.89 38.019 287.876 38.0174 287.857C38.0142 287.818 38.0096 287.76 38.0037 287.682C37.9919 287.526 37.9752 287.291 37.9563 286.981C37.9186 286.36 37.8716 285.438 37.836 284.241C37.7646 281.845 37.7382 278.348 37.9195 273.955C38.2822 265.17 39.4756 252.811 42.7994 238.539C49.4469 209.996 64.6083 173.823 98.6679 143.244L97.3318 141.756C62.8915 172.677 47.566 209.254 40.8515 238.086C37.4944 252.501 36.288 264.986 35.9212 273.873C35.7378 278.317 35.7642 281.862 35.8368 284.3C35.8732 285.52 35.921 286.462 35.96 287.102C35.9795 287.423 35.9968 287.667 36.0093 287.832C36.0156 287.915 36.0207 287.978 36.0242 288.021C36.026 288.043 36.0274 288.059 36.0283 288.07C36.0288 288.076 36.0292 288.081 36.0295 288.084C36.0296 288.085 36.0298 288.087 36.0298 288.087C36.0299 288.088 36.03 288.089 37.026 288ZM98.6679 143.244C132.677 112.711 170.401 106.005 199.656 106.937C214.286 107.403 226.791 109.78 235.635 112.039C240.057 113.169 243.561 114.269 245.956 115.084C247.153 115.492 248.073 115.829 248.692 116.063C249.001 116.18 249.235 116.271 249.39 116.333C249.468 116.363 249.526 116.387 249.564 116.402C249.583 116.41 249.597 116.416 249.606 116.419C249.611 116.421 249.614 116.423 249.616 116.423C249.617 116.424 249.618 116.424 249.618 116.424C249.618 116.424 249.618 116.424 250 115.5C250.382 114.576 250.381 114.575 250.38 114.575C250.379 114.575 250.378 114.574 250.376 114.574C250.373 114.572 250.369 114.57 250.363 114.568C250.352 114.564 250.336 114.557 250.314 114.548C250.272 114.531 250.209 114.506 250.127 114.473C249.962 114.408 249.718 114.313 249.399 114.192C248.761 113.951 247.82 113.606 246.601 113.191C244.162 112.36 240.607 111.245 236.13 110.101C227.178 107.814 214.526 105.41 199.719 104.938C170.099 103.995 131.823 110.789 97.3318 141.756L98.6679 143.244Z" fill="#FF0000"/>
<path d="M124.179 457.016C123.636 456.917 123.115 457.277 123.016 457.82L121.401 466.674C121.301 467.218 121.661 467.738 122.205 467.838C122.748 467.937 123.269 467.577 123.368 467.033L124.804 459.163L132.674 460.599C133.218 460.699 133.738 460.338 133.838 459.795C133.937 459.252 133.577 458.731 133.033 458.632L124.179 457.016ZM151 549L152 549.02L151 549ZM124 458C123.177 458.569 123.177 458.569 123.177 458.569C123.178 458.569 123.178 458.569 123.178 458.57C123.179 458.57 123.18 458.572 123.181 458.574C123.184 458.578 123.189 458.585 123.195 458.594C123.208 458.613 123.227 458.641 123.252 458.679C123.303 458.754 123.38 458.868 123.481 459.02C123.682 459.323 123.978 459.777 124.356 460.374C125.112 461.568 126.194 463.333 127.49 465.612C130.083 470.169 133.533 476.773 136.952 484.948C143.794 501.307 150.497 523.914 150 548.98L152 549.02C152.503 523.586 145.706 500.693 138.798 484.177C135.342 475.915 131.854 469.237 129.228 464.623C127.915 462.315 126.817 460.522 126.046 459.304C125.66 458.695 125.356 458.229 125.148 457.915C125.043 457.757 124.963 457.638 124.908 457.557C124.881 457.516 124.86 457.486 124.845 457.465C124.838 457.454 124.833 457.446 124.829 457.441C124.827 457.438 124.826 457.436 124.824 457.434C124.824 457.433 124.823 457.433 124.823 457.432C124.823 457.432 124.823 457.431 124 458ZM150 548.98C149.504 574.061 142.799 594.171 136.222 608.008C132.933 614.927 129.678 620.274 127.248 623.887C126.034 625.694 125.026 627.066 124.325 627.984C123.974 628.442 123.7 628.787 123.515 629.016C123.422 629.131 123.352 629.216 123.305 629.272C123.282 629.3 123.265 629.321 123.254 629.334C123.248 629.34 123.244 629.345 123.242 629.348C123.24 629.35 123.24 629.351 123.239 629.351C123.239 629.351 123.239 629.351 123.239 629.352C123.239 629.351 123.239 629.351 124 630C124.761 630.649 124.761 630.648 124.762 630.648C124.762 630.647 124.763 630.647 124.763 630.646C124.764 630.645 124.766 630.643 124.768 630.641C124.772 630.636 124.777 630.63 124.784 630.622C124.798 630.605 124.818 630.581 124.844 630.55C124.896 630.487 124.972 630.395 125.07 630.274C125.266 630.031 125.551 629.672 125.914 629.198C126.638 628.251 127.669 626.845 128.908 625.003C131.385 621.319 134.692 615.886 138.028 608.867C144.701 594.829 151.496 574.439 152 549.02L150 548.98Z" fill="#FF0000"/>
<path d="M87.1408 287.067C86.6254 287.265 86.3684 287.844 86.5667 288.359L89.7998 296.758C89.9982 297.274 90.5769 297.531 91.0923 297.332C91.6077 297.134 91.8647 296.555 91.6663 296.04L88.7925 288.574L96.2585 285.7C96.7739 285.502 97.0309 284.923 96.8325 284.408C96.6341 283.892 96.0554 283.635 95.54 283.834L87.1408 287.067ZM142.5 361L141.525 361.221L142.5 361ZM87.5 288C87.0941 288.914 87.0938 288.914 87.0938 288.914C87.0939 288.914 87.094 288.914 87.0944 288.914C87.0951 288.914 87.0965 288.915 87.0985 288.916C87.1026 288.918 87.1092 288.921 87.1183 288.925C87.1366 288.933 87.1651 288.946 87.2034 288.964C87.2801 288.999 87.3962 289.054 87.5495 289.128C87.8562 289.275 88.3117 289.501 88.8983 289.808C90.0714 290.422 91.7681 291.363 93.8456 292.661C98.0013 295.257 103.677 299.28 109.733 304.978C121.841 316.371 135.468 334.453 141.525 361.221L143.475 360.779C137.313 333.547 123.44 315.129 111.103 303.522C104.936 297.72 99.1529 293.618 94.9053 290.964C92.7812 289.637 91.0402 288.672 89.826 288.036C89.2188 287.718 88.7433 287.483 88.4173 287.326C88.2544 287.247 88.1287 287.188 88.0428 287.148C87.9998 287.129 87.9667 287.113 87.9438 287.103C87.9323 287.098 87.9234 287.094 87.9171 287.091C87.9139 287.09 87.9114 287.089 87.9095 287.088C87.9086 287.087 87.9077 287.087 87.9072 287.087C87.9065 287.086 87.9059 287.086 87.5 288ZM141.525 361.221C147.581 387.985 143 412.288 136.887 429.923C133.832 438.737 130.397 445.875 127.729 450.805C126.395 453.27 125.253 455.182 124.447 456.475C124.044 457.121 123.725 457.613 123.508 457.941C123.399 458.105 123.316 458.228 123.261 458.31C123.233 458.35 123.212 458.381 123.199 458.4C123.192 458.41 123.187 458.417 123.184 458.422C123.182 458.424 123.181 458.426 123.18 458.427C123.18 458.427 123.18 458.427 123.18 458.428C123.18 458.428 123.18 458.428 124 459C124.82 459.572 124.82 459.572 124.82 459.571C124.821 459.571 124.821 459.57 124.822 459.569C124.823 459.567 124.825 459.565 124.827 459.562C124.831 459.556 124.837 459.547 124.845 459.535C124.861 459.512 124.884 459.479 124.914 459.435C124.974 459.346 125.062 459.216 125.176 459.045C125.402 458.702 125.731 458.195 126.144 457.533C126.97 456.209 128.133 454.261 129.488 451.757C132.198 446.75 135.68 439.513 138.777 430.577C144.969 412.712 149.638 388.015 143.475 360.779L141.525 361.221Z" fill="#FF0000"/>
</svg>
