<svg width="512" height="814" viewBox="0 0 512 814" fill="none" xmlns="http://www.w3.org/2000/svg">
<path d="M123 638C123 651.255 112.255 662 99 662C85.7452 662 75 651.255 75 638C75 624.745 85.7452 614 99 614C112.255 614 123 624.745 123 638Z" fill="#D9D9D9" stroke="black" stroke-width="2"/>
<path d="M90.3645 643.659C89.5084 643.659 88.7793 643.426 88.177 642.96C87.5747 642.491 87.1145 641.811 86.7963 640.92C86.4781 640.027 86.319 638.947 86.319 637.682C86.319 636.424 86.4781 635.35 86.7963 634.46C87.1183 633.566 87.5804 632.884 88.1827 632.415C88.7887 631.941 89.516 631.705 90.3645 631.705C91.213 631.705 91.9384 631.941 92.5406 632.415C93.1467 632.884 93.6088 633.566 93.927 634.46C94.249 635.35 94.41 636.424 94.41 637.682C94.41 638.947 94.2509 640.027 93.9327 640.92C93.6145 641.811 93.1543 642.491 92.552 642.96C91.9497 643.426 91.2206 643.659 90.3645 643.659ZM90.3645 642.409C91.213 642.409 91.8721 642 92.3418 641.182C92.8115 640.364 93.0463 639.197 93.0463 637.682C93.0463 636.674 92.9384 635.816 92.7225 635.108C92.5103 634.4 92.2035 633.86 91.802 633.489C91.4043 633.117 90.9251 632.932 90.3645 632.932C89.5236 632.932 88.8664 633.347 88.3929 634.176C87.9194 635.002 87.6827 636.17 87.6827 637.682C87.6827 638.689 87.7887 639.545 88.0009 640.25C88.213 640.955 88.5179 641.491 88.9156 641.858C89.3172 642.225 89.8001 642.409 90.3645 642.409ZM101.592 637.057V638.307H96.5009V637.057H101.592ZM107.724 643.659C106.868 643.659 106.139 643.426 105.536 642.96C104.934 642.491 104.474 641.811 104.156 640.92C103.838 640.027 103.678 638.947 103.678 637.682C103.678 636.424 103.838 635.35 104.156 634.46C104.478 633.566 104.94 632.884 105.542 632.415C106.148 631.941 106.875 631.705 107.724 631.705C108.572 631.705 109.298 631.941 109.9 632.415C110.506 632.884 110.968 633.566 111.286 634.46C111.608 635.35 111.769 636.424 111.769 637.682C111.769 638.947 111.61 640.027 111.292 640.92C110.974 641.811 110.514 642.491 109.911 642.96C109.309 643.426 108.58 643.659 107.724 643.659ZM107.724 642.409C108.572 642.409 109.231 642 109.701 641.182C110.171 640.364 110.406 639.197 110.406 637.682C110.406 636.674 110.298 635.816 110.082 635.108C109.87 634.4 109.563 633.86 109.161 633.489C108.764 633.117 108.284 632.932 107.724 632.932C106.883 632.932 106.226 633.347 105.752 634.176C105.279 635.002 105.042 636.17 105.042 637.682C105.042 638.689 105.148 639.545 105.36 640.25C105.572 640.955 105.877 641.491 106.275 641.858C106.677 642.225 107.159 642.409 107.724 642.409Z" fill="black"/>
<path d="M91.4506 792.909V806H89.8653V794.571H89.7886L86.5926 796.693V795.082L89.8653 792.909H91.4506ZM100.866 798.751V800.158H95.1388V798.751H100.866ZM108.097 792.909V806H106.512V794.571H106.435L103.239 796.693V795.082L106.512 792.909H108.097Z" fill="black"/>
<path d="M98.7929 612.707C99.1834 613.098 99.8166 613.098 100.207 612.707L106.571 606.343C106.962 605.953 106.962 605.319 106.571 604.929C106.181 604.538 105.547 604.538 105.157 604.929L99.5 610.586L93.8431 604.929C93.4526 604.538 92.8195 604.538 92.4289 604.929C92.0384 605.319 92.0384 605.953 92.4289 606.343L98.7929 612.707ZM98.5 491L98.5 612H100.5L100.5 491H98.5Z" fill="black"/>
<path d="M49 467C49 480.255 38.2548 491 25 491C11.7452 491 1 480.255 1 467C1 453.745 11.7452 443 25 443C38.2548 443 49 453.745 49 467Z" fill="#D9D9D9" stroke="black" stroke-width="2"/>
<path d="M17.6195 472.659C16.9528 472.659 16.3524 472.527 15.8183 472.261C15.2842 471.996 14.8562 471.633 14.5342 471.17C14.2123 470.708 14.0361 470.182 14.0058 469.591H15.3695C15.4225 470.117 15.6611 470.553 16.0854 470.898C16.5134 471.239 17.0248 471.409 17.6195 471.409C18.0967 471.409 18.521 471.297 18.8922 471.074C19.2672 470.85 19.5608 470.544 19.7729 470.153C19.9888 469.759 20.0967 469.314 20.0967 468.818C20.0967 468.311 19.985 467.858 19.7615 467.46C19.5418 467.059 19.2388 466.742 18.8524 466.511C18.4661 466.28 18.0248 466.163 17.5286 466.159C17.1725 466.155 16.807 466.21 16.432 466.324C16.057 466.434 15.7483 466.576 15.5058 466.75L14.1877 466.591L14.8922 460.864H20.9377V462.114H16.074L15.6649 465.545H15.7331C15.9717 465.356 16.271 465.199 16.6308 465.074C16.9907 464.949 17.3657 464.886 17.7558 464.886C18.468 464.886 19.1024 465.057 19.6592 465.398C20.2199 465.735 20.6592 466.197 20.9774 466.784C21.2994 467.371 21.4604 468.042 21.4604 468.795C21.4604 469.538 21.2937 470.201 20.9604 470.784C20.6308 471.364 20.1763 471.822 19.5967 472.159C19.0172 472.492 18.3581 472.659 17.6195 472.659ZM28.7402 466.057V467.307H23.6493V466.057H28.7402ZM35.1678 460.864V472.5H33.7587V462.341H33.6905L30.8496 464.227V462.795L33.7587 460.864H35.1678Z" fill="black"/>
<path d="M86 296C86 309.255 75.2548 320 62 320C48.7452 320 38 309.255 38 296C38 282.745 48.7452 272 62 272C75.2548 272 86 282.745 86 296Z" fill="#D9D9D9" stroke="black" stroke-width="2"/>
<path d="M50.3624 301.5L55.5669 291.205V291.114H49.5669V289.864H57.0215V291.182L51.8396 301.5H50.3624ZM64.1621 295.057V296.307H59.0712V295.057H64.1621ZM70.2431 301.659C69.4931 301.659 68.8245 301.53 68.2374 301.273C67.654 301.015 67.19 300.657 66.8453 300.199C66.5044 299.737 66.3188 299.201 66.2885 298.591H67.7203C67.7506 298.966 67.8794 299.29 68.1067 299.562C68.334 299.831 68.6313 300.04 68.9987 300.188C69.3662 300.335 69.7734 300.409 70.2203 300.409C70.7203 300.409 71.1635 300.322 71.5499 300.148C71.9362 299.973 72.2393 299.731 72.459 299.42C72.6787 299.11 72.7885 298.75 72.7885 298.341C72.7885 297.913 72.6824 297.536 72.4703 297.21C72.2582 296.881 71.9476 296.623 71.5385 296.438C71.1294 296.252 70.6294 296.159 70.0385 296.159H69.1067V294.909H70.0385C70.5006 294.909 70.9059 294.826 71.2544 294.659C71.6067 294.492 71.8813 294.258 72.0783 293.955C72.279 293.652 72.3794 293.295 72.3794 292.886C72.3794 292.492 72.2923 292.15 72.1181 291.858C71.9438 291.566 71.6976 291.339 71.3794 291.176C71.065 291.013 70.6938 290.932 70.2658 290.932C69.8643 290.932 69.4855 291.006 69.1294 291.153C68.7771 291.297 68.4893 291.508 68.2658 291.784C68.0423 292.057 67.9211 292.386 67.9021 292.773H66.5385C66.5612 292.163 66.7449 291.629 67.0896 291.17C67.4343 290.708 67.8851 290.348 68.4419 290.091C69.0025 289.833 69.6181 289.705 70.2885 289.705C71.0082 289.705 71.6256 289.85 72.1408 290.142C72.6559 290.43 73.0518 290.811 73.3283 291.284C73.6048 291.758 73.7431 292.269 73.7431 292.818C73.7431 293.473 73.5707 294.032 73.226 294.494C72.8851 294.956 72.4211 295.277 71.834 295.455V295.545C72.5688 295.667 73.1427 295.979 73.5556 296.483C73.9684 296.983 74.1749 297.602 74.1749 298.341C74.1749 298.973 74.0025 299.542 73.6578 300.045C73.3169 300.545 72.851 300.939 72.2601 301.227C71.6692 301.515 70.9968 301.659 70.2431 301.659Z" fill="black"/>
<path d="M298 467C298 480.255 287.255 491 274 491C260.745 491 250 480.255 250 467C250 453.745 260.745 443 274 443C287.255 443 298 453.745 298 467Z" fill="#D9D9D9" stroke="black" stroke-width="2"/>
<path d="M262.445 470.114V468.955L267.558 460.864H268.399V462.659H267.831L263.967 468.773V468.864H270.854V470.114H262.445ZM267.922 472.5V469.761V469.222V460.864H269.263V472.5H267.922ZM278.006 466.057V467.307H272.915V466.057H278.006ZM284.433 460.864V472.5H283.024V462.341H282.956L280.115 464.227V462.795L283.024 460.864H284.433Z" fill="black"/>
<path d="M224 467C224 480.255 213.255 491 200 491C186.745 491 176 480.255 176 467C176 453.745 186.745 443 200 443C213.255 443 224 453.745 224 467Z" fill="#D9D9D9" stroke="black" stroke-width="2"/>
<path d="M187.725 472.5V471.477L191.566 467.273C192.017 466.78 192.388 466.352 192.68 465.989C192.972 465.621 193.187 465.277 193.328 464.955C193.472 464.629 193.543 464.288 193.543 463.932C193.543 463.523 193.445 463.169 193.248 462.869C193.055 462.57 192.79 462.339 192.453 462.176C192.115 462.013 191.737 461.932 191.316 461.932C190.869 461.932 190.479 462.025 190.146 462.21C189.816 462.392 189.561 462.648 189.379 462.977C189.201 463.307 189.112 463.693 189.112 464.136H187.771C187.771 463.455 187.928 462.856 188.242 462.341C188.557 461.826 188.985 461.424 189.526 461.136C190.072 460.848 190.684 460.705 191.362 460.705C192.043 460.705 192.648 460.848 193.174 461.136C193.701 461.424 194.114 461.812 194.413 462.301C194.712 462.79 194.862 463.333 194.862 463.932C194.862 464.36 194.784 464.778 194.629 465.188C194.477 465.593 194.212 466.045 193.833 466.545C193.458 467.042 192.937 467.648 192.271 468.364L189.657 471.159V471.25H195.066V472.5H187.725ZM202.436 466.057V467.307H197.345V466.057H202.436ZM208.568 472.659C207.712 472.659 206.982 472.426 206.38 471.96C205.778 471.491 205.318 470.811 204.999 469.92C204.681 469.027 204.522 467.947 204.522 466.682C204.522 465.424 204.681 464.35 204.999 463.46C205.321 462.566 205.784 461.884 206.386 461.415C206.992 460.941 207.719 460.705 208.568 460.705C209.416 460.705 210.141 460.941 210.744 461.415C211.35 461.884 211.812 462.566 212.13 463.46C212.452 464.35 212.613 465.424 212.613 466.682C212.613 467.947 212.454 469.027 212.136 469.92C211.818 470.811 211.357 471.491 210.755 471.96C210.153 472.426 209.424 472.659 208.568 472.659ZM208.568 471.409C209.416 471.409 210.075 471 210.545 470.182C211.015 469.364 211.249 468.197 211.249 466.682C211.249 465.674 211.141 464.816 210.926 464.108C210.713 463.4 210.407 462.86 210.005 462.489C209.607 462.117 209.128 461.932 208.568 461.932C207.727 461.932 207.07 462.347 206.596 463.176C206.123 464.002 205.886 465.17 205.886 466.682C205.886 467.689 205.992 468.545 206.204 469.25C206.416 469.955 206.721 470.491 207.119 470.858C207.52 471.225 208.003 471.409 208.568 471.409Z" fill="black"/>
<path d="M123 466C123 479.255 112.255 490 99 490C85.7452 490 75 479.255 75 466C75 452.745 85.7452 442 99 442C112.255 442 123 452.745 123 466Z" fill="#D9D9D9" stroke="black" stroke-width="2"/>
<path d="M87.155 471.5V470.477L90.9959 466.273C91.4467 465.78 91.8179 465.352 92.1095 464.989C92.4012 464.621 92.6171 464.277 92.7573 463.955C92.9012 463.629 92.9732 463.288 92.9732 462.932C92.9732 462.523 92.8747 462.169 92.6777 461.869C92.4845 461.57 92.2194 461.339 91.8823 461.176C91.5451 461.013 91.1663 460.932 90.7459 460.932C90.2989 460.932 89.9088 461.025 89.5754 461.21C89.2459 461.392 88.9902 461.648 88.8084 461.977C88.6304 462.307 88.5413 462.693 88.5413 463.136H87.2004C87.2004 462.455 87.3576 461.856 87.672 461.341C87.9864 460.826 88.4145 460.424 88.9561 460.136C89.5016 459.848 90.1133 459.705 90.7913 459.705C91.4732 459.705 92.0773 459.848 92.6038 460.136C93.1304 460.424 93.5432 460.812 93.8425 461.301C94.1417 461.79 94.2913 462.333 94.2913 462.932C94.2913 463.36 94.2137 463.778 94.0584 464.188C93.9069 464.593 93.6417 465.045 93.2629 465.545C92.8879 466.042 92.3671 466.648 91.7004 467.364L89.0868 470.159V470.25H94.4959V471.5H87.155ZM101.865 465.057V466.307H96.7743V465.057H101.865ZM103.655 471.5V470.477L107.496 466.273C107.947 465.78 108.318 465.352 108.61 464.989C108.901 464.621 109.117 464.277 109.257 463.955C109.401 463.629 109.473 463.288 109.473 462.932C109.473 462.523 109.375 462.169 109.178 461.869C108.985 461.57 108.719 461.339 108.382 461.176C108.045 461.013 107.666 460.932 107.246 460.932C106.799 460.932 106.409 461.025 106.075 461.21C105.746 461.392 105.49 461.648 105.308 461.977C105.13 462.307 105.041 462.693 105.041 463.136H103.7C103.7 462.455 103.858 461.856 104.172 461.341C104.486 460.826 104.914 460.424 105.456 460.136C106.002 459.848 106.613 459.705 107.291 459.705C107.973 459.705 108.577 459.848 109.104 460.136C109.63 460.424 110.043 460.812 110.342 461.301C110.642 461.79 110.791 462.333 110.791 462.932C110.791 463.36 110.714 463.778 110.558 464.188C110.407 464.593 110.142 465.045 109.763 465.545C109.388 466.042 108.867 466.648 108.2 467.364L105.587 470.159V470.25H110.996V471.5H103.655Z" fill="black"/>
<path d="M372 467C372 480.255 361.255 491 348 491C334.745 491 324 480.255 324 467C324 453.745 334.745 443 348 443C361.255 443 372 453.745 372 467Z" fill="#D9D9D9" stroke="black" stroke-width="2"/>
<path d="M339.407 472.659C338.657 472.659 337.989 472.53 337.401 472.273C336.818 472.015 336.354 471.657 336.009 471.199C335.668 470.737 335.483 470.201 335.453 469.591H336.884C336.915 469.966 337.043 470.29 337.271 470.562C337.498 470.831 337.795 471.04 338.163 471.188C338.53 471.335 338.937 471.409 339.384 471.409C339.884 471.409 340.328 471.322 340.714 471.148C341.1 470.973 341.403 470.731 341.623 470.42C341.843 470.11 341.953 469.75 341.953 469.341C341.953 468.913 341.847 468.536 341.634 468.21C341.422 467.881 341.112 467.623 340.703 467.438C340.293 467.252 339.793 467.159 339.203 467.159H338.271V465.909H339.203C339.665 465.909 340.07 465.826 340.418 465.659C340.771 465.492 341.045 465.258 341.242 464.955C341.443 464.652 341.543 464.295 341.543 463.886C341.543 463.492 341.456 463.15 341.282 462.858C341.108 462.566 340.862 462.339 340.543 462.176C340.229 462.013 339.858 461.932 339.43 461.932C339.028 461.932 338.65 462.006 338.293 462.153C337.941 462.297 337.653 462.508 337.43 462.784C337.206 463.057 337.085 463.386 337.066 463.773H335.703C335.725 463.163 335.909 462.629 336.254 462.17C336.598 461.708 337.049 461.348 337.606 461.091C338.167 460.833 338.782 460.705 339.453 460.705C340.172 460.705 340.79 460.85 341.305 461.142C341.82 461.43 342.216 461.811 342.492 462.284C342.769 462.758 342.907 463.269 342.907 463.818C342.907 464.473 342.735 465.032 342.39 465.494C342.049 465.956 341.585 466.277 340.998 466.455V466.545C341.733 466.667 342.307 466.979 342.72 467.483C343.132 467.983 343.339 468.602 343.339 469.341C343.339 469.973 343.167 470.542 342.822 471.045C342.481 471.545 342.015 471.939 341.424 472.227C340.833 472.515 340.161 472.659 339.407 472.659ZM350.686 466.057V467.307H345.595V466.057H350.686ZM356.766 472.659C356.016 472.659 355.348 472.53 354.761 472.273C354.177 472.015 353.713 471.657 353.369 471.199C353.028 470.737 352.842 470.201 352.812 469.591H354.244C354.274 469.966 354.403 470.29 354.63 470.562C354.857 470.831 355.155 471.04 355.522 471.188C355.89 471.335 356.297 471.409 356.744 471.409C357.244 471.409 357.687 471.322 358.073 471.148C358.46 470.973 358.763 470.731 358.982 470.42C359.202 470.11 359.312 469.75 359.312 469.341C359.312 468.913 359.206 468.536 358.994 468.21C358.782 467.881 358.471 467.623 358.062 467.438C357.653 467.252 357.153 467.159 356.562 467.159H355.63V465.909H356.562C357.024 465.909 357.429 465.826 357.778 465.659C358.13 465.492 358.405 465.258 358.602 464.955C358.802 464.652 358.903 464.295 358.903 463.886C358.903 463.492 358.816 463.15 358.641 462.858C358.467 462.566 358.221 462.339 357.903 462.176C357.588 462.013 357.217 461.932 356.789 461.932C356.388 461.932 356.009 462.006 355.653 462.153C355.301 462.297 355.013 462.508 354.789 462.784C354.566 463.057 354.445 463.386 354.426 463.773H353.062C353.085 463.163 353.268 462.629 353.613 462.17C353.958 461.708 354.409 461.348 354.965 461.091C355.526 460.833 356.141 460.705 356.812 460.705C357.532 460.705 358.149 460.85 358.664 461.142C359.179 461.43 359.575 461.811 359.852 462.284C360.128 462.758 360.266 463.269 360.266 463.818C360.266 464.473 360.094 465.032 359.749 465.494C359.409 465.956 358.945 466.277 358.357 466.455V466.545C359.092 466.667 359.666 466.979 360.079 467.483C360.492 467.983 360.698 468.602 360.698 469.341C360.698 469.973 360.526 470.542 360.181 471.045C359.84 471.545 359.374 471.939 358.784 472.227C358.193 472.515 357.52 472.659 356.766 472.659Z" fill="black"/>
<path d="M511 295C511 308.255 500.255 319 487 319C473.745 319 463 308.255 463 295C463 281.745 473.745 271 487 271C500.255 271 511 281.745 511 295Z" fill="#D9D9D9" stroke="black" stroke-width="2"/>
<path d="M479.941 288.864V300.5H478.532V290.341H478.464L475.623 292.227V290.795L478.532 288.864H479.941ZM488.311 294.057V295.307H483.22V294.057H488.311ZM494.443 300.659C493.587 300.659 492.857 300.426 492.255 299.96C491.653 299.491 491.193 298.811 490.874 297.92C490.556 297.027 490.397 295.947 490.397 294.682C490.397 293.424 490.556 292.35 490.874 291.46C491.196 290.566 491.659 289.884 492.261 289.415C492.867 288.941 493.594 288.705 494.443 288.705C495.291 288.705 496.016 288.941 496.619 289.415C497.225 289.884 497.687 290.566 498.005 291.46C498.327 292.35 498.488 293.424 498.488 294.682C498.488 295.947 498.329 297.027 498.011 297.92C497.693 298.811 497.232 299.491 496.63 299.96C496.028 300.426 495.299 300.659 494.443 300.659ZM494.443 299.409C495.291 299.409 495.95 299 496.42 298.182C496.89 297.364 497.124 296.197 497.124 294.682C497.124 293.674 497.016 292.816 496.801 292.108C496.588 291.4 496.282 290.86 495.88 290.489C495.482 290.117 495.003 289.932 494.443 289.932C493.602 289.932 492.945 290.347 492.471 291.176C491.998 292.002 491.761 293.17 491.761 294.682C491.761 295.689 491.867 296.545 492.079 297.25C492.291 297.955 492.596 298.491 492.994 298.858C493.395 299.225 493.878 299.409 494.443 299.409Z" fill="black"/>
<path d="M298 124C298 137.255 287.255 148 274 148C260.745 148 250 137.255 250 124C250 110.745 260.745 100 274 100C287.255 100 298 110.745 298 124Z" fill="#D9D9D9" stroke="black" stroke-width="2"/>
<path d="M262.98 117.864V129.5H261.571V119.341H261.503L258.662 121.227V119.795L261.571 117.864H262.98ZM266.69 129.5L271.895 119.205V119.114H265.895V117.864H273.35V119.182L268.168 129.5H266.69ZM280.49 123.057V124.307H275.399V123.057H280.49ZM282.831 129.5L288.036 119.205V119.114H282.036V117.864H289.49V119.182L284.308 129.5H282.831Z" fill="black"/>
<path d="M298 296C298 309.255 287.255 320 274 320C260.745 320 250 309.255 250 296C250 282.745 260.745 272 274 272C287.255 272 298 282.745 298 296Z" fill="#D9D9D9" stroke="black" stroke-width="2"/>
<path d="M265.149 289.705C265.626 289.708 266.103 289.799 266.58 289.977C267.058 290.155 267.493 290.451 267.887 290.864C268.281 291.273 268.597 291.831 268.836 292.54C269.075 293.248 269.194 294.136 269.194 295.205C269.194 296.239 269.096 297.157 268.899 297.96C268.705 298.759 268.425 299.434 268.058 299.983C267.694 300.532 267.251 300.949 266.728 301.233C266.209 301.517 265.622 301.659 264.967 301.659C264.315 301.659 263.734 301.53 263.222 301.273C262.715 301.011 262.298 300.65 261.972 300.188C261.65 299.722 261.444 299.182 261.353 298.568H262.74C262.865 299.102 263.113 299.544 263.484 299.892C263.859 300.237 264.353 300.409 264.967 300.409C265.865 300.409 266.573 300.017 267.092 299.233C267.615 298.449 267.876 297.341 267.876 295.909H267.785C267.573 296.227 267.321 296.502 267.029 296.733C266.738 296.964 266.414 297.142 266.058 297.267C265.702 297.392 265.323 297.455 264.921 297.455C264.255 297.455 263.643 297.29 263.086 296.96C262.533 296.627 262.09 296.17 261.757 295.591C261.427 295.008 261.262 294.341 261.262 293.591C261.262 292.879 261.421 292.227 261.74 291.636C262.061 291.042 262.512 290.568 263.092 290.216C263.675 289.864 264.361 289.693 265.149 289.705ZM265.149 290.955C264.671 290.955 264.241 291.074 263.859 291.312C263.48 291.547 263.179 291.866 262.955 292.267C262.736 292.665 262.626 293.106 262.626 293.591C262.626 294.076 262.732 294.517 262.944 294.915C263.16 295.309 263.454 295.623 263.825 295.858C264.2 296.089 264.626 296.205 265.103 296.205C265.463 296.205 265.798 296.134 266.109 295.994C266.419 295.85 266.69 295.655 266.921 295.409C267.156 295.159 267.34 294.877 267.472 294.562C267.605 294.244 267.671 293.913 267.671 293.568C267.671 293.114 267.561 292.687 267.342 292.29C267.126 291.892 266.827 291.57 266.444 291.324C266.065 291.078 265.633 290.955 265.149 290.955ZM276.451 295.057V296.307H271.36V295.057H276.451ZM278.515 299.114V297.955L283.629 289.864H284.47V291.659H283.901L280.038 297.773V297.864H286.924V299.114H278.515ZM283.992 301.5V298.761V298.222V289.864H285.333V301.5H283.992Z" fill="black"/>
<path d="M24.117 442.469C24.3763 442.957 24.9818 443.142 25.4694 442.883L33.4162 438.658C33.9038 438.399 34.089 437.793 33.8297 437.306C33.5705 436.818 32.965 436.633 32.4773 436.892L25.4135 440.648L21.6581 433.584C21.3989 433.096 20.7934 432.911 20.3057 433.17C19.8181 433.43 19.6329 434.035 19.8922 434.523L24.117 442.469ZM61.0437 320.708L24.0437 441.708L25.9563 442.292L62.9563 321.292L61.0437 320.708Z" fill="black"/>
<path d="M98.5306 442.883C99.0182 443.142 99.6237 442.957 99.883 442.469L104.108 434.523C104.367 434.035 104.182 433.43 103.694 433.17C103.207 432.911 102.601 433.096 102.342 433.584L98.5865 440.648L91.5227 436.892C91.035 436.633 90.4295 436.818 90.1703 437.306C89.911 437.793 90.0962 438.399 90.5838 438.658L98.5306 442.883ZM61.0437 321.292L98.0437 442.292L99.9563 441.708L62.9563 320.708L61.0437 321.292Z" fill="black"/>
<path d="M199.454 441.495C199.584 442.032 200.124 442.362 200.661 442.233L209.41 440.124C209.947 439.995 210.278 439.455 210.148 438.918C210.019 438.381 209.479 438.05 208.942 438.18L201.164 440.054L199.29 432.277C199.16 431.74 198.62 431.41 198.083 431.539C197.546 431.669 197.216 432.209 197.346 432.746L199.454 441.495ZM273.573 319.739L199.573 440.739L201.28 441.783L275.28 320.783L273.573 319.739Z" fill="black"/>
<path d="M273.793 441.707C274.183 442.098 274.817 442.098 275.207 441.707L281.571 435.343C281.962 434.953 281.962 434.319 281.571 433.929C281.181 433.538 280.547 433.538 280.157 433.929L274.5 439.586L268.843 433.929C268.453 433.538 267.819 433.538 267.429 433.929C267.038 434.319 267.038 434.953 267.429 435.343L273.793 441.707ZM273.5 320V441H275.5V320H273.5Z" fill="black"/>
<path d="M348.192 441.711C348.729 441.841 349.269 441.51 349.399 440.973L351.508 432.224C351.637 431.687 351.307 431.147 350.77 431.018C350.233 430.888 349.693 431.218 349.563 431.755L347.689 439.533L339.911 437.658C339.374 437.529 338.834 437.859 338.705 438.396C338.576 438.933 338.906 439.473 339.443 439.602L348.192 441.711ZM273.573 320.261L347.573 441.261L349.28 440.217L275.28 319.217L273.573 320.261Z" fill="black"/>
<path d="M61.0344 270.74C60.8908 271.273 61.2066 271.822 61.7398 271.966L70.4299 274.307C70.9631 274.451 71.5119 274.135 71.6556 273.602C71.7993 273.069 71.4835 272.52 70.9502 272.376L63.2258 270.295L65.3072 262.57C65.4509 262.037 65.1351 261.488 64.6018 261.344C64.0686 261.201 63.5198 261.517 63.3761 262.05L61.0344 270.74ZM273.501 148.133L61.5012 270.133L62.4988 271.867L274.499 149.867L273.501 148.133Z" fill="black"/>
<path d="M273.293 270.707C273.683 271.098 274.317 271.098 274.707 270.707L281.071 264.343C281.462 263.953 281.462 263.319 281.071 262.929C280.681 262.538 280.047 262.538 279.657 262.929L274 268.586L268.343 262.929C267.953 262.538 267.319 262.538 266.929 262.929C266.538 263.319 266.538 263.953 266.929 264.343L273.293 270.707ZM273 149L273 270H275L275 149H273Z" fill="black"/>
<path d="M487.262 271.965C487.795 271.82 488.11 271.271 487.965 270.738L485.606 262.053C485.461 261.52 484.912 261.205 484.379 261.35C483.846 261.494 483.531 262.044 483.676 262.577L485.773 270.297L478.053 272.394C477.52 272.539 477.205 273.088 477.35 273.621C477.494 274.154 478.044 274.469 478.577 274.324L487.262 271.965ZM273.503 149.868L486.503 271.868L487.497 270.132L274.497 148.132L273.503 149.868Z" fill="black"/>
<path d="M224.792 20.3636C224.686 19.464 224.254 18.7656 223.496 18.2685C222.739 17.7713 221.809 17.5227 220.709 17.5227C219.904 17.5227 219.199 17.6529 218.596 17.9134C217.998 18.1738 217.53 18.5318 217.193 18.9876C216.861 19.4433 216.696 19.9612 216.696 20.5412C216.696 21.0265 216.811 21.4438 217.042 21.793C217.279 22.1362 217.581 22.4233 217.948 22.6541C218.314 22.879 218.699 23.0655 219.102 23.2134C219.504 23.3555 219.874 23.4709 220.211 23.5597L222.058 24.0568C222.531 24.1811 223.058 24.3527 223.638 24.5717C224.224 24.7907 224.783 25.0896 225.316 25.4684C225.855 25.8413 226.299 26.3207 226.648 26.9066C226.997 27.4925 227.172 28.2116 227.172 29.0639C227.172 30.0464 226.914 30.9342 226.399 31.7273C225.89 32.5204 225.145 33.1507 224.162 33.6183C223.185 34.0858 221.999 34.3196 220.602 34.3196C219.3 34.3196 218.172 34.1095 217.22 33.6893C216.273 33.2691 215.527 32.6831 214.982 31.9315C214.444 31.1798 214.139 30.3068 214.068 29.3125H216.341C216.4 29.9991 216.631 30.5672 217.033 31.017C217.441 31.4609 217.956 31.7924 218.578 32.0114C219.205 32.2244 219.88 32.331 220.602 32.331C221.442 32.331 222.197 32.1948 222.866 31.9226C223.535 31.6444 224.064 31.2597 224.455 30.7685C224.846 30.2713 225.041 29.6913 225.041 29.0284C225.041 28.4247 224.872 27.9335 224.535 27.5547C224.198 27.1759 223.754 26.8681 223.203 26.6314C222.653 26.3946 222.058 26.1875 221.419 26.0099L219.182 25.3707C217.761 24.9624 216.637 24.3794 215.808 23.6218C214.979 22.8642 214.565 21.8729 214.565 20.6477C214.565 19.6297 214.84 18.742 215.391 17.9844C215.947 17.2209 216.693 16.629 217.628 16.2088C218.569 15.7827 219.62 15.5696 220.78 15.5696C221.951 15.5696 222.993 15.7797 223.905 16.1999C224.816 16.6142 225.538 17.1824 226.071 17.9045C226.609 18.6265 226.893 19.4463 226.923 20.3636H224.792ZM230.507 34V20.3636H232.603V34H230.507ZM231.573 18.0909C231.164 18.0909 230.812 17.9518 230.516 17.6737C230.226 17.3955 230.081 17.0611 230.081 16.6705C230.081 16.2798 230.226 15.9454 230.516 15.6673C230.812 15.3891 231.164 15.25 231.573 15.25C231.981 15.25 232.33 15.3891 232.62 15.6673C232.916 15.9454 233.064 16.2798 233.064 16.6705C233.064 17.0611 232.916 17.3955 232.62 17.6737C232.33 17.9518 231.981 18.0909 231.573 18.0909ZM236.44 34V20.3636H238.464V22.4943H238.642C238.926 21.7663 239.385 21.2011 240.018 20.7987C240.651 20.3903 241.412 20.1861 242.299 20.1861C243.199 20.1861 243.948 20.3903 244.546 20.7987C245.149 21.2011 245.62 21.7663 245.957 22.4943H246.099C246.448 21.79 246.972 21.2307 247.671 20.8164C248.369 20.3962 249.206 20.1861 250.183 20.1861C251.402 20.1861 252.399 20.5678 253.175 21.3313C253.95 22.0889 254.338 23.2696 254.338 24.8736V34H252.243V24.8736C252.243 23.8674 251.967 23.1483 251.417 22.7163C250.867 22.2842 250.218 22.0682 249.473 22.0682C248.514 22.0682 247.771 22.3582 247.244 22.9382C246.718 23.5123 246.454 24.2403 246.454 25.1222V34H244.324V24.6605C244.324 23.8852 244.072 23.2608 243.569 22.7873C243.066 22.3079 242.418 22.0682 241.625 22.0682C241.08 22.0682 240.571 22.2132 240.098 22.5032C239.63 22.7932 239.251 23.1957 238.961 23.7106C238.677 24.2196 238.535 24.8085 238.535 25.4773V34H236.44ZM266.762 28.4247V20.3636H268.858V34H266.762V31.6918H266.62C266.301 32.3842 265.804 32.9731 265.129 33.4585C264.454 33.9379 263.602 34.1776 262.572 34.1776C261.72 34.1776 260.962 33.9911 260.299 33.6183C259.636 33.2395 259.116 32.6713 258.737 31.9137C258.358 31.1502 258.169 30.1884 258.169 29.0284V20.3636H260.264V28.8864C260.264 29.8807 260.542 30.6738 261.098 31.2656C261.661 31.8575 262.377 32.1534 263.247 32.1534C263.768 32.1534 264.297 32.0202 264.836 31.7539C265.38 31.4876 265.836 31.0792 266.203 30.5288C266.576 29.9783 266.762 29.277 266.762 28.4247ZM274.79 15.8182V34H272.695V15.8182H274.79ZM282.64 34.3196C281.776 34.3196 280.992 34.1568 280.288 33.8313C279.583 33.4999 279.024 33.0234 278.61 32.402C278.196 31.7746 277.988 31.017 277.988 30.1293C277.988 29.348 278.142 28.7147 278.45 28.2294C278.758 27.7382 279.169 27.3535 279.684 27.0753C280.199 26.7971 280.767 26.59 281.389 26.4538C282.016 26.3118 282.646 26.1993 283.28 26.1165C284.108 26.0099 284.78 25.93 285.295 25.8768C285.816 25.8176 286.194 25.7199 286.431 25.5838C286.674 25.4477 286.795 25.2109 286.795 24.8736V24.8026C286.795 23.9266 286.555 23.246 286.076 22.7607C285.603 22.2753 284.883 22.0327 283.919 22.0327C282.919 22.0327 282.134 22.2517 281.566 22.6896C280.998 23.1276 280.598 23.5952 280.368 24.0923L278.379 23.3821C278.734 22.5535 279.208 21.9084 279.799 21.4467C280.397 20.9792 281.048 20.6536 281.753 20.4702C282.463 20.2808 283.161 20.1861 283.848 20.1861C284.286 20.1861 284.789 20.2393 285.357 20.3459C285.931 20.4465 286.484 20.6566 287.017 20.9762C287.556 21.2958 288.003 21.7782 288.358 22.4233C288.713 23.0684 288.89 23.9325 288.89 25.0156V34H286.795V32.1534H286.689C286.547 32.4493 286.31 32.766 285.978 33.1033C285.647 33.4407 285.206 33.7277 284.656 33.9645C284.105 34.2012 283.433 34.3196 282.64 34.3196ZM282.96 32.4375C283.789 32.4375 284.487 32.2747 285.055 31.9492C285.629 31.6237 286.061 31.2035 286.351 30.6886C286.647 30.1737 286.795 29.6321 286.795 29.0639V27.1463C286.706 27.2528 286.511 27.3505 286.209 27.4393C285.913 27.5221 285.57 27.5961 285.179 27.6612C284.795 27.7204 284.419 27.7737 284.052 27.821C283.691 27.8625 283.398 27.898 283.173 27.9276C282.629 27.9986 282.12 28.114 281.646 28.2738C281.178 28.4277 280.8 28.6615 280.51 28.9751C280.226 29.2829 280.084 29.7031 280.084 30.2358C280.084 30.9638 280.353 31.5142 280.891 31.8871C281.436 32.254 282.125 32.4375 282.96 32.4375ZM298.645 20.3636V22.1392H291.578V20.3636H298.645ZM293.638 17.0966H295.733V30.0938C295.733 30.6856 295.819 31.1295 295.99 31.4254C296.168 31.7154 296.393 31.9107 296.665 32.0114C296.943 32.1061 297.236 32.1534 297.544 32.1534C297.775 32.1534 297.964 32.1416 298.112 32.1179C298.26 32.0883 298.379 32.0646 298.467 32.0469L298.893 33.929C298.751 33.9822 298.553 34.0355 298.299 34.0888C298.044 34.148 297.722 34.1776 297.331 34.1776C296.739 34.1776 296.159 34.0503 295.591 33.7958C295.029 33.5413 294.561 33.1536 294.188 32.6328C293.821 32.112 293.638 31.455 293.638 30.6619V17.0966ZM301.797 34V20.3636H303.892V34H301.797ZM302.862 18.0909C302.453 18.0909 302.101 17.9518 301.805 17.6737C301.515 17.3955 301.37 17.0611 301.37 16.6705C301.37 16.2798 301.515 15.9454 301.805 15.6673C302.101 15.3891 302.453 15.25 302.862 15.25C303.27 15.25 303.619 15.3891 303.909 15.6673C304.205 15.9454 304.353 16.2798 304.353 16.6705C304.353 17.0611 304.205 17.3955 303.909 17.6737C303.619 17.9518 303.27 18.0909 302.862 18.0909ZM313.269 34.2841C312.038 34.2841 310.958 33.9911 310.028 33.4052C309.105 32.8192 308.383 31.9995 307.862 30.946C307.347 29.8925 307.09 28.6615 307.09 27.2528C307.09 25.8324 307.347 24.5924 307.862 23.533C308.383 22.4736 309.105 21.6509 310.028 21.065C310.958 20.479 312.038 20.1861 313.269 20.1861C314.5 20.1861 315.577 20.479 316.5 21.065C317.43 21.6509 318.152 22.4736 318.667 23.533C319.187 24.5924 319.448 25.8324 319.448 27.2528C319.448 28.6615 319.187 29.8925 318.667 30.946C318.152 31.9995 317.43 32.8192 316.5 33.4052C315.577 33.9911 314.5 34.2841 313.269 34.2841ZM313.269 32.402C314.204 32.402 314.973 32.1623 315.577 31.6829C316.181 31.2035 316.628 30.5732 316.918 29.7919C317.208 29.0107 317.353 28.1643 317.353 27.2528C317.353 26.3414 317.208 25.4921 316.918 24.7049C316.628 23.9177 316.181 23.2815 315.577 22.7962C314.973 22.3108 314.204 22.0682 313.269 22.0682C312.334 22.0682 311.564 22.3108 310.961 22.7962C310.357 23.2815 309.91 23.9177 309.62 24.7049C309.33 25.4921 309.185 26.3414 309.185 27.2528C309.185 28.1643 309.33 29.0107 309.62 29.7919C309.91 30.5732 310.357 31.2035 310.961 31.6829C311.564 32.1623 312.334 32.402 313.269 32.402ZM324.741 25.7969V34H322.646V20.3636H324.67V22.4943H324.848C325.167 21.8018 325.653 21.2455 326.304 20.8253C326.955 20.3991 327.795 20.1861 328.825 20.1861C329.748 20.1861 330.556 20.3755 331.249 20.7543C331.941 21.1271 332.48 21.6953 332.865 22.4588C333.249 23.2164 333.442 24.1752 333.442 25.3352V34H331.346V25.4773C331.346 24.406 331.068 23.5715 330.512 22.9737C329.956 22.37 329.192 22.0682 328.221 22.0682C327.553 22.0682 326.955 22.2132 326.428 22.5032C325.907 22.7932 325.496 23.2164 325.194 23.7727C324.892 24.3291 324.741 25.0038 324.741 25.7969Z" fill="black"/>
<path d="M122.604 732H120.295L126.972 713.818H129.244L135.92 732H133.612L128.179 716.695H128.037L122.604 732ZM123.456 724.898H132.76V726.851H123.456V724.898ZM140.564 713.818V732H138.468V713.818H140.564ZM150.118 732.284C148.804 732.284 147.671 731.994 146.718 731.414C145.771 730.828 145.04 730.011 144.525 728.964C144.016 727.91 143.762 726.685 143.762 725.288C143.762 723.892 144.016 722.661 144.525 721.595C145.04 720.524 145.756 719.689 146.674 719.092C147.597 718.488 148.674 718.186 149.905 718.186C150.616 718.186 151.317 718.304 152.009 718.541C152.702 718.778 153.332 719.163 153.9 719.695C154.468 720.222 154.921 720.92 155.259 721.79C155.596 722.661 155.765 723.732 155.765 725.004V725.892H145.253V724.081H153.634C153.634 723.312 153.48 722.625 153.172 722.021C152.87 721.418 152.438 720.941 151.876 720.592C151.32 720.243 150.663 720.068 149.905 720.068C149.071 720.068 148.349 720.275 147.739 720.69C147.135 721.098 146.671 721.631 146.345 722.288C146.02 722.945 145.857 723.649 145.857 724.401V725.608C145.857 726.638 146.035 727.511 146.39 728.227C146.751 728.937 147.251 729.479 147.89 729.852C148.529 730.219 149.272 730.402 150.118 730.402C150.669 730.402 151.166 730.325 151.61 730.171C152.06 730.011 152.447 729.775 152.773 729.461C153.098 729.141 153.35 728.745 153.527 728.271L155.552 728.839C155.339 729.526 154.98 730.13 154.477 730.651C153.974 731.165 153.353 731.568 152.613 731.858C151.873 732.142 151.042 732.284 150.118 732.284ZM148.84 716.517L151.006 712.398H153.456L150.687 716.517H148.84ZM162.965 732.32C162.1 732.32 161.316 732.157 160.612 731.831C159.908 731.5 159.348 731.023 158.934 730.402C158.52 729.775 158.313 729.017 158.313 728.129C158.313 727.348 158.466 726.715 158.774 726.229C159.082 725.738 159.493 725.353 160.008 725.075C160.523 724.797 161.091 724.59 161.713 724.454C162.34 724.312 162.97 724.199 163.604 724.116C164.432 724.01 165.104 723.93 165.619 723.877C166.14 723.818 166.519 723.72 166.755 723.584C166.998 723.448 167.119 723.211 167.119 722.874V722.803C167.119 721.927 166.88 721.246 166.4 720.761C165.927 720.275 165.208 720.033 164.243 720.033C163.243 720.033 162.459 720.252 161.89 720.69C161.322 721.128 160.923 721.595 160.692 722.092L158.703 721.382C159.058 720.554 159.532 719.908 160.124 719.447C160.721 718.979 161.372 718.654 162.077 718.47C162.787 718.281 163.485 718.186 164.172 718.186C164.61 718.186 165.113 718.239 165.681 718.346C166.255 718.446 166.809 718.657 167.341 718.976C167.88 719.296 168.327 719.778 168.682 720.423C169.037 721.068 169.215 721.933 169.215 723.016V732H167.119V730.153H167.013C166.871 730.449 166.634 730.766 166.303 731.103C165.971 731.441 165.53 731.728 164.98 731.964C164.429 732.201 163.758 732.32 162.965 732.32ZM163.284 730.438C164.113 730.438 164.811 730.275 165.379 729.949C165.953 729.624 166.386 729.203 166.676 728.689C166.971 728.174 167.119 727.632 167.119 727.064V725.146C167.031 725.253 166.835 725.35 166.533 725.439C166.238 725.522 165.894 725.596 165.504 725.661C165.119 725.72 164.743 725.774 164.376 725.821C164.015 725.862 163.722 725.898 163.497 725.928C162.953 725.999 162.444 726.114 161.97 726.274C161.503 726.428 161.124 726.661 160.834 726.975C160.55 727.283 160.408 727.703 160.408 728.236C160.408 728.964 160.677 729.514 161.216 729.887C161.76 730.254 162.45 730.438 163.284 730.438ZM178.969 718.364V720.139H171.902V718.364H178.969ZM173.962 715.097H176.057V728.094C176.057 728.686 176.143 729.129 176.315 729.425C176.492 729.715 176.717 729.911 176.989 730.011C177.268 730.106 177.56 730.153 177.868 730.153C178.099 730.153 178.288 730.142 178.436 730.118C178.584 730.088 178.703 730.065 178.792 730.047L179.218 731.929C179.076 731.982 178.877 732.036 178.623 732.089C178.368 732.148 178.046 732.178 177.655 732.178C177.063 732.178 176.483 732.05 175.915 731.796C175.353 731.541 174.885 731.154 174.512 730.633C174.145 730.112 173.962 729.455 173.962 728.662V715.097ZM187.514 732.284C186.283 732.284 185.203 731.991 184.274 731.405C183.35 730.819 182.628 730 182.107 728.946C181.593 727.893 181.335 726.661 181.335 725.253C181.335 723.832 181.593 722.592 182.107 721.533C182.628 720.474 183.35 719.651 184.274 719.065C185.203 718.479 186.283 718.186 187.514 718.186C188.745 718.186 189.822 718.479 190.746 719.065C191.675 719.651 192.397 720.474 192.912 721.533C193.433 722.592 193.693 723.832 193.693 725.253C193.693 726.661 193.433 727.893 192.912 728.946C192.397 730 191.675 730.819 190.746 731.405C189.822 731.991 188.745 732.284 187.514 732.284ZM187.514 730.402C188.449 730.402 189.219 730.162 189.822 729.683C190.426 729.203 190.873 728.573 191.163 727.792C191.453 727.011 191.598 726.164 191.598 725.253C191.598 724.341 191.453 723.492 191.163 722.705C190.873 721.918 190.426 721.281 189.822 720.796C189.219 720.311 188.449 720.068 187.514 720.068C186.579 720.068 185.809 720.311 185.206 720.796C184.602 721.281 184.155 721.918 183.865 722.705C183.575 723.492 183.43 724.341 183.43 725.253C183.43 726.164 183.575 727.011 183.865 727.792C184.155 728.573 184.602 729.203 185.206 729.683C185.809 730.162 186.579 730.402 187.514 730.402ZM196.891 732V718.364H198.986V732H196.891ZM197.957 716.091C197.548 716.091 197.196 715.952 196.9 715.674C196.61 715.395 196.465 715.061 196.465 714.67C196.465 714.28 196.61 713.945 196.9 713.667C197.196 713.389 197.548 713.25 197.957 713.25C198.365 713.25 198.714 713.389 199.004 713.667C199.3 713.945 199.448 714.28 199.448 714.67C199.448 715.061 199.3 715.395 199.004 715.674C198.714 715.952 198.365 716.091 197.957 716.091ZM202.824 732V718.364H204.848V720.423H204.99C205.239 719.749 205.688 719.201 206.339 718.781C206.991 718.361 207.724 718.151 208.541 718.151C208.695 718.151 208.887 718.154 209.118 718.159C209.349 718.165 209.524 718.174 209.642 718.186V720.317C209.571 720.299 209.408 720.272 209.154 720.237C208.905 720.195 208.642 720.175 208.364 720.175C207.701 720.175 207.109 720.314 206.588 720.592C206.073 720.864 205.665 721.243 205.363 721.728C205.067 722.208 204.919 722.755 204.919 723.371V732H202.824ZM217.428 732.284C216.114 732.284 214.981 731.994 214.028 731.414C213.081 730.828 212.35 730.011 211.835 728.964C211.326 727.91 211.071 726.685 211.071 725.288C211.071 723.892 211.326 722.661 211.835 721.595C212.35 720.524 213.066 719.689 213.983 719.092C214.907 718.488 215.984 718.186 217.215 718.186C217.925 718.186 218.626 718.304 219.319 718.541C220.011 718.778 220.642 719.163 221.21 719.695C221.778 720.222 222.231 720.92 222.568 721.79C222.906 722.661 223.074 723.732 223.074 725.004V725.892H212.563V724.081H220.944C220.944 723.312 220.79 722.625 220.482 722.021C220.18 721.418 219.748 720.941 219.186 720.592C218.629 720.243 217.972 720.068 217.215 720.068C216.38 720.068 215.658 720.275 215.049 720.69C214.445 721.098 213.98 721.631 213.655 722.288C213.329 722.945 213.167 723.649 213.167 724.401V725.608C213.167 726.638 213.344 727.511 213.699 728.227C214.06 728.937 214.56 729.479 215.2 729.852C215.839 730.219 216.582 730.402 217.428 730.402C217.978 730.402 218.475 730.325 218.919 730.171C219.369 730.011 219.757 729.775 220.082 729.461C220.408 729.141 220.659 728.745 220.837 728.271L222.861 728.839C222.648 729.526 222.29 730.13 221.787 730.651C221.284 731.165 220.662 731.568 219.923 731.858C219.183 732.142 218.351 732.284 217.428 732.284Z" fill="black"/>
<path d="M98.1322 784.709C98.5255 785.097 99.1586 785.093 99.5464 784.699L105.866 778.292C106.254 777.898 106.25 777.265 105.857 776.877C105.463 776.49 104.83 776.494 104.442 776.887L98.8247 782.583L93.129 776.965C92.7358 776.577 92.1026 776.582 91.7148 776.975C91.327 777.368 91.3313 778.001 91.7246 778.389L98.1322 784.709ZM97 663.007L97.0348 668.048L99.0347 668.035L99 662.993L97 663.007ZM97.1043 678.132L97.1739 688.215L99.1738 688.201L99.1043 678.118L97.1043 678.132ZM97.2434 698.298L97.3129 708.381L99.3129 708.367L99.2434 698.284L97.2434 698.298ZM97.3825 718.464L97.452 728.547L99.452 728.533L99.3824 718.45L97.3825 718.464ZM97.5216 738.63L97.5911 748.713L99.5911 748.699L99.5215 738.616L97.5216 738.63ZM97.6606 758.796L97.7302 768.879L99.7301 768.866L99.6606 758.782L97.6606 758.796ZM97.7997 778.962L97.8345 784.004L99.8344 783.99L99.7997 778.949L97.7997 778.962ZM98.1322 784.709C98.5255 785.097 99.1586 785.093 99.5464 784.699L105.866 778.292C106.254 777.898 106.25 777.265 105.857 776.877C105.463 776.49 104.83 776.494 104.442 776.887L98.8247 782.583L93.129 776.965C92.7358 776.577 92.1026 776.582 91.7148 776.975C91.327 777.368 91.3313 778.001 91.7246 778.389L98.1322 784.709ZM97 663.007L97.0348 668.048L99.0347 668.035L99 662.993L97 663.007ZM97.1043 678.132L97.1739 688.215L99.1738 688.201L99.1043 678.118L97.1043 678.132ZM97.2434 698.298L97.3129 708.381L99.3129 708.367L99.2434 698.284L97.2434 698.298ZM97.3825 718.464L97.452 728.547L99.452 728.533L99.3824 718.45L97.3825 718.464ZM97.5216 738.63L97.5911 748.713L99.5911 748.699L99.5215 738.616L97.5216 738.63ZM97.6606 758.796L97.7302 768.879L99.7301 768.866L99.6606 758.782L97.6606 758.796ZM97.7997 778.962L97.8345 784.004L99.8344 783.99L99.7997 778.949L97.7997 778.962Z" fill="black"/>
</svg>
